# MagicaVoxel @ Ephtracy

# material
mtllib Floor 5.mtl
usemtl palette

# normals
vn -1 0 0
vn 1 0 0
vn 0 0 1
vn 0 0 -1
vn 0 -1 0
vn 0 1 0

# texcoords
vt 0.0644531 0.5
vt 0.0683594 0.5
vt 0.0722656 0.5

# verts
v -5 0 5
v -5 0 -5
v -5 8 5
v -5 8 3
v -5 9 3
v -5 9 -0
v -5 9 -1
v -5 9 -3
v -5 9 -4
v -5 10 3
v -5 10 -0
v -5 10 -1
v -5 10 -3
v -5 10 -4
v -5 10 -5
v -4 9 -0
v -4 9 -1
v -4 9 -3
v -4 9 -4
v -4 10 -0
v -4 10 -1
v -4 10 -3
v -4 10 -4
v -3 8 5
v -3 8 3
v -3 9 5
v -3 9 3
v -3 9 2
v -3 9 -2
v -3 9 -3
v -3 10 5
v -3 10 2
v -3 10 -2
v -3 10 -3
v -2 9 -1
v -2 9 -2
v -2 10 -1
v -2 10 -2
v 0 9 1
v 0 9 -0
v 0 10 1
v 0 10 -0
v 1 9 2
v 1 9 1
v 1 9 -0
v 1 9 -1
v 1 10 2
v 1 10 1
v 1 10 -0
v 1 10 -1
v 2 9 3
v 2 9 2
v 2 9 -1
v 2 9 -3
v 2 9 -4
v 2 10 3
v 2 10 2
v 2 10 -1
v 2 10 -3
v 2 10 -4
v 3 9 5
v 3 9 4
v 3 10 5
v 3 10 4
v 4 9 -3
v 4 9 -4
v 4 10 -3
v 4 10 -4
v -4 9 3
v -4 9 2
v -4 9 -2
v -4 9 -3
v -4 10 3
v -4 10 2
v -4 10 -2
v -4 10 -3
v -3 9 1
v -3 9 -0
v -3 9 -1
v -3 9 -2
v -3 9 -4
v -3 9 -5
v -3 10 1
v -3 10 -0
v -3 10 -1
v -3 10 -2
v -3 10 -4
v -3 10 -5
v -2 9 2
v -2 9 1
v -2 9 -2
v -2 9 -3
v -2 9 -4
v -2 10 2
v -2 10 1
v -2 10 -2
v -2 10 -3
v -2 10 -4
v -1 9 -0
v -1 9 -2
v -1 10 -0
v -1 10 -2
v 1 9 3
v 1 9 2
v 1 10 3
v 1 10 2
v 2 9 5
v 2 9 4
v 2 10 5
v 2 10 4
v 3 9 -3
v 3 9 -4
v 3 10 -3
v 3 10 -4
v 5 0 5
v 5 0 -5
v 5 9 -4
v 5 9 -5
v 5 10 5
v 5 10 -4
v -5 0 5
v -5 8 5
v -3 8 5
v -3 9 5
v -3 10 5
v 2 9 5
v 2 10 5
v 3 9 5
v 3 10 5
v 4 9 5
v 4 10 5
v 5 0 5
v 5 10 5
v 2 9 4
v 2 10 4
v 3 9 4
v 3 10 4
v -5 8 3
v -5 9 3
v -5 10 3
v -4 9 3
v -4 10 3
v -3 8 3
v -3 9 3
v -4 9 2
v -4 10 2
v -3 9 2
v -3 10 2
v 1 9 2
v 1 10 2
v 2 9 2
v 2 10 2
v 0 9 1
v 0 10 1
v 1 9 1
v 1 10 1
v -3 9 -0
v -3 10 -0
v -1 9 -0
v -1 10 -0
v -5 9 -1
v -5 10 -1
v -4 9 -1
v -4 10 -1
v -3 9 -2
v -3 10 -2
v -2 9 -2
v -2 10 -2
v -4 9 -3
v -4 10 -3
v -3 9 -3
v -3 10 -3
v -5 9 -4
v -5 10 -4
v -4 9 -4
v -4 10 -4
v 1 9 3
v 1 10 3
v 2 9 3
v 2 10 3
v -2 9 2
v -2 10 2
v 1 9 2
v 1 10 2
v -3 9 1
v -3 10 1
v -2 9 1
v -2 10 1
v -5 9 -0
v -5 10 -0
v -4 9 -0
v -4 10 -0
v 0 9 -0
v 0 10 -0
v 1 9 -0
v 1 10 -0
v -3 9 -1
v -3 10 -1
v -2 9 -1
v -2 10 -1
v 1 9 -1
v 1 10 -1
v 2 9 -1
v 2 10 -1
v -4 9 -2
v -4 10 -2
v -3 9 -2
v -3 10 -2
v -2 9 -2
v -2 10 -2
v -1 9 -2
v -1 10 -2
v -5 9 -3
v -5 10 -3
v -4 9 -3
v -4 10 -3
v 3 9 -3
v 3 10 -3
v 4 9 -3
v 4 10 -3
v -3 9 -4
v -3 10 -4
v -2 9 -4
v -2 10 -4
v 2 9 -4
v 2 10 -4
v 3 9 -4
v 3 10 -4
v 4 9 -4
v 4 10 -4
v 5 9 -4
v 5 10 -4
v -5 0 -5
v -5 10 -5
v -3 9 -5
v -3 10 -5
v 5 0 -5
v 5 9 -5
v -5 0 5
v 5 0 5
v -5 0 -5
v 5 0 -5
v -5 8 5
v -3 8 5
v -5 8 3
v -3 8 3
v 2 9 5
v 3 9 5
v 2 9 4
v 3 9 4
v -4 9 3
v -3 9 3
v 1 9 3
v 2 9 3
v -4 9 2
v -3 9 2
v -2 9 2
v 1 9 2
v 2 9 2
v -3 9 1
v -2 9 1
v 0 9 1
v 1 9 1
v -5 9 -0
v -4 9 -0
v -3 9 -0
v -1 9 -0
v 0 9 -0
v 1 9 -0
v -5 9 -1
v -4 9 -1
v -3 9 -1
v -2 9 -1
v 1 9 -1
v 2 9 -1
v -4 9 -2
v -3 9 -2
v -2 9 -2
v -1 9 -2
v -5 9 -3
v -4 9 -3
v -3 9 -3
v -2 9 -3
v 2 9 -3
v 3 9 -3
v 4 9 -3
v -5 9 -4
v -4 9 -4
v -3 9 -4
v -2 9 -4
v 2 9 -4
v 3 9 -4
v 4 9 -4
v 5 9 -4
v -3 9 -5
v 5 9 -5
v -3 10 5
v 2 10 5
v 3 10 5
v 4 10 5
v 5 10 5
v 2 10 4
v 3 10 4
v -5 10 3
v -4 10 3
v 1 10 3
v 2 10 3
v -4 10 2
v -3 10 2
v -2 10 2
v 1 10 2
v 2 10 2
v -3 10 1
v -2 10 1
v 0 10 1
v 1 10 1
v -5 10 -0
v -4 10 -0
v -3 10 -0
v -1 10 -0
v 0 10 -0
v 1 10 -0
v -5 10 -1
v -4 10 -1
v -3 10 -1
v -2 10 -1
v 1 10 -1
v 2 10 -1
v -4 10 -2
v -3 10 -2
v -2 10 -2
v -1 10 -2
v -5 10 -3
v -4 10 -3
v -3 10 -3
v -2 10 -3
v 2 10 -3
v 3 10 -3
v 4 10 -3
v -5 10 -4
v -4 10 -4
v -3 10 -4
v -2 10 -4
v 2 10 -4
v 3 10 -4
v 4 10 -4
v 5 10 -4
v -5 10 -5
v -3 10 -5

# faces
f 3/3/1 2/3/1 1/3/1
f 4/3/1 2/3/1 3/3/1
f 5/3/1 2/3/1 4/3/1
f 6/3/1 2/3/1 5/3/1
f 7/3/1 2/3/1 6/3/1
f 8/3/1 2/3/1 7/3/1
f 9/3/1 2/3/1 8/3/1
f 10/1/1 6/1/1 5/1/1
f 11/1/1 6/1/1 10/1/1
f 12/1/1 8/1/1 7/1/1
f 13/1/1 8/1/1 12/1/1
f 14/3/1 2/3/1 9/3/1
f 15/3/1 2/3/1 14/3/1
f 20/1/1 17/1/1 16/1/1
f 21/1/1 17/1/1 20/1/1
f 22/1/1 19/1/1 18/1/1
f 23/1/1 19/1/1 22/1/1
f 26/3/1 25/3/1 24/3/1
f 27/3/1 25/3/1 26/3/1
f 31/2/1 27/2/1 26/2/1
f 31/2/1 28/2/1 27/2/1
f 32/2/1 28/2/1 31/2/1
f 33/2/1 30/2/1 29/2/1
f 34/2/1 30/2/1 33/2/1
f 37/1/1 36/1/1 35/1/1
f 38/1/1 36/1/1 37/1/1
f 41/2/1 40/2/1 39/2/1
f 42/2/1 40/2/1 41/2/1
f 47/2/1 44/2/1 43/2/1
f 48/2/1 44/2/1 47/2/1
f 49/2/1 46/2/1 45/2/1
f 50/2/1 46/2/1 49/2/1
f 56/2/1 52/2/1 51/2/1
f 57/2/1 52/2/1 56/2/1
f 58/2/1 54/2/1 53/2/1
f 59/1/1 55/1/1 54/1/1
f 59/2/1 54/2/1 58/2/1
f 60/1/1 55/1/1 59/1/1
f 63/1/1 62/1/1 61/1/1
f 64/1/1 62/1/1 63/1/1
f 67/3/1 66/3/1 65/3/1
f 68/3/1 66/3/1 67/3/1
f 69/1/2 70/1/2 73/1/2
f 73/1/2 70/1/2 74/1/2
f 71/1/2 72/1/2 75/1/2
f 75/1/2 72/1/2 76/1/2
f 77/1/2 78/1/2 83/1/2
f 83/1/2 78/1/2 84/1/2
f 79/1/2 80/1/2 85/1/2
f 85/1/2 80/1/2 86/1/2
f 81/3/2 82/3/2 87/3/2
f 87/3/2 82/3/2 88/3/2
f 89/1/2 90/1/2 94/1/2
f 94/1/2 90/1/2 95/1/2
f 91/2/2 92/2/2 96/2/2
f 92/1/2 93/1/2 97/1/2
f 96/2/2 92/2/2 97/2/2
f 97/1/2 93/1/2 98/1/2
f 99/1/2 100/1/2 101/1/2
f 101/1/2 100/1/2 102/1/2
f 103/2/2 104/2/2 105/2/2
f 105/2/2 104/2/2 106/2/2
f 107/2/2 108/2/2 109/2/2
f 109/2/2 108/2/2 110/2/2
f 111/1/2 112/1/2 113/1/2
f 113/1/2 112/1/2 114/1/2
f 115/3/2 116/3/2 117/3/2
f 117/3/2 116/3/2 118/3/2
f 115/3/2 117/3/2 119/3/2
f 119/3/2 117/3/2 120/3/2
f 123/3/3 122/3/3 121/3/3
f 126/3/3 124/3/3 123/3/3
f 126/2/3 125/2/3 124/2/3
f 127/2/3 125/2/3 126/2/3
f 128/3/3 126/3/3 123/3/3
f 130/3/3 128/3/3 123/3/3
f 130/1/3 129/1/3 128/1/3
f 131/1/3 129/1/3 130/1/3
f 132/3/3 123/3/3 121/3/3
f 132/3/3 130/3/3 123/3/3
f 132/3/3 131/3/3 130/3/3
f 133/3/3 131/3/3 132/3/3
f 136/2/3 135/2/3 134/2/3
f 137/2/3 135/2/3 136/2/3
f 141/3/3 139/3/3 138/3/3
f 141/1/3 140/1/3 139/1/3
f 142/1/3 140/1/3 141/1/3
f 143/3/3 141/3/3 138/3/3
f 144/3/3 141/3/3 143/3/3
f 147/1/3 146/1/3 145/1/3
f 148/1/3 146/1/3 147/1/3
f 151/2/3 150/2/3 149/2/3
f 152/2/3 150/2/3 151/2/3
f 155/2/3 154/2/3 153/2/3
f 156/2/3 154/2/3 155/2/3
f 159/1/3 158/1/3 157/1/3
f 160/1/3 158/1/3 159/1/3
f 163/1/3 162/1/3 161/1/3
f 164/1/3 162/1/3 163/1/3
f 167/2/3 166/2/3 165/2/3
f 168/2/3 166/2/3 167/2/3
f 171/1/3 170/1/3 169/1/3
f 172/1/3 170/1/3 171/1/3
f 175/3/3 174/3/3 173/3/3
f 176/3/3 174/3/3 175/3/3
f 177/2/4 178/2/4 179/2/4
f 179/2/4 178/2/4 180/2/4
f 181/2/4 182/2/4 183/2/4
f 183/2/4 182/2/4 184/2/4
f 185/1/4 186/1/4 187/1/4
f 187/1/4 186/1/4 188/1/4
f 189/1/4 190/1/4 191/1/4
f 191/1/4 190/1/4 192/1/4
f 193/2/4 194/2/4 195/2/4
f 195/2/4 194/2/4 196/2/4
f 197/1/4 198/1/4 199/1/4
f 199/1/4 198/1/4 200/1/4
f 201/2/4 202/2/4 203/2/4
f 203/2/4 202/2/4 204/2/4
f 205/1/4 206/1/4 207/1/4
f 207/1/4 206/1/4 208/1/4
f 209/1/4 210/1/4 211/1/4
f 211/1/4 210/1/4 212/1/4
f 213/1/4 214/1/4 215/1/4
f 215/1/4 214/1/4 216/1/4
f 217/1/4 218/1/4 219/1/4
f 219/1/4 218/1/4 220/1/4
f 221/1/4 222/1/4 223/1/4
f 223/1/4 222/1/4 224/1/4
f 225/1/4 226/1/4 227/1/4
f 227/1/4 226/1/4 228/1/4
f 229/3/4 230/3/4 231/3/4
f 231/3/4 230/3/4 232/3/4
f 233/3/4 234/3/4 235/3/4
f 235/3/4 234/3/4 236/3/4
f 233/3/4 235/3/4 237/3/4
f 237/3/4 235/3/4 238/3/4
f 241/3/5 240/3/5 239/3/5
f 242/3/5 240/3/5 241/3/5
f 243/3/6 244/3/6 245/3/6
f 245/3/6 244/3/6 246/3/6
f 247/3/6 248/3/6 249/3/6
f 249/3/6 248/3/6 250/3/6
f 251/3/6 252/3/6 255/3/6
f 255/3/6 252/3/6 256/3/6
f 253/3/6 254/3/6 258/3/6
f 258/3/6 254/3/6 259/3/6
f 257/3/6 258/3/6 261/3/6
f 261/3/6 258/3/6 262/3/6
f 262/3/6 258/3/6 263/3/6
f 260/3/6 261/3/6 266/3/6
f 261/3/6 262/3/6 266/3/6
f 266/3/6 262/3/6 267/3/6
f 267/3/6 262/3/6 268/3/6
f 264/3/6 265/3/6 270/3/6
f 270/3/6 265/3/6 271/3/6
f 268/3/6 269/3/6 274/3/6
f 267/3/6 268/3/6 274/3/6
f 272/3/6 273/3/6 277/3/6
f 277/3/6 273/3/6 278/3/6
f 267/3/6 274/3/6 279/3/6
f 274/3/6 275/3/6 279/3/6
f 276/3/6 277/3/6 281/3/6
f 281/3/6 277/3/6 282/3/6
f 278/3/6 279/3/6 283/3/6
f 279/3/6 275/3/6 284/3/6
f 283/3/6 279/3/6 284/3/6
f 280/3/6 281/3/6 287/3/6
f 287/3/6 281/3/6 288/3/6
f 283/3/6 284/3/6 290/3/6
f 290/3/6 284/3/6 291/3/6
f 285/3/6 286/3/6 292/3/6
f 292/3/6 286/3/6 293/3/6
f 290/3/6 291/3/6 295/3/6
f 293/3/6 294/3/6 295/3/6
f 292/3/6 293/3/6 295/3/6
f 291/3/6 292/3/6 295/3/6
f 289/3/6 290/3/6 295/3/6
f 295/3/6 294/3/6 296/3/6
f 297/2/6 298/2/6 302/2/6
f 299/1/6 300/1/6 303/1/6
f 297/2/6 302/2/6 306/2/6
f 302/2/6 303/2/6 306/2/6
f 306/2/6 303/2/6 307/2/6
f 304/1/6 305/1/6 308/1/6
f 297/2/6 306/2/6 309/2/6
f 309/2/6 306/2/6 310/2/6
f 310/2/6 306/2/6 311/2/6
f 307/2/6 303/2/6 312/2/6
f 308/1/6 309/1/6 313/1/6
f 309/1/6 310/1/6 313/1/6
f 313/1/6 310/1/6 314/1/6
f 311/2/6 312/2/6 316/2/6
f 304/1/6 308/1/6 317/1/6
f 308/1/6 313/1/6 317/1/6
f 317/1/6 313/1/6 318/1/6
f 318/1/6 313/1/6 319/1/6
f 315/2/6 316/2/6 321/2/6
f 316/2/6 312/2/6 322/2/6
f 321/2/6 316/2/6 322/2/6
f 319/1/6 320/1/6 324/1/6
f 318/1/6 319/1/6 324/1/6
f 324/1/6 320/1/6 325/1/6
f 325/1/6 320/1/6 326/1/6
f 322/2/6 312/2/6 327/2/6
f 312/2/6 303/2/6 328/2/6
f 327/2/6 312/2/6 328/2/6
f 323/1/6 324/1/6 329/1/6
f 324/1/6 325/1/6 329/1/6
f 329/1/6 325/1/6 330/1/6
f 326/1/6 320/1/6 331/1/6
f 331/1/6 320/1/6 332/1/6
f 323/1/6 329/1/6 333/1/6
f 333/1/6 329/1/6 334/1/6
f 330/2/6 331/2/6 335/2/6
f 335/2/6 331/2/6 336/2/6
f 328/2/6 303/2/6 337/2/6
f 303/1/6 300/1/6 338/1/6
f 337/2/6 303/2/6 338/2/6
f 300/3/6 301/3/6 339/3/6
f 338/1/6 300/1/6 339/1/6
f 335/1/6 336/1/6 341/1/6
f 334/1/6 335/1/6 341/1/6
f 341/1/6 336/1/6 342/1/6
f 342/1/6 336/1/6 343/1/6
f 337/1/6 338/1/6 344/1/6
f 344/1/6 338/1/6 345/1/6
f 339/3/6 301/3/6 346/3/6
f 346/3/6 301/3/6 347/3/6
f 340/3/6 341/3/6 348/3/6
f 341/3/6 342/3/6 348/3/6
f 348/3/6 342/3/6 349/3/6
