# MagicaVoxel @ Ephtracy

# material
mtllib Floor 7.mtl
usemtl palette

# normals
vn -1 0 0
vn 1 0 0
vn 0 0 1
vn 0 0 -1
vn 0 -1 0
vn 0 1 0

# texcoords
vt 0.0644531 0.5
vt 0.0683594 0.5
vt 0.0722656 0.5

# verts
v -5 0 5
v -5 0 -5
v -5 9 5
v -5 9 4
v -5 9 -1
v -5 9 -2
v -5 9 -4
v -5 10 4
v -5 10 -1
v -5 10 -2
v -5 10 -4
v -5 10 -5
v -4 9 5
v -4 9 4
v -4 10 5
v -4 10 4
v -3 9 -1
v -3 9 -2
v -3 9 -3
v -3 9 -4
v -3 10 -1
v -3 10 -2
v -3 10 -3
v -3 10 -4
v -2 9 4
v -2 9 3
v -2 9 -2
v -2 9 -3
v -2 10 4
v -2 10 3
v -2 10 -2
v -2 10 -3
v -1 9 3
v -1 9 2
v -1 10 3
v -1 10 2
v 0 9 -0
v 0 9 -1
v 0 10 -0
v 0 10 -1
v 1 9 2
v 1 9 1
v 1 9 -3
v 1 9 -4
v 1 10 2
v 1 10 1
v 1 10 -3
v 1 10 -4
v 2 9 3
v 2 9 2
v 2 9 1
v 2 9 -0
v 2 9 -1
v 2 9 -2
v 2 10 3
v 2 10 2
v 2 10 1
v 2 10 -0
v 2 10 -1
v 2 10 -2
v 3 9 4
v 3 9 3
v 3 9 -0
v 3 9 -1
v 3 9 -2
v 3 9 -3
v 3 10 4
v 3 10 3
v 3 10 -0
v 3 10 -1
v 3 10 -2
v 3 10 -3
v 4 9 1
v 4 9 -0
v 4 9 -3
v 4 9 -4
v 4 10 1
v 4 10 -0
v 4 10 -3
v 4 10 -4
v -4 9 -3
v -4 9 -4
v -4 10 -3
v -4 10 -4
v -3 9 4
v -3 9 3
v -3 9 -0
v -3 9 -1
v -3 9 -2
v -3 9 -3
v -3 10 4
v -3 10 3
v -3 10 -0
v -3 10 -1
v -3 10 -2
v -3 10 -3
v -2 9 3
v -2 9 2
v -2 9 1
v -2 9 -0
v -2 10 3
v -2 10 2
v -2 10 1
v -2 10 -0
v -1 9 2
v -1 9 1
v -1 9 -1
v -1 9 -2
v -1 10 2
v -1 10 1
v -1 10 -1
v -1 10 -2
v 0 9 -3
v 0 9 -4
v 0 10 -3
v 0 10 -4
v 1 9 3
v 1 9 2
v 1 9 -0
v 1 9 -1
v 1 10 3
v 1 10 2
v 1 10 -0
v 1 10 -1
v 2 9 4
v 2 9 3
v 2 9 -2
v 2 9 -3
v 2 10 4
v 2 10 3
v 2 10 -2
v 2 10 -3
v 3 9 5
v 3 9 4
v 3 9 1
v 3 9 -0
v 3 9 -3
v 3 9 -4
v 3 9 -5
v 3 10 5
v 3 10 4
v 3 10 1
v 3 10 -0
v 3 10 -3
v 3 10 -4
v 3 10 -5
v 4 9 4
v 4 9 1
v 4 9 -1
v 4 9 -3
v 4 10 4
v 4 10 1
v 4 10 -1
v 4 10 -3
v 5 0 5
v 5 0 -5
v 5 9 5
v 5 9 1
v 5 9 -1
v 5 9 -3
v 5 9 -4
v 5 9 -5
v 5 10 1
v 5 10 -1
v 5 10 -3
v 5 10 -4
v -5 0 5
v -5 9 5
v -4 9 5
v -4 10 5
v 3 9 5
v 3 10 5
v 5 0 5
v 5 9 5
v -5 9 4
v -5 10 4
v -4 9 4
v -4 10 4
v 3 9 4
v 3 10 4
v 4 9 4
v 4 10 4
v -3 9 3
v -3 10 3
v -2 9 3
v -2 10 3
v 2 9 3
v 2 10 3
v 3 9 3
v 3 10 3
v -2 9 2
v -2 10 2
v -1 9 2
v -1 10 2
v 1 9 2
v 1 10 2
v 2 9 2
v 2 10 2
v 4 9 1
v 4 10 1
v 5 9 1
v 5 10 1
v 0 9 -0
v 0 10 -0
v 1 9 -0
v 1 10 -0
v 3 9 -0
v 3 10 -0
v 4 9 -0
v 4 10 -0
v -3 9 -1
v -3 10 -1
v -1 9 -1
v -1 10 -1
v 2 9 -1
v 2 10 -1
v 3 9 -1
v 3 10 -1
v -5 9 -2
v -5 10 -2
v -3 9 -2
v -3 10 -2
v -1 9 -2
v -1 10 -2
v 2 9 -2
v 2 10 -2
v -3 9 -3
v -3 10 -3
v -2 9 -3
v -2 10 -3
v 2 9 -3
v 2 10 -3
v 3 9 -3
v 3 10 -3
v 4 9 -3
v 4 10 -3
v 5 9 -3
v 5 10 -3
v -4 9 -4
v -4 10 -4
v -3 9 -4
v -3 10 -4
v 0 9 -4
v 0 10 -4
v 1 9 -4
v 1 10 -4
v -3 9 4
v -3 10 4
v -2 9 4
v -2 10 4
v 2 9 4
v 2 10 4
v 3 9 4
v 3 10 4
v -2 9 3
v -2 10 3
v -1 9 3
v -1 10 3
v 1 9 3
v 1 10 3
v 2 9 3
v 2 10 3
v -1 9 2
v -1 10 2
v 0 9 2
v 0 10 2
v 1 9 2
v 1 10 2
v -2 9 1
v -2 10 1
v -1 9 1
v -1 10 1
v 1 9 1
v 1 10 1
v 2 9 1
v 2 10 1
v 3 9 1
v 3 10 1
v 4 9 1
v 4 10 1
v -3 9 -0
v -3 10 -0
v -2 9 -0
v -2 10 -0
v 2 9 -0
v 2 10 -0
v 3 9 -0
v 3 10 -0
v -5 9 -1
v -5 10 -1
v -3 9 -1
v -3 10 -1
v 0 9 -1
v 0 10 -1
v 1 9 -1
v 1 10 -1
v 4 9 -1
v 4 10 -1
v 5 9 -1
v 5 10 -1
v -3 9 -2
v -3 10 -2
v -2 9 -2
v -2 10 -2
v 2 9 -2
v 2 10 -2
v 3 9 -2
v 3 10 -2
v -4 9 -3
v -4 10 -3
v -3 9 -3
v -3 10 -3
v 0 9 -3
v 0 10 -3
v 1 9 -3
v 1 10 -3
v 3 9 -3
v 3 10 -3
v 4 9 -3
v 4 10 -3
v 4 9 -4
v 4 10 -4
v 5 9 -4
v 5 10 -4
v -5 0 -5
v -5 10 -5
v 3 9 -5
v 3 10 -5
v 5 0 -5
v 5 9 -5
v -5 0 5
v 5 0 5
v -5 0 -5
v 5 0 -5
v -5 9 5
v -4 9 5
v 3 9 5
v 5 9 5
v -5 9 4
v -4 9 4
v -3 9 4
v -2 9 4
v 2 9 4
v 3 9 4
v 4 9 4
v -3 9 3
v -2 9 3
v -1 9 3
v 1 9 3
v 2 9 3
v 3 9 3
v -2 9 2
v -1 9 2
v 0 9 2
v 1 9 2
v 2 9 2
v -2 9 1
v -1 9 1
v 1 9 1
v 2 9 1
v 3 9 1
v 4 9 1
v 5 9 1
v -3 9 -0
v -2 9 -0
v 0 9 -0
v 1 9 -0
v 2 9 -0
v 3 9 -0
v 4 9 -0
v -5 9 -1
v -3 9 -1
v -1 9 -1
v 0 9 -1
v 1 9 -1
v 2 9 -1
v 3 9 -1
v 4 9 -1
v 5 9 -1
v -5 9 -2
v -3 9 -2
v -2 9 -2
v -1 9 -2
v 2 9 -2
v 3 9 -2
v -4 9 -3
v -3 9 -3
v -2 9 -3
v 0 9 -3
v 1 9 -3
v 2 9 -3
v 3 9 -3
v 4 9 -3
v 5 9 -3
v -4 9 -4
v -3 9 -4
v 0 9 -4
v 1 9 -4
v 3 9 -4
v 4 9 -4
v 5 9 -4
v 3 9 -5
v 5 9 -5
v -4 10 5
v 3 10 5
v -5 10 4
v -4 10 4
v -3 10 4
v -2 10 4
v 2 10 4
v 3 10 4
v 4 10 4
v -3 10 3
v -2 10 3
v -1 10 3
v 0 10 3
v 1 10 3
v 2 10 3
v 3 10 3
v -4 10 2
v -2 10 2
v -1 10 2
v 0 10 2
v 1 10 2
v 2 10 2
v -2 10 1
v -1 10 1
v 1 10 1
v 2 10 1
v 3 10 1
v 4 10 1
v 5 10 1
v -3 10 -0
v -2 10 -0
v 0 10 -0
v 1 10 -0
v 2 10 -0
v 3 10 -0
v 4 10 -0
v -5 10 -1
v -3 10 -1
v -1 10 -1
v 0 10 -1
v 1 10 -1
v 2 10 -1
v 3 10 -1
v 4 10 -1
v 5 10 -1
v -5 10 -2
v -3 10 -2
v -2 10 -2
v -1 10 -2
v 2 10 -2
v 3 10 -2
v -4 10 -3
v -3 10 -3
v -2 10 -3
v 0 10 -3
v 1 10 -3
v 2 10 -3
v 3 10 -3
v 4 10 -3
v 5 10 -3
v -5 10 -4
v -4 10 -4
v -3 10 -4
v 0 10 -4
v 1 10 -4
v 3 10 -4
v 4 10 -4
v 5 10 -4
v -5 10 -5
v 3 10 -5

# faces
f 3/3/1 2/3/1 1/3/1
f 4/3/1 2/3/1 3/3/1
f 5/3/1 2/3/1 4/3/1
f 6/3/1 2/3/1 5/3/1
f 7/3/1 2/3/1 6/3/1
f 8/2/1 5/2/1 4/2/1
f 9/2/1 5/2/1 8/2/1
f 10/2/1 7/2/1 6/2/1
f 11/3/1 2/3/1 7/3/1
f 11/2/1 7/2/1 10/2/1
f 12/3/1 2/3/1 11/3/1
f 15/2/1 14/2/1 13/2/1
f 16/2/1 14/2/1 15/2/1
f 21/2/1 18/2/1 17/2/1
f 22/2/1 18/2/1 21/2/1
f 23/1/1 20/1/1 19/1/1
f 24/1/1 20/1/1 23/1/1
f 29/1/1 26/1/1 25/1/1
f 30/1/1 26/1/1 29/1/1
f 31/2/1 28/2/1 27/2/1
f 32/2/1 28/2/1 31/2/1
f 35/2/1 34/2/1 33/2/1
f 36/2/1 34/2/1 35/2/1
f 39/2/1 38/2/1 37/2/1
f 40/2/1 38/2/1 39/2/1
f 45/1/1 42/1/1 41/1/1
f 46/1/1 42/1/1 45/1/1
f 47/1/1 44/1/1 43/1/1
f 48/1/1 44/1/1 47/1/1
f 55/1/1 50/1/1 49/1/1
f 56/1/1 50/1/1 55/1/1
f 57/1/1 52/1/1 51/1/1
f 58/1/1 52/1/1 57/1/1
f 59/1/1 54/1/1 53/1/1
f 60/1/1 54/1/1 59/1/1
f 67/1/1 62/1/1 61/1/1
f 68/1/1 62/1/1 67/1/1
f 69/1/1 64/1/1 63/1/1
f 70/1/1 64/1/1 69/1/1
f 71/1/1 66/1/1 65/1/1
f 72/1/1 66/1/1 71/1/1
f 77/3/1 74/3/1 73/3/1
f 78/3/1 74/3/1 77/3/1
f 79/3/1 76/3/1 75/3/1
f 80/3/1 76/3/1 79/3/1
f 81/2/2 82/2/2 83/2/2
f 83/2/2 82/2/2 84/2/2
f 85/1/2 86/1/2 91/1/2
f 91/1/2 86/1/2 92/1/2
f 87/2/2 88/2/2 93/2/2
f 93/2/2 88/2/2 94/2/2
f 89/2/2 90/2/2 95/2/2
f 95/2/2 90/2/2 96/2/2
f 97/1/2 98/1/2 101/1/2
f 101/1/2 98/1/2 102/1/2
f 99/2/2 100/2/2 103/2/2
f 103/2/2 100/2/2 104/2/2
f 105/2/2 106/2/2 109/2/2
f 109/2/2 106/2/2 110/2/2
f 107/2/2 108/2/2 111/2/2
f 111/2/2 108/2/2 112/2/2
f 113/1/2 114/1/2 115/1/2
f 115/1/2 114/1/2 116/1/2
f 117/1/2 118/1/2 121/1/2
f 121/1/2 118/1/2 122/1/2
f 119/2/2 120/2/2 123/2/2
f 123/2/2 120/2/2 124/2/2
f 125/1/2 126/1/2 129/1/2
f 129/1/2 126/1/2 130/1/2
f 127/2/2 128/2/2 131/2/2
f 131/2/2 128/2/2 132/2/2
f 133/2/2 134/2/2 140/2/2
f 140/2/2 134/2/2 141/2/2
f 135/1/2 136/1/2 142/1/2
f 142/1/2 136/1/2 143/1/2
f 137/1/2 138/1/2 144/1/2
f 138/3/2 139/3/2 145/3/2
f 144/1/2 138/1/2 145/1/2
f 145/3/2 139/3/2 146/3/2
f 147/1/2 148/1/2 151/1/2
f 151/1/2 148/1/2 152/1/2
f 149/1/2 150/1/2 153/1/2
f 153/1/2 150/1/2 154/1/2
f 155/3/2 156/3/2 157/3/2
f 157/3/2 156/3/2 158/3/2
f 158/3/2 156/3/2 159/3/2
f 159/3/2 156/3/2 160/3/2
f 160/3/2 156/3/2 161/3/2
f 161/3/2 156/3/2 162/3/2
f 158/3/2 159/3/2 163/3/2
f 163/3/2 159/3/2 164/3/2
f 160/3/2 161/3/2 165/3/2
f 165/3/2 161/3/2 166/3/2
f 169/3/3 168/3/3 167/3/3
f 171/3/3 169/3/3 167/3/3
f 171/2/3 170/2/3 169/2/3
f 172/2/3 170/2/3 171/2/3
f 173/3/3 171/3/3 167/3/3
f 174/3/3 171/3/3 173/3/3
f 177/2/3 176/2/3 175/2/3
f 178/2/3 176/2/3 177/2/3
f 181/1/3 180/1/3 179/1/3
f 182/1/3 180/1/3 181/1/3
f 185/1/3 184/1/3 183/1/3
f 186/1/3 184/1/3 185/1/3
f 189/1/3 188/1/3 187/1/3
f 190/1/3 188/1/3 189/1/3
f 193/2/3 192/2/3 191/2/3
f 194/2/3 192/2/3 193/2/3
f 197/1/3 196/1/3 195/1/3
f 198/1/3 196/1/3 197/1/3
f 201/3/3 200/3/3 199/3/3
f 202/3/3 200/3/3 201/3/3
f 205/2/3 204/2/3 203/2/3
f 206/2/3 204/2/3 205/2/3
f 209/1/3 208/1/3 207/1/3
f 210/1/3 208/1/3 209/1/3
f 213/2/3 212/2/3 211/2/3
f 214/2/3 212/2/3 213/2/3
f 217/1/3 216/1/3 215/1/3
f 218/1/3 216/1/3 217/1/3
f 221/2/3 220/2/3 219/2/3
f 222/2/3 220/2/3 221/2/3
f 225/2/3 224/2/3 223/2/3
f 226/2/3 224/2/3 225/2/3
f 229/1/3 228/1/3 227/1/3
f 230/1/3 228/1/3 229/1/3
f 233/1/3 232/1/3 231/1/3
f 234/1/3 232/1/3 233/1/3
f 237/3/3 236/3/3 235/3/3
f 238/3/3 236/3/3 237/3/3
f 241/3/3 240/3/3 239/3/3
f 242/3/3 240/3/3 241/3/3
f 245/3/3 244/3/3 243/3/3
f 246/3/3 244/3/3 245/3/3
f 247/2/4 248/2/4 249/2/4
f 249/2/4 248/2/4 250/2/4
f 251/2/4 252/2/4 253/2/4
f 253/2/4 252/2/4 254/2/4
f 255/1/4 256/1/4 257/1/4
f 257/1/4 256/1/4 258/1/4
f 259/1/4 260/1/4 261/1/4
f 261/1/4 260/1/4 262/1/4
f 263/2/4 264/2/4 265/2/4
f 265/2/4 264/2/4 266/2/4
f 265/1/4 266/1/4 267/1/4
f 267/1/4 266/1/4 268/1/4
f 269/2/4 270/2/4 271/2/4
f 271/2/4 270/2/4 272/2/4
f 273/1/4 274/1/4 275/1/4
f 275/1/4 274/1/4 276/1/4
f 277/1/4 278/1/4 279/1/4
f 279/1/4 278/1/4 280/1/4
f 281/2/4 282/2/4 283/2/4
f 283/2/4 282/2/4 284/2/4
f 285/1/4 286/1/4 287/1/4
f 287/1/4 286/1/4 288/1/4
f 289/2/4 290/2/4 291/2/4
f 291/2/4 290/2/4 292/2/4
f 293/2/4 294/2/4 295/2/4
f 295/2/4 294/2/4 296/2/4
f 297/3/4 298/3/4 299/3/4
f 299/3/4 298/3/4 300/3/4
f 301/2/4 302/2/4 303/2/4
f 303/2/4 302/2/4 304/2/4
f 305/1/4 306/1/4 307/1/4
f 307/1/4 306/1/4 308/1/4
f 309/2/4 310/2/4 311/2/4
f 311/2/4 310/2/4 312/2/4
f 313/2/4 314/2/4 315/2/4
f 315/2/4 314/2/4 316/2/4
f 317/1/4 318/1/4 319/1/4
f 319/1/4 318/1/4 320/1/4
f 321/3/4 322/3/4 323/3/4
f 323/3/4 322/3/4 324/3/4
f 325/3/4 326/3/4 327/3/4
f 327/3/4 326/3/4 328/3/4
f 325/3/4 327/3/4 329/3/4
f 329/3/4 327/3/4 330/3/4
f 333/3/5 332/3/5 331/3/5
f 334/3/5 332/3/5 333/3/5
f 335/3/6 336/3/6 339/3/6
f 339/3/6 336/3/6 340/3/6
f 337/3/6 338/3/6 344/3/6
f 344/3/6 338/3/6 345/3/6
f 341/3/6 342/3/6 346/3/6
f 346/3/6 342/3/6 347/3/6
f 343/3/6 344/3/6 350/3/6
f 350/3/6 344/3/6 351/3/6
f 347/3/6 348/3/6 352/3/6
f 352/3/6 348/3/6 353/3/6
f 349/3/6 350/3/6 355/3/6
f 355/3/6 350/3/6 356/3/6
f 353/3/6 354/3/6 358/3/6
f 354/3/6 355/3/6 358/3/6
f 358/3/6 355/3/6 359/3/6
f 345/3/6 338/3/6 362/3/6
f 362/3/6 338/3/6 363/3/6
f 358/3/6 359/3/6 365/3/6
f 357/3/6 358/3/6 365/3/6
f 359/3/6 360/3/6 365/3/6
f 365/3/6 360/3/6 366/3/6
f 366/3/6 360/3/6 367/3/6
f 367/3/6 360/3/6 368/3/6
f 361/3/6 362/3/6 369/3/6
f 369/3/6 362/3/6 370/3/6
f 364/3/6 365/3/6 372/3/6
f 365/3/6 366/3/6 372/3/6
f 372/3/6 366/3/6 373/3/6
f 373/3/6 366/3/6 374/3/6
f 367/3/6 368/3/6 375/3/6
f 368/3/6 369/3/6 375/3/6
f 375/3/6 369/3/6 376/3/6
f 376/3/6 369/3/6 377/3/6
f 371/3/6 372/3/6 380/3/6
f 380/3/6 372/3/6 381/3/6
f 373/3/6 374/3/6 383/3/6
f 375/3/6 376/3/6 383/3/6
f 374/3/6 375/3/6 383/3/6
f 383/3/6 376/3/6 384/3/6
f 381/3/6 382/3/6 387/3/6
f 387/3/6 382/3/6 388/3/6
f 384/3/6 385/3/6 391/3/6
f 391/3/6 385/3/6 392/3/6
f 378/3/6 379/3/6 393/3/6
f 393/3/6 379/3/6 394/3/6
f 386/3/6 387/3/6 395/3/6
f 395/3/6 387/3/6 396/3/6
f 389/3/6 390/3/6 397/3/6
f 397/3/6 390/3/6 398/3/6
f 392/3/6 393/3/6 399/3/6
f 399/3/6 393/3/6 400/3/6
f 400/3/6 401/3/6 402/3/6
f 399/3/6 400/3/6 402/3/6
f 402/3/6 401/3/6 403/3/6
f 404/2/6 405/2/6 407/2/6
f 407/2/6 405/2/6 408/2/6
f 408/2/6 405/2/6 409/2/6
f 409/2/6 405/2/6 410/2/6
f 410/2/6 405/2/6 411/2/6
f 407/1/6 408/1/6 413/1/6
f 409/1/6 410/1/6 414/1/6
f 414/1/6 410/1/6 415/1/6
f 415/1/6 410/1/6 416/1/6
f 416/1/6 410/1/6 417/1/6
f 417/1/6 410/1/6 418/1/6
f 411/1/6 412/1/6 419/1/6
f 406/2/6 407/2/6 420/2/6
f 407/1/6 413/1/6 420/1/6
f 413/1/6 414/1/6 420/1/6
f 420/1/6 414/1/6 421/1/6
f 415/2/6 416/2/6 422/2/6
f 416/1/6 417/1/6 423/1/6
f 422/2/6 416/2/6 423/2/6
f 423/1/6 417/1/6 424/1/6
f 418/1/6 419/1/6 425/1/6
f 421/2/6 422/2/6 426/2/6
f 420/2/6 421/2/6 426/2/6
f 426/2/6 422/2/6 427/2/6
f 424/1/6 425/1/6 428/1/6
f 425/1/6 419/1/6 429/1/6
f 428/1/6 425/1/6 429/1/6
f 419/1/6 412/1/6 430/1/6
f 429/1/6 419/1/6 430/1/6
f 430/1/6 412/1/6 431/1/6
f 420/2/6 426/2/6 433/2/6
f 433/2/6 426/2/6 434/2/6
f 429/1/6 430/1/6 437/1/6
f 437/1/6 430/1/6 438/1/6
f 431/3/6 432/3/6 439/3/6
f 406/2/6 420/2/6 440/2/6
f 420/2/6 433/2/6 440/2/6
f 440/2/6 433/2/6 441/2/6
f 435/2/6 436/2/6 443/2/6
f 443/2/6 436/2/6 444/2/6
f 438/1/6 439/1/6 446/1/6
f 439/3/6 432/3/6 447/3/6
f 446/1/6 439/1/6 447/1/6
f 447/3/6 432/3/6 448/3/6
f 441/2/6 442/2/6 450/2/6
f 450/2/6 442/2/6 451/2/6
f 451/2/6 442/2/6 452/2/6
f 445/1/6 446/1/6 453/1/6
f 446/1/6 447/1/6 453/1/6
f 453/1/6 447/1/6 454/1/6
f 449/2/6 450/2/6 455/2/6
f 455/2/6 450/2/6 456/2/6
f 451/2/6 452/2/6 457/2/6
f 452/2/6 453/2/6 457/2/6
f 457/2/6 453/2/6 458/2/6
f 458/2/6 453/2/6 459/2/6
f 459/2/6 453/2/6 460/2/6
f 454/1/6 447/1/6 461/1/6
f 461/1/6 447/1/6 462/1/6
f 449/2/6 455/2/6 464/2/6
f 464/2/6 455/2/6 465/2/6
f 456/1/6 457/1/6 466/1/6
f 457/1/6 458/1/6 466/1/6
f 466/1/6 458/1/6 467/1/6
f 459/1/6 460/1/6 468/1/6
f 460/1/6 461/1/6 468/1/6
f 468/1/6 461/1/6 469/1/6
f 462/3/6 463/3/6 470/3/6
f 470/3/6 463/3/6 471/3/6
f 468/3/6 469/3/6 472/3/6
f 466/3/6 467/3/6 472/3/6
f 465/3/6 466/3/6 472/3/6
f 467/3/6 468/3/6 472/3/6
f 464/3/6 465/3/6 472/3/6
f 472/3/6 469/3/6 473/3/6
