# MagicaVoxel @ Ephtracy

# material
mtllib Floor 2.mtl
usemtl palette

# normals
vn -1 0 0
vn 1 0 0
vn 0 0 1
vn 0 0 -1
vn 0 -1 0
vn 0 1 0

# texcoords
vt 0.0644531 0.5
vt 0.0683594 0.5
vt 0.0722656 0.5

# verts
v -5 0 5
v -5 0 -5
v -5 9 5
v -5 9 4
v -5 9 3
v -5 9 -1
v -5 9 -4
v -5 10 5
v -5 10 4
v -5 10 3
v -5 10 -1
v -5 10 -4
v -5 10 -5
v -4 9 4
v -4 9 3
v -4 9 -1
v -4 9 -2
v -4 10 4
v -4 10 3
v -4 10 -1
v -4 10 -2
v -3 9 -2
v -3 9 -3
v -3 10 -2
v -3 10 -3
v 2 9 -3
v 2 9 -4
v 2 10 -3
v 2 10 -4
v 4 9 5
v 4 9 -0
v 4 9 -1
v 4 9 -2
v 4 10 5
v 4 10 -0
v 4 10 -1
v 4 10 -2
v 1 9 -2
v 1 9 -3
v 1 10 -2
v 1 10 -3
v 2 9 -1
v 2 9 -2
v 2 10 -1
v 2 10 -2
v 3 9 5
v 3 9 1
v 3 9 -1
v 3 10 5
v 3 10 1
v 3 10 -1
v 5 0 5
v 5 0 -5
v 5 9 -0
v 5 9 -1
v 5 9 -2
v 5 9 -3
v 5 10 5
v 5 10 -0
v 5 10 -1
v 5 10 -2
v 5 10 -3
v 5 10 -5
v -5 0 5
v -5 9 5
v -5 10 5
v 2 9 5
v 2 10 5
v 3 9 5
v 3 10 5
v 4 9 5
v 4 10 5
v 5 0 5
v 5 10 5
v -5 9 3
v -5 10 3
v -4 9 3
v -4 10 3
v 4 9 -1
v 4 10 -1
v 5 9 -1
v 5 10 -1
v 2 9 -3
v 2 10 -3
v 3 9 -3
v 3 10 -3
v 4 9 -3
v 4 10 -3
v 5 9 -3
v 5 10 -3
v -5 9 -4
v -5 10 -4
v 2 9 -4
v 2 10 -4
v -5 9 4
v -5 10 4
v -4 9 4
v -4 10 4
v 4 9 -0
v 4 10 -0
v 5 9 -0
v 5 10 -0
v -5 9 -1
v -5 10 -1
v -4 9 -1
v -4 10 -1
v 2 9 -1
v 2 10 -1
v 3 9 -1
v 3 10 -1
v -4 9 -2
v -4 10 -2
v -3 9 -2
v -3 10 -2
v 1 9 -2
v 1 10 -2
v 2 9 -2
v 2 10 -2
v 4 9 -2
v 4 10 -2
v 5 9 -2
v 5 10 -2
v -3 9 -3
v -3 10 -3
v 1 9 -3
v 1 10 -3
v -5 0 -5
v -5 10 -5
v 2 9 -5
v 2 10 -5
v 4 9 -5
v 4 10 -5
v 5 0 -5
v 5 10 -5
v -5 0 5
v 5 0 5
v -5 0 -5
v 5 0 -5
v 3 9 5
v 4 9 5
v -5 9 4
v -4 9 4
v -5 9 3
v -4 9 3
v 3 9 1
v 4 9 -0
v 5 9 -0
v -5 9 -1
v -4 9 -1
v 2 9 -1
v 3 9 -1
v 4 9 -1
v 5 9 -1
v -4 9 -2
v -3 9 -2
v 1 9 -2
v 2 9 -2
v 4 9 -2
v 5 9 -2
v -3 9 -3
v 1 9 -3
v 2 9 -3
v 3 9 -3
v 4 9 -3
v 5 9 -3
v -5 9 -4
v 2 9 -4
v -5 10 5
v 2 10 5
v 3 10 5
v 4 10 5
v 5 10 5
v -5 10 4
v -4 10 4
v -2 10 4
v 2 10 4
v -5 10 3
v -4 10 3
v -3 10 3
v -2 10 3
v 1 10 1
v 3 10 1
v 4 10 -0
v 5 10 -0
v -5 10 -1
v -4 10 -1
v -3 10 -1
v -1 10 -1
v 2 10 -1
v 3 10 -1
v 4 10 -1
v 5 10 -1
v -4 10 -2
v -3 10 -2
v -1 10 -2
v 1 10 -2
v 2 10 -2
v 4 10 -2
v 5 10 -2
v -3 10 -3
v 1 10 -3
v 2 10 -3
v 3 10 -3
v 4 10 -3
v 5 10 -3
v -5 10 -4
v 2 10 -4
v 3 10 -4
v -5 10 -5
v 2 10 -5
v 4 10 -5
v 5 10 -5

# faces
f 3/3/1 2/3/1 1/3/1
f 4/3/1 2/3/1 3/3/1
f 5/3/1 2/3/1 4/3/1
f 6/3/1 2/3/1 5/3/1
f 7/3/1 2/3/1 6/3/1
f 8/1/1 4/1/1 3/1/1
f 9/1/1 4/1/1 8/1/1
f 10/1/1 6/1/1 5/1/1
f 11/1/1 6/1/1 10/1/1
f 12/3/1 2/3/1 7/3/1
f 13/3/1 2/3/1 12/3/1
f 18/1/1 15/1/1 14/1/1
f 19/1/1 15/1/1 18/1/1
f 20/1/1 17/1/1 16/1/1
f 21/1/1 17/1/1 20/1/1
f 24/1/1 23/1/1 22/1/1
f 25/1/1 23/1/1 24/1/1
f 28/2/1 27/2/1 26/2/1
f 29/2/1 27/2/1 28/2/1
f 34/3/1 31/3/1 30/3/1
f 35/3/1 31/3/1 34/3/1
f 36/3/1 33/3/1 32/3/1
f 37/3/1 33/3/1 36/3/1
f 38/1/2 39/1/2 40/1/2
f 40/1/2 39/1/2 41/1/2
f 42/1/2 43/1/2 44/1/2
f 44/1/2 43/1/2 45/1/2
f 46/2/2 47/2/2 49/2/2
f 47/1/2 48/1/2 50/1/2
f 49/2/2 47/2/2 50/2/2
f 50/1/2 48/1/2 51/1/2
f 52/3/2 53/3/2 54/3/2
f 54/3/2 53/3/2 55/3/2
f 55/3/2 53/3/2 56/3/2
f 56/3/2 53/3/2 57/3/2
f 52/3/2 54/3/2 58/3/2
f 58/3/2 54/3/2 59/3/2
f 55/3/2 56/3/2 60/3/2
f 60/3/2 56/3/2 61/3/2
f 57/3/2 53/3/2 62/3/2
f 62/3/2 53/3/2 63/3/2
f 67/3/3 65/3/3 64/3/3
f 67/1/3 66/1/3 65/1/3
f 68/1/3 66/1/3 67/1/3
f 69/3/3 67/3/3 64/3/3
f 69/2/3 68/2/3 67/2/3
f 70/2/3 68/2/3 69/2/3
f 71/3/3 69/3/3 64/3/3
f 73/3/3 71/3/3 64/3/3
f 73/3/3 72/3/3 71/3/3
f 74/3/3 72/3/3 73/3/3
f 77/1/3 76/1/3 75/1/3
f 78/1/3 76/1/3 77/1/3
f 81/3/3 80/3/3 79/3/3
f 82/3/3 80/3/3 81/3/3
f 85/2/3 84/2/3 83/2/3
f 86/2/3 84/2/3 85/2/3
f 87/1/3 86/1/3 85/1/3
f 88/1/3 86/1/3 87/1/3
f 89/3/3 88/3/3 87/3/3
f 90/3/3 88/3/3 89/3/3
f 93/3/3 92/3/3 91/3/3
f 94/3/3 92/3/3 93/3/3
f 95/1/4 96/1/4 97/1/4
f 97/1/4 96/1/4 98/1/4
f 99/3/4 100/3/4 101/3/4
f 101/3/4 100/3/4 102/3/4
f 103/1/4 104/1/4 105/1/4
f 105/1/4 104/1/4 106/1/4
f 107/1/4 108/1/4 109/1/4
f 109/1/4 108/1/4 110/1/4
f 111/1/4 112/1/4 113/1/4
f 113/1/4 112/1/4 114/1/4
f 115/1/4 116/1/4 117/1/4
f 117/1/4 116/1/4 118/1/4
f 119/3/4 120/3/4 121/3/4
f 121/3/4 120/3/4 122/3/4
f 123/1/4 124/1/4 125/1/4
f 125/1/4 124/1/4 126/1/4
f 127/3/4 128/3/4 129/3/4
f 129/3/4 128/3/4 130/3/4
f 127/3/4 129/3/4 131/3/4
f 129/1/4 130/1/4 131/1/4
f 131/1/4 130/1/4 132/1/4
f 127/3/4 131/3/4 133/3/4
f 131/3/4 132/3/4 133/3/4
f 133/3/4 132/3/4 134/3/4
f 137/3/5 136/3/5 135/3/5
f 138/3/5 136/3/5 137/3/5
f 141/3/6 142/3/6 143/3/6
f 143/3/6 142/3/6 144/3/6
f 139/3/6 140/3/6 145/3/6
f 145/3/6 140/3/6 146/3/6
f 145/3/6 146/3/6 151/3/6
f 146/3/6 147/3/6 151/3/6
f 151/3/6 147/3/6 152/3/6
f 152/3/6 147/3/6 153/3/6
f 148/3/6 149/3/6 154/3/6
f 150/3/6 151/3/6 157/3/6
f 151/3/6 152/3/6 157/3/6
f 157/3/6 152/3/6 158/3/6
f 154/3/6 155/3/6 160/3/6
f 158/3/6 159/3/6 161/3/6
f 156/3/6 157/3/6 161/3/6
f 157/3/6 158/3/6 161/3/6
f 161/3/6 159/3/6 162/3/6
f 162/3/6 159/3/6 163/3/6
f 163/3/6 159/3/6 164/3/6
f 164/3/6 159/3/6 165/3/6
f 154/3/6 160/3/6 166/3/6
f 148/3/6 154/3/6 166/3/6
f 161/3/6 162/3/6 166/3/6
f 160/3/6 161/3/6 166/3/6
f 166/3/6 162/3/6 167/3/6
f 168/1/6 169/1/6 173/1/6
f 173/1/6 169/1/6 174/1/6
f 174/1/6 169/1/6 175/1/6
f 169/2/6 170/2/6 176/2/6
f 175/1/6 169/1/6 176/1/6
f 174/1/6 175/1/6 178/1/6
f 178/1/6 175/1/6 179/1/6
f 175/2/6 176/2/6 180/2/6
f 179/1/6 175/1/6 180/1/6
f 179/2/6 180/2/6 181/2/6
f 180/2/6 176/2/6 181/2/6
f 176/2/6 170/2/6 182/2/6
f 181/2/6 176/2/6 182/2/6
f 171/3/6 172/3/6 183/3/6
f 183/3/6 172/3/6 184/3/6
f 178/1/6 179/1/6 185/1/6
f 177/1/6 178/1/6 185/1/6
f 185/1/6 179/1/6 186/1/6
f 179/2/6 181/2/6 187/2/6
f 186/1/6 179/1/6 187/1/6
f 187/2/6 181/2/6 188/2/6
f 181/1/6 182/1/6 189/1/6
f 189/1/6 182/1/6 190/1/6
f 186/1/6 187/1/6 193/1/6
f 187/1/6 188/1/6 193/1/6
f 193/1/6 188/1/6 194/1/6
f 188/2/6 181/2/6 195/2/6
f 194/1/6 188/1/6 195/1/6
f 181/1/6 189/1/6 196/1/6
f 195/2/6 181/2/6 196/2/6
f 196/1/6 189/1/6 197/1/6
f 191/3/6 192/3/6 198/3/6
f 198/3/6 192/3/6 199/3/6
f 194/1/6 195/1/6 200/1/6
f 195/1/6 196/1/6 200/1/6
f 200/1/6 196/1/6 201/1/6
f 202/2/6 203/2/6 207/2/6
f 203/1/6 204/1/6 208/1/6
f 207/2/6 203/2/6 208/2/6
f 206/3/6 207/3/6 209/3/6
f 207/1/6 208/1/6 210/1/6
f 209/3/6 207/3/6 210/3/6
f 204/3/6 205/3/6 211/3/6
f 210/1/6 208/1/6 211/1/6
f 208/1/6 204/1/6 211/1/6
f 211/3/6 205/3/6 212/3/6
