# MagicaVoxel @ Ephtracy

# material
mtllib Angler Fish Bait Sword.mtl
usemtl palette

# normals
vn -1 0 0
vn 1 0 0
vn 0 0 1
vn 0 0 -1
vn 0 -1 0
vn 0 1 0

# texcoords
vt 0.0449219 0.5
vt 0.126953 0.5
vt 0.970703 0.5
vt 0.974609 0.5

# verts
v -2.5 0 -2
v -2.5 0 -3
v -2.5 1 -2
v -2.5 1 -3
v -1.5 0 5
v -1.5 0 -2
v -1.5 0 -3
v -1.5 0 -4
v -1.5 1 5
v -1.5 1 -2
v -1.5 1 -3
v -1.5 1 -4
v -0.5 0 6
v -0.5 0 5
v -0.5 0 -4
v -0.5 0 -6
v -0.5 1 6
v -0.5 1 5
v -0.5 1 -4
v -0.5 1 -6
v 0.5 0 6
v 0.5 0 5
v 0.5 0 -4
v 0.5 0 -6
v 0.5 1 6
v 0.5 1 5
v 0.5 1 -4
v 0.5 1 -6
v 1.5 0 5
v 1.5 0 -2
v 1.5 0 -3
v 1.5 0 -4
v 1.5 1 5
v 1.5 1 -2
v 1.5 1 -3
v 1.5 1 -4
v 2.5 0 -2
v 2.5 0 -3
v 2.5 1 -2
v 2.5 1 -3
v -0.5 0 6
v -0.5 1 6
v 0.5 0 6
v 0.5 1 6
v -1.5 0 5
v -1.5 1 5
v -0.5 0 5
v -0.5 1 5
v 0.5 0 5
v 0.5 1 5
v 1.5 0 5
v 1.5 1 5
v -2.5 0 -2
v -2.5 1 -2
v -1.5 0 -2
v -1.5 1 -2
v 1.5 0 -2
v 1.5 1 -2
v 2.5 0 -2
v 2.5 1 -2
v -2.5 0 -3
v -2.5 1 -3
v -1.5 0 -3
v -1.5 1 -3
v 1.5 0 -3
v 1.5 1 -3
v 2.5 0 -3
v 2.5 1 -3
v -1.5 0 -4
v -1.5 1 -4
v -0.5 0 -4
v -0.5 1 -4
v 0.5 0 -4
v 0.5 1 -4
v 1.5 0 -4
v 1.5 1 -4
v -0.5 0 -6
v -0.5 1 -6
v 0.5 0 -6
v 0.5 1 -6
v -0.5 0 6
v 0.5 0 6
v -1.5 0 5
v -0.5 0 5
v 0.5 0 5
v 1.5 0 5
v -0.5 0 4
v 0.5 0 4
v -2.5 0 -2
v -1.5 0 -2
v -0.5 0 -2
v 0.5 0 -2
v 1.5 0 -2
v 2.5 0 -2
v -2.5 0 -3
v -1.5 0 -3
v -0.5 0 -3
v 0.5 0 -3
v 1.5 0 -3
v 2.5 0 -3
v -1.5 0 -4
v -0.5 0 -4
v 0.5 0 -4
v 1.5 0 -4
v -0.5 0 -6
v 0.5 0 -6
v -0.5 1 6
v 0.5 1 6
v -1.5 1 5
v -0.5 1 5
v 0.5 1 5
v 1.5 1 5
v -0.5 1 4
v 0.5 1 4
v -2.5 1 -2
v -1.5 1 -2
v -0.5 1 -2
v 0.5 1 -2
v 1.5 1 -2
v 2.5 1 -2
v -2.5 1 -3
v -1.5 1 -3
v -0.5 1 -3
v 0.5 1 -3
v 1.5 1 -3
v 2.5 1 -3
v -1.5 1 -4
v -0.5 1 -4
v 0.5 1 -4
v 1.5 1 -4
v -0.5 1 -6
v 0.5 1 -6

# faces
f 3/2/1 2/2/1 1/2/1
f 4/2/1 2/2/1 3/2/1
f 9/3/1 6/3/1 5/3/1
f 10/3/1 6/3/1 9/3/1
f 11/2/1 8/2/1 7/2/1
f 12/2/1 8/2/1 11/2/1
f 17/3/1 14/3/1 13/3/1
f 18/3/1 14/3/1 17/3/1
f 19/1/1 16/1/1 15/1/1
f 20/1/1 16/1/1 19/1/1
f 21/3/2 22/3/2 25/3/2
f 25/3/2 22/3/2 26/3/2
f 23/1/2 24/1/2 27/1/2
f 27/1/2 24/1/2 28/1/2
f 29/3/2 30/3/2 33/3/2
f 33/3/2 30/3/2 34/3/2
f 31/2/2 32/2/2 35/2/2
f 35/2/2 32/2/2 36/2/2
f 37/2/2 38/2/2 39/2/2
f 39/2/2 38/2/2 40/2/2
f 43/3/3 42/3/3 41/3/3
f 44/3/3 42/3/3 43/3/3
f 47/3/3 46/3/3 45/3/3
f 48/3/3 46/3/3 47/3/3
f 51/3/3 50/3/3 49/3/3
f 52/3/3 50/3/3 51/3/3
f 55/2/3 54/2/3 53/2/3
f 56/2/3 54/2/3 55/2/3
f 59/2/3 58/2/3 57/2/3
f 60/2/3 58/2/3 59/2/3
f 61/2/4 62/2/4 63/2/4
f 63/2/4 62/2/4 64/2/4
f 65/2/4 66/2/4 67/2/4
f 67/2/4 66/2/4 68/2/4
f 69/2/4 70/2/4 71/2/4
f 71/2/4 70/2/4 72/2/4
f 73/2/4 74/2/4 75/2/4
f 75/2/4 74/2/4 76/2/4
f 77/1/4 78/1/4 79/1/4
f 79/1/4 78/1/4 80/1/4
f 84/3/5 82/3/5 81/3/5
f 85/3/5 82/3/5 84/3/5
f 87/3/5 84/3/5 83/3/5
f 87/3/5 86/3/5 85/3/5
f 87/3/5 85/3/5 84/3/5
f 88/3/5 86/3/5 87/3/5
f 90/3/5 87/3/5 83/3/5
f 91/4/5 88/4/5 87/4/5
f 91/3/5 87/3/5 90/3/5
f 92/3/5 86/3/5 88/3/5
f 92/4/5 88/4/5 91/4/5
f 93/3/5 86/3/5 92/3/5
f 95/2/5 91/2/5 90/2/5
f 95/2/5 94/2/5 93/2/5
f 95/2/5 93/2/5 92/2/5
f 95/2/5 92/2/5 91/2/5
f 95/2/5 90/2/5 89/2/5
f 96/2/5 94/2/5 95/2/5
f 97/2/5 94/2/5 96/2/5
f 98/2/5 94/2/5 97/2/5
f 99/2/5 94/2/5 98/2/5
f 100/2/5 94/2/5 99/2/5
f 101/2/5 97/2/5 96/2/5
f 102/1/5 98/1/5 97/1/5
f 102/2/5 97/2/5 101/2/5
f 103/2/5 99/2/5 98/2/5
f 103/1/5 98/1/5 102/1/5
f 104/2/5 99/2/5 103/2/5
f 105/1/5 103/1/5 102/1/5
f 106/1/5 103/1/5 105/1/5
f 107/3/6 108/3/6 110/3/6
f 110/3/6 108/3/6 111/3/6
f 109/3/6 110/3/6 113/3/6
f 111/3/6 112/3/6 113/3/6
f 110/3/6 111/3/6 113/3/6
f 113/3/6 112/3/6 114/3/6
f 109/3/6 113/3/6 116/3/6
f 113/4/6 114/4/6 117/4/6
f 116/3/6 113/3/6 117/3/6
f 114/3/6 112/3/6 118/3/6
f 117/4/6 114/4/6 118/4/6
f 118/3/6 112/3/6 119/3/6
f 116/2/6 117/2/6 121/2/6
f 119/2/6 120/2/6 121/2/6
f 118/2/6 119/2/6 121/2/6
f 117/2/6 118/2/6 121/2/6
f 115/2/6 116/2/6 121/2/6
f 121/2/6 120/2/6 122/2/6
f 122/2/6 120/2/6 123/2/6
f 123/2/6 120/2/6 124/2/6
f 124/2/6 120/2/6 125/2/6
f 125/2/6 120/2/6 126/2/6
f 122/2/6 123/2/6 127/2/6
f 123/1/6 124/1/6 128/1/6
f 127/2/6 123/2/6 128/2/6
f 124/2/6 125/2/6 129/2/6
f 128/1/6 124/1/6 129/1/6
f 129/2/6 125/2/6 130/2/6
f 128/1/6 129/1/6 131/1/6
f 131/1/6 129/1/6 132/1/6
