# MagicaVoxel @ Ephtracy

# material
mtllib bat wing 1.mtl
usemtl palette

# normals
vn -1 0 0
vn 1 0 0
vn 0 0 1
vn 0 0 -1
vn 0 -1 0
vn 0 1 0

# texcoords
vt 0.361328 0.5
vt 0.388672 0.5

# verts
v -4 0 0.5
v -4 0 -0.5
v -4 3 0.5
v -4 3 -0.5
v -3 3 0.5
v -3 3 -0.5
v -3 6 0.5
v -3 6 -0.5
v -2 6 0.5
v -2 6 -0.5
v -2 7 0.5
v -2 7 -0.5
v -2 0 0.5
v -2 0 -0.5
v -2 1 0.5
v -2 1 -0.5
v -1 1 0.5
v -1 1 -0.5
v -1 2 0.5
v -1 2 -0.5
v 0 2 0.5
v 0 2 -0.5
v 0 4 0.5
v 0 4 -0.5
v 2 4 0.5
v 2 4 -0.5
v 2 5 0.5
v 2 5 -0.5
v 3 5 0.5
v 3 5 -0.5
v 3 6 0.5
v 3 6 -0.5
v 4 6 0.5
v 4 6 -0.5
v 4 7 0.5
v 4 7 -0.5
v -4 0 0.5
v -4 3 0.5
v -3 0 0.5
v -3 2 0.5
v -3 3 0.5
v -3 6 0.5
v -2 0 0.5
v -2 1 0.5
v -2 2 0.5
v -2 3 0.5
v -2 5 0.5
v -2 6 0.5
v -2 7 0.5
v -1 1 0.5
v -1 2 0.5
v -1 3 0.5
v -1 4 0.5
v -1 5 0.5
v -1 6 0.5
v 0 2 0.5
v 0 4 0.5
v 0 5 0.5
v 1 5 0.5
v 1 6 0.5
v 2 4 0.5
v 2 5 0.5
v 2 6 0.5
v 3 5 0.5
v 3 6 0.5
v 4 6 0.5
v 4 7 0.5
v -4 0 -0.5
v -4 3 -0.5
v -3 0 -0.5
v -3 2 -0.5
v -3 3 -0.5
v -3 6 -0.5
v -2 0 -0.5
v -2 1 -0.5
v -2 2 -0.5
v -2 3 -0.5
v -2 5 -0.5
v -2 6 -0.5
v -2 7 -0.5
v -1 1 -0.5
v -1 2 -0.5
v -1 3 -0.5
v -1 4 -0.5
v -1 5 -0.5
v -1 6 -0.5
v 0 2 -0.5
v 0 4 -0.5
v 0 5 -0.5
v 1 5 -0.5
v 1 6 -0.5
v 2 4 -0.5
v 2 5 -0.5
v 2 6 -0.5
v 3 5 -0.5
v 3 6 -0.5
v 4 6 -0.5
v 4 7 -0.5
v -4 0 0.5
v -3 0 0.5
v -2 0 0.5
v -4 0 -0.5
v -3 0 -0.5
v -2 0 -0.5
v -2 1 0.5
v -1 1 0.5
v -2 1 -0.5
v -1 1 -0.5
v -1 2 0.5
v 0 2 0.5
v -1 2 -0.5
v 0 2 -0.5
v 0 4 0.5
v 2 4 0.5
v 0 4 -0.5
v 2 4 -0.5
v 2 5 0.5
v 3 5 0.5
v 2 5 -0.5
v 3 5 -0.5
v 3 6 0.5
v 4 6 0.5
v 3 6 -0.5
v 4 6 -0.5
v -4 3 0.5
v -3 3 0.5
v -4 3 -0.5
v -3 3 -0.5
v -3 6 0.5
v -2 6 0.5
v -3 6 -0.5
v -2 6 -0.5
v -2 7 0.5
v 4 7 0.5
v -2 7 -0.5
v 4 7 -0.5

# faces
f 3/2/1 2/2/1 1/2/1
f 4/2/1 2/2/1 3/2/1
f 7/2/1 6/2/1 5/2/1
f 8/2/1 6/2/1 7/2/1
f 11/2/1 10/2/1 9/2/1
f 12/2/1 10/2/1 11/2/1
f 13/1/2 14/1/2 15/1/2
f 15/1/2 14/1/2 16/1/2
f 17/2/2 18/2/2 19/2/2
f 19/2/2 18/2/2 20/2/2
f 21/1/2 22/1/2 23/1/2
f 23/1/2 22/1/2 24/1/2
f 25/1/2 26/1/2 27/1/2
f 27/1/2 26/1/2 28/1/2
f 29/1/2 30/1/2 31/1/2
f 31/1/2 30/1/2 32/1/2
f 33/2/2 34/2/2 35/2/2
f 35/2/2 34/2/2 36/2/2
f 39/2/3 38/2/3 37/2/3
f 40/2/3 38/2/3 39/2/3
f 41/2/3 38/2/3 40/2/3
f 43/1/3 40/1/3 39/1/3
f 44/1/3 40/1/3 43/1/3
f 45/2/3 42/2/3 41/2/3
f 45/1/3 40/1/3 44/1/3
f 45/2/3 41/2/3 40/2/3
f 46/2/3 42/2/3 45/2/3
f 47/2/3 42/2/3 46/2/3
f 48/2/3 42/2/3 47/2/3
f 50/2/3 45/2/3 44/2/3
f 50/2/3 46/2/3 45/2/3
f 51/2/3 46/2/3 50/2/3
f 52/1/3 47/1/3 46/1/3
f 52/2/3 46/2/3 51/2/3
f 53/1/3 47/1/3 52/1/3
f 54/2/3 49/2/3 48/2/3
f 54/1/3 47/1/3 53/1/3
f 54/2/3 48/2/3 47/2/3
f 55/2/3 49/2/3 54/2/3
f 56/1/3 53/1/3 52/1/3
f 56/1/3 52/1/3 51/1/3
f 57/2/3 54/2/3 53/2/3
f 57/1/3 53/1/3 56/1/3
f 58/1/3 55/1/3 54/1/3
f 58/2/3 54/2/3 57/2/3
f 59/1/3 55/1/3 58/1/3
f 59/1/3 58/1/3 57/1/3
f 60/2/3 49/2/3 55/2/3
f 60/1/3 55/1/3 59/1/3
f 61/1/3 59/1/3 57/1/3
f 62/2/3 60/2/3 59/2/3
f 62/1/3 59/1/3 61/1/3
f 63/2/3 49/2/3 60/2/3
f 63/2/3 60/2/3 62/2/3
f 64/1/3 63/1/3 62/1/3
f 65/2/3 49/2/3 63/2/3
f 65/1/3 63/1/3 64/1/3
f 66/2/3 49/2/3 65/2/3
f 67/2/3 49/2/3 66/2/3
f 68/2/4 69/2/4 70/2/4
f 70/2/4 69/2/4 71/2/4
f 71/2/4 69/2/4 72/2/4
f 70/1/4 71/1/4 74/1/4
f 74/1/4 71/1/4 75/1/4
f 72/2/4 73/2/4 76/2/4
f 75/1/4 71/1/4 76/1/4
f 71/2/4 72/2/4 76/2/4
f 76/2/4 73/2/4 77/2/4
f 77/2/4 73/2/4 78/2/4
f 78/2/4 73/2/4 79/2/4
f 75/2/4 76/2/4 81/2/4
f 76/2/4 77/2/4 81/2/4
f 81/2/4 77/2/4 82/2/4
f 77/1/4 78/1/4 83/1/4
f 82/2/4 77/2/4 83/2/4
f 83/1/4 78/1/4 84/1/4
f 79/2/4 80/2/4 85/2/4
f 84/1/4 78/1/4 85/1/4
f 78/2/4 79/2/4 85/2/4
f 85/2/4 80/2/4 86/2/4
f 83/1/4 84/1/4 87/1/4
f 82/1/4 83/1/4 87/1/4
f 84/2/4 85/2/4 88/2/4
f 87/1/4 84/1/4 88/1/4
f 85/1/4 86/1/4 89/1/4
f 88/2/4 85/2/4 89/2/4
f 89/1/4 86/1/4 90/1/4
f 88/1/4 89/1/4 90/1/4
f 86/2/4 80/2/4 91/2/4
f 90/1/4 86/1/4 91/1/4
f 88/1/4 90/1/4 92/1/4
f 90/2/4 91/2/4 93/2/4
f 92/1/4 90/1/4 93/1/4
f 91/2/4 80/2/4 94/2/4
f 93/2/4 91/2/4 94/2/4
f 93/1/4 94/1/4 95/1/4
f 94/2/4 80/2/4 96/2/4
f 95/1/4 94/1/4 96/1/4
f 96/2/4 80/2/4 97/2/4
f 97/2/4 80/2/4 98/2/4
f 102/2/5 100/2/5 99/2/5
f 103/1/5 101/1/5 100/1/5
f 103/2/5 100/2/5 102/2/5
f 104/1/5 101/1/5 103/1/5
f 107/2/5 106/2/5 105/2/5
f 108/2/5 106/2/5 107/2/5
f 111/1/5 110/1/5 109/1/5
f 112/1/5 110/1/5 111/1/5
f 115/1/5 114/1/5 113/1/5
f 116/1/5 114/1/5 115/1/5
f 119/1/5 118/1/5 117/1/5
f 120/1/5 118/1/5 119/1/5
f 123/2/5 122/2/5 121/2/5
f 124/2/5 122/2/5 123/2/5
f 125/2/6 126/2/6 127/2/6
f 127/2/6 126/2/6 128/2/6
f 129/2/6 130/2/6 131/2/6
f 131/2/6 130/2/6 132/2/6
f 133/2/6 134/2/6 135/2/6
f 135/2/6 134/2/6 136/2/6
