# MagicaVoxel @ Ephtracy

# material
mtllib Body 6.mtl
usemtl palette

# normals
vn -1 0 0
vn 1 0 0
vn 0 0 1
vn 0 0 -1
vn 0 -1 0
vn 0 1 0

# texcoords
vt 0.0136719 0.5
vt 0.0371094 0.5
vt 0.634766 0.5
vt 0.638672 0.5
vt 0.962891 0.5
vt 0.974609 0.5
vt 0.978516 0.5
vt 0.982422 0.5

# verts
v -4 5 1.5
v -4 5 -1.5
v -4 7 1.5
v -4 7 -1.5
v -3 2 0.5
v -3 2 -0.5
v -3 3 0.5
v -3 3 -0.5
v -3 5 0.5
v -3 5 -0.5
v -2 0 0.5
v -2 0 -0.5
v -2 1 0.5
v -2 1 -0.5
v -2 2 1.5
v -2 2 0.5
v -2 2 -0.5
v -2 2 -1.5
v -2 3 1.5
v -2 3 0.5
v -2 3 -0.5
v -2 3 -1.5
v -2 4 1.5
v -2 4 0.5
v -2 4 -0.5
v -2 4 -1.5
v -2 5 1.5
v -2 5 0.5
v -2 5 -0.5
v -2 5 -1.5
v 1 0 0.5
v 1 0 -0.5
v 1 1 0.5
v 1 1 -0.5
v 1 2 0.5
v 1 2 -0.5
v -1 0 0.5
v -1 0 -0.5
v -1 1 0.5
v -1 1 -0.5
v -1 2 0.5
v -1 2 -0.5
v 2 0 0.5
v 2 0 -0.5
v 2 1 0.5
v 2 1 -0.5
v 2 2 1.5
v 2 2 0.5
v 2 2 -0.5
v 2 2 -1.5
v 2 3 1.5
v 2 3 0.5
v 2 3 -0.5
v 2 3 -1.5
v 2 4 1.5
v 2 4 0.5
v 2 4 -0.5
v 2 4 -1.5
v 2 5 1.5
v 2 5 0.5
v 2 5 -0.5
v 2 5 -1.5
v 3 2 0.5
v 3 2 -0.5
v 3 3 0.5
v 3 3 -0.5
v 3 5 0.5
v 3 5 -0.5
v 4 5 1.5
v 4 5 0.5
v 4 5 -1.5
v 4 7 1.5
v 4 7 0.5
v 4 7 -1.5
v -4 5 1.5
v -4 7 1.5
v -2 2 1.5
v -2 3 1.5
v -2 4 1.5
v -2 5 1.5
v 0 2 1.5
v 0 3 1.5
v 0 4 1.5
v 0 7 1.5
v 2 2 1.5
v 2 3 1.5
v 2 4 1.5
v 2 5 1.5
v 4 5 1.5
v 4 7 1.5
v -3 2 0.5
v -3 3 0.5
v -3 5 0.5
v -2 0 0.5
v -2 1 0.5
v -2 2 0.5
v -2 3 0.5
v -2 4 0.5
v -2 5 0.5
v -1 0 0.5
v -1 1 0.5
v -1 2 0.5
v 1 0 0.5
v 1 1 0.5
v 1 2 0.5
v 2 0 0.5
v 2 1 0.5
v 2 2 0.5
v 2 3 0.5
v 2 4 0.5
v 2 5 0.5
v 3 2 0.5
v 3 3 0.5
v 3 5 0.5
v -3 2 -0.5
v -3 3 -0.5
v -3 5 -0.5
v -2 0 -0.5
v -2 1 -0.5
v -2 2 -0.5
v -2 3 -0.5
v -2 4 -0.5
v -2 5 -0.5
v -1 0 -0.5
v -1 1 -0.5
v -1 2 -0.5
v 1 0 -0.5
v 1 1 -0.5
v 1 2 -0.5
v 2 0 -0.5
v 2 1 -0.5
v 2 2 -0.5
v 2 3 -0.5
v 2 4 -0.5
v 2 5 -0.5
v 3 2 -0.5
v 3 3 -0.5
v 3 5 -0.5
v -4 5 -1.5
v -4 7 -1.5
v -2 2 -1.5
v -2 3 -1.5
v -2 4 -1.5
v -2 5 -1.5
v 2 2 -1.5
v 2 3 -1.5
v 2 4 -1.5
v 2 5 -1.5
v 4 5 -1.5
v 4 7 -1.5
v -2 0 0.5
v -1 0 0.5
v 1 0 0.5
v 2 0 0.5
v -2 0 -0.5
v -1 0 -0.5
v 1 0 -0.5
v 2 0 -0.5
v -2 2 1.5
v 0 2 1.5
v 2 2 1.5
v -3 2 0.5
v -2 2 0.5
v -1 2 0.5
v 0 2 0.5
v 1 2 0.5
v 2 2 0.5
v 3 2 0.5
v -3 2 -0.5
v -2 2 -0.5
v -1 2 -0.5
v 1 2 -0.5
v 2 2 -0.5
v 3 2 -0.5
v -2 2 -1.5
v 2 2 -1.5
v -4 5 1.5
v -2 5 1.5
v 2 5 1.5
v 4 5 1.5
v -3 5 0.5
v -2 5 0.5
v 2 5 0.5
v 3 5 0.5
v 4 5 0.5
v -3 5 -0.5
v -2 5 -0.5
v 2 5 -0.5
v 3 5 -0.5
v -4 5 -1.5
v -2 5 -1.5
v 2 5 -1.5
v 4 5 -1.5
v -4 7 1.5
v 0 7 1.5
v 4 7 1.5
v -2 7 0.5
v 0 7 0.5
v 2 7 0.5
v 3 7 0.5
v 4 7 0.5
v -2 7 -0.5
v 2 7 -0.5
v 3 7 -0.5
v -4 7 -1.5
v 4 7 -1.5

# faces
f 3/7/1 2/7/1 1/7/1
f 4/7/1 2/7/1 3/7/1
f 7/2/1 6/2/1 5/2/1
f 8/2/1 6/2/1 7/2/1
f 9/1/1 8/1/1 7/1/1
f 10/1/1 8/1/1 9/1/1
f 13/4/1 12/4/1 11/4/1
f 14/4/1 12/4/1 13/4/1
f 16/6/1 14/6/1 13/6/1
f 17/6/1 14/6/1 16/6/1
f 19/7/1 16/7/1 15/7/1
f 20/7/1 16/7/1 19/7/1
f 21/6/1 18/6/1 17/6/1
f 22/6/1 18/6/1 21/6/1
f 23/8/1 20/8/1 19/8/1
f 24/8/1 20/8/1 23/8/1
f 25/8/1 22/8/1 21/8/1
f 26/8/1 22/8/1 25/8/1
f 27/7/1 24/7/1 23/7/1
f 28/7/1 24/7/1 27/7/1
f 29/7/1 26/7/1 25/7/1
f 30/7/1 26/7/1 29/7/1
f 33/4/1 32/4/1 31/4/1
f 34/4/1 32/4/1 33/4/1
f 35/6/1 34/6/1 33/6/1
f 36/6/1 34/6/1 35/6/1
f 37/4/2 38/4/2 39/4/2
f 39/4/2 38/4/2 40/4/2
f 39/6/2 40/6/2 41/6/2
f 41/6/2 40/6/2 42/6/2
f 43/4/2 44/4/2 45/4/2
f 45/4/2 44/4/2 46/4/2
f 45/6/2 46/6/2 48/6/2
f 48/6/2 46/6/2 49/6/2
f 47/6/2 48/6/2 51/6/2
f 51/6/2 48/6/2 52/6/2
f 49/6/2 50/6/2 53/6/2
f 53/6/2 50/6/2 54/6/2
f 51/8/2 52/8/2 55/8/2
f 55/8/2 52/8/2 56/8/2
f 53/8/2 54/8/2 57/8/2
f 57/8/2 54/8/2 58/8/2
f 55/6/2 56/6/2 59/6/2
f 59/6/2 56/6/2 60/6/2
f 57/7/2 58/7/2 61/7/2
f 61/7/2 58/7/2 62/7/2
f 63/2/2 64/2/2 65/2/2
f 65/2/2 64/2/2 66/2/2
f 65/1/2 66/1/2 67/1/2
f 67/1/2 66/1/2 68/1/2
f 69/6/2 70/6/2 72/6/2
f 70/7/2 71/7/2 73/7/2
f 72/6/2 70/6/2 73/6/2
f 73/7/2 71/7/2 74/7/2
f 80/7/3 76/7/3 75/7/3
f 81/7/3 78/7/3 77/7/3
f 82/8/3 79/8/3 78/8/3
f 82/7/3 78/7/3 81/7/3
f 83/7/3 80/7/3 79/7/3
f 83/8/3 79/8/3 82/8/3
f 84/7/3 76/7/3 80/7/3
f 84/7/3 80/7/3 83/7/3
f 85/6/3 82/6/3 81/6/3
f 86/8/3 83/8/3 82/8/3
f 86/6/3 82/6/3 85/6/3
f 87/6/3 84/6/3 83/6/3
f 87/8/3 83/8/3 86/8/3
f 88/6/3 84/6/3 87/6/3
f 89/6/3 84/6/3 88/6/3
f 90/6/3 84/6/3 89/6/3
f 96/2/3 92/2/3 91/2/3
f 97/1/3 93/1/3 92/1/3
f 97/2/3 92/2/3 96/2/3
f 98/1/3 93/1/3 97/1/3
f 99/1/3 93/1/3 98/1/3
f 100/4/3 95/4/3 94/4/3
f 101/6/3 96/6/3 95/6/3
f 101/4/3 95/4/3 100/4/3
f 102/6/3 96/6/3 101/6/3
f 106/4/3 104/4/3 103/4/3
f 107/6/3 105/6/3 104/6/3
f 107/4/3 104/4/3 106/4/3
f 108/6/3 105/6/3 107/6/3
f 112/2/3 109/2/3 108/2/3
f 113/1/3 111/1/3 110/1/3
f 113/2/3 109/2/3 112/2/3
f 113/1/3 110/1/3 109/1/3
f 114/1/3 111/1/3 113/1/3
f 115/2/4 116/2/4 120/2/4
f 116/1/4 117/1/4 121/1/4
f 120/2/4 116/2/4 121/2/4
f 121/1/4 117/1/4 122/1/4
f 122/1/4 117/1/4 123/1/4
f 118/4/4 119/4/4 124/4/4
f 119/6/4 120/6/4 125/6/4
f 124/4/4 119/4/4 125/4/4
f 125/6/4 120/6/4 126/6/4
f 127/4/4 128/4/4 130/4/4
f 128/6/4 129/6/4 131/6/4
f 130/4/4 128/4/4 131/4/4
f 131/6/4 129/6/4 132/6/4
f 132/2/4 133/2/4 136/2/4
f 134/1/4 135/1/4 137/1/4
f 136/2/4 133/2/4 137/2/4
f 133/1/4 134/1/4 137/1/4
f 137/1/4 135/1/4 138/1/4
f 139/7/4 140/7/4 144/7/4
f 141/6/4 142/6/4 145/6/4
f 142/8/4 143/8/4 146/8/4
f 145/6/4 142/6/4 146/6/4
f 143/7/4 144/7/4 147/7/4
f 146/8/4 143/8/4 147/8/4
f 144/7/4 140/7/4 148/7/4
f 147/7/4 144/7/4 148/7/4
f 148/7/4 140/7/4 149/7/4
f 149/7/4 140/7/4 150/7/4
f 155/4/5 152/4/5 151/4/5
f 156/4/5 152/4/5 155/4/5
f 157/4/5 154/4/5 153/4/5
f 158/4/5 154/4/5 157/4/5
f 163/7/5 160/7/5 159/7/5
f 164/7/5 160/7/5 163/7/5
f 165/6/5 161/6/5 160/6/5
f 165/7/5 160/7/5 164/7/5
f 166/6/5 161/6/5 165/6/5
f 167/6/5 161/6/5 166/6/5
f 169/2/5 163/2/5 162/2/5
f 170/2/5 163/2/5 169/2/5
f 171/1/5 166/1/5 165/1/5
f 171/1/5 165/1/5 164/1/5
f 172/1/5 166/1/5 171/1/5
f 173/2/5 168/2/5 167/2/5
f 174/2/5 168/2/5 173/2/5
f 175/6/5 172/6/5 171/6/5
f 175/6/5 173/6/5 172/6/5
f 175/6/5 171/6/5 170/6/5
f 176/6/5 173/6/5 175/6/5
f 181/7/5 178/7/5 177/7/5
f 182/7/5 178/7/5 181/7/5
f 183/6/5 180/6/5 179/6/5
f 184/6/5 180/6/5 183/6/5
f 185/6/5 180/6/5 184/6/5
f 186/7/5 181/7/5 177/7/5
f 189/7/5 185/7/5 184/7/5
f 190/7/5 187/7/5 186/7/5
f 190/7/5 186/7/5 177/7/5
f 191/7/5 187/7/5 190/7/5
f 192/7/5 189/7/5 188/7/5
f 193/7/5 185/7/5 189/7/5
f 193/7/5 189/7/5 192/7/5
f 194/7/6 195/7/6 197/7/6
f 195/6/6 196/6/6 198/6/6
f 197/7/6 195/7/6 198/7/6
f 198/6/6 196/6/6 199/6/6
f 199/6/6 196/6/6 200/6/6
f 200/6/6 196/6/6 201/6/6
f 194/7/6 197/7/6 202/7/6
f 197/5/6 198/5/6 202/5/6
f 198/5/6 199/5/6 202/5/6
f 199/6/6 200/6/6 203/6/6
f 202/5/6 199/5/6 203/5/6
f 200/7/6 201/7/6 204/7/6
f 203/6/6 200/6/6 204/6/6
f 202/7/6 203/7/6 205/7/6
f 194/7/6 202/7/6 205/7/6
f 203/7/6 204/7/6 205/7/6
f 204/7/6 201/7/6 206/7/6
f 205/7/6 204/7/6 206/7/6
