# MagicaVoxel @ Ephtracy

# material
mtllib Body 2.mtl
usemtl palette

# normals
vn -1 0 0
vn 1 0 0
vn 0 0 1
vn 0 0 -1
vn 0 -1 0
vn 0 1 0

# texcoords
vt 0.00195312 0.5
vt 0.0136719 0.5
vt 0.0371094 0.5
vt 0.634766 0.5
vt 0.638672 0.5
vt 0.958984 0.5
vt 0.962891 0.5
vt 0.978516 0.5
vt 0.982422 0.5

# verts
v -3 2 0.5
v -3 2 -0.5
v -3 3 0.5
v -3 3 -0.5
v -3 6 0.5
v -3 6 -0.5
v -2 0 0.5
v -2 0 -0.5
v -2 1 0.5
v -2 1 -0.5
v -2 2 1.5
v -2 2 0.5
v -2 2 -0.5
v -2 2 -1.5
v -2 3 0.5
v -2 3 -0.5
v -2 4 1.5
v -2 4 0.5
v -2 4 -0.5
v -2 4 -1.5
v -2 5 1.5
v -2 5 0.5
v -2 5 -0.5
v -2 5 -1.5
v -2 6 0.5
v -2 6 -0.5
v -2 7 1.5
v -2 7 -1.5
v 1 0 0.5
v 1 0 -0.5
v 1 1 0.5
v 1 1 -0.5
v 1 2 0.5
v 1 2 -0.5
v -1 0 0.5
v -1 0 -0.5
v -1 1 0.5
v -1 1 -0.5
v -1 2 0.5
v -1 2 -0.5
v 2 0 0.5
v 2 0 -0.5
v 2 1 0.5
v 2 1 -0.5
v 2 2 1.5
v 2 2 0.5
v 2 2 -0.5
v 2 2 -1.5
v 2 3 0.5
v 2 3 -0.5
v 2 4 1.5
v 2 4 0.5
v 2 4 -0.5
v 2 4 -1.5
v 2 5 1.5
v 2 5 0.5
v 2 5 -0.5
v 2 5 -1.5
v 2 6 0.5
v 2 6 -0.5
v 2 7 1.5
v 2 7 -1.5
v 3 2 0.5
v 3 2 -0.5
v 3 3 0.5
v 3 3 -0.5
v 3 6 0.5
v 3 6 -0.5
v -2 2 1.5
v -2 4 1.5
v -2 5 1.5
v -2 7 1.5
v 0 2 1.5
v 0 4 1.5
v 0 5 1.5
v 1 2 1.5
v 1 4 1.5
v 1 5 1.5
v 2 2 1.5
v 2 4 1.5
v 2 5 1.5
v 2 7 1.5
v -3 2 0.5
v -3 3 0.5
v -3 6 0.5
v -2 0 0.5
v -2 1 0.5
v -2 2 0.5
v -2 3 0.5
v -2 4 0.5
v -2 5 0.5
v -2 6 0.5
v -1 0 0.5
v -1 1 0.5
v -1 2 0.5
v 1 0 0.5
v 1 1 0.5
v 1 2 0.5
v 2 0 0.5
v 2 1 0.5
v 2 2 0.5
v 2 3 0.5
v 2 4 0.5
v 2 5 0.5
v 2 6 0.5
v 3 2 0.5
v 3 3 0.5
v 3 6 0.5
v -3 2 -0.5
v -3 3 -0.5
v -3 6 -0.5
v -2 0 -0.5
v -2 1 -0.5
v -2 2 -0.5
v -2 3 -0.5
v -2 4 -0.5
v -2 5 -0.5
v -2 6 -0.5
v -1 0 -0.5
v -1 1 -0.5
v -1 2 -0.5
v 1 0 -0.5
v 1 1 -0.5
v 1 2 -0.5
v 2 0 -0.5
v 2 1 -0.5
v 2 2 -0.5
v 2 3 -0.5
v 2 4 -0.5
v 2 5 -0.5
v 2 6 -0.5
v 3 2 -0.5
v 3 3 -0.5
v 3 6 -0.5
v -2 2 -1.5
v -2 4 -1.5
v -2 5 -1.5
v -2 7 -1.5
v 2 2 -1.5
v 2 4 -1.5
v 2 5 -1.5
v 2 7 -1.5
v -2 0 0.5
v -1 0 0.5
v 1 0 0.5
v 2 0 0.5
v -2 0 -0.5
v -1 0 -0.5
v 1 0 -0.5
v 2 0 -0.5
v -2 2 1.5
v 0 2 1.5
v 1 2 1.5
v 2 2 1.5
v -3 2 0.5
v -2 2 0.5
v -1 2 0.5
v 0 2 0.5
v 1 2 0.5
v 2 2 0.5
v 3 2 0.5
v -3 2 -0.5
v -2 2 -0.5
v -1 2 -0.5
v 1 2 -0.5
v 2 2 -0.5
v 3 2 -0.5
v -2 2 -1.5
v 2 2 -1.5
v -3 6 0.5
v -2 6 0.5
v 2 6 0.5
v 3 6 0.5
v -3 6 -0.5
v -2 6 -0.5
v 2 6 -0.5
v 3 6 -0.5
v -2 7 1.5
v 2 7 1.5
v -1 7 0.5
v 1 7 0.5
v -1 7 -0.5
v 1 7 -0.5
v -2 7 -1.5
v 2 7 -1.5

# faces
f 3/3/1 2/3/1 1/3/1
f 4/3/1 2/3/1 3/3/1
f 5/2/1 4/2/1 3/2/1
f 6/2/1 4/2/1 5/2/1
f 9/5/1 8/5/1 7/5/1
f 10/5/1 8/5/1 9/5/1
f 12/7/1 10/7/1 9/7/1
f 13/7/1 10/7/1 12/7/1
f 15/2/1 12/2/1 11/2/1
f 16/2/1 14/2/1 13/2/1
f 17/2/1 15/2/1 11/2/1
f 18/2/1 15/2/1 17/2/1
f 19/2/1 14/2/1 16/2/1
f 20/2/1 14/2/1 19/2/1
f 21/9/1 18/9/1 17/9/1
f 22/9/1 18/9/1 21/9/1
f 23/8/1 20/8/1 19/8/1
f 24/8/1 20/8/1 23/8/1
f 25/2/1 22/2/1 21/2/1
f 26/2/1 24/2/1 23/2/1
f 27/2/1 25/2/1 21/2/1
f 27/2/1 26/2/1 25/2/1
f 28/2/1 24/2/1 26/2/1
f 28/2/1 26/2/1 27/2/1
f 31/5/1 30/5/1 29/5/1
f 32/5/1 30/5/1 31/5/1
f 33/7/1 32/7/1 31/7/1
f 34/7/1 32/7/1 33/7/1
f 35/5/2 36/5/2 37/5/2
f 37/5/2 36/5/2 38/5/2
f 37/7/2 38/7/2 39/7/2
f 39/7/2 38/7/2 40/7/2
f 41/5/2 42/5/2 43/5/2
f 43/5/2 42/5/2 44/5/2
f 43/7/2 44/7/2 46/7/2
f 46/7/2 44/7/2 47/7/2
f 45/2/2 46/2/2 49/2/2
f 47/2/2 48/2/2 50/2/2
f 45/2/2 49/2/2 51/2/2
f 51/2/2 49/2/2 52/2/2
f 50/2/2 48/2/2 53/2/2
f 53/2/2 48/2/2 54/2/2
f 51/8/2 52/8/2 55/8/2
f 55/8/2 52/8/2 56/8/2
f 53/8/2 54/8/2 57/8/2
f 57/8/2 54/8/2 58/8/2
f 55/2/2 56/2/2 59/2/2
f 57/2/2 58/2/2 60/2/2
f 55/2/2 59/2/2 61/2/2
f 59/2/2 60/2/2 61/2/2
f 60/2/2 58/2/2 62/2/2
f 61/2/2 60/2/2 62/2/2
f 63/3/2 64/3/2 65/3/2
f 65/3/2 64/3/2 66/3/2
f 65/2/2 66/2/2 67/2/2
f 67/2/2 66/2/2 68/2/2
f 73/2/3 70/2/3 69/2/3
f 74/9/3 71/9/3 70/9/3
f 74/2/3 70/2/3 73/2/3
f 75/2/3 72/2/3 71/2/3
f 75/9/3 71/9/3 74/9/3
f 76/8/3 74/8/3 73/8/3
f 77/6/3 75/6/3 74/6/3
f 77/8/3 74/8/3 76/8/3
f 78/2/3 72/2/3 75/2/3
f 78/6/3 75/6/3 77/6/3
f 79/2/3 77/2/3 76/2/3
f 80/8/3 78/8/3 77/8/3
f 80/2/3 77/2/3 79/2/3
f 81/2/3 72/2/3 78/2/3
f 81/8/3 78/8/3 80/8/3
f 82/2/3 72/2/3 81/2/3
f 88/3/3 84/3/3 83/3/3
f 89/2/3 85/2/3 84/2/3
f 89/3/3 84/3/3 88/3/3
f 90/2/3 85/2/3 89/2/3
f 91/2/3 85/2/3 90/2/3
f 92/2/3 85/2/3 91/2/3
f 93/5/3 87/5/3 86/5/3
f 94/7/3 88/7/3 87/7/3
f 94/5/3 87/5/3 93/5/3
f 95/7/3 88/7/3 94/7/3
f 99/5/3 97/5/3 96/5/3
f 100/7/3 98/7/3 97/7/3
f 100/5/3 97/5/3 99/5/3
f 101/7/3 98/7/3 100/7/3
f 106/3/3 102/3/3 101/3/3
f 107/2/3 105/2/3 104/2/3
f 107/3/3 102/3/3 106/3/3
f 107/2/3 104/2/3 103/2/3
f 107/2/3 103/2/3 102/2/3
f 108/2/3 105/2/3 107/2/3
f 109/3/4 110/3/4 114/3/4
f 110/2/4 111/2/4 115/2/4
f 114/3/4 110/3/4 115/3/4
f 115/2/4 111/2/4 116/2/4
f 116/2/4 111/2/4 117/2/4
f 117/2/4 111/2/4 118/2/4
f 112/5/4 113/5/4 119/5/4
f 113/7/4 114/7/4 120/7/4
f 119/5/4 113/5/4 120/5/4
f 120/7/4 114/7/4 121/7/4
f 122/5/4 123/5/4 125/5/4
f 123/7/4 124/7/4 126/7/4
f 125/5/4 123/5/4 126/5/4
f 126/7/4 124/7/4 127/7/4
f 127/3/4 128/3/4 132/3/4
f 130/2/4 131/2/4 133/2/4
f 132/3/4 128/3/4 133/3/4
f 129/2/4 130/2/4 133/2/4
f 128/2/4 129/2/4 133/2/4
f 133/2/4 131/2/4 134/2/4
f 135/2/4 136/2/4 139/2/4
f 136/8/4 137/8/4 140/8/4
f 139/2/4 136/2/4 140/2/4
f 137/2/4 138/2/4 141/2/4
f 140/8/4 137/8/4 141/8/4
f 141/2/4 138/2/4 142/2/4
f 147/5/5 144/5/5 143/5/5
f 148/5/5 144/5/5 147/5/5
f 149/5/5 146/5/5 145/5/5
f 150/5/5 146/5/5 149/5/5
f 156/2/5 152/2/5 151/2/5
f 157/2/5 152/2/5 156/2/5
f 158/8/5 153/8/5 152/8/5
f 158/2/5 152/2/5 157/2/5
f 159/2/5 154/2/5 153/2/5
f 159/8/5 153/8/5 158/8/5
f 160/2/5 154/2/5 159/2/5
f 162/3/5 156/3/5 155/3/5
f 163/3/5 156/3/5 162/3/5
f 164/2/5 158/2/5 157/2/5
f 164/2/5 159/2/5 158/2/5
f 165/2/5 159/2/5 164/2/5
f 166/3/5 161/3/5 160/3/5
f 167/3/5 161/3/5 166/3/5
f 168/2/5 165/2/5 164/2/5
f 168/2/5 166/2/5 165/2/5
f 168/2/5 164/2/5 163/2/5
f 169/2/5 166/2/5 168/2/5
f 170/2/6 171/2/6 174/2/6
f 174/2/6 171/2/6 175/2/6
f 172/2/6 173/2/6 176/2/6
f 176/2/6 173/2/6 177/2/6
f 178/2/6 179/2/6 180/2/6
f 180/2/6 179/2/6 181/2/6
f 178/2/6 180/2/6 182/2/6
f 180/1/6 181/1/6 182/1/6
f 181/2/6 179/2/6 183/2/6
f 182/1/6 181/1/6 183/1/6
f 178/2/6 182/2/6 184/2/6
f 182/2/6 183/2/6 184/2/6
f 183/2/6 179/2/6 185/2/6
f 184/2/6 183/2/6 185/2/6
