# MagicaVoxel @ Ephtracy

# material
mtllib Body 7.mtl
usemtl palette

# normals
vn -1 0 0
vn 1 0 0
vn 0 0 1
vn 0 0 -1
vn 0 -1 0
vn 0 1 0

# texcoords
vt 0.166016 0.5
vt 0.634766 0.5
vt 0.638672 0.5
vt 0.962891 0.5
vt 0.974609 0.5
vt 0.978516 0.5
vt 0.982422 0.5

# verts
v -4 2 1.5
v -4 2 0.5
v -4 3 1.5
v -4 3 0.5
v -4 3 -0.5
v -4 4 0.5
v -4 4 -0.5
v -4 5 1.5
v -4 5 -1.5
v -4 7 1.5
v -4 7 -1.5
v -3 4 0.5
v -3 4 -0.5
v -3 5 0.5
v -3 5 -0.5
v -2 0 0.5
v -2 0 -0.5
v -2 1 0.5
v -2 1 -0.5
v -2 2 1.5
v -2 2 0.5
v -2 2 -0.5
v -2 2 -1.5
v -2 3 1.5
v -2 3 0.5
v -2 3 -1.5
v -2 4 2.5
v -2 4 1.5
v -2 4 0.5
v -2 4 -0.5
v -2 4 -1.5
v -2 4 -2.5
v -2 5 1.5
v -2 5 0.5
v -2 5 -0.5
v -2 5 -1.5
v -2 7 2.5
v -2 7 1.5
v -2 7 -1.5
v -2 7 -2.5
v 1 0 0.5
v 1 0 -0.5
v 1 1 0.5
v 1 1 -0.5
v 1 2 0.5
v 1 2 -0.5
v 3 2 1.5
v 3 2 0.5
v 3 3 1.5
v 3 3 0.5
v 3 3 -0.5
v 3 4 0.5
v 3 4 -0.5
v -3 2 1.5
v -3 2 0.5
v -3 3 1.5
v -3 3 0.5
v -3 3 -0.5
v -3 4 0.5
v -3 4 -0.5
v -1 0 0.5
v -1 0 -0.5
v -1 1 0.5
v -1 1 -0.5
v -1 2 0.5
v -1 2 -0.5
v 2 0 0.5
v 2 0 -0.5
v 2 1 0.5
v 2 1 -0.5
v 2 2 1.5
v 2 2 0.5
v 2 2 -0.5
v 2 2 -1.5
v 2 3 1.5
v 2 3 -1.5
v 2 4 2.5
v 2 4 1.5
v 2 4 0.5
v 2 4 -0.5
v 2 4 -1.5
v 2 4 -2.5
v 2 5 1.5
v 2 5 0.5
v 2 5 -0.5
v 2 5 -1.5
v 2 7 2.5
v 2 7 1.5
v 2 7 -1.5
v 2 7 -2.5
v 3 4 0.5
v 3 4 -0.5
v 3 5 0.5
v 3 5 -0.5
v 4 2 1.5
v 4 2 0.5
v 4 3 1.5
v 4 3 0.5
v 4 3 -0.5
v 4 4 0.5
v 4 4 -0.5
v 4 5 1.5
v 4 5 0.5
v 4 5 -1.5
v 4 7 1.5
v 4 7 0.5
v 4 7 -1.5
v -2 4 2.5
v -2 7 2.5
v 0 4 2.5
v 0 7 2.5
v 2 4 2.5
v 2 7 2.5
v -4 2 1.5
v -4 3 1.5
v -4 5 1.5
v -4 7 1.5
v -3 2 1.5
v -3 3 1.5
v -2 2 1.5
v -2 3 1.5
v -2 4 1.5
v -2 5 1.5
v -2 7 1.5
v 0 2 1.5
v 0 3 1.5
v 0 4 1.5
v 2 2 1.5
v 2 3 1.5
v 2 4 1.5
v 2 5 1.5
v 2 7 1.5
v 3 2 1.5
v 3 3 1.5
v 4 2 1.5
v 4 3 1.5
v 4 5 1.5
v 4 7 1.5
v -4 3 0.5
v -4 4 0.5
v -3 3 0.5
v -3 4 0.5
v -3 5 0.5
v -2 0 0.5
v -2 1 0.5
v -2 2 0.5
v -2 4 0.5
v -2 5 0.5
v -1 0 0.5
v -1 1 0.5
v -1 2 0.5
v 1 0 0.5
v 1 1 0.5
v 1 2 0.5
v 2 0 0.5
v 2 1 0.5
v 2 2 0.5
v 2 4 0.5
v 2 5 0.5
v 3 3 0.5
v 3 4 0.5
v 3 5 0.5
v 4 3 0.5
v 4 4 0.5
v -4 2 0.5
v -4 3 0.5
v -3 2 0.5
v -3 3 0.5
v 3 2 0.5
v 3 3 0.5
v 4 2 0.5
v 4 3 0.5
v -4 3 -0.5
v -4 4 -0.5
v -3 3 -0.5
v -3 4 -0.5
v -3 5 -0.5
v -2 0 -0.5
v -2 1 -0.5
v -2 2 -0.5
v -2 4 -0.5
v -2 5 -0.5
v -1 0 -0.5
v -1 1 -0.5
v -1 2 -0.5
v 1 0 -0.5
v 1 1 -0.5
v 1 2 -0.5
v 2 0 -0.5
v 2 1 -0.5
v 2 2 -0.5
v 2 4 -0.5
v 2 5 -0.5
v 3 3 -0.5
v 3 4 -0.5
v 3 5 -0.5
v 4 3 -0.5
v 4 4 -0.5
v -4 5 -1.5
v -4 7 -1.5
v -2 2 -1.5
v -2 3 -1.5
v -2 4 -1.5
v -2 5 -1.5
v -2 7 -1.5
v 2 2 -1.5
v 2 3 -1.5
v 2 4 -1.5
v 2 5 -1.5
v 2 7 -1.5
v 4 5 -1.5
v 4 7 -1.5
v -2 4 -2.5
v -2 7 -2.5
v 2 4 -2.5
v 2 7 -2.5
v -2 0 0.5
v -1 0 0.5
v 1 0 0.5
v 2 0 0.5
v -2 0 -0.5
v -1 0 -0.5
v 1 0 -0.5
v 2 0 -0.5
v -4 2 1.5
v -3 2 1.5
v -2 2 1.5
v 0 2 1.5
v 2 2 1.5
v 3 2 1.5
v 4 2 1.5
v -4 2 0.5
v -3 2 0.5
v -2 2 0.5
v -1 2 0.5
v 0 2 0.5
v 1 2 0.5
v 2 2 0.5
v 3 2 0.5
v 4 2 0.5
v -2 2 -0.5
v -1 2 -0.5
v 1 2 -0.5
v 2 2 -0.5
v -2 2 -1.5
v 2 2 -1.5
v -4 3 0.5
v -3 3 0.5
v 3 3 0.5
v 4 3 0.5
v -4 3 -0.5
v -3 3 -0.5
v 3 3 -0.5
v 4 3 -0.5
v -2 4 2.5
v 0 4 2.5
v 2 4 2.5
v -2 4 1.5
v 0 4 1.5
v 2 4 1.5
v -3 4 0.5
v -2 4 0.5
v 2 4 0.5
v 3 4 0.5
v -3 4 -0.5
v -2 4 -0.5
v 2 4 -0.5
v 3 4 -0.5
v -2 4 -1.5
v 2 4 -1.5
v -2 4 -2.5
v 2 4 -2.5
v -4 5 1.5
v -2 5 1.5
v 2 5 1.5
v 4 5 1.5
v -3 5 0.5
v -2 5 0.5
v 2 5 0.5
v 3 5 0.5
v 4 5 0.5
v -3 5 -0.5
v -2 5 -0.5
v 2 5 -0.5
v 3 5 -0.5
v -4 5 -1.5
v -2 5 -1.5
v 2 5 -1.5
v 4 5 -1.5
v -4 3 1.5
v -3 3 1.5
v 3 3 1.5
v 4 3 1.5
v -4 3 0.5
v -3 3 0.5
v 3 3 0.5
v 4 3 0.5
v -4 4 0.5
v -3 4 0.5
v 3 4 0.5
v 4 4 0.5
v -4 4 -0.5
v -3 4 -0.5
v 3 4 -0.5
v 4 4 -0.5
v -2 7 2.5
v 0 7 2.5
v 2 7 2.5
v -4 7 1.5
v -2 7 1.5
v 2 7 1.5
v 4 7 1.5
v -2 7 0.5
v 0 7 0.5
v 2 7 0.5
v 3 7 0.5
v 4 7 0.5
v -2 7 -0.5
v 2 7 -0.5
v 3 7 -0.5
v -4 7 -1.5
v -2 7 -1.5
v 2 7 -1.5
v 4 7 -1.5
v -2 7 -2.5
v 2 7 -2.5

# faces
f 3/5/1 2/5/1 1/5/1
f 4/5/1 2/5/1 3/5/1
f 6/6/1 5/6/1 4/6/1
f 7/6/1 5/6/1 6/6/1
f 10/6/1 9/6/1 8/6/1
f 11/6/1 9/6/1 10/6/1
f 14/6/1 13/6/1 12/6/1
f 15/6/1 13/6/1 14/6/1
f 18/3/1 17/3/1 16/3/1
f 19/3/1 17/3/1 18/3/1
f 21/5/1 19/5/1 18/5/1
f 22/5/1 19/5/1 21/5/1
f 24/6/1 21/6/1 20/6/1
f 25/5/1 22/5/1 21/5/1
f 25/6/1 21/6/1 24/6/1
f 25/5/1 23/5/1 22/5/1
f 26/5/1 23/5/1 25/5/1
f 28/7/1 25/7/1 24/7/1
f 28/7/1 26/7/1 25/7/1
f 29/7/1 26/7/1 28/7/1
f 30/7/1 26/7/1 29/7/1
f 31/7/1 26/7/1 30/7/1
f 33/6/1 28/6/1 27/6/1
f 33/6/1 29/6/1 28/6/1
f 34/6/1 29/6/1 33/6/1
f 35/6/1 31/6/1 30/6/1
f 35/6/1 32/6/1 31/6/1
f 36/6/1 32/6/1 35/6/1
f 37/6/1 33/6/1 27/6/1
f 38/6/1 33/6/1 37/6/1
f 39/6/1 32/6/1 36/6/1
f 40/6/1 32/6/1 39/6/1
f 43/3/1 42/3/1 41/3/1
f 44/3/1 42/3/1 43/3/1
f 45/5/1 44/5/1 43/5/1
f 46/5/1 44/5/1 45/5/1
f 49/5/1 48/5/1 47/5/1
f 50/5/1 48/5/1 49/5/1
f 52/6/1 51/6/1 50/6/1
f 53/6/1 51/6/1 52/6/1
f 54/5/2 55/5/2 56/5/2
f 56/5/2 55/5/2 57/5/2
f 57/6/2 58/6/2 59/6/2
f 59/6/2 58/6/2 60/6/2
f 61/3/2 62/3/2 63/3/2
f 63/3/2 62/3/2 64/3/2
f 63/5/2 64/5/2 65/5/2
f 65/5/2 64/5/2 66/5/2
f 67/3/2 68/3/2 69/3/2
f 69/3/2 68/3/2 70/3/2
f 69/5/2 70/5/2 72/5/2
f 72/5/2 70/5/2 73/5/2
f 72/5/2 73/5/2 75/5/2
f 73/5/2 74/5/2 75/5/2
f 71/5/2 72/5/2 75/5/2
f 75/5/2 74/5/2 76/5/2
f 75/7/2 76/7/2 78/7/2
f 78/7/2 76/7/2 79/7/2
f 79/7/2 76/7/2 80/7/2
f 80/7/2 76/7/2 81/7/2
f 77/5/2 78/5/2 83/5/2
f 78/5/2 79/5/2 83/5/2
f 83/5/2 79/5/2 84/5/2
f 80/6/2 81/6/2 85/6/2
f 81/6/2 82/6/2 85/6/2
f 85/6/2 82/6/2 86/6/2
f 77/5/2 83/5/2 87/5/2
f 87/5/2 83/5/2 88/5/2
f 86/6/2 82/6/2 89/6/2
f 89/6/2 82/6/2 90/6/2
f 91/6/2 92/6/2 93/6/2
f 93/6/2 92/6/2 94/6/2
f 95/5/2 96/5/2 97/5/2
f 97/5/2 96/5/2 98/5/2
f 98/6/2 99/6/2 100/6/2
f 100/6/2 99/6/2 101/6/2
f 102/5/2 103/5/2 105/5/2
f 103/6/2 104/6/2 106/6/2
f 105/5/2 103/5/2 106/5/2
f 106/6/2 104/6/2 107/6/2
f 110/6/3 109/6/3 108/6/3
f 111/6/3 109/6/3 110/6/3
f 112/5/3 111/5/3 110/5/3
f 113/5/3 111/5/3 112/5/3
f 118/5/3 115/5/3 114/5/3
f 119/5/3 115/5/3 118/5/3
f 123/6/3 117/6/3 116/6/3
f 124/6/3 117/6/3 123/6/3
f 125/6/3 121/6/3 120/6/3
f 126/7/3 122/7/3 121/7/3
f 126/6/3 121/6/3 125/6/3
f 127/7/3 122/7/3 126/7/3
f 128/5/3 126/5/3 125/5/3
f 129/7/3 127/7/3 126/7/3
f 129/5/3 126/5/3 128/5/3
f 130/7/3 127/7/3 129/7/3
f 135/5/3 134/5/3 133/5/3
f 136/5/3 134/5/3 135/5/3
f 137/5/3 132/5/3 131/5/3
f 138/5/3 132/5/3 137/5/3
f 141/6/3 140/6/3 139/6/3
f 142/6/3 140/6/3 141/6/3
f 147/6/3 143/6/3 142/6/3
f 148/6/3 143/6/3 147/6/3
f 149/3/3 145/3/3 144/3/3
f 150/5/3 146/5/3 145/5/3
f 150/3/3 145/3/3 149/3/3
f 151/5/3 146/5/3 150/5/3
f 155/3/3 153/3/3 152/3/3
f 156/5/3 154/5/3 153/5/3
f 156/3/3 153/3/3 155/3/3
f 157/5/3 154/5/3 156/5/3
f 161/6/3 159/6/3 158/6/3
f 162/6/3 159/6/3 161/6/3
f 163/6/3 161/6/3 160/6/3
f 164/6/3 161/6/3 163/6/3
f 165/5/4 166/5/4 167/5/4
f 167/5/4 166/5/4 168/5/4
f 169/5/4 170/5/4 171/5/4
f 171/5/4 170/5/4 172/5/4
f 173/6/4 174/6/4 175/6/4
f 175/6/4 174/6/4 176/6/4
f 176/6/4 177/6/4 181/6/4
f 181/6/4 177/6/4 182/6/4
f 178/3/4 179/3/4 183/3/4
f 179/5/4 180/5/4 184/5/4
f 183/3/4 179/3/4 184/3/4
f 184/5/4 180/5/4 185/5/4
f 186/3/4 187/3/4 189/3/4
f 187/5/4 188/5/4 190/5/4
f 189/3/4 187/3/4 190/3/4
f 190/5/4 188/5/4 191/5/4
f 192/6/4 193/6/4 195/6/4
f 195/6/4 193/6/4 196/6/4
f 194/6/4 195/6/4 197/6/4
f 197/6/4 195/6/4 198/6/4
f 199/6/4 200/6/4 204/6/4
f 204/6/4 200/6/4 205/6/4
f 201/5/4 202/5/4 206/5/4
f 202/7/4 203/7/4 207/7/4
f 206/5/4 202/5/4 207/5/4
f 207/7/4 203/7/4 208/7/4
f 209/6/4 210/6/4 211/6/4
f 211/6/4 210/6/4 212/6/4
f 213/6/4 214/6/4 215/6/4
f 215/6/4 214/6/4 216/6/4
f 221/3/5 218/3/5 217/3/5
f 222/3/5 218/3/5 221/3/5
f 223/3/5 220/3/5 219/3/5
f 224/3/5 220/3/5 223/3/5
f 232/5/5 226/5/5 225/5/5
f 233/5/5 226/5/5 232/5/5
f 234/6/5 228/6/5 227/6/5
f 235/6/5 228/6/5 234/6/5
f 236/5/5 229/5/5 228/5/5
f 236/6/5 228/6/5 235/6/5
f 237/5/5 229/5/5 236/5/5
f 238/5/5 229/5/5 237/5/5
f 239/5/5 231/5/5 230/5/5
f 240/5/5 231/5/5 239/5/5
f 242/1/5 237/1/5 236/1/5
f 242/1/5 236/1/5 235/1/5
f 243/1/5 237/1/5 242/1/5
f 245/5/5 242/5/5 241/5/5
f 245/5/5 244/5/5 243/5/5
f 245/5/5 243/5/5 242/5/5
f 246/5/5 244/5/5 245/5/5
f 251/6/5 248/6/5 247/6/5
f 252/6/5 248/6/5 251/6/5
f 253/6/5 250/6/5 249/6/5
f 254/6/5 250/6/5 253/6/5
f 258/6/5 256/6/5 255/6/5
f 259/5/5 257/5/5 256/5/5
f 259/6/5 256/6/5 258/6/5
f 260/5/5 257/5/5 259/5/5
f 265/6/5 262/6/5 261/6/5
f 266/6/5 262/6/5 265/6/5
f 267/6/5 264/6/5 263/6/5
f 268/6/5 264/6/5 267/6/5
f 271/6/5 270/6/5 269/6/5
f 272/6/5 270/6/5 271/6/5
f 277/6/5 274/6/5 273/6/5
f 278/6/5 274/6/5 277/6/5
f 279/5/5 276/5/5 275/5/5
f 280/5/5 276/5/5 279/5/5
f 281/5/5 276/5/5 280/5/5
f 282/6/5 277/6/5 273/6/5
f 285/6/5 281/6/5 280/6/5
f 286/6/5 283/6/5 282/6/5
f 286/6/5 282/6/5 273/6/5
f 287/6/5 283/6/5 286/6/5
f 288/6/5 285/6/5 284/6/5
f 289/6/5 281/6/5 285/6/5
f 289/6/5 285/6/5 288/6/5
f 290/5/6 291/5/6 294/5/6
f 294/5/6 291/5/6 295/5/6
f 292/5/6 293/5/6 296/5/6
f 296/5/6 293/5/6 297/5/6
f 298/6/6 299/6/6 302/6/6
f 302/6/6 299/6/6 303/6/6
f 300/6/6 301/6/6 304/6/6
f 304/6/6 301/6/6 305/6/6
f 306/6/6 307/6/6 310/6/6
f 307/5/6 308/5/6 311/5/6
f 309/6/6 310/6/6 313/6/6
f 310/6/6 307/6/6 313/6/6
f 311/5/6 312/5/6 314/5/6
f 313/6/6 307/6/6 314/6/6
f 307/5/6 311/5/6 314/5/6
f 314/5/6 312/5/6 315/5/6
f 315/5/6 312/5/6 316/5/6
f 316/5/6 312/5/6 317/5/6
f 309/6/6 313/6/6 318/6/6
f 313/4/6 314/4/6 318/4/6
f 314/4/6 315/4/6 318/4/6
f 315/5/6 316/5/6 319/5/6
f 318/4/6 315/4/6 319/4/6
f 316/6/6 317/6/6 320/6/6
f 319/5/6 316/5/6 320/5/6
f 318/6/6 319/6/6 321/6/6
f 309/6/6 318/6/6 321/6/6
f 319/6/6 320/6/6 321/6/6
f 321/6/6 320/6/6 322/6/6
f 322/6/6 320/6/6 323/6/6
f 320/6/6 317/6/6 324/6/6
f 323/6/6 320/6/6 324/6/6
f 322/6/6 323/6/6 325/6/6
f 325/6/6 323/6/6 326/6/6
