# MagicaVoxel @ Ephtracy

# material
mtllib Body 8.mtl
usemtl palette

# normals
vn -1 0 0
vn 1 0 0
vn 0 0 1
vn 0 0 -1
vn 0 -1 0
vn 0 1 0

# texcoords
vt 0.0136719 0.5
vt 0.0371094 0.5
vt 0.193359 0.5
vt 0.634766 0.5
vt 0.638672 0.5

# verts
v -3 1 1.5
v -3 1 -1.5
v -3 2 1.5
v -3 2 0.5
v -3 2 -0.5
v -3 2 -1.5
v -3 4 0.5
v -3 4 -0.5
v -3 6 0.5
v -3 6 -0.5
v -2 0 0.5
v -2 0 -0.5
v -2 1 2.5
v -2 1 1.5
v -2 1 0.5
v -2 1 -0.5
v -2 1 -1.5
v -2 1 -2.5
v -2 2 2.5
v -2 2 1.5
v -2 2 0.5
v -2 2 -0.5
v -2 2 -1.5
v -2 2 -2.5
v -2 4 1.5
v -2 4 0.5
v -2 4 -0.5
v -2 4 -1.5
v -2 5 1.5
v -2 5 0.5
v -2 5 -0.5
v -2 5 -1.5
v -2 6 1.5
v -2 6 0.5
v -2 6 -0.5
v -2 6 -1.5
v -2 7 1.5
v -2 7 -1.5
v 1 0 0.5
v 1 0 -0.5
v 1 1 1.5
v 1 1 0.5
v 1 1 -0.5
v 1 1 -1.5
v 1 2 1.5
v 1 2 -1.5
v -1 0 0.5
v -1 0 -0.5
v -1 1 1.5
v -1 1 0.5
v -1 1 -0.5
v -1 1 -1.5
v -1 2 1.5
v -1 2 -1.5
v 2 0 0.5
v 2 0 -0.5
v 2 1 2.5
v 2 1 1.5
v 2 1 0.5
v 2 1 -0.5
v 2 1 -1.5
v 2 1 -2.5
v 2 2 2.5
v 2 2 1.5
v 2 2 0.5
v 2 2 -0.5
v 2 2 -1.5
v 2 2 -2.5
v 2 4 1.5
v 2 4 0.5
v 2 4 -0.5
v 2 4 -1.5
v 2 5 1.5
v 2 5 0.5
v 2 5 -0.5
v 2 5 -1.5
v 2 6 1.5
v 2 6 0.5
v 2 6 -0.5
v 2 6 -1.5
v 2 7 1.5
v 2 7 -1.5
v 3 1 1.5
v 3 1 -1.5
v 3 2 1.5
v 3 2 0.5
v 3 2 -0.5
v 3 2 -1.5
v 3 4 0.5
v 3 4 -0.5
v 3 6 0.5
v 3 6 -0.5
v -2 1 2.5
v -2 2 2.5
v 2 1 2.5
v 2 2 2.5
v -3 1 1.5
v -3 2 1.5
v -2 1 1.5
v -2 2 1.5
v -2 4 1.5
v -2 5 1.5
v -2 6 1.5
v -2 7 1.5
v 2 1 1.5
v 2 2 1.5
v 2 4 1.5
v 2 5 1.5
v 2 6 1.5
v 2 7 1.5
v 3 1 1.5
v 3 2 1.5
v -3 2 0.5
v -3 4 0.5
v -3 6 0.5
v -2 0 0.5
v -2 1 0.5
v -2 2 0.5
v -2 4 0.5
v -2 5 0.5
v -2 6 0.5
v -1 0 0.5
v -1 1 0.5
v 1 0 0.5
v 1 1 0.5
v 2 0 0.5
v 2 1 0.5
v 2 2 0.5
v 2 4 0.5
v 2 5 0.5
v 2 6 0.5
v 3 2 0.5
v 3 4 0.5
v 3 6 0.5
v -1 1 -1.5
v -1 2 -1.5
v 1 1 -1.5
v 1 2 -1.5
v -1 1 1.5
v -1 2 1.5
v 1 1 1.5
v 1 2 1.5
v -3 2 -0.5
v -3 4 -0.5
v -3 6 -0.5
v -2 0 -0.5
v -2 1 -0.5
v -2 2 -0.5
v -2 4 -0.5
v -2 5 -0.5
v -2 6 -0.5
v -1 0 -0.5
v -1 1 -0.5
v 1 0 -0.5
v 1 1 -0.5
v 2 0 -0.5
v 2 1 -0.5
v 2 2 -0.5
v 2 4 -0.5
v 2 5 -0.5
v 2 6 -0.5
v 3 2 -0.5
v 3 4 -0.5
v 3 6 -0.5
v -3 1 -1.5
v -3 2 -1.5
v -2 1 -1.5
v -2 2 -1.5
v -2 4 -1.5
v -2 5 -1.5
v -2 6 -1.5
v -2 7 -1.5
v 2 1 -1.5
v 2 2 -1.5
v 2 4 -1.5
v 2 5 -1.5
v 2 6 -1.5
v 2 7 -1.5
v 3 1 -1.5
v 3 2 -1.5
v -2 1 -2.5
v -2 2 -2.5
v 2 1 -2.5
v 2 2 -2.5
v -2 0 0.5
v -1 0 0.5
v 1 0 0.5
v 2 0 0.5
v -2 0 -0.5
v -1 0 -0.5
v 1 0 -0.5
v 2 0 -0.5
v -2 1 2.5
v 2 1 2.5
v -3 1 1.5
v -2 1 1.5
v -1 1 1.5
v 1 1 1.5
v 2 1 1.5
v 3 1 1.5
v -2 1 0.5
v -1 1 0.5
v 1 1 0.5
v 2 1 0.5
v -2 1 -0.5
v -1 1 -0.5
v 1 1 -0.5
v 2 1 -0.5
v -3 1 -1.5
v -2 1 -1.5
v -1 1 -1.5
v 1 1 -1.5
v 2 1 -1.5
v 3 1 -1.5
v -2 1 -2.5
v 2 1 -2.5
v -1 2 1.5
v 1 2 1.5
v -1 2 -1.5
v 1 2 -1.5
v -2 2 2.5
v 2 2 2.5
v -3 2 1.5
v -2 2 1.5
v 2 2 1.5
v 3 2 1.5
v -3 2 0.5
v -2 2 0.5
v 2 2 0.5
v 3 2 0.5
v -3 2 -0.5
v -2 2 -0.5
v 2 2 -0.5
v 3 2 -0.5
v -3 2 -1.5
v -2 2 -1.5
v 2 2 -1.5
v 3 2 -1.5
v -2 2 -2.5
v 2 2 -2.5
v -3 6 0.5
v -2 6 0.5
v 2 6 0.5
v 3 6 0.5
v -3 6 -0.5
v -2 6 -0.5
v 2 6 -0.5
v 3 6 -0.5
v -2 7 1.5
v 2 7 1.5
v -2 7 -1.5
v 2 7 -1.5

# faces
f 3/1/1 2/1/1 1/1/1
f 4/1/1 2/1/1 3/1/1
f 5/1/1 2/1/1 4/1/1
f 6/1/1 2/1/1 5/1/1
f 7/2/1 5/2/1 4/2/1
f 8/2/1 5/2/1 7/2/1
f 9/1/1 8/1/1 7/1/1
f 10/1/1 8/1/1 9/1/1
f 15/5/1 12/5/1 11/5/1
f 16/5/1 12/5/1 15/5/1
f 19/1/1 14/1/1 13/1/1
f 20/1/1 14/1/1 19/1/1
f 23/1/1 18/1/1 17/1/1
f 24/1/1 18/1/1 23/1/1
f 25/1/1 21/1/1 20/1/1
f 26/1/1 21/1/1 25/1/1
f 27/1/1 23/1/1 22/1/1
f 28/1/1 23/1/1 27/1/1
f 29/3/1 26/3/1 25/3/1
f 30/3/1 26/3/1 29/3/1
f 31/3/1 28/3/1 27/3/1
f 32/3/1 28/3/1 31/3/1
f 33/1/1 30/1/1 29/1/1
f 34/1/1 30/1/1 33/1/1
f 35/1/1 32/1/1 31/1/1
f 36/1/1 32/1/1 35/1/1
f 37/2/1 34/2/1 33/2/1
f 37/2/1 35/2/1 34/2/1
f 37/2/1 36/2/1 35/2/1
f 38/2/1 36/2/1 37/2/1
f 42/5/1 40/5/1 39/5/1
f 43/5/1 40/5/1 42/5/1
f 45/1/1 42/1/1 41/1/1
f 45/1/1 44/1/1 43/1/1
f 45/1/1 43/1/1 42/1/1
f 46/1/1 44/1/1 45/1/1
f 47/5/2 48/5/2 50/5/2
f 50/5/2 48/5/2 51/5/2
f 49/1/2 50/1/2 53/1/2
f 51/1/2 52/1/2 53/1/2
f 50/1/2 51/1/2 53/1/2
f 53/1/2 52/1/2 54/1/2
f 55/5/2 56/5/2 59/5/2
f 59/5/2 56/5/2 60/5/2
f 57/1/2 58/1/2 63/1/2
f 63/1/2 58/1/2 64/1/2
f 61/1/2 62/1/2 67/1/2
f 67/1/2 62/1/2 68/1/2
f 64/1/2 65/1/2 69/1/2
f 69/1/2 65/1/2 70/1/2
f 66/1/2 67/1/2 71/1/2
f 71/1/2 67/1/2 72/1/2
f 69/3/2 70/3/2 73/3/2
f 73/3/2 70/3/2 74/3/2
f 71/3/2 72/3/2 75/3/2
f 75/3/2 72/3/2 76/3/2
f 73/1/2 74/1/2 77/1/2
f 77/1/2 74/1/2 78/1/2
f 75/1/2 76/1/2 79/1/2
f 79/1/2 76/1/2 80/1/2
f 77/2/2 78/2/2 81/2/2
f 78/2/2 79/2/2 81/2/2
f 79/2/2 80/2/2 81/2/2
f 81/2/2 80/2/2 82/2/2
f 83/1/2 84/1/2 85/1/2
f 85/1/2 84/1/2 86/1/2
f 86/1/2 84/1/2 87/1/2
f 87/1/2 84/1/2 88/1/2
f 86/2/2 87/2/2 89/2/2
f 89/2/2 87/2/2 90/2/2
f 89/1/2 90/1/2 91/1/2
f 91/1/2 90/1/2 92/1/2
f 95/1/3 94/1/3 93/1/3
f 96/1/3 94/1/3 95/1/3
f 99/1/3 98/1/3 97/1/3
f 100/1/3 98/1/3 99/1/3
f 106/1/3 101/1/3 100/1/3
f 107/3/3 102/3/3 101/3/3
f 107/1/3 101/1/3 106/1/3
f 108/1/3 103/1/3 102/1/3
f 108/3/3 102/3/3 107/3/3
f 109/2/3 104/2/3 103/2/3
f 109/1/3 103/1/3 108/1/3
f 110/2/3 104/2/3 109/2/3
f 111/1/3 106/1/3 105/1/3
f 112/1/3 106/1/3 111/1/3
f 118/2/3 114/2/3 113/2/3
f 119/1/3 115/1/3 114/1/3
f 119/2/3 114/2/3 118/2/3
f 120/1/3 115/1/3 119/1/3
f 121/1/3 115/1/3 120/1/3
f 122/5/3 117/5/3 116/5/3
f 123/5/3 117/5/3 122/5/3
f 126/5/3 125/5/3 124/5/3
f 127/5/3 125/5/3 126/5/3
f 132/2/3 129/2/3 128/2/3
f 133/1/3 131/1/3 130/1/3
f 133/2/3 129/2/3 132/2/3
f 133/1/3 130/1/3 129/1/3
f 134/1/3 131/1/3 133/1/3
f 137/1/3 136/1/3 135/1/3
f 138/1/3 136/1/3 137/1/3
f 139/1/4 140/1/4 141/1/4
f 141/1/4 140/1/4 142/1/4
f 143/2/4 144/2/4 148/2/4
f 144/1/4 145/1/4 149/1/4
f 148/2/4 144/2/4 149/2/4
f 149/1/4 145/1/4 150/1/4
f 150/1/4 145/1/4 151/1/4
f 146/5/4 147/5/4 152/5/4
f 152/5/4 147/5/4 153/5/4
f 154/5/4 155/5/4 156/5/4
f 156/5/4 155/5/4 157/5/4
f 158/2/4 159/2/4 162/2/4
f 160/1/4 161/1/4 163/1/4
f 162/2/4 159/2/4 163/2/4
f 159/1/4 160/1/4 163/1/4
f 163/1/4 161/1/4 164/1/4
f 165/1/4 166/1/4 167/1/4
f 167/1/4 166/1/4 168/1/4
f 168/1/4 169/1/4 174/1/4
f 169/3/4 170/3/4 175/3/4
f 174/1/4 169/1/4 175/1/4
f 170/1/4 171/1/4 176/1/4
f 175/3/4 170/3/4 176/3/4
f 171/2/4 172/2/4 177/2/4
f 176/1/4 171/1/4 177/1/4
f 177/2/4 172/2/4 178/2/4
f 173/1/4 174/1/4 179/1/4
f 179/1/4 174/1/4 180/1/4
f 181/1/4 182/1/4 183/1/4
f 183/1/4 182/1/4 184/1/4
f 189/5/5 186/5/5 185/5/5
f 190/5/5 186/5/5 189/5/5
f 191/5/5 188/5/5 187/5/5
f 192/5/5 188/5/5 191/5/5
f 196/1/5 194/1/5 193/1/5
f 197/1/5 194/1/5 196/1/5
f 198/1/5 194/1/5 197/1/5
f 199/1/5 194/1/5 198/1/5
f 201/1/5 196/1/5 195/1/5
f 201/1/5 197/1/5 196/1/5
f 202/1/5 197/1/5 201/1/5
f 203/1/5 200/1/5 199/1/5
f 203/1/5 199/1/5 198/1/5
f 204/1/5 200/1/5 203/1/5
f 205/1/5 201/1/5 195/1/5
f 208/1/5 200/1/5 204/1/5
f 209/1/5 206/1/5 205/1/5
f 209/1/5 205/1/5 195/1/5
f 210/1/5 206/1/5 209/1/5
f 211/1/5 206/1/5 210/1/5
f 212/1/5 208/1/5 207/1/5
f 213/1/5 200/1/5 208/1/5
f 213/1/5 208/1/5 212/1/5
f 214/1/5 200/1/5 213/1/5
f 215/1/5 211/1/5 210/1/5
f 215/1/5 212/1/5 211/1/5
f 215/1/5 213/1/5 212/1/5
f 216/1/5 213/1/5 215/1/5
f 219/1/5 218/1/5 217/1/5
f 220/1/5 218/1/5 219/1/5
f 221/1/6 222/1/6 224/1/6
f 224/1/6 222/1/6 225/1/6
f 223/1/6 224/1/6 227/1/6
f 227/1/6 224/1/6 228/1/6
f 225/1/6 226/1/6 229/1/6
f 229/1/6 226/1/6 230/1/6
f 231/1/6 232/1/6 235/1/6
f 235/1/6 232/1/6 236/1/6
f 233/1/6 234/1/6 237/1/6
f 237/1/6 234/1/6 238/1/6
f 236/1/6 237/1/6 239/1/6
f 239/1/6 237/1/6 240/1/6
f 241/1/6 242/1/6 245/1/6
f 245/1/6 242/1/6 246/1/6
f 243/1/6 244/1/6 247/1/6
f 247/1/6 244/1/6 248/1/6
f 249/2/6 250/2/6 251/2/6
f 251/2/6 250/2/6 252/2/6
