# MagicaVoxel @ Ephtracy

# material
mtllib Body 20.mtl
usemtl palette

# normals
vn -1 0 0
vn 1 0 0
vn 0 0 1
vn 0 0 -1
vn 0 -1 0
vn 0 1 0

# texcoords
vt 0.0136719 0.5
vt 0.638672 0.5
vt 0.958984 0.5
vt 0.962891 0.5
vt 0.974609 0.5
vt 0.978516 0.5
vt 0.986328 0.5

# verts
v -5 3 2.5
v -5 3 1.5
v -5 4 2.5
v -5 4 1.5
v -5 5 2.5
v -5 5 -0.5
v -5 8 2.5
v -5 8 -0.5
v -4 0 1.5
v -4 0 -1.5
v -4 3 1.5
v -4 3 -1.5
v -4 4 1.5
v -4 4 0.5
v -4 5 1.5
v -4 5 0.5
v -3 0 2.5
v -3 0 1.5
v -3 0 -1.5
v -3 0 -2.5
v -3 3 2.5
v -3 3 1.5
v -3 3 -1.5
v -3 3 -2.5
v -3 4 1.5
v -3 4 0.5
v -3 4 -1.5
v -3 5 0.5
v -3 5 -0.5
v -3 7 -0.5
v -3 7 -1.5
v -2 0 3.5
v -2 0 2.5
v -2 0 -2.5
v -2 0 -3.5
v -2 3 3.5
v -2 3 2.5
v -2 3 1.5
v -2 3 -1.5
v -2 3 -2.5
v -2 3 -3.5
v -2 4 2.5
v -2 4 1.5
v -2 4 -1.5
v -2 4 -2.5
v -2 7 2.5
v -2 7 1.5
v -2 7 -1.5
v -2 7 -2.5
v 1 0 0.5
v 1 0 -0.5
v 1 1 0.5
v 1 1 -0.5
v 1 2 0.5
v 1 2 -0.5
v 3 5 2.5
v 3 5 1.5
v 3 7 1.5
v 3 7 -0.5
v 3 8 2.5
v 3 8 1.5
v 3 8 -0.5
v 4 3 2.5
v 4 3 1.5
v 4 4 2.5
v 4 4 1.5
v -4 3 2.5
v -4 3 1.5
v -4 4 2.5
v -4 4 1.5
v -3 5 2.5
v -3 5 1.5
v -3 6 2.5
v -3 6 1.5
v -3 7 1.5
v -3 7 0.5
v -3 7 -0.5
v -3 8 2.5
v -3 8 0.5
v -3 8 -0.5
v -1 0 0.5
v -1 0 -0.5
v -1 1 0.5
v -1 1 -0.5
v -1 2 0.5
v -1 2 -0.5
v 2 0 3.5
v 2 0 2.5
v 2 0 -2.5
v 2 0 -3.5
v 2 1 3.5
v 2 1 2.5
v 2 3 3.5
v 2 3 2.5
v 2 3 1.5
v 2 3 -1.5
v 2 3 -2.5
v 2 3 -3.5
v 2 4 2.5
v 2 4 1.5
v 2 4 -1.5
v 2 4 -2.5
v 2 5 2.5
v 2 5 1.5
v 2 7 2.5
v 2 7 1.5
v 2 7 -1.5
v 2 7 -2.5
v 3 0 2.5
v 3 0 1.5
v 3 0 -1.5
v 3 0 -2.5
v 3 3 2.5
v 3 3 1.5
v 3 3 0.5
v 3 3 -1.5
v 3 3 -2.5
v 3 4 1.5
v 3 4 0.5
v 3 4 -1.5
v 3 5 0.5
v 3 5 -0.5
v 3 7 -0.5
v 3 7 -1.5
v 4 0 1.5
v 4 0 -0.5
v 4 0 -1.5
v 4 2 0.5
v 4 2 -0.5
v 4 3 1.5
v 4 3 0.5
v 4 3 -1.5
v 4 4 1.5
v 4 4 0.5
v 4 5 1.5
v 4 5 0.5
v 5 3 2.5
v 5 3 1.5
v 5 4 2.5
v 5 4 1.5
v 5 5 2.5
v 5 5 -0.5
v 5 6 2.5
v 5 6 0.5
v 5 8 2.5
v 5 8 0.5
v 5 8 -0.5
v -2 0 3.5
v -2 3 3.5
v 0 2 3.5
v 0 3 3.5
v 1 1 3.5
v 1 2 3.5
v 2 0 3.5
v 2 1 3.5
v 2 3 3.5
v -5 3 2.5
v -5 4 2.5
v -5 5 2.5
v -5 8 2.5
v -4 3 2.5
v -4 4 2.5
v -4 6 2.5
v -4 8 2.5
v -3 0 2.5
v -3 3 2.5
v -3 5 2.5
v -3 6 2.5
v -3 8 2.5
v -2 0 2.5
v -2 3 2.5
v -2 4 2.5
v -2 7 2.5
v 0 3 2.5
v 0 5 2.5
v 0 7 2.5
v 2 0 2.5
v 2 1 2.5
v 2 3 2.5
v 2 4 2.5
v 2 5 2.5
v 2 7 2.5
v 3 0 2.5
v 3 3 2.5
v 3 5 2.5
v 3 8 2.5
v 4 3 2.5
v 4 4 2.5
v 4 5 2.5
v 4 6 2.5
v 5 3 2.5
v 5 4 2.5
v 5 5 2.5
v 5 6 2.5
v 5 8 2.5
v -4 0 1.5
v -4 3 1.5
v -4 4 1.5
v -4 5 1.5
v -3 0 1.5
v -3 3 1.5
v -3 4 1.5
v -3 5 1.5
v -3 6 1.5
v -3 7 1.5
v -2 3 1.5
v -2 4 1.5
v -2 7 1.5
v 2 3 1.5
v 2 4 1.5
v 2 5 1.5
v 2 7 1.5
v 3 0 1.5
v 3 3 1.5
v 3 4 1.5
v 3 5 1.5
v 3 7 1.5
v 4 0 1.5
v 4 3 1.5
v 4 4 1.5
v 4 5 1.5
v -1 0 -0.5
v -1 1 -0.5
v -1 2 -0.5
v 1 0 -0.5
v 1 1 -0.5
v 1 2 -0.5
v -5 3 1.5
v -5 4 1.5
v -4 3 1.5
v -4 4 1.5
v 4 3 1.5
v 4 4 1.5
v 5 3 1.5
v 5 4 1.5
v -4 4 0.5
v -4 5 0.5
v -3 4 0.5
v -3 5 0.5
v -1 0 0.5
v -1 1 0.5
v -1 2 0.5
v 1 0 0.5
v 1 1 0.5
v 1 2 0.5
v 3 4 0.5
v 3 5 0.5
v 4 4 0.5
v 4 5 0.5
v -5 5 -0.5
v -5 8 -0.5
v -3 5 -0.5
v -3 7 -0.5
v -3 8 -0.5
v 3 5 -0.5
v 3 7 -0.5
v 3 8 -0.5
v 5 5 -0.5
v 5 8 -0.5
v -4 0 -1.5
v -4 3 -1.5
v -3 0 -1.5
v -3 3 -1.5
v -3 4 -1.5
v -3 7 -1.5
v -2 3 -1.5
v -2 4 -1.5
v -2 7 -1.5
v 2 3 -1.5
v 2 4 -1.5
v 2 7 -1.5
v 3 0 -1.5
v 3 3 -1.5
v 3 4 -1.5
v 3 7 -1.5
v 4 0 -1.5
v 4 3 -1.5
v -3 0 -2.5
v -3 3 -2.5
v -2 0 -2.5
v -2 3 -2.5
v -2 4 -2.5
v -2 7 -2.5
v 2 0 -2.5
v 2 3 -2.5
v 2 4 -2.5
v 2 7 -2.5
v 3 0 -2.5
v 3 3 -2.5
v -2 0 -3.5
v -2 3 -3.5
v 2 0 -3.5
v 2 3 -3.5
v -2 0 3.5
v 2 0 3.5
v -3 0 2.5
v -2 0 2.5
v 2 0 2.5
v 3 0 2.5
v -4 0 1.5
v -3 0 1.5
v 3 0 1.5
v 4 0 1.5
v -2 0 0.5
v -1 0 0.5
v 1 0 0.5
v 2 0 0.5
v -2 0 -0.5
v -1 0 -0.5
v 1 0 -0.5
v 2 0 -0.5
v 3 0 -0.5
v 4 0 -0.5
v -4 0 -1.5
v -3 0 -1.5
v 3 0 -1.5
v 4 0 -1.5
v -3 0 -2.5
v -2 0 -2.5
v 2 0 -2.5
v 3 0 -2.5
v -2 0 -3.5
v 2 0 -3.5
v -1 2 0.5
v 1 2 0.5
v -1 2 -0.5
v 1 2 -0.5
v -5 3 2.5
v -4 3 2.5
v 4 3 2.5
v 5 3 2.5
v -5 3 1.5
v -4 3 1.5
v 4 3 1.5
v 5 3 1.5
v -4 4 1.5
v -3 4 1.5
v 3 4 1.5
v 4 4 1.5
v -4 4 0.5
v -3 4 0.5
v 3 4 0.5
v 4 4 0.5
v -5 5 2.5
v -3 5 2.5
v 3 5 2.5
v 4 5 2.5
v 5 5 2.5
v -4 5 1.5
v -3 5 1.5
v 3 5 1.5
v 4 5 1.5
v -4 5 0.5
v -3 5 0.5
v 3 5 0.5
v 4 5 0.5
v -5 5 -0.5
v -3 5 -0.5
v 3 5 -0.5
v 5 5 -0.5
v -2 3 3.5
v 0 3 3.5
v 2 3 3.5
v -3 3 2.5
v -2 3 2.5
v 0 3 2.5
v 2 3 2.5
v 3 3 2.5
v -4 3 1.5
v -3 3 1.5
v -2 3 1.5
v 2 3 1.5
v 3 3 1.5
v 4 3 1.5
v 3 3 0.5
v 4 3 0.5
v -4 3 -1.5
v -3 3 -1.5
v -2 3 -1.5
v 2 3 -1.5
v 3 3 -1.5
v 4 3 -1.5
v -3 3 -2.5
v -2 3 -2.5
v 2 3 -2.5
v 3 3 -2.5
v -2 3 -3.5
v 2 3 -3.5
v -5 4 2.5
v -4 4 2.5
v 4 4 2.5
v 5 4 2.5
v -5 4 1.5
v -4 4 1.5
v 4 4 1.5
v 5 4 1.5
v -2 7 2.5
v 0 7 2.5
v 2 7 2.5
v -3 7 1.5
v -2 7 1.5
v -1 7 1.5
v 0 7 1.5
v 1 7 1.5
v 2 7 1.5
v 3 7 1.5
v -3 7 0.5
v -1 7 0.5
v 0 7 0.5
v 1 7 0.5
v -3 7 -0.5
v 3 7 -0.5
v -3 7 -1.5
v -2 7 -1.5
v 2 7 -1.5
v 3 7 -1.5
v -2 7 -2.5
v 2 7 -2.5
v -5 8 2.5
v -4 8 2.5
v -3 8 2.5
v 3 8 2.5
v 5 8 2.5
v 3 8 1.5
v 4 8 1.5
v -4 8 0.5
v -3 8 0.5
v 4 8 0.5
v 5 8 0.5
v -5 8 -0.5
v -3 8 -0.5
v 3 8 -0.5
v 5 8 -0.5

# faces
f 3/6/1 2/6/1 1/6/1
f 4/6/1 2/6/1 3/6/1
f 7/6/1 6/6/1 5/6/1
f 8/6/1 6/6/1 7/6/1
f 11/6/1 10/6/1 9/6/1
f 12/6/1 10/6/1 11/6/1
f 15/6/1 14/6/1 13/6/1
f 16/6/1 14/6/1 15/6/1
f 21/1/1 18/1/1 17/1/1
f 22/1/1 18/1/1 21/1/1
f 23/1/1 20/1/1 19/1/1
f 24/1/1 20/1/1 23/1/1
f 25/7/1 23/7/1 22/7/1
f 26/7/1 23/7/1 25/7/1
f 27/7/1 23/7/1 26/7/1
f 28/6/1 27/6/1 26/6/1
f 29/6/1 27/6/1 28/6/1
f 30/6/1 27/6/1 29/6/1
f 31/6/1 27/6/1 30/6/1
f 36/6/1 33/6/1 32/6/1
f 37/6/1 33/6/1 36/6/1
f 40/6/1 35/6/1 34/6/1
f 41/6/1 35/6/1 40/6/1
f 42/7/1 38/7/1 37/7/1
f 43/7/1 38/7/1 42/7/1
f 44/7/1 40/7/1 39/7/1
f 45/7/1 40/7/1 44/7/1
f 46/6/1 43/6/1 42/6/1
f 47/6/1 43/6/1 46/6/1
f 48/6/1 45/6/1 44/6/1
f 49/6/1 45/6/1 48/6/1
f 52/2/1 51/2/1 50/2/1
f 53/2/1 51/2/1 52/2/1
f 54/4/1 53/4/1 52/4/1
f 55/4/1 53/4/1 54/4/1
f 58/5/1 57/5/1 56/5/1
f 60/5/1 58/5/1 56/5/1
f 61/6/1 59/6/1 58/6/1
f 61/5/1 58/5/1 60/5/1
f 62/6/1 59/6/1 61/6/1
f 65/5/1 64/5/1 63/5/1
f 66/5/1 64/5/1 65/5/1
f 67/6/2 68/6/2 69/6/2
f 69/6/2 68/6/2 70/6/2
f 71/6/2 72/6/2 73/6/2
f 73/6/2 72/6/2 74/6/2
f 73/5/2 74/5/2 75/5/2
f 73/5/2 75/5/2 78/5/2
f 75/5/2 76/5/2 78/5/2
f 76/6/2 77/6/2 79/6/2
f 78/5/2 76/5/2 79/5/2
f 79/6/2 77/6/2 80/6/2
f 81/2/2 82/2/2 83/2/2
f 83/2/2 82/2/2 84/2/2
f 83/4/2 84/4/2 85/4/2
f 85/4/2 84/4/2 86/4/2
f 87/6/2 88/6/2 91/6/2
f 91/6/2 88/6/2 92/6/2
f 91/5/2 92/5/2 93/5/2
f 93/5/2 92/5/2 94/5/2
f 89/6/2 90/6/2 97/6/2
f 97/6/2 90/6/2 98/6/2
f 94/7/2 95/7/2 99/7/2
f 99/7/2 95/7/2 100/7/2
f 96/7/2 97/7/2 101/7/2
f 101/7/2 97/7/2 102/7/2
f 99/6/2 100/6/2 103/6/2
f 103/6/2 100/6/2 104/6/2
f 103/5/2 104/5/2 105/5/2
f 105/5/2 104/5/2 106/5/2
f 101/6/2 102/6/2 107/6/2
f 107/6/2 102/6/2 108/6/2
f 109/1/2 110/1/2 113/1/2
f 113/1/2 110/1/2 114/1/2
f 111/1/2 112/1/2 116/1/2
f 116/1/2 112/1/2 117/1/2
f 114/7/2 115/7/2 118/7/2
f 115/7/2 116/7/2 118/7/2
f 118/7/2 116/7/2 119/7/2
f 119/7/2 116/7/2 120/7/2
f 119/6/2 120/6/2 121/6/2
f 121/6/2 120/6/2 122/6/2
f 122/6/2 120/6/2 123/6/2
f 123/6/2 120/6/2 124/6/2
f 125/5/2 126/5/2 128/5/2
f 126/6/2 127/6/2 129/6/2
f 128/5/2 126/5/2 129/5/2
f 125/5/2 128/5/2 130/5/2
f 128/6/2 129/6/2 131/6/2
f 130/5/2 128/5/2 131/5/2
f 129/6/2 127/6/2 132/6/2
f 131/6/2 129/6/2 132/6/2
f 133/6/2 134/6/2 135/6/2
f 135/6/2 134/6/2 136/6/2
f 137/5/2 138/5/2 139/5/2
f 139/5/2 138/5/2 140/5/2
f 141/6/2 142/6/2 143/6/2
f 143/6/2 142/6/2 144/6/2
f 143/5/2 144/5/2 145/5/2
f 144/6/2 142/6/2 146/6/2
f 145/5/2 144/5/2 146/5/2
f 146/6/2 142/6/2 147/6/2
f 150/6/3 149/6/3 148/6/3
f 151/6/3 149/6/3 150/6/3
f 152/6/3 150/6/3 148/6/3
f 153/5/3 151/5/3 150/5/3
f 153/6/3 150/6/3 152/6/3
f 154/6/3 152/6/3 148/6/3
f 155/5/3 153/5/3 152/5/3
f 155/6/3 152/6/3 154/6/3
f 156/5/3 151/5/3 153/5/3
f 156/5/3 153/5/3 155/5/3
f 161/6/3 158/6/3 157/6/3
f 162/6/3 158/6/3 161/6/3
f 163/6/3 160/6/3 159/6/3
f 164/6/3 160/6/3 163/6/3
f 167/6/3 163/6/3 159/6/3
f 168/5/3 164/5/3 163/5/3
f 168/6/3 163/6/3 167/6/3
f 169/5/3 164/5/3 168/5/3
f 170/1/3 166/1/3 165/1/3
f 171/1/3 166/1/3 170/1/3
f 174/7/3 172/7/3 171/7/3
f 175/6/3 173/6/3 172/6/3
f 176/6/3 173/6/3 175/6/3
f 179/7/3 172/7/3 174/7/3
f 180/6/3 175/6/3 172/6/3
f 180/7/3 172/7/3 179/7/3
f 181/5/3 176/5/3 175/5/3
f 181/6/3 175/6/3 180/6/3
f 182/5/3 176/5/3 181/5/3
f 183/1/3 178/1/3 177/1/3
f 183/1/3 179/1/3 178/1/3
f 184/1/3 179/1/3 183/1/3
f 189/5/3 186/5/3 185/5/3
f 190/5/3 186/5/3 189/5/3
f 191/5/3 188/5/3 187/5/3
f 192/5/3 188/5/3 191/5/3
f 193/6/3 190/6/3 189/6/3
f 194/5/3 186/5/3 190/5/3
f 194/6/3 190/6/3 193/6/3
f 195/5/3 186/5/3 194/5/3
f 200/6/3 197/6/3 196/6/3
f 201/6/3 197/6/3 200/6/3
f 202/6/3 199/6/3 198/6/3
f 203/6/3 199/6/3 202/6/3
f 206/7/3 202/7/3 201/7/3
f 207/6/3 205/6/3 204/6/3
f 207/7/3 202/7/3 206/7/3
f 207/6/3 204/6/3 203/6/3
f 207/6/3 203/6/3 202/6/3
f 208/6/3 205/6/3 207/6/3
f 214/7/3 210/7/3 209/7/3
f 215/6/3 212/6/3 211/6/3
f 215/6/3 211/6/3 210/6/3
f 215/7/3 210/7/3 214/7/3
f 216/6/3 212/6/3 215/6/3
f 217/6/3 212/6/3 216/6/3
f 218/5/3 214/5/3 213/5/3
f 219/5/3 214/5/3 218/5/3
f 220/6/3 216/6/3 215/6/3
f 221/6/3 216/6/3 220/6/3
f 225/1/3 223/1/3 222/1/3
f 225/1/3 224/1/3 223/1/3
f 226/1/3 224/1/3 225/1/3
f 227/1/3 224/1/3 226/1/3
f 228/6/4 229/6/4 230/6/4
f 230/6/4 229/6/4 231/6/4
f 232/5/4 233/5/4 234/5/4
f 234/5/4 233/5/4 235/5/4
f 236/6/4 237/6/4 238/6/4
f 238/6/4 237/6/4 239/6/4
f 240/1/4 241/1/4 243/1/4
f 241/1/4 242/1/4 243/1/4
f 243/1/4 242/1/4 244/1/4
f 244/1/4 242/1/4 245/1/4
f 246/6/4 247/6/4 248/6/4
f 248/6/4 247/6/4 249/6/4
f 250/6/4 251/6/4 252/6/4
f 252/6/4 251/6/4 253/6/4
f 253/6/4 251/6/4 254/6/4
f 255/6/4 256/6/4 258/6/4
f 256/6/4 257/6/4 258/6/4
f 258/6/4 257/6/4 259/6/4
f 260/6/4 261/6/4 262/6/4
f 262/6/4 261/6/4 263/6/4
f 263/7/4 264/7/4 266/7/4
f 264/6/4 265/6/4 267/6/4
f 266/7/4 264/7/4 267/7/4
f 267/6/4 265/6/4 268/6/4
f 269/7/4 270/7/4 273/7/4
f 270/6/4 271/6/4 274/6/4
f 273/7/4 270/7/4 274/7/4
f 274/6/4 271/6/4 275/6/4
f 272/6/4 273/6/4 276/6/4
f 276/6/4 273/6/4 277/6/4
f 278/1/4 279/1/4 280/1/4
f 280/1/4 279/1/4 281/1/4
f 281/7/4 282/7/4 285/7/4
f 282/6/4 283/6/4 286/6/4
f 285/7/4 282/7/4 286/7/4
f 286/6/4 283/6/4 287/6/4
f 284/1/4 285/1/4 288/1/4
f 288/1/4 285/1/4 289/1/4
f 290/6/4 291/6/4 292/6/4
f 292/6/4 291/6/4 293/6/4
f 297/6/5 295/6/5 294/6/5
f 298/6/5 295/6/5 297/6/5
f 301/1/5 297/1/5 296/1/5
f 301/1/5 299/1/5 298/1/5
f 301/1/5 298/1/5 297/1/5
f 302/1/5 299/1/5 301/1/5
f 304/1/5 302/1/5 301/1/5
f 305/1/5 302/1/5 304/1/5
f 306/1/5 302/1/5 305/1/5
f 307/1/5 302/1/5 306/1/5
f 308/1/5 304/1/5 301/1/5
f 308/2/5 305/2/5 304/2/5
f 309/2/5 305/2/5 308/2/5
f 310/2/5 307/2/5 306/2/5
f 311/1/5 302/1/5 307/1/5
f 311/2/5 307/2/5 310/2/5
f 312/5/5 303/5/5 302/5/5
f 312/1/5 302/1/5 311/1/5
f 313/5/5 303/5/5 312/5/5
f 314/6/5 301/6/5 300/6/5
f 315/1/5 311/1/5 310/1/5
f 315/6/5 301/6/5 314/6/5
f 315/1/5 310/1/5 309/1/5
f 315/1/5 309/1/5 308/1/5
f 315/1/5 312/1/5 311/1/5
f 315/1/5 308/1/5 301/1/5
f 316/6/5 313/6/5 312/6/5
f 316/1/5 312/1/5 315/1/5
f 317/6/5 313/6/5 316/6/5
f 318/1/5 316/1/5 315/1/5
f 319/1/5 316/1/5 318/1/5
f 320/1/5 316/1/5 319/1/5
f 321/1/5 316/1/5 320/1/5
f 322/6/5 320/6/5 319/6/5
f 323/6/5 320/6/5 322/6/5
f 326/1/5 325/1/5 324/1/5
f 327/1/5 325/1/5 326/1/5
f 332/6/5 329/6/5 328/6/5
f 333/6/5 329/6/5 332/6/5
f 334/5/5 331/5/5 330/5/5
f 335/5/5 331/5/5 334/5/5
f 340/6/5 337/6/5 336/6/5
f 341/6/5 337/6/5 340/6/5
f 342/6/5 339/6/5 338/6/5
f 343/6/5 339/6/5 342/6/5
f 349/6/5 345/6/5 344/6/5
f 350/6/5 345/6/5 349/6/5
f 351/5/5 347/5/5 346/5/5
f 352/6/5 348/6/5 347/6/5
f 352/5/5 347/5/5 351/5/5
f 353/6/5 349/6/5 344/6/5
f 356/6/5 348/6/5 352/6/5
f 357/6/5 354/6/5 353/6/5
f 357/6/5 353/6/5 344/6/5
f 358/6/5 354/6/5 357/6/5
f 359/6/5 356/6/5 355/6/5
f 360/6/5 348/6/5 356/6/5
f 360/6/5 356/6/5 359/6/5
f 361/6/6 362/6/6 365/6/6
f 362/5/6 363/5/6 366/5/6
f 365/6/6 362/6/6 366/6/6
f 366/5/6 363/5/6 367/5/6
f 364/1/6 365/1/6 370/1/6
f 370/1/6 365/1/6 371/1/6
f 367/1/6 368/1/6 372/1/6
f 372/1/6 368/1/6 373/1/6
f 373/5/6 374/5/6 375/5/6
f 375/5/6 374/5/6 376/5/6
f 369/6/6 370/6/6 377/6/6
f 377/6/6 370/6/6 378/6/6
f 375/6/6 376/6/6 381/6/6
f 381/6/6 376/6/6 382/6/6
f 378/1/6 379/1/6 383/1/6
f 383/1/6 379/1/6 384/1/6
f 380/1/6 381/1/6 385/1/6
f 385/1/6 381/1/6 386/1/6
f 384/6/6 385/6/6 387/6/6
f 387/6/6 385/6/6 388/6/6
f 389/6/6 390/6/6 393/6/6
f 393/6/6 390/6/6 394/6/6
f 391/5/6 392/5/6 395/5/6
f 395/5/6 392/5/6 396/5/6
f 397/6/6 398/6/6 401/6/6
f 401/6/6 398/6/6 402/6/6
f 398/5/6 399/5/6 403/5/6
f 402/6/6 398/6/6 403/6/6
f 403/5/6 399/5/6 404/5/6
f 404/5/6 399/5/6 405/5/6
f 400/6/6 401/6/6 407/6/6
f 401/1/6 402/1/6 408/1/6
f 402/4/6 403/4/6 408/4/6
f 403/3/6 404/3/6 409/3/6
f 408/4/6 403/4/6 409/4/6
f 404/1/6 405/1/6 410/1/6
f 409/3/6 404/3/6 410/3/6
f 407/6/6 401/6/6 411/6/6
f 405/6/6 406/6/6 412/6/6
f 411/6/6 401/6/6 413/6/6
f 401/1/6 408/1/6 414/1/6
f 413/6/6 401/6/6 414/6/6
f 408/1/6 409/1/6 414/1/6
f 409/1/6 410/1/6 414/1/6
f 410/1/6 405/1/6 415/1/6
f 414/1/6 410/1/6 415/1/6
f 405/6/6 412/6/6 415/6/6
f 415/6/6 412/6/6 416/6/6
f 414/6/6 415/6/6 417/6/6
f 417/6/6 415/6/6 418/6/6
f 422/5/6 423/5/6 424/5/6
f 424/5/6 423/5/6 425/5/6
f 419/6/6 420/6/6 426/6/6
f 420/5/6 421/5/6 426/5/6
f 426/5/6 421/5/6 427/5/6
f 425/5/6 423/5/6 428/5/6
f 424/6/6 425/6/6 428/6/6
f 428/5/6 423/5/6 429/5/6
f 426/6/6 427/6/6 430/6/6
f 419/6/6 426/6/6 430/6/6
f 430/6/6 427/6/6 431/6/6
f 428/6/6 429/6/6 432/6/6
f 424/6/6 428/6/6 432/6/6
f 432/6/6 429/6/6 433/6/6
