# MagicaVoxel @ Ephtracy

# material
mtllib Body 3.mtl
usemtl palette

# normals
vn -1 0 0
vn 1 0 0
vn 0 0 1
vn 0 0 -1
vn 0 -1 0
vn 0 1 0

# texcoords
vt 0.00195312 0.5
vt 0.0136719 0.5
vt 0.0371094 0.5
vt 0.634766 0.5
vt 0.638672 0.5
vt 0.958984 0.5
vt 0.962891 0.5
vt 0.978516 0.5
vt 0.982422 0.5

# verts
v -3 2 0.5
v -3 2 -0.5
v -3 3 0.5
v -3 3 -0.5
v -3 5 1.5
v -3 5 0.5
v -3 5 -0.5
v -3 5 -1.5
v -3 7 1.5
v -3 7 -1.5
v -2 0 0.5
v -2 0 -0.5
v -2 1 1.5
v -2 1 0.5
v -2 1 -0.5
v -2 1 -1.5
v -2 2 0.5
v -2 2 -0.5
v -2 3 0.5
v -2 3 -0.5
v -2 4 1.5
v -2 4 0.5
v -2 4 -0.5
v -2 4 -1.5
v -2 5 1.5
v -2 5 0.5
v -2 5 -0.5
v -2 5 -1.5
v 1 0 0.5
v 1 0 -0.5
v 1 1 0.5
v 1 1 -0.5
v 1 2 0.5
v 1 2 -0.5
v -1 0 0.5
v -1 0 -0.5
v -1 1 0.5
v -1 1 -0.5
v -1 2 0.5
v -1 2 -0.5
v 2 0 0.5
v 2 0 -0.5
v 2 1 1.5
v 2 1 0.5
v 2 1 -0.5
v 2 1 -1.5
v 2 2 0.5
v 2 2 -0.5
v 2 3 0.5
v 2 3 -0.5
v 2 4 1.5
v 2 4 0.5
v 2 4 -0.5
v 2 4 -1.5
v 2 5 1.5
v 2 5 0.5
v 2 5 -0.5
v 2 5 -1.5
v 3 2 0.5
v 3 2 -0.5
v 3 3 0.5
v 3 3 -0.5
v 3 5 1.5
v 3 5 0.5
v 3 5 -0.5
v 3 5 -1.5
v 3 7 1.5
v 3 7 -1.5
v -3 5 1.5
v -3 7 1.5
v -2 1 1.5
v -2 4 1.5
v -2 5 1.5
v -2 6 1.5
v -2 7 1.5
v -1 1 1.5
v -1 4 1.5
v -1 5 1.5
v -1 6 1.5
v -1 7 1.5
v 0 1 1.5
v 0 6 1.5
v 1 1 1.5
v 1 4 1.5
v 1 5 1.5
v 1 6 1.5
v 1 7 1.5
v 2 1 1.5
v 2 4 1.5
v 2 5 1.5
v 2 6 1.5
v 2 7 1.5
v 3 5 1.5
v 3 7 1.5
v -3 2 0.5
v -3 3 0.5
v -3 5 0.5
v -2 0 0.5
v -2 1 0.5
v -2 2 0.5
v -2 3 0.5
v -2 4 0.5
v -2 5 0.5
v -1 0 0.5
v -1 1 0.5
v 1 0 0.5
v 1 1 0.5
v 2 0 0.5
v 2 1 0.5
v 2 2 0.5
v 2 3 0.5
v 2 4 0.5
v 2 5 0.5
v 3 2 0.5
v 3 3 0.5
v 3 5 0.5
v -1 1 -0.5
v -1 2 -0.5
v 1 1 -0.5
v 1 2 -0.5
v -1 1 0.5
v -1 2 0.5
v 0 1 0.5
v 0 2 0.5
v 1 1 0.5
v 1 2 0.5
v -3 2 -0.5
v -3 3 -0.5
v -3 5 -0.5
v -2 0 -0.5
v -2 1 -0.5
v -2 2 -0.5
v -2 3 -0.5
v -2 4 -0.5
v -2 5 -0.5
v -1 0 -0.5
v -1 1 -0.5
v 1 0 -0.5
v 1 1 -0.5
v 2 0 -0.5
v 2 1 -0.5
v 2 2 -0.5
v 2 3 -0.5
v 2 4 -0.5
v 2 5 -0.5
v 3 2 -0.5
v 3 3 -0.5
v 3 5 -0.5
v -3 5 -1.5
v -3 7 -1.5
v -2 1 -1.5
v -2 4 -1.5
v -2 5 -1.5
v 2 1 -1.5
v 2 4 -1.5
v 2 5 -1.5
v 3 5 -1.5
v 3 7 -1.5
v -2 0 0.5
v -1 0 0.5
v 1 0 0.5
v 2 0 0.5
v -2 0 -0.5
v -1 0 -0.5
v 1 0 -0.5
v 2 0 -0.5
v -2 1 1.5
v -1 1 1.5
v 0 1 1.5
v 1 1 1.5
v 2 1 1.5
v -2 1 0.5
v -1 1 0.5
v 0 1 0.5
v 1 1 0.5
v 2 1 0.5
v -2 1 -0.5
v -1 1 -0.5
v 1 1 -0.5
v 2 1 -0.5
v -2 1 -1.5
v 2 1 -1.5
v -3 2 0.5
v -2 2 0.5
v -1 2 0.5
v 0 2 0.5
v 1 2 0.5
v 2 2 0.5
v 3 2 0.5
v -3 2 -0.5
v -2 2 -0.5
v -1 2 -0.5
v 1 2 -0.5
v 2 2 -0.5
v 3 2 -0.5
v -3 5 1.5
v -2 5 1.5
v 2 5 1.5
v 3 5 1.5
v -3 5 0.5
v -2 5 0.5
v 2 5 0.5
v 3 5 0.5
v -3 5 -0.5
v -2 5 -0.5
v 2 5 -0.5
v 3 5 -0.5
v -3 5 -1.5
v -2 5 -1.5
v 2 5 -1.5
v 3 5 -1.5
v -3 7 1.5
v -2 7 1.5
v -1 7 1.5
v 1 7 1.5
v 2 7 1.5
v 3 7 1.5
v -1 7 0.5
v 1 7 0.5
v 2 7 0.5
v -2 7 -0.5
v -1 7 -0.5
v 2 7 -0.5
v -3 7 -1.5
v 3 7 -1.5

# faces
f 3/3/1 2/3/1 1/3/1
f 4/3/1 2/3/1 3/3/1
f 6/2/1 4/2/1 3/2/1
f 7/2/1 4/2/1 6/2/1
f 9/2/1 7/2/1 6/2/1
f 9/2/1 8/2/1 7/2/1
f 9/2/1 6/2/1 5/2/1
f 10/2/1 8/2/1 9/2/1
f 14/5/1 12/5/1 11/5/1
f 15/5/1 12/5/1 14/5/1
f 17/2/1 14/2/1 13/2/1
f 17/2/1 16/2/1 15/2/1
f 17/2/1 15/2/1 14/2/1
f 18/2/1 16/2/1 17/2/1
f 19/2/1 17/2/1 13/2/1
f 20/2/1 16/2/1 18/2/1
f 21/2/1 19/2/1 13/2/1
f 22/2/1 19/2/1 21/2/1
f 23/2/1 16/2/1 20/2/1
f 24/2/1 16/2/1 23/2/1
f 25/9/1 22/9/1 21/9/1
f 26/9/1 22/9/1 25/9/1
f 27/8/1 24/8/1 23/8/1
f 28/8/1 24/8/1 27/8/1
f 31/5/1 30/5/1 29/5/1
f 32/5/1 30/5/1 31/5/1
f 33/2/1 32/2/1 31/2/1
f 34/2/1 32/2/1 33/2/1
f 35/5/2 36/5/2 37/5/2
f 37/5/2 36/5/2 38/5/2
f 37/2/2 38/2/2 39/2/2
f 39/2/2 38/2/2 40/2/2
f 41/5/2 42/5/2 44/5/2
f 44/5/2 42/5/2 45/5/2
f 43/2/2 44/2/2 47/2/2
f 45/2/2 46/2/2 47/2/2
f 44/2/2 45/2/2 47/2/2
f 47/2/2 46/2/2 48/2/2
f 43/2/2 47/2/2 49/2/2
f 48/2/2 46/2/2 50/2/2
f 43/2/2 49/2/2 51/2/2
f 51/2/2 49/2/2 52/2/2
f 50/2/2 46/2/2 53/2/2
f 53/2/2 46/2/2 54/2/2
f 51/8/2 52/8/2 55/8/2
f 55/8/2 52/8/2 56/8/2
f 53/8/2 54/8/2 57/8/2
f 57/8/2 54/8/2 58/8/2
f 59/3/2 60/3/2 61/3/2
f 61/3/2 60/3/2 62/3/2
f 61/2/2 62/2/2 64/2/2
f 64/2/2 62/2/2 65/2/2
f 64/2/2 65/2/2 67/2/2
f 65/2/2 66/2/2 67/2/2
f 63/2/2 64/2/2 67/2/2
f 67/2/2 66/2/2 68/2/2
f 73/2/3 70/2/3 69/2/3
f 74/2/3 70/2/3 73/2/3
f 75/2/3 70/2/3 74/2/3
f 76/2/3 72/2/3 71/2/3
f 77/9/3 73/9/3 72/9/3
f 77/2/3 72/2/3 76/2/3
f 78/2/3 74/2/3 73/2/3
f 78/9/3 73/9/3 77/9/3
f 79/7/3 75/7/3 74/7/3
f 79/2/3 74/2/3 78/2/3
f 80/7/3 75/7/3 79/7/3
f 81/7/3 77/7/3 76/7/3
f 81/7/3 78/7/3 77/7/3
f 81/7/3 79/7/3 78/7/3
f 82/3/3 80/3/3 79/3/3
f 82/7/3 79/7/3 81/7/3
f 83/6/3 82/6/3 81/6/3
f 84/6/3 82/6/3 83/6/3
f 85/6/3 82/6/3 84/6/3
f 86/3/3 80/3/3 82/3/3
f 86/6/3 82/6/3 85/6/3
f 87/3/3 80/3/3 86/3/3
f 88/2/3 84/2/3 83/2/3
f 89/8/3 85/8/3 84/8/3
f 89/2/3 84/2/3 88/2/3
f 90/2/3 86/2/3 85/2/3
f 90/8/3 85/8/3 89/8/3
f 91/6/3 87/6/3 86/6/3
f 91/2/3 86/2/3 90/2/3
f 92/6/3 87/6/3 91/6/3
f 93/2/3 92/2/3 91/2/3
f 93/2/3 91/2/3 90/2/3
f 94/2/3 92/2/3 93/2/3
f 100/3/3 96/3/3 95/3/3
f 101/2/3 97/2/3 96/2/3
f 101/3/3 96/3/3 100/3/3
f 102/2/3 97/2/3 101/2/3
f 103/2/3 97/2/3 102/2/3
f 104/5/3 99/5/3 98/5/3
f 105/5/3 99/5/3 104/5/3
f 108/5/3 107/5/3 106/5/3
f 109/5/3 107/5/3 108/5/3
f 114/3/3 111/3/3 110/3/3
f 115/2/3 113/2/3 112/2/3
f 115/3/3 111/3/3 114/3/3
f 115/2/3 112/2/3 111/2/3
f 116/2/3 113/2/3 115/2/3
f 119/2/3 118/2/3 117/2/3
f 120/2/3 118/2/3 119/2/3
f 121/7/4 122/7/4 123/7/4
f 123/7/4 122/7/4 124/7/4
f 123/6/4 124/6/4 125/6/4
f 125/6/4 124/6/4 126/6/4
f 127/3/4 128/3/4 132/3/4
f 128/2/4 129/2/4 133/2/4
f 132/3/4 128/3/4 133/3/4
f 133/2/4 129/2/4 134/2/4
f 134/2/4 129/2/4 135/2/4
f 130/5/4 131/5/4 136/5/4
f 136/5/4 131/5/4 137/5/4
f 138/5/4 139/5/4 140/5/4
f 140/5/4 139/5/4 141/5/4
f 142/3/4 143/3/4 146/3/4
f 144/2/4 145/2/4 147/2/4
f 146/3/4 143/3/4 147/3/4
f 143/2/4 144/2/4 147/2/4
f 147/2/4 145/2/4 148/2/4
f 149/2/4 150/2/4 153/2/4
f 151/2/4 152/2/4 154/2/4
f 152/8/4 153/8/4 155/8/4
f 154/2/4 152/2/4 155/2/4
f 153/2/4 150/2/4 156/2/4
f 155/8/4 153/8/4 156/8/4
f 156/2/4 150/2/4 157/2/4
f 157/2/4 150/2/4 158/2/4
f 163/5/5 160/5/5 159/5/5
f 164/5/5 160/5/5 163/5/5
f 165/5/5 162/5/5 161/5/5
f 166/5/5 162/5/5 165/5/5
f 172/2/5 168/2/5 167/2/5
f 173/7/5 169/7/5 168/7/5
f 173/2/5 168/2/5 172/2/5
f 174/6/5 170/6/5 169/6/5
f 174/7/5 169/7/5 173/7/5
f 175/2/5 171/2/5 170/2/5
f 175/6/5 170/6/5 174/6/5
f 176/2/5 171/2/5 175/2/5
f 181/2/5 178/2/5 177/2/5
f 181/2/5 180/2/5 179/2/5
f 181/2/5 179/2/5 178/2/5
f 182/2/5 180/2/5 181/2/5
f 190/3/5 184/3/5 183/3/5
f 191/3/5 184/3/5 190/3/5
f 192/2/5 186/2/5 185/2/5
f 192/2/5 187/2/5 186/2/5
f 193/2/5 187/2/5 192/2/5
f 194/3/5 189/3/5 188/3/5
f 195/3/5 189/3/5 194/3/5
f 200/2/5 197/2/5 196/2/5
f 201/2/5 197/2/5 200/2/5
f 202/2/5 199/2/5 198/2/5
f 203/2/5 199/2/5 202/2/5
f 208/2/5 205/2/5 204/2/5
f 209/2/5 205/2/5 208/2/5
f 210/2/5 207/2/5 206/2/5
f 211/2/5 207/2/5 210/2/5
f 213/7/6 214/7/6 218/7/6
f 214/3/6 215/3/6 218/3/6
f 215/6/6 216/6/6 219/6/6
f 218/3/6 215/3/6 219/3/6
f 216/2/6 217/2/6 220/2/6
f 219/6/6 216/6/6 220/6/6
f 212/2/6 213/2/6 221/2/6
f 213/7/6 218/7/6 221/7/6
f 218/1/6 219/1/6 222/1/6
f 221/7/6 218/7/6 222/7/6
f 219/1/6 220/1/6 222/1/6
f 220/2/6 217/2/6 223/2/6
f 222/1/6 220/1/6 223/1/6
f 221/2/6 222/2/6 224/2/6
f 212/2/6 221/2/6 224/2/6
f 222/2/6 223/2/6 224/2/6
f 223/2/6 217/2/6 225/2/6
f 224/2/6 223/2/6 225/2/6
