# MagicaVoxel @ Ephtracy

# material
mtllib Head 1.mtl
usemtl palette

# normals
vn -1 0 0
vn 1 0 0
vn 0 0 1
vn 0 0 -1
vn 0 -1 0
vn 0 1 0

# texcoords
vt 0.0332031 0.5
vt 0.0605469 0.5
vt 0.634766 0.5
vt 0.994141 0.5

# verts
v -4 7 0.5
v -4 7 -0.5
v -4 7 -1.5
v -4 8 0.5
v -4 8 -0.5
v -4 9 -0.5
v -4 9 -1.5
v -4 10 0.5
v -4 10 -0.5
v -3 6 0.5
v -3 6 -2.5
v -3 7 1.5
v -3 7 0.5
v -3 7 -0.5
v -3 7 -1.5
v -3 8 2.5
v -3 8 1.5
v -3 8 0.5
v -3 9 2.5
v -3 9 1.5
v -3 9 -0.5
v -3 9 -1.5
v -3 10 0.5
v -3 10 -0.5
v -3 11 1.5
v -3 11 -2.5
v -2 6 1.5
v -2 6 0.5
v -2 6 -2.5
v -2 6 -3.5
v -2 7 1.5
v -2 7 0.5
v -2 9 2.5
v -2 9 1.5
v -2 11 2.5
v -2 11 1.5
v -2 11 -2.5
v -2 11 -3.5
v -2 12 1.5
v -2 12 -2.5
v -1 7 -3.5
v -1 7 -4.5
v -1 10 -3.5
v -1 10 -4.5
v 0 9 2.5
v 0 9 1.5
v 0 10 2.5
v 0 10 1.5
v 2 8 2.5
v 2 8 1.5
v 2 9 2.5
v 2 9 1.5
v -2 8 2.5
v -2 8 1.5
v -2 9 2.5
v -2 9 1.5
v -1 9 2.5
v -1 9 1.5
v -1 10 2.5
v -1 10 1.5
v 1 7 -3.5
v 1 7 -4.5
v 1 10 -3.5
v 1 10 -4.5
v 2 6 1.5
v 2 6 0.5
v 2 6 -2.5
v 2 6 -3.5
v 2 7 1.5
v 2 7 0.5
v 2 9 2.5
v 2 9 1.5
v 2 11 2.5
v 2 11 1.5
v 2 11 -2.5
v 2 11 -3.5
v 2 12 1.5
v 2 12 -2.5
v 3 6 0.5
v 3 6 -2.5
v 3 7 1.5
v 3 7 0.5
v 3 7 -0.5
v 3 7 -1.5
v 3 8 2.5
v 3 8 1.5
v 3 8 0.5
v 3 9 2.5
v 3 9 1.5
v 3 9 -0.5
v 3 9 -1.5
v 3 10 0.5
v 3 10 -0.5
v 3 11 1.5
v 3 11 -2.5
v 4 7 0.5
v 4 7 -0.5
v 4 7 -1.5
v 4 8 0.5
v 4 8 -0.5
v 4 9 -0.5
v 4 9 -1.5
v 4 10 0.5
v 4 10 -0.5
v -3 8 2.5
v -3 9 2.5
v -2 8 2.5
v -2 9 2.5
v -2 11 2.5
v -1 9 2.5
v -1 10 2.5
v 0 9 2.5
v 0 10 2.5
v 2 8 2.5
v 2 9 2.5
v 2 11 2.5
v 3 8 2.5
v 3 9 2.5
v -3 7 1.5
v -3 8 1.5
v -3 9 1.5
v -3 11 1.5
v -2 6 1.5
v -2 7 1.5
v -2 8 1.5
v -2 9 1.5
v -2 11 1.5
v -2 12 1.5
v -1 7 1.5
v -1 8 1.5
v -1 9 1.5
v -1 10 1.5
v 0 6 1.5
v 0 7 1.5
v 0 9 1.5
v 0 10 1.5
v 1 7 1.5
v 1 8 1.5
v 2 6 1.5
v 2 7 1.5
v 2 8 1.5
v 2 9 1.5
v 2 11 1.5
v 2 12 1.5
v 3 7 1.5
v 3 8 1.5
v 3 9 1.5
v 3 11 1.5
v -4 7 0.5
v -4 8 0.5
v -4 10 0.5
v -3 6 0.5
v -3 7 0.5
v -3 8 0.5
v -3 10 0.5
v -2 6 0.5
v -2 7 0.5
v 2 6 0.5
v 2 7 0.5
v 3 6 0.5
v 3 7 0.5
v 3 8 0.5
v 3 10 0.5
v 4 7 0.5
v 4 8 0.5
v 4 10 0.5
v -4 9 -0.5
v -4 10 -0.5
v -3 9 -0.5
v -3 10 -0.5
v 3 9 -0.5
v 3 10 -0.5
v 4 9 -0.5
v 4 10 -0.5
v -4 7 -1.5
v -4 9 -1.5
v -3 7 -1.5
v -3 9 -1.5
v 3 7 -1.5
v 3 9 -1.5
v 4 7 -1.5
v 4 9 -1.5
v -3 6 -2.5
v -3 11 -2.5
v -2 6 -2.5
v -2 11 -2.5
v -2 12 -2.5
v 2 6 -2.5
v 2 11 -2.5
v 2 12 -2.5
v 3 6 -2.5
v 3 11 -2.5
v -2 6 -3.5
v -2 11 -3.5
v -1 7 -3.5
v -1 10 -3.5
v 1 7 -3.5
v 1 10 -3.5
v 2 6 -3.5
v 2 11 -3.5
v -1 7 -4.5
v -1 10 -4.5
v 1 7 -4.5
v 1 10 -4.5
v -2 6 1.5
v 0 6 1.5
v 2 6 1.5
v -3 6 0.5
v -2 6 0.5
v 0 6 0.5
v 2 6 0.5
v 3 6 0.5
v -3 6 -2.5
v -2 6 -2.5
v 2 6 -2.5
v 3 6 -2.5
v -2 6 -3.5
v 2 6 -3.5
v -3 7 1.5
v -2 7 1.5
v 2 7 1.5
v 3 7 1.5
v -4 7 0.5
v -3 7 0.5
v -2 7 0.5
v 2 7 0.5
v 3 7 0.5
v 4 7 0.5
v -4 7 -0.5
v -3 7 -0.5
v 3 7 -0.5
v 4 7 -0.5
v -4 7 -1.5
v -3 7 -1.5
v 3 7 -1.5
v 4 7 -1.5
v -1 7 -3.5
v 1 7 -3.5
v -1 7 -4.5
v 1 7 -4.5
v -3 8 2.5
v -2 8 2.5
v 2 8 2.5
v 3 8 2.5
v -3 8 1.5
v -2 8 1.5
v 2 8 1.5
v 3 8 1.5
v -2 9 2.5
v -1 9 2.5
v 0 9 2.5
v 2 9 2.5
v -2 9 1.5
v -1 9 1.5
v 0 9 1.5
v 2 9 1.5
v -1 10 2.5
v 0 10 2.5
v -1 10 1.5
v 0 10 1.5
v -3 9 2.5
v -2 9 2.5
v 2 9 2.5
v 3 9 2.5
v -3 9 1.5
v -2 9 1.5
v 2 9 1.5
v 3 9 1.5
v -4 9 -0.5
v -3 9 -0.5
v 3 9 -0.5
v 4 9 -0.5
v -4 9 -1.5
v -3 9 -1.5
v 3 9 -1.5
v 4 9 -1.5
v -4 10 0.5
v -3 10 0.5
v 3 10 0.5
v 4 10 0.5
v -4 10 -0.5
v -3 10 -0.5
v 3 10 -0.5
v 4 10 -0.5
v -1 10 -3.5
v 1 10 -3.5
v -1 10 -4.5
v 1 10 -4.5
v -2 11 2.5
v 2 11 2.5
v -3 11 1.5
v -2 11 1.5
v 2 11 1.5
v 3 11 1.5
v -3 11 -2.5
v -2 11 -2.5
v 2 11 -2.5
v 3 11 -2.5
v -2 11 -3.5
v 2 11 -3.5
v -2 12 1.5
v 2 12 1.5
v -2 12 -2.5
v 2 12 -2.5

# faces
f 4/2/1 2/2/1 1/2/1
f 5/3/1 3/3/1 2/3/1
f 5/2/1 2/2/1 4/2/1
f 6/3/1 5/3/1 4/3/1
f 6/3/1 3/3/1 5/3/1
f 7/3/1 3/3/1 6/3/1
f 8/3/1 6/3/1 4/3/1
f 9/3/1 6/3/1 8/3/1
f 13/3/1 11/3/1 10/3/1
f 14/3/1 11/3/1 13/3/1
f 15/3/1 11/3/1 14/3/1
f 17/3/1 13/3/1 12/3/1
f 18/3/1 13/3/1 17/3/1
f 19/3/1 17/3/1 16/3/1
f 19/3/1 18/3/1 17/3/1
f 20/3/1 18/3/1 19/3/1
f 22/3/1 11/3/1 15/3/1
f 23/3/1 18/3/1 20/3/1
f 24/3/1 22/3/1 21/3/1
f 25/3/1 23/3/1 20/3/1
f 25/3/1 24/3/1 23/3/1
f 26/3/1 22/3/1 24/3/1
f 26/3/1 24/3/1 25/3/1
f 26/3/1 11/3/1 22/3/1
f 31/2/1 28/2/1 27/2/1
f 32/2/1 28/2/1 31/2/1
f 35/3/1 34/3/1 33/3/1
f 36/3/1 34/3/1 35/3/1
f 37/3/1 30/3/1 29/3/1
f 38/3/1 30/3/1 37/3/1
f 39/3/1 37/3/1 36/3/1
f 40/3/1 37/3/1 39/3/1
f 43/3/1 42/3/1 41/3/1
f 44/3/1 42/3/1 43/3/1
f 47/3/1 46/3/1 45/3/1
f 48/3/1 46/3/1 47/3/1
f 51/3/1 50/3/1 49/3/1
f 52/3/1 50/3/1 51/3/1
f 53/3/2 54/3/2 55/3/2
f 55/3/2 54/3/2 56/3/2
f 57/3/2 58/3/2 59/3/2
f 59/3/2 58/3/2 60/3/2
f 61/3/2 62/3/2 63/3/2
f 63/3/2 62/3/2 64/3/2
f 65/1/2 66/1/2 69/1/2
f 69/1/2 66/1/2 70/1/2
f 71/3/2 72/3/2 73/3/2
f 73/3/2 72/3/2 74/3/2
f 67/3/2 68/3/2 75/3/2
f 75/3/2 68/3/2 76/3/2
f 74/3/2 75/3/2 77/3/2
f 77/3/2 75/3/2 78/3/2
f 79/3/2 80/3/2 82/3/2
f 82/3/2 80/3/2 83/3/2
f 83/3/2 80/3/2 84/3/2
f 81/3/2 82/3/2 86/3/2
f 86/3/2 82/3/2 87/3/2
f 85/3/2 86/3/2 88/3/2
f 86/3/2 87/3/2 88/3/2
f 88/3/2 87/3/2 89/3/2
f 84/3/2 80/3/2 91/3/2
f 89/3/2 87/3/2 92/3/2
f 90/3/2 91/3/2 93/3/2
f 89/3/2 92/3/2 94/3/2
f 92/3/2 93/3/2 94/3/2
f 93/3/2 91/3/2 95/3/2
f 94/3/2 93/3/2 95/3/2
f 91/3/2 80/3/2 95/3/2
f 96/2/2 97/2/2 99/2/2
f 97/3/2 98/3/2 100/3/2
f 99/2/2 97/2/2 100/2/2
f 99/3/2 100/3/2 101/3/2
f 100/3/2 98/3/2 101/3/2
f 101/3/2 98/3/2 102/3/2
f 99/3/2 101/3/2 103/3/2
f 103/3/2 101/3/2 104/3/2
f 107/3/3 106/3/3 105/3/3
f 108/3/3 106/3/3 107/3/3
f 110/3/3 109/3/3 108/3/3
f 111/3/3 109/3/3 110/3/3
f 113/3/3 109/3/3 111/3/3
f 115/3/3 113/3/3 112/3/3
f 116/3/3 109/3/3 113/3/3
f 116/3/3 113/3/3 115/3/3
f 117/3/3 115/3/3 114/3/3
f 118/3/3 115/3/3 117/3/3
f 124/3/3 120/3/3 119/3/3
f 125/3/3 120/3/3 124/3/3
f 126/3/3 122/3/3 121/3/3
f 127/3/3 122/3/3 126/3/3
f 129/4/3 125/4/3 124/4/3
f 129/2/3 124/2/3 123/2/3
f 130/1/3 126/1/3 125/1/3
f 130/4/3 125/4/3 129/4/3
f 131/1/3 126/1/3 130/1/3
f 133/2/3 129/2/3 123/2/3
f 134/1/3 130/1/3 129/1/3
f 134/2/3 129/2/3 133/2/3
f 134/1/3 131/1/3 130/1/3
f 135/3/3 132/3/3 131/3/3
f 135/1/3 131/1/3 134/1/3
f 136/3/3 132/3/3 135/3/3
f 137/1/3 134/1/3 133/1/3
f 137/1/3 135/1/3 134/1/3
f 138/1/3 135/1/3 137/1/3
f 139/1/3 137/1/3 133/1/3
f 140/4/3 138/4/3 137/4/3
f 140/1/3 137/1/3 139/1/3
f 141/1/3 135/1/3 138/1/3
f 141/4/3 138/4/3 140/4/3
f 142/1/3 135/1/3 141/1/3
f 143/3/3 128/3/3 127/3/3
f 144/3/3 128/3/3 143/3/3
f 145/3/3 141/3/3 140/3/3
f 146/3/3 141/3/3 145/3/3
f 147/3/3 143/3/3 142/3/3
f 148/3/3 143/3/3 147/3/3
f 153/2/3 150/2/3 149/2/3
f 154/3/3 151/3/3 150/3/3
f 154/2/3 150/2/3 153/2/3
f 155/3/3 151/3/3 154/3/3
f 156/3/3 153/3/3 152/3/3
f 157/3/3 153/3/3 156/3/3
f 160/3/3 159/3/3 158/3/3
f 161/3/3 159/3/3 160/3/3
f 164/2/3 162/2/3 161/2/3
f 165/3/3 163/3/3 162/3/3
f 165/2/3 162/2/3 164/2/3
f 166/3/3 163/3/3 165/3/3
f 167/3/4 168/3/4 169/3/4
f 169/3/4 168/3/4 170/3/4
f 171/3/4 172/3/4 173/3/4
f 173/3/4 172/3/4 174/3/4
f 175/3/4 176/3/4 177/3/4
f 177/3/4 176/3/4 178/3/4
f 179/3/4 180/3/4 181/3/4
f 181/3/4 180/3/4 182/3/4
f 183/3/4 184/3/4 185/3/4
f 185/3/4 184/3/4 186/3/4
f 186/3/4 187/3/4 189/3/4
f 189/3/4 187/3/4 190/3/4
f 188/3/4 189/3/4 191/3/4
f 191/3/4 189/3/4 192/3/4
f 193/3/4 194/3/4 195/3/4
f 195/3/4 194/3/4 196/3/4
f 193/3/4 195/3/4 197/3/4
f 196/3/4 194/3/4 198/3/4
f 193/3/4 197/3/4 199/3/4
f 197/3/4 198/3/4 199/3/4
f 198/3/4 194/3/4 200/3/4
f 199/3/4 198/3/4 200/3/4
f 201/3/4 202/3/4 203/3/4
f 203/3/4 202/3/4 204/3/4
f 209/2/5 206/2/5 205/2/5
f 210/1/5 207/1/5 206/1/5
f 210/2/5 206/2/5 209/2/5
f 211/1/5 207/1/5 210/1/5
f 213/3/5 209/3/5 208/3/5
f 213/3/5 212/3/5 211/3/5
f 213/3/5 211/3/5 210/3/5
f 213/3/5 210/3/5 209/3/5
f 214/3/5 212/3/5 213/3/5
f 215/3/5 212/3/5 214/3/5
f 216/3/5 212/3/5 215/3/5
f 217/3/5 215/3/5 214/3/5
f 218/3/5 215/3/5 217/3/5
f 224/3/5 220/3/5 219/3/5
f 225/3/5 220/3/5 224/3/5
f 226/3/5 222/3/5 221/3/5
f 227/3/5 222/3/5 226/3/5
f 229/2/5 224/2/5 223/2/5
f 230/2/5 224/2/5 229/2/5
f 231/2/5 228/2/5 227/2/5
f 232/2/5 228/2/5 231/2/5
f 233/3/5 230/3/5 229/3/5
f 234/3/5 230/3/5 233/3/5
f 235/3/5 232/3/5 231/3/5
f 236/3/5 232/3/5 235/3/5
f 239/3/5 238/3/5 237/3/5
f 240/3/5 238/3/5 239/3/5
f 245/3/5 242/3/5 241/3/5
f 246/3/5 242/3/5 245/3/5
f 247/3/5 244/3/5 243/3/5
f 248/3/5 244/3/5 247/3/5
f 253/3/5 250/3/5 249/3/5
f 254/3/5 250/3/5 253/3/5
f 255/3/5 252/3/5 251/3/5
f 256/3/5 252/3/5 255/3/5
f 259/3/5 258/3/5 257/3/5
f 260/3/5 258/3/5 259/3/5
f 261/3/6 262/3/6 265/3/6
f 265/3/6 262/3/6 266/3/6
f 263/3/6 264/3/6 267/3/6
f 267/3/6 264/3/6 268/3/6
f 269/3/6 270/3/6 273/3/6
f 273/3/6 270/3/6 274/3/6
f 271/3/6 272/3/6 275/3/6
f 275/3/6 272/3/6 276/3/6
f 277/3/6 278/3/6 281/3/6
f 281/3/6 278/3/6 282/3/6
f 279/3/6 280/3/6 283/3/6
f 283/3/6 280/3/6 284/3/6
f 285/3/6 286/3/6 287/3/6
f 287/3/6 286/3/6 288/3/6
f 289/3/6 290/3/6 292/3/6
f 292/3/6 290/3/6 293/3/6
f 291/3/6 292/3/6 295/3/6
f 295/3/6 292/3/6 296/3/6
f 293/3/6 294/3/6 297/3/6
f 297/3/6 294/3/6 298/3/6
f 296/3/6 297/3/6 299/3/6
f 299/3/6 297/3/6 300/3/6
f 301/3/6 302/3/6 303/3/6
f 303/3/6 302/3/6 304/3/6
