# MagicaVoxel @ Ephtracy

# material
mtllib Head 2.mtl
usemtl palette

# normals
vn -1 0 0
vn 1 0 0
vn 0 0 1
vn 0 0 -1
vn 0 -1 0
vn 0 1 0

# texcoords
vt 0.00195312 0.5
vt 0.00585938 0.5
vt 0.00976562 0.5
vt 0.994141 0.5

# verts
v -4 3 0.5
v -4 3 -0.5
v -4 3 -1.5
v -4 4 0.5
v -4 4 -0.5
v -4 5 -0.5
v -4 5 -1.5
v -4 6 0.5
v -4 6 -0.5
v -3 2 0.5
v -3 2 -2.5
v -3 3 1.5
v -3 3 0.5
v -3 3 -0.5
v -3 3 -1.5
v -3 4 2.5
v -3 4 1.5
v -3 4 0.5
v -3 5 2.5
v -3 5 1.5
v -3 5 -0.5
v -3 5 -1.5
v -3 6 0.5
v -3 6 -0.5
v -3 7 1.5
v -3 7 -2.5
v -2 2 1.5
v -2 2 0.5
v -2 3 1.5
v -2 3 0.5
v -2 3 -2.5
v -2 3 -3.5
v -2 5 2.5
v -2 5 1.5
v -2 6 2.5
v -2 6 1.5
v -2 7 1.5
v -2 7 -2.5
v -2 7 -3.5
v -2 8 1.5
v -2 8 -2.5
v -1 0 -4.5
v -1 0 -6.5
v -1 4 2.5
v -1 4 1.5
v -1 4 -3.5
v -1 4 -4.5
v -1 5 2.5
v -1 5 1.5
v -1 6 -3.5
v -1 6 -4.5
v -1 6 -6.5
v 2 4 2.5
v 2 4 1.5
v 2 5 2.5
v 2 5 1.5
v -2 4 2.5
v -2 4 1.5
v -2 5 2.5
v -2 5 1.5
v 1 0 -4.5
v 1 0 -6.5
v 1 4 2.5
v 1 4 1.5
v 1 4 -3.5
v 1 4 -4.5
v 1 5 2.5
v 1 5 1.5
v 1 6 -3.5
v 1 6 -4.5
v 1 6 -6.5
v 2 2 1.5
v 2 2 0.5
v 2 3 1.5
v 2 3 0.5
v 2 3 -2.5
v 2 3 -3.5
v 2 5 2.5
v 2 5 1.5
v 2 6 2.5
v 2 6 1.5
v 2 7 1.5
v 2 7 -2.5
v 2 7 -3.5
v 2 8 1.5
v 2 8 -2.5
v 3 2 0.5
v 3 2 -2.5
v 3 3 1.5
v 3 3 0.5
v 3 3 -0.5
v 3 3 -1.5
v 3 4 2.5
v 3 4 1.5
v 3 4 0.5
v 3 5 2.5
v 3 5 1.5
v 3 5 -0.5
v 3 5 -1.5
v 3 6 0.5
v 3 6 -0.5
v 3 7 1.5
v 3 7 -2.5
v 4 3 0.5
v 4 3 -0.5
v 4 3 -1.5
v 4 4 0.5
v 4 4 -0.5
v 4 5 -0.5
v 4 5 -1.5
v 4 6 0.5
v 4 6 -0.5
v -3 4 2.5
v -3 5 2.5
v -2 4 2.5
v -2 5 2.5
v -2 6 2.5
v -1 4 2.5
v -1 5 2.5
v 1 4 2.5
v 1 5 2.5
v 2 4 2.5
v 2 5 2.5
v 2 6 2.5
v 3 4 2.5
v 3 5 2.5
v -3 3 1.5
v -3 4 1.5
v -3 5 1.5
v -3 7 1.5
v -2 2 1.5
v -2 3 1.5
v -2 4 1.5
v -2 5 1.5
v -2 6 1.5
v -2 7 1.5
v -2 8 1.5
v -1 3 1.5
v -1 4 1.5
v -1 5 1.5
v 0 2 1.5
v 0 3 1.5
v 1 3 1.5
v 1 4 1.5
v 1 5 1.5
v 2 2 1.5
v 2 3 1.5
v 2 4 1.5
v 2 5 1.5
v 2 6 1.5
v 2 7 1.5
v 2 8 1.5
v 3 3 1.5
v 3 4 1.5
v 3 5 1.5
v 3 7 1.5
v -4 3 0.5
v -4 4 0.5
v -4 6 0.5
v -3 2 0.5
v -3 3 0.5
v -3 4 0.5
v -3 6 0.5
v -2 2 0.5
v -2 3 0.5
v 2 2 0.5
v 2 3 0.5
v 3 2 0.5
v 3 3 0.5
v 3 4 0.5
v 3 6 0.5
v 4 3 0.5
v 4 4 0.5
v 4 6 0.5
v -1 0 -4.5
v -1 4 -4.5
v 1 0 -4.5
v 1 4 -4.5
v -4 5 -0.5
v -4 6 -0.5
v -3 5 -0.5
v -3 6 -0.5
v 3 5 -0.5
v 3 6 -0.5
v 4 5 -0.5
v 4 6 -0.5
v -4 3 -1.5
v -4 5 -1.5
v -3 3 -1.5
v -3 5 -1.5
v 3 3 -1.5
v 3 5 -1.5
v 4 3 -1.5
v 4 5 -1.5
v -3 2 -2.5
v -3 7 -2.5
v -2 3 -2.5
v -2 7 -2.5
v -2 8 -2.5
v 2 3 -2.5
v 2 7 -2.5
v 2 8 -2.5
v 3 2 -2.5
v 3 7 -2.5
v -2 3 -3.5
v -2 7 -3.5
v -1 4 -3.5
v -1 6 -3.5
v 1 4 -3.5
v 1 6 -3.5
v 2 3 -3.5
v 2 7 -3.5
v -1 0 -6.5
v -1 6 -6.5
v 1 0 -6.5
v 1 6 -6.5
v -1 0 -4.5
v 1 0 -4.5
v -1 0 -6.5
v 1 0 -6.5
v -2 2 1.5
v 0 2 1.5
v 2 2 1.5
v -3 2 0.5
v -2 2 0.5
v 0 2 0.5
v 2 2 0.5
v 3 2 0.5
v -3 2 -2.5
v 3 2 -2.5
v -3 3 1.5
v -2 3 1.5
v 2 3 1.5
v 3 3 1.5
v -4 3 0.5
v -3 3 0.5
v -2 3 0.5
v 2 3 0.5
v 3 3 0.5
v 4 3 0.5
v -4 3 -0.5
v -3 3 -0.5
v 3 3 -0.5
v 4 3 -0.5
v -4 3 -1.5
v -3 3 -1.5
v 3 3 -1.5
v 4 3 -1.5
v -2 3 -2.5
v 2 3 -2.5
v -2 3 -3.5
v 2 3 -3.5
v -3 4 2.5
v -2 4 2.5
v -1 4 2.5
v 1 4 2.5
v 2 4 2.5
v 3 4 2.5
v -3 4 1.5
v -2 4 1.5
v -1 4 1.5
v 1 4 1.5
v 2 4 1.5
v 3 4 1.5
v -1 4 -3.5
v 1 4 -3.5
v -1 4 -4.5
v 1 4 -4.5
v -2 5 2.5
v -1 5 2.5
v 1 5 2.5
v 2 5 2.5
v -2 5 1.5
v -1 5 1.5
v 1 5 1.5
v 2 5 1.5
v -3 5 2.5
v -2 5 2.5
v 2 5 2.5
v 3 5 2.5
v -3 5 1.5
v -2 5 1.5
v 2 5 1.5
v 3 5 1.5
v -4 5 -0.5
v -3 5 -0.5
v 3 5 -0.5
v 4 5 -0.5
v -4 5 -1.5
v -3 5 -1.5
v 3 5 -1.5
v 4 5 -1.5
v -2 6 2.5
v 2 6 2.5
v -2 6 1.5
v 2 6 1.5
v -4 6 0.5
v -3 6 0.5
v 3 6 0.5
v 4 6 0.5
v -4 6 -0.5
v -3 6 -0.5
v 3 6 -0.5
v 4 6 -0.5
v -1 6 -3.5
v 1 6 -3.5
v -1 6 -4.5
v 1 6 -4.5
v -1 6 -6.5
v 1 6 -6.5
v -3 7 1.5
v -2 7 1.5
v 2 7 1.5
v 3 7 1.5
v -3 7 -2.5
v -2 7 -2.5
v 2 7 -2.5
v 3 7 -2.5
v -2 7 -3.5
v 2 7 -3.5
v -2 8 1.5
v 2 8 1.5
v -2 8 -2.5
v 2 8 -2.5

# faces
f 4/1/1 2/1/1 1/1/1
f 5/3/1 3/3/1 2/3/1
f 5/1/1 2/1/1 4/1/1
f 6/3/1 5/3/1 4/3/1
f 6/3/1 3/3/1 5/3/1
f 7/3/1 3/3/1 6/3/1
f 8/3/1 6/3/1 4/3/1
f 9/3/1 6/3/1 8/3/1
f 13/3/1 11/3/1 10/3/1
f 14/3/1 11/3/1 13/3/1
f 15/3/1 11/3/1 14/3/1
f 17/3/1 13/3/1 12/3/1
f 18/3/1 13/3/1 17/3/1
f 19/3/1 17/3/1 16/3/1
f 19/3/1 18/3/1 17/3/1
f 20/3/1 18/3/1 19/3/1
f 22/3/1 11/3/1 15/3/1
f 23/3/1 18/3/1 20/3/1
f 24/3/1 22/3/1 21/3/1
f 25/3/1 23/3/1 20/3/1
f 25/3/1 24/3/1 23/3/1
f 26/3/1 22/3/1 24/3/1
f 26/3/1 24/3/1 25/3/1
f 26/3/1 11/3/1 22/3/1
f 29/1/1 28/1/1 27/1/1
f 30/1/1 28/1/1 29/1/1
f 35/3/1 34/3/1 33/3/1
f 36/3/1 34/3/1 35/3/1
f 38/3/1 32/3/1 31/3/1
f 39/3/1 32/3/1 38/3/1
f 40/3/1 38/3/1 37/3/1
f 41/3/1 38/3/1 40/3/1
f 47/3/1 43/3/1 42/3/1
f 48/3/1 45/3/1 44/3/1
f 49/3/1 45/3/1 48/3/1
f 50/4/1 47/4/1 46/4/1
f 51/3/1 43/3/1 47/3/1
f 51/4/1 47/4/1 50/4/1
f 52/3/1 43/3/1 51/3/1
f 55/3/1 54/3/1 53/3/1
f 56/3/1 54/3/1 55/3/1
f 57/3/2 58/3/2 59/3/2
f 59/3/2 58/3/2 60/3/2
f 61/3/2 62/3/2 66/3/2
f 63/3/2 64/3/2 67/3/2
f 67/3/2 64/3/2 68/3/2
f 65/4/2 66/4/2 69/4/2
f 66/3/2 62/3/2 70/3/2
f 69/4/2 66/4/2 70/4/2
f 70/3/2 62/3/2 71/3/2
f 72/2/2 73/2/2 74/2/2
f 74/2/2 73/2/2 75/2/2
f 78/3/2 79/3/2 80/3/2
f 80/3/2 79/3/2 81/3/2
f 76/3/2 77/3/2 83/3/2
f 83/3/2 77/3/2 84/3/2
f 82/3/2 83/3/2 85/3/2
f 85/3/2 83/3/2 86/3/2
f 87/3/2 88/3/2 90/3/2
f 90/3/2 88/3/2 91/3/2
f 91/3/2 88/3/2 92/3/2
f 89/3/2 90/3/2 94/3/2
f 94/3/2 90/3/2 95/3/2
f 93/3/2 94/3/2 96/3/2
f 94/3/2 95/3/2 96/3/2
f 96/3/2 95/3/2 97/3/2
f 92/3/2 88/3/2 99/3/2
f 97/3/2 95/3/2 100/3/2
f 98/3/2 99/3/2 101/3/2
f 97/3/2 100/3/2 102/3/2
f 100/3/2 101/3/2 102/3/2
f 101/3/2 99/3/2 103/3/2
f 102/3/2 101/3/2 103/3/2
f 99/3/2 88/3/2 103/3/2
f 104/1/2 105/1/2 107/1/2
f 105/3/2 106/3/2 108/3/2
f 107/1/2 105/1/2 108/1/2
f 107/3/2 108/3/2 109/3/2
f 108/3/2 106/3/2 109/3/2
f 109/3/2 106/3/2 110/3/2
f 107/3/2 109/3/2 111/3/2
f 111/3/2 109/3/2 112/3/2
f 115/3/3 114/3/3 113/3/3
f 116/3/3 114/3/3 115/3/3
f 119/3/3 117/3/3 116/3/3
f 120/3/3 119/3/3 118/3/3
f 121/3/3 117/3/3 119/3/3
f 121/3/3 119/3/3 120/3/3
f 123/3/3 117/3/3 121/3/3
f 124/3/3 117/3/3 123/3/3
f 125/3/3 123/3/3 122/3/3
f 126/3/3 123/3/3 125/3/3
f 132/3/3 128/3/3 127/3/3
f 133/3/3 128/3/3 132/3/3
f 134/3/3 130/3/3 129/3/3
f 135/3/3 130/3/3 134/3/3
f 136/3/3 130/3/3 135/3/3
f 138/4/3 133/4/3 132/4/3
f 138/1/3 132/1/3 131/1/3
f 139/2/3 134/2/3 133/2/3
f 139/4/3 133/4/3 138/4/3
f 140/2/3 134/2/3 139/2/3
f 141/1/3 138/1/3 131/1/3
f 142/2/3 139/2/3 138/2/3
f 142/1/3 138/1/3 141/1/3
f 143/2/3 142/2/3 141/2/3
f 143/2/3 139/2/3 142/2/3
f 144/2/3 139/2/3 143/2/3
f 146/2/3 143/2/3 141/2/3
f 147/4/3 144/4/3 143/4/3
f 147/2/3 143/2/3 146/2/3
f 148/2/3 145/2/3 144/2/3
f 148/4/3 144/4/3 147/4/3
f 149/2/3 145/2/3 148/2/3
f 150/3/3 137/3/3 136/3/3
f 150/3/3 136/3/3 135/3/3
f 151/3/3 137/3/3 150/3/3
f 152/3/3 137/3/3 151/3/3
f 153/3/3 148/3/3 147/3/3
f 154/3/3 148/3/3 153/3/3
f 155/3/3 151/3/3 150/3/3
f 155/3/3 150/3/3 149/3/3
f 156/3/3 151/3/3 155/3/3
f 161/1/3 158/1/3 157/1/3
f 162/3/3 159/3/3 158/3/3
f 162/1/3 158/1/3 161/1/3
f 163/3/3 159/3/3 162/3/3
f 164/3/3 161/3/3 160/3/3
f 165/3/3 161/3/3 164/3/3
f 168/3/3 167/3/3 166/3/3
f 169/3/3 167/3/3 168/3/3
f 172/1/3 170/1/3 169/1/3
f 173/3/3 171/3/3 170/3/3
f 173/1/3 170/1/3 172/1/3
f 174/3/3 171/3/3 173/3/3
f 177/3/3 176/3/3 175/3/3
f 178/3/3 176/3/3 177/3/3
f 179/3/4 180/3/4 181/3/4
f 181/3/4 180/3/4 182/3/4
f 183/3/4 184/3/4 185/3/4
f 185/3/4 184/3/4 186/3/4
f 187/3/4 188/3/4 189/3/4
f 189/3/4 188/3/4 190/3/4
f 191/3/4 192/3/4 193/3/4
f 193/3/4 192/3/4 194/3/4
f 195/3/4 196/3/4 197/3/4
f 197/3/4 196/3/4 198/3/4
f 195/3/4 197/3/4 200/3/4
f 198/3/4 199/3/4 201/3/4
f 201/3/4 199/3/4 202/3/4
f 195/3/4 200/3/4 203/3/4
f 200/3/4 201/3/4 203/3/4
f 203/3/4 201/3/4 204/3/4
f 205/3/4 206/3/4 207/3/4
f 207/3/4 206/3/4 208/3/4
f 205/3/4 207/3/4 209/3/4
f 208/3/4 206/3/4 210/3/4
f 205/3/4 209/3/4 211/3/4
f 209/3/4 210/3/4 211/3/4
f 210/3/4 206/3/4 212/3/4
f 211/3/4 210/3/4 212/3/4
f 213/3/4 214/3/4 215/3/4
f 215/3/4 214/3/4 216/3/4
f 219/3/5 218/3/5 217/3/5
f 220/3/5 218/3/5 219/3/5
f 225/1/5 222/1/5 221/1/5
f 226/2/5 223/2/5 222/2/5
f 226/1/5 222/1/5 225/1/5
f 227/2/5 223/2/5 226/2/5
f 229/3/5 225/3/5 224/3/5
f 229/3/5 228/3/5 227/3/5
f 229/3/5 227/3/5 226/3/5
f 229/3/5 226/3/5 225/3/5
f 230/3/5 228/3/5 229/3/5
f 236/3/5 232/3/5 231/3/5
f 237/3/5 232/3/5 236/3/5
f 238/3/5 234/3/5 233/3/5
f 239/3/5 234/3/5 238/3/5
f 241/1/5 236/1/5 235/1/5
f 242/1/5 236/1/5 241/1/5
f 243/1/5 240/1/5 239/1/5
f 244/1/5 240/1/5 243/1/5
f 245/3/5 242/3/5 241/3/5
f 246/3/5 242/3/5 245/3/5
f 247/3/5 244/3/5 243/3/5
f 248/3/5 244/3/5 247/3/5
f 251/3/5 250/3/5 249/3/5
f 252/3/5 250/3/5 251/3/5
f 259/3/5 254/3/5 253/3/5
f 260/3/5 254/3/5 259/3/5
f 261/3/5 256/3/5 255/3/5
f 262/3/5 256/3/5 261/3/5
f 263/3/5 258/3/5 257/3/5
f 264/3/5 258/3/5 263/3/5
f 267/4/5 266/4/5 265/4/5
f 268/4/5 266/4/5 267/4/5
f 273/3/5 270/3/5 269/3/5
f 274/3/5 270/3/5 273/3/5
f 275/3/5 272/3/5 271/3/5
f 276/3/5 272/3/5 275/3/5
f 277/3/6 278/3/6 281/3/6
f 281/3/6 278/3/6 282/3/6
f 279/3/6 280/3/6 283/3/6
f 283/3/6 280/3/6 284/3/6
f 285/3/6 286/3/6 289/3/6
f 289/3/6 286/3/6 290/3/6
f 287/3/6 288/3/6 291/3/6
f 291/3/6 288/3/6 292/3/6
f 293/3/6 294/3/6 295/3/6
f 295/3/6 294/3/6 296/3/6
f 297/3/6 298/3/6 301/3/6
f 301/3/6 298/3/6 302/3/6
f 299/3/6 300/3/6 303/3/6
f 303/3/6 300/3/6 304/3/6
f 305/4/6 306/4/6 307/4/6
f 307/4/6 306/4/6 308/4/6
f 307/3/6 308/3/6 309/3/6
f 309/3/6 308/3/6 310/3/6
f 311/3/6 312/3/6 315/3/6
f 315/3/6 312/3/6 316/3/6
f 313/3/6 314/3/6 317/3/6
f 317/3/6 314/3/6 318/3/6
f 316/3/6 317/3/6 319/3/6
f 319/3/6 317/3/6 320/3/6
f 321/3/6 322/3/6 323/3/6
f 323/3/6 322/3/6 324/3/6
