# MagicaVoxel @ Ephtracy

# material
mtllib Head 15.mtl
usemtl palette

# normals
vn -1 0 0
vn 1 0 0
vn 0 0 1
vn 0 0 -1
vn 0 -1 0
vn 0 1 0

# texcoords
vt 0.00195312 0.5
vt 0.00585938 0.5
vt 0.00976562 0.5
vt 0.994141 0.5

# verts
v -4 3 0.5
v -4 3 -1.5
v -4 4 0.5
v -4 4 -0.5
v -4 5 1.5
v -4 5 0.5
v -4 5 -0.5
v -4 6 1.5
v -4 6 -1.5
v -3 2 1.5
v -3 2 -2.5
v -3 3 2.5
v -3 3 1.5
v -3 3 0.5
v -3 3 -1.5
v -3 4 0.5
v -3 5 2.5
v -3 5 1.5
v -3 5 0.5
v -3 6 1.5
v -3 6 -1.5
v -3 6 -2.5
v -3 7 1.5
v -3 7 -1.5
v -2 2 2.5
v -2 2 1.5
v -2 2 -2.5
v -2 2 -3.5
v -2 3 2.5
v -2 3 1.5
v -2 5 2.5
v -2 5 1.5
v -2 6 -1.5
v -2 6 -2.5
v -2 7 2.5
v -2 7 1.5
v -2 7 -1.5
v -2 7 -2.5
v -2 7 -3.5
v -2 8 1.5
v -2 8 -2.5
v -1 3 2.5
v -1 3 1.5
v -1 3 -3.5
v -1 3 -4.5
v -1 4 2.5
v -1 4 1.5
v -1 6 -3.5
v -1 6 -4.5
v 1 2 1.5
v 1 2 0.5
v 1 3 1.5
v 1 3 0.5
v 1 5 2.5
v 1 5 1.5
v 1 6 2.5
v 1 6 1.5
v 2 2 0.5
v 2 2 -1.5
v 2 3 2.5
v 2 3 1.5
v 2 3 0.5
v 2 3 -0.5
v 2 3 -1.5
v 2 4 1.5
v 2 5 2.5
v 2 5 1.5
v -2 2 0.5
v -2 2 -1.5
v -2 3 2.5
v -2 3 1.5
v -2 3 0.5
v -2 3 -0.5
v -2 3 -1.5
v -2 4 1.5
v -2 5 2.5
v -2 5 1.5
v -1 2 1.5
v -1 2 0.5
v -1 3 1.5
v -1 3 0.5
v -1 5 2.5
v -1 5 1.5
v -1 6 2.5
v -1 6 1.5
v 1 3 2.5
v 1 3 1.5
v 1 3 -3.5
v 1 3 -4.5
v 1 4 2.5
v 1 4 1.5
v 1 6 -3.5
v 1 6 -4.5
v 2 2 2.5
v 2 2 1.5
v 2 2 -2.5
v 2 2 -3.5
v 2 3 2.5
v 2 3 1.5
v 2 5 2.5
v 2 5 1.5
v 2 6 -1.5
v 2 6 -2.5
v 2 7 2.5
v 2 7 1.5
v 2 7 -1.5
v 2 7 -2.5
v 2 7 -3.5
v 2 8 1.5
v 2 8 -2.5
v 3 2 1.5
v 3 2 -2.5
v 3 3 2.5
v 3 3 1.5
v 3 3 0.5
v 3 3 -1.5
v 3 4 0.5
v 3 5 2.5
v 3 5 1.5
v 3 5 0.5
v 3 6 1.5
v 3 6 -1.5
v 3 6 -2.5
v 3 7 1.5
v 3 7 -1.5
v 4 3 0.5
v 4 3 -1.5
v 4 4 0.5
v 4 4 -0.5
v 4 5 1.5
v 4 5 0.5
v 4 5 -0.5
v 4 6 1.5
v 4 6 -1.5
v -3 3 2.5
v -3 5 2.5
v -2 2 2.5
v -2 3 2.5
v -2 5 2.5
v -2 7 2.5
v -1 3 2.5
v -1 4 2.5
v -1 5 2.5
v -1 6 2.5
v 1 3 2.5
v 1 4 2.5
v 1 5 2.5
v 1 6 2.5
v 2 2 2.5
v 2 3 2.5
v 2 5 2.5
v 2 7 2.5
v 3 3 2.5
v 3 5 2.5
v -4 5 1.5
v -4 6 1.5
v -3 2 1.5
v -3 3 1.5
v -3 5 1.5
v -3 6 1.5
v -3 7 1.5
v -2 2 1.5
v -2 3 1.5
v -2 4 1.5
v -2 5 1.5
v -2 7 1.5
v -2 8 1.5
v -1 3 1.5
v -1 4 1.5
v -1 5 1.5
v -1 6 1.5
v 1 3 1.5
v 1 4 1.5
v 1 5 1.5
v 1 6 1.5
v 2 2 1.5
v 2 3 1.5
v 2 4 1.5
v 2 5 1.5
v 2 7 1.5
v 2 8 1.5
v 3 2 1.5
v 3 3 1.5
v 3 5 1.5
v 3 6 1.5
v 3 7 1.5
v 4 5 1.5
v 4 6 1.5
v -4 3 0.5
v -4 4 0.5
v -4 5 0.5
v -3 3 0.5
v -3 4 0.5
v -3 5 0.5
v 3 3 0.5
v 3 4 0.5
v 3 5 0.5
v 4 3 0.5
v 4 4 0.5
v 4 5 0.5
v -2 2 -1.5
v -2 3 -1.5
v 2 2 -1.5
v 2 3 -1.5
v -1 2 1.5
v -1 3 1.5
v 0 3 1.5
v 1 2 1.5
v 1 3 1.5
v -2 2 0.5
v -2 3 0.5
v -1 2 0.5
v -1 3 0.5
v 1 2 0.5
v 1 3 0.5
v 2 2 0.5
v 2 3 0.5
v -4 3 -1.5
v -4 6 -1.5
v -3 3 -1.5
v -3 6 -1.5
v -3 7 -1.5
v -2 6 -1.5
v -2 7 -1.5
v 2 6 -1.5
v 2 7 -1.5
v 3 3 -1.5
v 3 6 -1.5
v 3 7 -1.5
v 4 3 -1.5
v 4 6 -1.5
v -3 2 -2.5
v -3 6 -2.5
v -2 2 -2.5
v -2 6 -2.5
v -2 7 -2.5
v -2 8 -2.5
v 2 2 -2.5
v 2 6 -2.5
v 2 7 -2.5
v 2 8 -2.5
v 3 2 -2.5
v 3 6 -2.5
v -2 2 -3.5
v -2 7 -3.5
v -1 3 -3.5
v -1 6 -3.5
v 1 3 -3.5
v 1 6 -3.5
v 2 2 -3.5
v 2 7 -3.5
v -1 3 -4.5
v -1 6 -4.5
v 1 3 -4.5
v 1 6 -4.5
v -2 2 2.5
v 2 2 2.5
v -3 2 1.5
v -2 2 1.5
v -1 2 1.5
v 1 2 1.5
v 2 2 1.5
v 3 2 1.5
v -2 2 0.5
v -1 2 0.5
v 1 2 0.5
v 2 2 0.5
v -2 2 -1.5
v 2 2 -1.5
v -3 2 -2.5
v -2 2 -2.5
v 2 2 -2.5
v 3 2 -2.5
v -2 2 -3.5
v 2 2 -3.5
v -3 3 2.5
v -2 3 2.5
v 2 3 2.5
v 3 3 2.5
v -3 3 1.5
v -2 3 1.5
v -1 3 1.5
v 0 3 1.5
v 1 3 1.5
v 2 3 1.5
v 3 3 1.5
v -4 3 0.5
v -3 3 0.5
v -2 3 0.5
v -1 3 0.5
v 0 3 0.5
v 1 3 0.5
v 2 3 0.5
v 3 3 0.5
v 4 3 0.5
v -2 3 -0.5
v 2 3 -0.5
v -4 3 -1.5
v -3 3 -1.5
v -2 3 -1.5
v 2 3 -1.5
v 3 3 -1.5
v 4 3 -1.5
v -1 3 -3.5
v 1 3 -3.5
v -1 3 -4.5
v 1 3 -4.5
v -2 5 2.5
v -1 5 2.5
v 1 5 2.5
v 2 5 2.5
v -4 5 1.5
v -3 5 1.5
v -2 5 1.5
v -1 5 1.5
v 1 5 1.5
v 2 5 1.5
v 3 5 1.5
v 4 5 1.5
v -4 5 0.5
v -3 5 0.5
v 3 5 0.5
v 4 5 0.5
v -1 6 2.5
v 1 6 2.5
v -1 6 1.5
v 1 6 1.5
v -2 3 2.5
v -1 3 2.5
v 1 3 2.5
v 2 3 2.5
v -2 3 1.5
v -1 3 1.5
v 1 3 1.5
v 2 3 1.5
v -1 4 2.5
v 1 4 2.5
v -1 4 1.5
v 1 4 1.5
v -3 5 2.5
v -2 5 2.5
v 2 5 2.5
v 3 5 2.5
v -3 5 1.5
v -2 5 1.5
v 2 5 1.5
v 3 5 1.5
v -4 6 1.5
v -3 6 1.5
v 3 6 1.5
v 4 6 1.5
v -4 6 -1.5
v -3 6 -1.5
v -2 6 -1.5
v 2 6 -1.5
v 3 6 -1.5
v 4 6 -1.5
v -3 6 -2.5
v -2 6 -2.5
v 2 6 -2.5
v 3 6 -2.5
v -1 6 -3.5
v 1 6 -3.5
v -1 6 -4.5
v 1 6 -4.5
v -2 7 2.5
v 2 7 2.5
v -3 7 1.5
v -2 7 1.5
v 2 7 1.5
v 3 7 1.5
v -3 7 -1.5
v -2 7 -1.5
v 2 7 -1.5
v 3 7 -1.5
v -2 7 -2.5
v 2 7 -2.5
v -2 7 -3.5
v 2 7 -3.5
v -2 8 1.5
v 2 8 1.5
v -2 8 -2.5
v 2 8 -2.5

# faces
f 3/3/1 2/3/1 1/3/1
f 4/3/1 2/3/1 3/3/1
f 6/1/1 4/1/1 3/1/1
f 7/3/1 2/3/1 4/3/1
f 7/1/1 4/1/1 6/1/1
f 8/3/1 6/3/1 5/3/1
f 8/3/1 7/3/1 6/3/1
f 9/3/1 2/3/1 7/3/1
f 9/3/1 7/3/1 8/3/1
f 13/3/1 11/3/1 10/3/1
f 14/3/1 11/3/1 13/3/1
f 15/3/1 11/3/1 14/3/1
f 16/3/1 13/3/1 12/3/1
f 16/3/1 14/3/1 13/3/1
f 17/3/1 16/3/1 12/3/1
f 18/3/1 16/3/1 17/3/1
f 19/3/1 16/3/1 18/3/1
f 21/3/1 11/3/1 15/3/1
f 22/3/1 11/3/1 21/3/1
f 23/3/1 21/3/1 20/3/1
f 24/3/1 21/3/1 23/3/1
f 29/3/1 26/3/1 25/3/1
f 30/3/1 26/3/1 29/3/1
f 34/3/1 28/3/1 27/3/1
f 35/3/1 32/3/1 31/3/1
f 36/3/1 32/3/1 35/3/1
f 37/3/1 34/3/1 33/3/1
f 38/3/1 28/3/1 34/3/1
f 38/3/1 34/3/1 37/3/1
f 39/3/1 28/3/1 38/3/1
f 40/3/1 37/3/1 36/3/1
f 40/3/1 38/3/1 37/3/1
f 41/3/1 38/3/1 40/3/1
f 46/3/1 43/3/1 42/3/1
f 47/3/1 43/3/1 46/3/1
f 48/3/1 45/3/1 44/3/1
f 49/3/1 45/3/1 48/3/1
f 52/3/1 51/3/1 50/3/1
f 53/3/1 51/3/1 52/3/1
f 56/3/1 55/3/1 54/3/1
f 57/3/1 55/3/1 56/3/1
f 62/3/1 59/3/1 58/3/1
f 63/3/1 59/3/1 62/3/1
f 64/3/1 59/3/1 63/3/1
f 65/3/1 61/3/1 60/3/1
f 66/3/1 65/3/1 60/3/1
f 67/3/1 65/3/1 66/3/1
f 68/3/2 69/3/2 72/3/2
f 72/3/2 69/3/2 73/3/2
f 73/3/2 69/3/2 74/3/2
f 70/3/2 71/3/2 75/3/2
f 70/3/2 75/3/2 76/3/2
f 76/3/2 75/3/2 77/3/2
f 78/3/2 79/3/2 80/3/2
f 80/3/2 79/3/2 81/3/2
f 82/3/2 83/3/2 84/3/2
f 84/3/2 83/3/2 85/3/2
f 86/3/2 87/3/2 90/3/2
f 90/3/2 87/3/2 91/3/2
f 88/3/2 89/3/2 92/3/2
f 92/3/2 89/3/2 93/3/2
f 94/3/2 95/3/2 98/3/2
f 98/3/2 95/3/2 99/3/2
f 96/3/2 97/3/2 103/3/2
f 100/3/2 101/3/2 104/3/2
f 104/3/2 101/3/2 105/3/2
f 102/3/2 103/3/2 106/3/2
f 103/3/2 97/3/2 107/3/2
f 106/3/2 103/3/2 107/3/2
f 107/3/2 97/3/2 108/3/2
f 105/3/2 106/3/2 109/3/2
f 106/3/2 107/3/2 109/3/2
f 109/3/2 107/3/2 110/3/2
f 111/3/2 112/3/2 114/3/2
f 114/3/2 112/3/2 115/3/2
f 115/3/2 112/3/2 116/3/2
f 113/3/2 114/3/2 117/3/2
f 114/3/2 115/3/2 117/3/2
f 113/3/2 117/3/2 118/3/2
f 118/3/2 117/3/2 119/3/2
f 119/3/2 117/3/2 120/3/2
f 116/3/2 112/3/2 122/3/2
f 122/3/2 112/3/2 123/3/2
f 121/3/2 122/3/2 124/3/2
f 124/3/2 122/3/2 125/3/2
f 126/3/2 127/3/2 128/3/2
f 128/3/2 127/3/2 129/3/2
f 128/1/2 129/1/2 131/1/2
f 129/3/2 127/3/2 132/3/2
f 131/1/2 129/1/2 132/1/2
f 130/3/2 131/3/2 133/3/2
f 131/3/2 132/3/2 133/3/2
f 132/3/2 127/3/2 134/3/2
f 133/3/2 132/3/2 134/3/2
f 138/3/3 136/3/3 135/3/3
f 139/3/3 136/3/3 138/3/3
f 141/3/3 138/3/3 137/3/3
f 143/3/3 140/3/3 139/3/3
f 144/3/3 140/3/3 143/3/3
f 145/3/3 142/3/3 141/3/3
f 145/3/3 141/3/3 137/3/3
f 146/3/3 142/3/3 145/3/3
f 148/3/3 140/3/3 144/3/3
f 149/3/3 145/3/3 137/3/3
f 150/3/3 145/3/3 149/3/3
f 151/3/3 148/3/3 147/3/3
f 152/3/3 140/3/3 148/3/3
f 152/3/3 148/3/3 151/3/3
f 153/3/3 151/3/3 150/3/3
f 154/3/3 151/3/3 153/3/3
f 159/3/3 156/3/3 155/3/3
f 160/3/3 156/3/3 159/3/3
f 162/3/3 158/3/3 157/3/3
f 163/3/3 158/3/3 162/3/3
f 165/3/3 161/3/3 160/3/3
f 165/3/3 160/3/3 159/3/3
f 166/3/3 161/3/3 165/3/3
f 168/1/3 164/1/3 163/1/3
f 169/4/3 165/4/3 164/4/3
f 169/1/3 164/1/3 168/1/3
f 170/4/3 165/4/3 169/4/3
f 173/2/3 171/2/3 170/2/3
f 173/2/3 170/2/3 169/2/3
f 174/2/3 171/2/3 173/2/3
f 175/2/3 171/2/3 174/2/3
f 177/2/3 173/2/3 172/2/3
f 178/4/3 174/4/3 173/4/3
f 178/2/3 173/2/3 177/2/3
f 179/4/3 174/4/3 178/4/3
f 180/3/3 167/3/3 166/3/3
f 181/3/3 167/3/3 180/3/3
f 182/3/3 177/3/3 176/3/3
f 183/3/3 177/3/3 182/3/3
f 184/3/3 180/3/3 179/3/3
f 185/3/3 180/3/3 184/3/3
f 186/3/3 180/3/3 185/3/3
f 187/3/3 185/3/3 184/3/3
f 188/3/3 185/3/3 187/3/3
f 192/3/3 190/3/3 189/3/3
f 193/1/3 191/1/3 190/1/3
f 193/3/3 190/3/3 192/3/3
f 194/1/3 191/1/3 193/1/3
f 198/3/3 196/3/3 195/3/3
f 199/1/3 197/1/3 196/1/3
f 199/3/3 196/3/3 198/3/3
f 200/1/3 197/1/3 199/1/3
f 203/3/3 202/3/3 201/3/3
f 204/3/3 202/3/3 203/3/3
f 205/3/4 206/3/4 207/3/4
f 205/3/4 207/3/4 208/3/4
f 208/3/4 207/3/4 209/3/4
f 210/3/4 211/3/4 212/3/4
f 212/3/4 211/3/4 213/3/4
f 214/3/4 215/3/4 216/3/4
f 216/3/4 215/3/4 217/3/4
f 218/3/4 219/3/4 220/3/4
f 220/3/4 219/3/4 221/3/4
f 221/3/4 222/3/4 223/3/4
f 223/3/4 222/3/4 224/3/4
f 225/3/4 226/3/4 228/3/4
f 228/3/4 226/3/4 229/3/4
f 227/3/4 228/3/4 230/3/4
f 230/3/4 228/3/4 231/3/4
f 232/3/4 233/3/4 234/3/4
f 234/3/4 233/3/4 235/3/4
f 236/3/4 237/3/4 240/3/4
f 240/3/4 237/3/4 241/3/4
f 238/3/4 239/3/4 242/3/4
f 242/3/4 239/3/4 243/3/4
f 244/3/4 245/3/4 246/3/4
f 246/3/4 245/3/4 247/3/4
f 244/3/4 246/3/4 248/3/4
f 247/3/4 245/3/4 249/3/4
f 244/3/4 248/3/4 250/3/4
f 248/3/4 249/3/4 250/3/4
f 249/3/4 245/3/4 251/3/4
f 250/3/4 249/3/4 251/3/4
f 252/3/4 253/3/4 254/3/4
f 254/3/4 253/3/4 255/3/4
f 259/3/5 257/3/5 256/3/5
f 260/3/5 257/3/5 259/3/5
f 261/3/5 257/3/5 260/3/5
f 262/3/5 257/3/5 261/3/5
f 264/3/5 259/3/5 258/3/5
f 264/3/5 260/3/5 259/3/5
f 265/3/5 260/3/5 264/3/5
f 266/3/5 263/3/5 262/3/5
f 266/3/5 262/3/5 261/3/5
f 267/3/5 263/3/5 266/3/5
f 268/3/5 264/3/5 258/3/5
f 269/3/5 263/3/5 267/3/5
f 270/3/5 268/3/5 258/3/5
f 270/3/5 269/3/5 268/3/5
f 271/3/5 269/3/5 270/3/5
f 272/3/5 263/3/5 269/3/5
f 272/3/5 269/3/5 271/3/5
f 273/3/5 263/3/5 272/3/5
f 274/3/5 272/3/5 271/3/5
f 275/3/5 272/3/5 274/3/5
f 280/3/5 277/3/5 276/3/5
f 281/3/5 277/3/5 280/3/5
f 285/3/5 279/3/5 278/3/5
f 286/3/5 279/3/5 285/3/5
f 290/1/5 283/1/5 282/1/5
f 291/2/5 284/2/5 283/2/5
f 291/1/5 283/1/5 290/1/5
f 292/2/5 284/2/5 291/2/5
f 296/1/5 290/1/5 289/1/5
f 296/1/5 293/1/5 292/1/5
f 296/1/5 292/1/5 291/1/5
f 296/1/5 291/1/5 290/1/5
f 297/1/5 293/1/5 296/1/5
f 298/3/5 288/3/5 287/3/5
f 299/3/5 288/3/5 298/3/5
f 300/3/5 297/3/5 296/3/5
f 301/3/5 297/3/5 300/3/5
f 302/3/5 295/3/5 294/3/5
f 303/3/5 295/3/5 302/3/5
f 306/3/5 305/3/5 304/3/5
f 307/3/5 305/3/5 306/3/5
f 314/3/5 309/3/5 308/3/5
f 315/3/5 309/3/5 314/3/5
f 316/3/5 311/3/5 310/3/5
f 317/3/5 311/3/5 316/3/5
f 320/3/5 313/3/5 312/3/5
f 321/3/5 313/3/5 320/3/5
f 322/3/5 319/3/5 318/3/5
f 323/3/5 319/3/5 322/3/5
f 326/3/5 325/3/5 324/3/5
f 327/3/5 325/3/5 326/3/5
f 328/3/6 329/3/6 332/3/6
f 332/3/6 329/3/6 333/3/6
f 330/3/6 331/3/6 334/3/6
f 334/3/6 331/3/6 335/3/6
f 336/3/6 337/3/6 338/3/6
f 338/3/6 337/3/6 339/3/6
f 340/3/6 341/3/6 344/3/6
f 344/3/6 341/3/6 345/3/6
f 342/3/6 343/3/6 346/3/6
f 346/3/6 343/3/6 347/3/6
f 348/3/6 349/3/6 352/3/6
f 352/3/6 349/3/6 353/3/6
f 350/3/6 351/3/6 356/3/6
f 356/3/6 351/3/6 357/3/6
f 353/3/6 354/3/6 358/3/6
f 358/3/6 354/3/6 359/3/6
f 355/3/6 356/3/6 360/3/6
f 360/3/6 356/3/6 361/3/6
f 362/3/6 363/3/6 364/3/6
f 364/3/6 363/3/6 365/3/6
f 366/3/6 367/3/6 369/3/6
f 369/3/6 367/3/6 370/3/6
f 368/3/6 369/3/6 372/3/6
f 372/3/6 369/3/6 373/3/6
f 370/3/6 371/3/6 374/3/6
f 374/3/6 371/3/6 375/3/6
f 376/3/6 377/3/6 378/3/6
f 378/3/6 377/3/6 379/3/6
f 380/3/6 381/3/6 382/3/6
f 382/3/6 381/3/6 383/3/6
