# MagicaVoxel @ Ephtracy

# material
mtllib Head 14.mtl
usemtl palette

# normals
vn -1 0 0
vn 1 0 0
vn 0 0 1
vn 0 0 -1
vn 0 -1 0
vn 0 1 0

# texcoords
vt 0.00195312 0.5
vt 0.00585938 0.5
vt 0.00976562 0.5
vt 0.994141 0.5

# verts
v -4 6 0.5
v -4 6 -1.5
v -4 7 0.5
v -4 7 -0.5
v -4 8 0.5
v -4 8 -0.5
v -4 9 -0.5
v -4 9 -1.5
v -4 10 0.5
v -4 10 -0.5
v -3 6 1.5
v -3 6 0.5
v -3 6 -1.5
v -3 6 -2.5
v -3 7 0.5
v -3 8 0.5
v -3 9 -0.5
v -3 9 -1.5
v -3 10 1.5
v -3 10 0.5
v -3 10 -0.5
v -3 10 -1.5
v -3 10 -2.5
v -3 11 0.5
v -3 11 -1.5
v -2 6 -2.5
v -2 6 -3.5
v -2 8 2.5
v -2 8 1.5
v -2 10 2.5
v -2 10 1.5
v -2 10 0.5
v -2 10 -1.5
v -2 10 -2.5
v -2 11 1.5
v -2 11 0.5
v -2 11 -1.5
v -2 11 -3.5
v -2 12 0.5
v -2 12 -1.5
v -1 7 -3.5
v -1 7 -4.5
v -1 10 -3.5
v -1 10 -4.5
v 1 7 -3.5
v 1 7 -4.5
v 1 10 -3.5
v 1 10 -4.5
v 2 6 -2.5
v 2 6 -3.5
v 2 8 2.5
v 2 8 1.5
v 2 10 2.5
v 2 10 1.5
v 2 10 0.5
v 2 10 -1.5
v 2 10 -2.5
v 2 11 1.5
v 2 11 0.5
v 2 11 -1.5
v 2 11 -3.5
v 2 12 0.5
v 2 12 -1.5
v 3 6 1.5
v 3 6 0.5
v 3 6 -1.5
v 3 6 -2.5
v 3 7 0.5
v 3 8 0.5
v 3 9 -0.5
v 3 9 -1.5
v 3 10 1.5
v 3 10 0.5
v 3 10 -0.5
v 3 10 -1.5
v 3 10 -2.5
v 3 11 0.5
v 3 11 -1.5
v 4 6 0.5
v 4 6 -1.5
v 4 7 0.5
v 4 7 -0.5
v 4 8 0.5
v 4 8 -0.5
v 4 9 -0.5
v 4 9 -1.5
v 4 10 0.5
v 4 10 -0.5
v -2 8 2.5
v -2 10 2.5
v 2 8 2.5
v 2 10 2.5
v -3 6 1.5
v -3 10 1.5
v -2 6 1.5
v -2 7 1.5
v -2 8 1.5
v -2 10 1.5
v -2 11 1.5
v -1 7 1.5
v -1 8 1.5
v 0 6 1.5
v 0 7 1.5
v 1 7 1.5
v 1 8 1.5
v 2 6 1.5
v 2 7 1.5
v 2 8 1.5
v 2 10 1.5
v 2 11 1.5
v 3 6 1.5
v 3 10 1.5
v -4 6 0.5
v -4 7 0.5
v -4 8 0.5
v -4 10 0.5
v -3 6 0.5
v -3 7 0.5
v -3 8 0.5
v -3 10 0.5
v -3 11 0.5
v -2 10 0.5
v -2 11 0.5
v -2 12 0.5
v 2 10 0.5
v 2 11 0.5
v 2 12 0.5
v 3 6 0.5
v 3 7 0.5
v 3 8 0.5
v 3 10 0.5
v 3 11 0.5
v 4 6 0.5
v 4 7 0.5
v 4 8 0.5
v 4 10 0.5
v -4 9 -0.5
v -4 10 -0.5
v -3 9 -0.5
v -3 10 -0.5
v 3 9 -0.5
v 3 10 -0.5
v 4 9 -0.5
v 4 10 -0.5
v -4 6 -1.5
v -4 9 -1.5
v -3 6 -1.5
v -3 9 -1.5
v -3 10 -1.5
v -3 11 -1.5
v -2 10 -1.5
v -2 11 -1.5
v -2 12 -1.5
v 2 10 -1.5
v 2 11 -1.5
v 2 12 -1.5
v 3 6 -1.5
v 3 9 -1.5
v 3 10 -1.5
v 3 11 -1.5
v 4 6 -1.5
v 4 9 -1.5
v -3 6 -2.5
v -3 10 -2.5
v -2 6 -2.5
v -2 10 -2.5
v 2 6 -2.5
v 2 10 -2.5
v 3 6 -2.5
v 3 10 -2.5
v -2 6 -3.5
v -2 11 -3.5
v -1 7 -3.5
v -1 10 -3.5
v 1 7 -3.5
v 1 10 -3.5
v 2 6 -3.5
v 2 11 -3.5
v -1 7 -4.5
v -1 10 -4.5
v 1 7 -4.5
v 1 10 -4.5
v -3 6 1.5
v -2 6 1.5
v 0 6 1.5
v 2 6 1.5
v 3 6 1.5
v -4 6 0.5
v -3 6 0.5
v -2 6 0.5
v 0 6 0.5
v 2 6 0.5
v 3 6 0.5
v 4 6 0.5
v -4 6 -1.5
v -3 6 -1.5
v 3 6 -1.5
v 4 6 -1.5
v -3 6 -2.5
v -2 6 -2.5
v 2 6 -2.5
v 3 6 -2.5
v -2 6 -3.5
v 2 6 -3.5
v -1 7 -3.5
v 1 7 -3.5
v -1 7 -4.5
v 1 7 -4.5
v -2 8 2.5
v 2 8 2.5
v -2 8 1.5
v -1 8 1.5
v 1 8 1.5
v 2 8 1.5
v -4 9 -0.5
v -3 9 -0.5
v 3 9 -0.5
v 4 9 -0.5
v -4 9 -1.5
v -3 9 -1.5
v 3 9 -1.5
v 4 9 -1.5
v -2 10 2.5
v 2 10 2.5
v -3 10 1.5
v -2 10 1.5
v 2 10 1.5
v 3 10 1.5
v -4 10 0.5
v -3 10 0.5
v -2 10 0.5
v 2 10 0.5
v 3 10 0.5
v 4 10 0.5
v -4 10 -0.5
v -3 10 -0.5
v 3 10 -0.5
v 4 10 -0.5
v -3 10 -1.5
v -2 10 -1.5
v 2 10 -1.5
v 3 10 -1.5
v -3 10 -2.5
v -2 10 -2.5
v 2 10 -2.5
v 3 10 -2.5
v -1 10 -3.5
v 1 10 -3.5
v -1 10 -4.5
v 1 10 -4.5
v -2 11 1.5
v 2 11 1.5
v -3 11 0.5
v -2 11 0.5
v 2 11 0.5
v 3 11 0.5
v -3 11 -1.5
v -2 11 -1.5
v 2 11 -1.5
v 3 11 -1.5
v -2 11 -3.5
v 2 11 -3.5
v -2 12 0.5
v 2 12 0.5
v -2 12 -1.5
v 2 12 -1.5

# faces
f 3/3/1 2/3/1 1/3/1
f 4/3/1 2/3/1 3/3/1
f 5/1/1 4/1/1 3/1/1
f 6/3/1 2/3/1 4/3/1
f 6/1/1 4/1/1 5/1/1
f 7/3/1 6/3/1 5/3/1
f 7/3/1 2/3/1 6/3/1
f 8/3/1 2/3/1 7/3/1
f 9/3/1 7/3/1 5/3/1
f 10/3/1 7/3/1 9/3/1
f 15/3/1 12/3/1 11/3/1
f 16/3/1 15/3/1 11/3/1
f 18/3/1 14/3/1 13/3/1
f 19/3/1 16/3/1 11/3/1
f 20/3/1 16/3/1 19/3/1
f 21/4/1 18/4/1 17/4/1
f 22/3/1 14/3/1 18/3/1
f 22/4/1 18/4/1 21/4/1
f 23/3/1 14/3/1 22/3/1
f 24/4/1 21/4/1 20/4/1
f 24/4/1 22/4/1 21/4/1
f 25/4/1 22/4/1 24/4/1
f 30/3/1 29/3/1 28/3/1
f 31/3/1 29/3/1 30/3/1
f 34/3/1 27/3/1 26/3/1
f 35/3/1 32/3/1 31/3/1
f 36/3/1 32/3/1 35/3/1
f 37/3/1 34/3/1 33/3/1
f 38/3/1 27/3/1 34/3/1
f 38/3/1 34/3/1 37/3/1
f 39/4/1 37/4/1 36/4/1
f 40/4/1 37/4/1 39/4/1
f 43/3/1 42/3/1 41/3/1
f 44/3/1 42/3/1 43/3/1
f 45/3/2 46/3/2 47/3/2
f 47/3/2 46/3/2 48/3/2
f 51/3/2 52/3/2 53/3/2
f 53/3/2 52/3/2 54/3/2
f 49/3/2 50/3/2 57/3/2
f 54/3/2 55/3/2 58/3/2
f 58/3/2 55/3/2 59/3/2
f 56/3/2 57/3/2 60/3/2
f 57/3/2 50/3/2 61/3/2
f 60/3/2 57/3/2 61/3/2
f 59/4/2 60/4/2 62/4/2
f 62/4/2 60/4/2 63/4/2
f 64/3/2 65/3/2 68/3/2
f 64/3/2 68/3/2 69/3/2
f 66/3/2 67/3/2 71/3/2
f 64/3/2 69/3/2 72/3/2
f 72/3/2 69/3/2 73/3/2
f 70/4/2 71/4/2 74/4/2
f 71/3/2 67/3/2 75/3/2
f 74/4/2 71/4/2 75/4/2
f 75/3/2 67/3/2 76/3/2
f 73/4/2 74/4/2 77/4/2
f 74/4/2 75/4/2 77/4/2
f 77/4/2 75/4/2 78/4/2
f 79/3/2 80/3/2 81/3/2
f 81/3/2 80/3/2 82/3/2
f 81/1/2 82/1/2 83/1/2
f 82/3/2 80/3/2 84/3/2
f 83/1/2 82/1/2 84/1/2
f 83/3/2 84/3/2 85/3/2
f 84/3/2 80/3/2 85/3/2
f 85/3/2 80/3/2 86/3/2
f 83/3/2 85/3/2 87/3/2
f 87/3/2 85/3/2 88/3/2
f 91/3/3 90/3/3 89/3/3
f 92/3/3 90/3/3 91/3/3
f 95/3/3 94/3/3 93/3/3
f 96/3/3 94/3/3 95/3/3
f 97/3/3 94/3/3 96/3/3
f 98/3/3 94/3/3 97/3/3
f 100/1/3 96/1/3 95/1/3
f 100/4/3 97/4/3 96/4/3
f 101/4/3 97/4/3 100/4/3
f 102/1/3 100/1/3 95/1/3
f 103/2/3 101/2/3 100/2/3
f 103/1/3 100/1/3 102/1/3
f 104/2/3 103/2/3 102/2/3
f 104/2/3 101/2/3 103/2/3
f 105/2/3 101/2/3 104/2/3
f 106/2/3 104/2/3 102/2/3
f 107/4/3 105/4/3 104/4/3
f 107/2/3 104/2/3 106/2/3
f 108/4/3 105/4/3 107/4/3
f 109/3/3 99/3/3 98/3/3
f 110/3/3 99/3/3 109/3/3
f 111/3/3 108/3/3 107/3/3
f 111/3/3 107/3/3 106/3/3
f 111/3/3 109/3/3 108/3/3
f 112/3/3 109/3/3 111/3/3
f 117/3/3 114/3/3 113/3/3
f 118/1/3 115/1/3 114/1/3
f 118/3/3 114/3/3 117/3/3
f 119/3/3 116/3/3 115/3/3
f 119/1/3 115/1/3 118/1/3
f 120/3/3 116/3/3 119/3/3
f 122/4/3 121/4/3 120/4/3
f 123/4/3 121/4/3 122/4/3
f 126/4/3 124/4/3 123/4/3
f 127/4/3 124/4/3 126/4/3
f 131/4/3 126/4/3 125/4/3
f 132/4/3 126/4/3 131/4/3
f 133/3/3 129/3/3 128/3/3
f 134/1/3 130/1/3 129/1/3
f 134/3/3 129/3/3 133/3/3
f 135/3/3 131/3/3 130/3/3
f 135/1/3 130/1/3 134/1/3
f 136/3/3 131/3/3 135/3/3
f 137/3/4 138/3/4 139/3/4
f 139/3/4 138/3/4 140/3/4
f 141/3/4 142/3/4 143/3/4
f 143/3/4 142/3/4 144/3/4
f 145/3/4 146/3/4 147/3/4
f 147/3/4 146/3/4 148/3/4
f 149/4/4 150/4/4 151/4/4
f 151/4/4 150/4/4 152/4/4
f 152/4/4 153/4/4 155/4/4
f 155/4/4 153/4/4 156/4/4
f 154/4/4 155/4/4 159/4/4
f 159/4/4 155/4/4 160/4/4
f 157/3/4 158/3/4 161/3/4
f 161/3/4 158/3/4 162/3/4
f 163/3/4 164/3/4 165/3/4
f 165/3/4 164/3/4 166/3/4
f 167/3/4 168/3/4 169/3/4
f 169/3/4 168/3/4 170/3/4
f 171/3/4 172/3/4 173/3/4
f 173/3/4 172/3/4 174/3/4
f 171/3/4 173/3/4 175/3/4
f 174/3/4 172/3/4 176/3/4
f 171/3/4 175/3/4 177/3/4
f 175/3/4 176/3/4 177/3/4
f 176/3/4 172/3/4 178/3/4
f 177/3/4 176/3/4 178/3/4
f 179/3/4 180/3/4 181/3/4
f 181/3/4 180/3/4 182/3/4
f 189/3/5 184/3/5 183/3/5
f 190/1/5 185/1/5 184/1/5
f 190/3/5 184/3/5 189/3/5
f 191/2/5 186/2/5 185/2/5
f 191/1/5 185/1/5 190/1/5
f 192/3/5 187/3/5 186/3/5
f 192/2/5 186/2/5 191/2/5
f 193/3/5 187/3/5 192/3/5
f 195/3/5 191/3/5 190/3/5
f 195/3/5 194/3/5 193/3/5
f 195/3/5 193/3/5 192/3/5
f 195/3/5 192/3/5 191/3/5
f 195/3/5 189/3/5 188/3/5
f 195/3/5 190/3/5 189/3/5
f 196/3/5 194/3/5 195/3/5
f 197/3/5 194/3/5 196/3/5
f 198/3/5 194/3/5 197/3/5
f 199/3/5 197/3/5 196/3/5
f 200/3/5 197/3/5 199/3/5
f 201/3/5 197/3/5 200/3/5
f 202/3/5 197/3/5 201/3/5
f 203/3/5 201/3/5 200/3/5
f 204/3/5 201/3/5 203/3/5
f 207/3/5 206/3/5 205/3/5
f 208/3/5 206/3/5 207/3/5
f 211/3/5 210/3/5 209/3/5
f 212/3/5 210/3/5 211/3/5
f 213/3/5 210/3/5 212/3/5
f 214/3/5 210/3/5 213/3/5
f 215/3/6 216/3/6 219/3/6
f 219/3/6 216/3/6 220/3/6
f 217/3/6 218/3/6 221/3/6
f 221/3/6 218/3/6 222/3/6
f 223/3/6 224/3/6 226/3/6
f 226/3/6 224/3/6 227/3/6
f 225/3/6 226/3/6 230/3/6
f 230/3/6 226/3/6 231/3/6
f 227/3/6 228/3/6 232/3/6
f 232/3/6 228/3/6 233/3/6
f 229/3/6 230/3/6 235/3/6
f 235/3/6 230/3/6 236/3/6
f 233/3/6 234/3/6 237/3/6
f 237/3/6 234/3/6 238/3/6
f 239/3/6 240/3/6 243/3/6
f 243/3/6 240/3/6 244/3/6
f 241/3/6 242/3/6 245/3/6
f 245/3/6 242/3/6 246/3/6
f 247/3/6 248/3/6 249/3/6
f 249/3/6 248/3/6 250/3/6
f 251/3/6 252/3/6 254/3/6
f 254/3/6 252/3/6 255/3/6
f 253/4/6 254/4/6 257/4/6
f 257/4/6 254/4/6 258/4/6
f 255/4/6 256/4/6 259/4/6
f 259/4/6 256/4/6 260/4/6
f 258/3/6 259/3/6 261/3/6
f 261/3/6 259/3/6 262/3/6
f 263/4/6 264/4/6 265/4/6
f 265/4/6 264/4/6 266/4/6
