# MagicaVoxel @ Ephtracy

# material
mtllib Golem Leg 1.mtl
usemtl palette

# normals
vn -1 0 0
vn 1 0 0
vn 0 0 1
vn 0 0 -1
vn 0 -1 0
vn 0 1 0

# texcoords
vt 0.978516 0.5
vt 0.982422 0.5

# verts
v -1.5 0 2
v -1.5 0 -1
v -1.5 0 -2
v -1.5 2 2
v -1.5 2 1
v -1.5 3 1
v -1.5 3 -1
v -1.5 3 -2
v -1.5 4 1
v -1.5 4 -1
v -0.5 3 2
v -0.5 3 1
v -0.5 4 3
v -0.5 4 2
v -0.5 4 1
v -0.5 4 -1
v -0.5 5 3
v -0.5 5 -0
v -0.5 5 -1
v -0.5 5 -3
v -0.5 6 -0
v -0.5 6 -2
v -0.5 7 -2
v -0.5 7 -3
v 0.5 0 2
v 0.5 0 1
v 0.5 1 1
v 0.5 1 -0
v 0.5 2 2
v 0.5 2 1
v 0.5 2 -1
v 0.5 2 -2
v 0.5 3 2
v 0.5 3 1
v 0.5 3 -0
v 0.5 3 -1
v 0.5 3 -2
v 0.5 4 3
v 0.5 4 2
v 0.5 4 1
v 0.5 4 -0
v 0.5 5 3
v 0.5 5 -0
v 0.5 5 -1
v 0.5 5 -3
v 0.5 6 -0
v 0.5 6 -2
v 0.5 7 -2
v 0.5 7 -3
v 1.5 0 1
v 1.5 0 -2
v 1.5 1 1
v 1.5 1 -0
v 1.5 2 -1
v 1.5 2 -2
v 1.5 3 1
v 1.5 3 -0
v 1.5 3 -1
v 1.5 4 1
v 1.5 4 -0
v -0.5 4 3
v -0.5 5 3
v 0.5 4 3
v 0.5 5 3
v -1.5 0 2
v -1.5 2 2
v -0.5 3 2
v -0.5 4 2
v 0.5 0 2
v 0.5 2 2
v 0.5 3 2
v 0.5 4 2
v -1.5 2 1
v -1.5 3 1
v -1.5 4 1
v -0.5 3 1
v -0.5 4 1
v 0.5 0 1
v 0.5 1 1
v 0.5 2 1
v 0.5 3 1
v 0.5 4 1
v 1.5 0 1
v 1.5 1 1
v 1.5 3 1
v 1.5 4 1
v -0.5 5 -0
v -0.5 6 -0
v 0.5 1 -0
v 0.5 3 -0
v 0.5 5 -0
v 0.5 6 -0
v 1.5 1 -0
v 1.5 3 -0
v -0.5 6 -2
v -0.5 7 -2
v 0.5 6 -2
v 0.5 7 -2
v 0.5 3 -0
v 0.5 4 -0
v 1.5 3 -0
v 1.5 4 -0
v -1.5 3 -1
v -1.5 4 -1
v -0.5 4 -1
v -0.5 5 -1
v 0.5 2 -1
v 0.5 3 -1
v 0.5 5 -1
v 1.5 2 -1
v 1.5 3 -1
v -1.5 0 -2
v -1.5 3 -2
v 0.5 2 -2
v 0.5 3 -2
v 1.5 0 -2
v 1.5 2 -2
v -0.5 5 -3
v -0.5 7 -3
v 0.5 5 -3
v 0.5 7 -3
v -1.5 0 2
v 0.5 0 2
v 0.5 0 1
v 1.5 0 1
v -1.5 0 -1
v 0.5 0 -1
v -1.5 0 -2
v 1.5 0 -2
v -0.5 3 2
v 0.5 3 2
v -0.5 3 1
v 0.5 3 1
v 1.5 3 1
v 0.5 3 -0
v 1.5 3 -0
v -0.5 4 3
v 0.5 4 3
v -0.5 4 2
v 0.5 4 2
v -0.5 5 -1
v 0.5 5 -1
v -0.5 5 -3
v 0.5 5 -3
v 0.5 1 1
v 1.5 1 1
v 0.5 1 -0
v 1.5 1 -0
v -1.5 2 2
v 0.5 2 2
v -1.5 2 1
v 0.5 2 1
v 0.5 2 -1
v 1.5 2 -1
v 0.5 2 -2
v 1.5 2 -2
v 0.5 3 -0
v 1.5 3 -0
v -1.5 3 -1
v 0.5 3 -1
v 1.5 3 -1
v -1.5 3 -2
v 0.5 3 -2
v -1.5 4 1
v -0.5 4 1
v 0.5 4 1
v 1.5 4 1
v 0.5 4 -0
v 1.5 4 -0
v -1.5 4 -1
v -0.5 4 -1
v -0.5 5 3
v 0.5 5 3
v -0.5 5 -0
v 0.5 5 -0
v -0.5 6 -0
v 0.5 6 -0
v -0.5 6 -2
v 0.5 6 -2
v -0.5 7 -2
v 0.5 7 -2
v -0.5 7 -3
v 0.5 7 -3

# faces
f 4/2/1 2/2/1 1/2/1
f 5/2/1 2/2/1 4/2/1
f 6/2/1 2/2/1 5/2/1
f 7/1/1 3/1/1 2/1/1
f 7/2/1 2/2/1 6/2/1
f 8/1/1 3/1/1 7/1/1
f 9/1/1 7/1/1 6/1/1
f 10/1/1 7/1/1 9/1/1
f 14/1/1 12/1/1 11/1/1
f 15/1/1 12/1/1 14/1/1
f 17/1/1 14/1/1 13/1/1
f 17/1/1 16/1/1 15/1/1
f 17/1/1 15/1/1 14/1/1
f 18/1/1 16/1/1 17/1/1
f 19/1/1 16/1/1 18/1/1
f 21/1/1 20/1/1 19/1/1
f 21/1/1 19/1/1 18/1/1
f 22/1/1 20/1/1 21/1/1
f 23/1/1 20/1/1 22/1/1
f 24/1/1 20/1/1 23/1/1
f 25/2/2 26/2/2 27/2/2
f 25/2/2 27/2/2 29/2/2
f 27/2/2 28/2/2 29/2/2
f 29/2/2 28/2/2 30/2/2
f 30/2/2 28/2/2 34/2/2
f 34/2/2 28/2/2 35/2/2
f 31/1/2 32/1/2 36/1/2
f 36/1/2 32/1/2 37/1/2
f 33/1/2 34/1/2 39/1/2
f 39/1/2 34/1/2 40/1/2
f 35/1/2 36/1/2 41/1/2
f 39/1/2 40/1/2 42/1/2
f 40/1/2 41/1/2 42/1/2
f 38/1/2 39/1/2 42/1/2
f 41/1/2 36/1/2 43/1/2
f 42/1/2 41/1/2 43/1/2
f 43/1/2 36/1/2 44/1/2
f 43/1/2 44/1/2 46/1/2
f 44/1/2 45/1/2 46/1/2
f 46/1/2 45/1/2 47/1/2
f 47/1/2 45/1/2 48/1/2
f 48/1/2 45/1/2 49/1/2
f 50/1/2 51/1/2 52/1/2
f 52/1/2 51/1/2 53/1/2
f 53/1/2 51/1/2 54/1/2
f 54/1/2 51/1/2 55/1/2
f 53/1/2 54/1/2 57/1/2
f 57/1/2 54/1/2 58/1/2
f 56/1/2 57/1/2 59/1/2
f 59/1/2 57/1/2 60/1/2
f 63/1/3 62/1/3 61/1/3
f 64/1/3 62/1/3 63/1/3
f 69/2/3 66/2/3 65/2/3
f 70/2/3 66/2/3 69/2/3
f 71/1/3 68/1/3 67/1/3
f 72/1/3 68/1/3 71/1/3
f 76/2/3 74/2/3 73/2/3
f 76/1/3 75/1/3 74/1/3
f 77/1/3 75/1/3 76/1/3
f 80/2/3 76/2/3 73/2/3
f 81/2/3 76/2/3 80/2/3
f 83/1/3 79/1/3 78/1/3
f 84/1/3 79/1/3 83/1/3
f 85/1/3 82/1/3 81/1/3
f 86/1/3 82/1/3 85/1/3
f 91/1/3 88/1/3 87/1/3
f 92/1/3 88/1/3 91/1/3
f 93/1/3 90/1/3 89/1/3
f 94/1/3 90/1/3 93/1/3
f 97/1/3 96/1/3 95/1/3
f 98/1/3 96/1/3 97/1/3
f 99/1/4 100/1/4 101/1/4
f 101/1/4 100/1/4 102/1/4
f 103/1/4 104/1/4 105/1/4
f 103/1/4 105/1/4 108/1/4
f 105/1/4 106/1/4 108/1/4
f 108/1/4 106/1/4 109/1/4
f 107/1/4 108/1/4 110/1/4
f 110/1/4 108/1/4 111/1/4
f 112/1/4 113/1/4 114/1/4
f 114/1/4 113/1/4 115/1/4
f 112/1/4 114/1/4 116/1/4
f 116/1/4 114/1/4 117/1/4
f 118/1/4 119/1/4 120/1/4
f 120/1/4 119/1/4 121/1/4
f 124/2/5 123/2/5 122/2/5
f 126/2/5 124/2/5 122/2/5
f 127/1/5 125/1/5 124/1/5
f 127/2/5 124/2/5 126/2/5
f 128/1/5 127/1/5 126/1/5
f 129/1/5 125/1/5 127/1/5
f 129/1/5 127/1/5 128/1/5
f 132/1/5 131/1/5 130/1/5
f 133/1/5 131/1/5 132/1/5
f 135/1/5 134/1/5 133/1/5
f 136/1/5 134/1/5 135/1/5
f 139/1/5 138/1/5 137/1/5
f 140/1/5 138/1/5 139/1/5
f 143/1/5 142/1/5 141/1/5
f 144/1/5 142/1/5 143/1/5
f 145/1/6 146/1/6 147/1/6
f 147/1/6 146/1/6 148/1/6
f 149/2/6 150/2/6 151/2/6
f 151/2/6 150/2/6 152/2/6
f 153/1/6 154/1/6 155/1/6
f 155/1/6 154/1/6 156/1/6
f 157/1/6 158/1/6 160/1/6
f 160/1/6 158/1/6 161/1/6
f 159/1/6 160/1/6 162/1/6
f 162/1/6 160/1/6 163/1/6
f 166/1/6 167/1/6 168/1/6
f 168/1/6 167/1/6 169/1/6
f 164/1/6 165/1/6 170/1/6
f 170/1/6 165/1/6 171/1/6
f 172/1/6 173/1/6 174/1/6
f 174/1/6 173/1/6 175/1/6
f 176/1/6 177/1/6 178/1/6
f 178/1/6 177/1/6 179/1/6
f 180/1/6 181/1/6 182/1/6
f 182/1/6 181/1/6 183/1/6
