# MagicaVoxel @ Ephtracy

# material
mtllib Floor 1.mtl
usemtl palette

# normals
vn -1 0 0
vn 1 0 0
vn 0 0 1
vn 0 0 -1
vn 0 -1 0
vn 0 1 0

# texcoords
vt 0.634766 0.5
vt 0.638672 0.5
vt 0.646484 0.5

# verts
v -5 0 5
v -5 0 -5
v -5 9 -4
v -5 9 -5
v -5 10 5
v -5 10 -4
v -5 10 -5
v 5 0 5
v 5 0 -5
v 5 9 5
v 5 9 -5
v 5 10 5
v 5 10 -5
v -5 0 5
v -5 10 5
v -3 9 5
v -3 10 5
v 2 9 5
v 2 10 5
v 4 9 5
v 4 10 5
v 5 0 5
v 5 9 5
v 5 10 5
v -5 0 -5
v -5 9 -5
v -5 10 -5
v 5 0 -5
v 5 9 -5
v 5 10 -5
v -5 0 5
v 5 0 5
v -5 0 -5
v 5 0 -5
v -5 10 5
v -3 10 5
v 2 10 5
v 4 10 5
v 5 10 5
v 2 10 4
v 3 10 4
v -3 10 2
v 0 10 2
v -3 10 -2
v -1 10 -2
v -3 10 -3
v -1 10 -3
v 0 10 -3
v 3 10 -3
v -5 10 -4
v 4 10 -4
v -5 10 -5
v 5 10 -5

# faces
f 3/1/1 2/1/1 1/1/1
f 4/1/1 2/1/1 3/1/1
f 5/1/1 3/1/1 1/1/1
f 6/3/1 4/3/1 3/3/1
f 6/1/1 3/1/1 5/1/1
f 7/3/1 4/3/1 6/3/1
f 8/1/2 9/1/2 10/1/2
f 10/1/2 9/1/2 11/1/2
f 10/3/2 11/3/2 12/3/2
f 12/3/2 11/3/2 13/3/2
f 16/1/3 15/1/3 14/1/3
f 17/1/3 15/1/3 16/1/3
f 18/1/3 16/1/3 14/1/3
f 18/2/3 17/2/3 16/2/3
f 19/2/3 17/2/3 18/2/3
f 20/1/3 18/1/3 14/1/3
f 20/1/3 19/1/3 18/1/3
f 21/1/3 19/1/3 20/1/3
f 22/1/3 20/1/3 14/1/3
f 23/3/3 21/3/3 20/3/3
f 23/1/3 20/1/3 22/1/3
f 24/3/3 21/3/3 23/3/3
f 25/1/4 26/1/4 28/1/4
f 26/3/4 27/3/4 29/3/4
f 28/1/4 26/1/4 29/1/4
f 29/3/4 27/3/4 30/3/4
f 33/1/5 32/1/5 31/1/5
f 34/1/5 32/1/5 33/1/5
f 36/2/6 37/2/6 40/2/6
f 37/1/6 38/1/6 40/1/6
f 40/1/6 38/1/6 41/1/6
f 35/1/6 36/1/6 42/1/6
f 36/2/6 40/2/6 42/2/6
f 40/2/6 41/2/6 42/2/6
f 42/2/6 41/2/6 43/2/6
f 35/1/6 42/1/6 44/1/6
f 42/1/6 43/1/6 44/1/6
f 44/1/6 43/1/6 45/1/6
f 35/1/6 44/1/6 46/1/6
f 44/2/6 45/2/6 46/2/6
f 45/1/6 43/1/6 47/1/6
f 46/2/6 45/2/6 47/2/6
f 43/2/6 41/2/6 48/2/6
f 47/1/6 43/1/6 48/1/6
f 41/1/6 38/1/6 49/1/6
f 48/2/6 41/2/6 49/2/6
f 47/1/6 48/1/6 50/1/6
f 46/1/6 47/1/6 50/1/6
f 48/1/6 49/1/6 50/1/6
f 35/1/6 46/1/6 50/1/6
f 49/1/6 38/1/6 51/1/6
f 50/1/6 49/1/6 51/1/6
f 38/3/6 39/3/6 51/3/6
f 50/3/6 51/3/6 52/3/6
f 51/3/6 39/3/6 53/3/6
f 52/3/6 51/3/6 53/3/6
