# MagicaVoxel @ Ephtracy

# material
mtllib Best Sword.mtl
usemtl palette

# normals
vn -1 0 0
vn 1 0 0
vn 0 0 1
vn 0 0 -1
vn 0 -1 0
vn 0 1 0

# texcoords
vt 0.0253906 0.5
vt 0.0449219 0.5
vt 0.126953 0.5
vt 0.962891 0.5
vt 0.970703 0.5

# verts
v -2.5 0 -2
v -2.5 0 -3
v -2.5 1 -2
v -2.5 1 -3
v -1.5 0 5
v -1.5 0 -2
v -1.5 0 -3
v -1.5 0 -4
v -1.5 1 5
v -1.5 1 -2
v -1.5 1 -3
v -1.5 1 -4
v -0.5 0 6
v -0.5 0 5
v -0.5 0 -4
v -0.5 0 -6
v -0.5 1 6
v -0.5 1 5
v -0.5 1 -4
v -0.5 1 -6
v 0.5 0 6
v 0.5 0 5
v 0.5 0 -4
v 0.5 0 -6
v 0.5 1 6
v 0.5 1 5
v 0.5 1 -4
v 0.5 1 -6
v 1.5 0 5
v 1.5 0 -2
v 1.5 0 -3
v 1.5 0 -4
v 1.5 1 5
v 1.5 1 -2
v 1.5 1 -3
v 1.5 1 -4
v 2.5 0 -2
v 2.5 0 -3
v 2.5 1 -2
v 2.5 1 -3
v -0.5 0 6
v -0.5 1 6
v 0.5 0 6
v 0.5 1 6
v -1.5 0 5
v -1.5 1 5
v -0.5 0 5
v -0.5 1 5
v 0.5 0 5
v 0.5 1 5
v 1.5 0 5
v 1.5 1 5
v -2.5 0 -2
v -2.5 1 -2
v -1.5 0 -2
v -1.5 1 -2
v 1.5 0 -2
v 1.5 1 -2
v 2.5 0 -2
v 2.5 1 -2
v -2.5 0 -3
v -2.5 1 -3
v -1.5 0 -3
v -1.5 1 -3
v 1.5 0 -3
v 1.5 1 -3
v 2.5 0 -3
v 2.5 1 -3
v -1.5 0 -4
v -1.5 1 -4
v -0.5 0 -4
v -0.5 1 -4
v 0.5 0 -4
v 0.5 1 -4
v 1.5 0 -4
v 1.5 1 -4
v -0.5 0 -6
v -0.5 1 -6
v 0.5 0 -6
v 0.5 1 -6
v -0.5 0 6
v 0.5 0 6
v -1.5 0 5
v -0.5 0 5
v 0.5 0 5
v 1.5 0 5
v -0.5 0 4
v 0.5 0 4
v -2.5 0 -2
v -1.5 0 -2
v -0.5 0 -2
v 0.5 0 -2
v 1.5 0 -2
v 2.5 0 -2
v -2.5 0 -3
v -1.5 0 -3
v -0.5 0 -3
v 0.5 0 -3
v 1.5 0 -3
v 2.5 0 -3
v -1.5 0 -4
v -0.5 0 -4
v 0.5 0 -4
v 1.5 0 -4
v -0.5 0 -6
v 0.5 0 -6
v -0.5 1 6
v 0.5 1 6
v -1.5 1 5
v -0.5 1 5
v 0.5 1 5
v 1.5 1 5
v -0.5 1 4
v 0.5 1 4
v -2.5 1 -2
v -1.5 1 -2
v -0.5 1 -2
v 0.5 1 -2
v 1.5 1 -2
v 2.5 1 -2
v -2.5 1 -3
v -1.5 1 -3
v -0.5 1 -3
v 0.5 1 -3
v 1.5 1 -3
v 2.5 1 -3
v -1.5 1 -4
v -0.5 1 -4
v 0.5 1 -4
v 1.5 1 -4
v -0.5 1 -6
v 0.5 1 -6

# faces
f 3/3/1 2/3/1 1/3/1
f 4/3/1 2/3/1 3/3/1
f 9/4/1 6/4/1 5/4/1
f 10/4/1 6/4/1 9/4/1
f 11/3/1 8/3/1 7/3/1
f 12/3/1 8/3/1 11/3/1
f 17/4/1 14/4/1 13/4/1
f 18/4/1 14/4/1 17/4/1
f 19/2/1 16/2/1 15/2/1
f 20/2/1 16/2/1 19/2/1
f 21/4/2 22/4/2 25/4/2
f 25/4/2 22/4/2 26/4/2
f 23/2/2 24/2/2 27/2/2
f 27/2/2 24/2/2 28/2/2
f 29/4/2 30/4/2 33/4/2
f 33/4/2 30/4/2 34/4/2
f 31/3/2 32/3/2 35/3/2
f 35/3/2 32/3/2 36/3/2
f 37/3/2 38/3/2 39/3/2
f 39/3/2 38/3/2 40/3/2
f 43/4/3 42/4/3 41/4/3
f 44/4/3 42/4/3 43/4/3
f 47/4/3 46/4/3 45/4/3
f 48/4/3 46/4/3 47/4/3
f 51/4/3 50/4/3 49/4/3
f 52/4/3 50/4/3 51/4/3
f 55/3/3 54/3/3 53/3/3
f 56/3/3 54/3/3 55/3/3
f 59/3/3 58/3/3 57/3/3
f 60/3/3 58/3/3 59/3/3
f 61/3/4 62/3/4 63/3/4
f 63/3/4 62/3/4 64/3/4
f 65/3/4 66/3/4 67/3/4
f 67/3/4 66/3/4 68/3/4
f 69/3/4 70/3/4 71/3/4
f 71/3/4 70/3/4 72/3/4
f 73/3/4 74/3/4 75/3/4
f 75/3/4 74/3/4 76/3/4
f 77/2/4 78/2/4 79/2/4
f 79/2/4 78/2/4 80/2/4
f 84/4/5 82/4/5 81/4/5
f 85/4/5 82/4/5 84/4/5
f 87/4/5 84/4/5 83/4/5
f 87/4/5 86/4/5 85/4/5
f 87/4/5 85/4/5 84/4/5
f 88/4/5 86/4/5 87/4/5
f 90/4/5 87/4/5 83/4/5
f 91/5/5 88/5/5 87/5/5
f 91/4/5 87/4/5 90/4/5
f 92/4/5 86/4/5 88/4/5
f 92/5/5 88/5/5 91/5/5
f 93/4/5 86/4/5 92/4/5
f 95/3/5 91/3/5 90/3/5
f 95/3/5 90/3/5 89/3/5
f 96/3/5 91/3/5 95/3/5
f 97/1/5 92/1/5 91/1/5
f 97/3/5 91/3/5 96/3/5
f 98/3/5 94/3/5 93/3/5
f 98/1/5 92/1/5 97/1/5
f 98/3/5 93/3/5 92/3/5
f 99/3/5 94/3/5 98/3/5
f 100/3/5 94/3/5 99/3/5
f 101/3/5 97/3/5 96/3/5
f 102/2/5 98/2/5 97/2/5
f 102/3/5 97/3/5 101/3/5
f 103/3/5 99/3/5 98/3/5
f 103/2/5 98/2/5 102/2/5
f 104/3/5 99/3/5 103/3/5
f 105/2/5 103/2/5 102/2/5
f 106/2/5 103/2/5 105/2/5
f 107/4/6 108/4/6 110/4/6
f 110/4/6 108/4/6 111/4/6
f 109/4/6 110/4/6 113/4/6
f 111/4/6 112/4/6 113/4/6
f 110/4/6 111/4/6 113/4/6
f 113/4/6 112/4/6 114/4/6
f 109/4/6 113/4/6 116/4/6
f 113/5/6 114/5/6 117/5/6
f 116/4/6 113/4/6 117/4/6
f 114/4/6 112/4/6 118/4/6
f 117/5/6 114/5/6 118/5/6
f 118/4/6 112/4/6 119/4/6
f 116/3/6 117/3/6 121/3/6
f 115/3/6 116/3/6 121/3/6
f 121/3/6 117/3/6 122/3/6
f 117/1/6 118/1/6 123/1/6
f 122/3/6 117/3/6 123/3/6
f 119/3/6 120/3/6 124/3/6
f 123/1/6 118/1/6 124/1/6
f 118/3/6 119/3/6 124/3/6
f 124/3/6 120/3/6 125/3/6
f 125/3/6 120/3/6 126/3/6
f 122/3/6 123/3/6 127/3/6
f 123/2/6 124/2/6 128/2/6
f 127/3/6 123/3/6 128/3/6
f 124/3/6 125/3/6 129/3/6
f 128/2/6 124/2/6 129/2/6
f 129/3/6 125/3/6 130/3/6
f 128/2/6 129/2/6 131/2/6
f 131/2/6 129/2/6 132/2/6
