# MagicaVoxel @ Ephtracy

# material
mtllib Best Sword.mtl
usemtl palette

# normals
vn -1 0 0
vn 1 0 0
vn 0 0 1
vn 0 0 -1
vn 0 -1 0
vn 0 1 0

# texcoords
vt 0.0449219 0.5
vt 0.126953 0.5
vt 0.970703 0.5
vt 0.974609 0.5

# verts
v -2.5 0 -2
v -2.5 0 -3
v -2.5 1 -2
v -2.5 1 -3
v -1.5 0 5
v -1.5 0 -2
v -1.5 0 -3
v -1.5 0 -4
v -1.5 1 5
v -1.5 1 -2
v -1.5 1 -3
v -1.5 1 -4
v -0.5 0 6
v -0.5 0 5
v -0.5 0 -4
v -0.5 0 -6
v -0.5 1 6
v -0.5 1 5
v -0.5 1 -4
v -0.5 1 -6
v 0.5 0 -2
v 0.5 0 -3
v 0.5 1 -2
v 0.5 1 -3
v -0.5 0 -2
v -0.5 0 -3
v -0.5 1 -2
v -0.5 1 -3
v 0.5 0 6
v 0.5 0 5
v 0.5 0 -4
v 0.5 0 -6
v 0.5 1 6
v 0.5 1 5
v 0.5 1 -4
v 0.5 1 -6
v 1.5 0 5
v 1.5 0 -2
v 1.5 0 -3
v 1.5 0 -4
v 1.5 1 5
v 1.5 1 -2
v 1.5 1 -3
v 1.5 1 -4
v 2.5 0 -2
v 2.5 0 -3
v 2.5 1 -2
v 2.5 1 -3
v -0.5 0 6
v -0.5 1 6
v 0.5 0 6
v 0.5 1 6
v -1.5 0 5
v -1.5 1 5
v -0.5 0 5
v -0.5 1 5
v 0.5 0 5
v 0.5 1 5
v 1.5 0 5
v 1.5 1 5
v -2.5 0 -2
v -2.5 1 -2
v -1.5 0 -2
v -1.5 1 -2
v 1.5 0 -2
v 1.5 1 -2
v 2.5 0 -2
v 2.5 1 -2
v -0.5 0 -3
v -0.5 1 -3
v 0.5 0 -3
v 0.5 1 -3
v -0.5 0 -2
v -0.5 1 -2
v 0.5 0 -2
v 0.5 1 -2
v -2.5 0 -3
v -2.5 1 -3
v -1.5 0 -3
v -1.5 1 -3
v 1.5 0 -3
v 1.5 1 -3
v 2.5 0 -3
v 2.5 1 -3
v -1.5 0 -4
v -1.5 1 -4
v -0.5 0 -4
v -0.5 1 -4
v 0.5 0 -4
v 0.5 1 -4
v 1.5 0 -4
v 1.5 1 -4
v -0.5 0 -6
v -0.5 1 -6
v 0.5 0 -6
v 0.5 1 -6
v -0.5 0 6
v 0.5 0 6
v -1.5 0 5
v -0.5 0 5
v 0.5 0 5
v 1.5 0 5
v -0.5 0 4
v 0.5 0 4
v -2.5 0 -2
v -1.5 0 -2
v -0.5 0 -2
v 0.5 0 -2
v 1.5 0 -2
v 2.5 0 -2
v -2.5 0 -3
v -1.5 0 -3
v -0.5 0 -3
v 0.5 0 -3
v 1.5 0 -3
v 2.5 0 -3
v -1.5 0 -4
v -0.5 0 -4
v 0.5 0 -4
v 1.5 0 -4
v -0.5 0 -6
v 0.5 0 -6
v -0.5 1 6
v 0.5 1 6
v -1.5 1 5
v -0.5 1 5
v 0.5 1 5
v 1.5 1 5
v -0.5 1 4
v 0.5 1 4
v -2.5 1 -2
v -1.5 1 -2
v -0.5 1 -2
v 0.5 1 -2
v 1.5 1 -2
v 2.5 1 -2
v -2.5 1 -3
v -1.5 1 -3
v -0.5 1 -3
v 0.5 1 -3
v 1.5 1 -3
v 2.5 1 -3
v -1.5 1 -4
v -0.5 1 -4
v 0.5 1 -4
v 1.5 1 -4
v -0.5 1 -6
v 0.5 1 -6

# faces
f 3/2/1 2/2/1 1/2/1
f 4/2/1 2/2/1 3/2/1
f 9/3/1 6/3/1 5/3/1
f 10/3/1 6/3/1 9/3/1
f 11/2/1 8/2/1 7/2/1
f 12/2/1 8/2/1 11/2/1
f 17/3/1 14/3/1 13/3/1
f 18/3/1 14/3/1 17/3/1
f 19/1/1 16/1/1 15/1/1
f 20/1/1 16/1/1 19/1/1
f 23/2/1 22/2/1 21/2/1
f 24/2/1 22/2/1 23/2/1
f 25/2/2 26/2/2 27/2/2
f 27/2/2 26/2/2 28/2/2
f 29/3/2 30/3/2 33/3/2
f 33/3/2 30/3/2 34/3/2
f 31/1/2 32/1/2 35/1/2
f 35/1/2 32/1/2 36/1/2
f 37/3/2 38/3/2 41/3/2
f 41/3/2 38/3/2 42/3/2
f 39/2/2 40/2/2 43/2/2
f 43/2/2 40/2/2 44/2/2
f 45/2/2 46/2/2 47/2/2
f 47/2/2 46/2/2 48/2/2
f 51/3/3 50/3/3 49/3/3
f 52/3/3 50/3/3 51/3/3
f 55/3/3 54/3/3 53/3/3
f 56/3/3 54/3/3 55/3/3
f 59/3/3 58/3/3 57/3/3
f 60/3/3 58/3/3 59/3/3
f 63/2/3 62/2/3 61/2/3
f 64/2/3 62/2/3 63/2/3
f 67/2/3 66/2/3 65/2/3
f 68/2/3 66/2/3 67/2/3
f 71/1/3 70/1/3 69/1/3
f 72/1/3 70/1/3 71/1/3
f 73/4/4 74/4/4 75/4/4
f 75/4/4 74/4/4 76/4/4
f 77/2/4 78/2/4 79/2/4
f 79/2/4 78/2/4 80/2/4
f 81/2/4 82/2/4 83/2/4
f 83/2/4 82/2/4 84/2/4
f 85/2/4 86/2/4 87/2/4
f 87/2/4 86/2/4 88/2/4
f 89/2/4 90/2/4 91/2/4
f 91/2/4 90/2/4 92/2/4
f 93/1/4 94/1/4 95/1/4
f 95/1/4 94/1/4 96/1/4
f 100/3/5 98/3/5 97/3/5
f 101/3/5 98/3/5 100/3/5
f 103/3/5 100/3/5 99/3/5
f 103/3/5 102/3/5 101/3/5
f 103/3/5 101/3/5 100/3/5
f 104/3/5 102/3/5 103/3/5
f 106/3/5 103/3/5 99/3/5
f 107/4/5 104/4/5 103/4/5
f 107/3/5 103/3/5 106/3/5
f 108/3/5 102/3/5 104/3/5
f 108/4/5 104/4/5 107/4/5
f 109/3/5 102/3/5 108/3/5
f 111/2/5 107/2/5 106/2/5
f 111/2/5 106/2/5 105/2/5
f 112/2/5 107/2/5 111/2/5
f 113/2/5 107/2/5 112/2/5
f 114/2/5 110/2/5 109/2/5
f 114/2/5 109/2/5 108/2/5
f 115/2/5 110/2/5 114/2/5
f 116/2/5 110/2/5 115/2/5
f 117/2/5 113/2/5 112/2/5
f 118/1/5 114/1/5 113/1/5
f 118/2/5 113/2/5 117/2/5
f 119/2/5 115/2/5 114/2/5
f 119/1/5 114/1/5 118/1/5
f 120/2/5 115/2/5 119/2/5
f 121/1/5 119/1/5 118/1/5
f 122/1/5 119/1/5 121/1/5
f 123/3/6 124/3/6 126/3/6
f 126/3/6 124/3/6 127/3/6
f 125/3/6 126/3/6 129/3/6
f 127/3/6 128/3/6 129/3/6
f 126/3/6 127/3/6 129/3/6
f 129/3/6 128/3/6 130/3/6
f 125/3/6 129/3/6 132/3/6
f 129/4/6 130/4/6 133/4/6
f 132/3/6 129/3/6 133/3/6
f 130/3/6 128/3/6 134/3/6
f 133/4/6 130/4/6 134/4/6
f 134/3/6 128/3/6 135/3/6
f 132/2/6 133/2/6 137/2/6
f 131/2/6 132/2/6 137/2/6
f 137/2/6 133/2/6 138/2/6
f 138/2/6 133/2/6 139/2/6
f 135/2/6 136/2/6 140/2/6
f 134/2/6 135/2/6 140/2/6
f 140/2/6 136/2/6 141/2/6
f 141/2/6 136/2/6 142/2/6
f 138/2/6 139/2/6 143/2/6
f 139/1/6 140/1/6 144/1/6
f 143/2/6 139/2/6 144/2/6
f 140/2/6 141/2/6 145/2/6
f 144/1/6 140/1/6 145/1/6
f 145/2/6 141/2/6 146/2/6
f 144/1/6 145/1/6 147/1/6
f 147/1/6 145/1/6 148/1/6
