# MagicaVoxel @ Ephtracy

# material
mtllib Claymore.mtl
usemtl palette

# normals
vn -1 0 0
vn 1 0 0
vn 0 0 1
vn 0 0 -1
vn 0 -1 0
vn 0 1 0

# texcoords
vt 0.255859 0.5
vt 0.701172 0.5
vt 0.970703 0.5
vt 0.974609 0.5
vt 0.982422 0.5

# verts
v -2.5 0 6
v -2.5 0 2
v -2.5 0 -2
v -2.5 0 -3
v -2.5 1 6
v -2.5 1 2
v -2.5 1 -2
v -2.5 1 -3
v -1.5 0 2
v -1.5 0 -2
v -1.5 0 -3
v -1.5 0 -4
v -1.5 1 2
v -1.5 1 -2
v -1.5 1 -3
v -1.5 1 -4
v -0.5 0 -4
v -0.5 0 -6
v -0.5 1 -4
v -0.5 1 -6
v 0.5 0 -4
v 0.5 0 -6
v 0.5 1 -4
v 0.5 1 -6
v 1.5 0 2
v 1.5 0 -2
v 1.5 0 -3
v 1.5 0 -4
v 1.5 1 2
v 1.5 1 -2
v 1.5 1 -3
v 1.5 1 -4
v 2.5 0 6
v 2.5 0 2
v 2.5 0 -2
v 2.5 0 -3
v 2.5 1 6
v 2.5 1 2
v 2.5 1 -2
v 2.5 1 -3
v -2.5 0 6
v -2.5 1 6
v 2.5 0 6
v 2.5 1 6
v -2.5 0 -2
v -2.5 1 -2
v -1.5 0 -2
v -1.5 1 -2
v 1.5 0 -2
v 1.5 1 -2
v 2.5 0 -2
v 2.5 1 -2
v -2.5 0 2
v -2.5 1 2
v -1.5 0 2
v -1.5 1 2
v 1.5 0 2
v 1.5 1 2
v 2.5 0 2
v 2.5 1 2
v -2.5 0 -3
v -2.5 1 -3
v -1.5 0 -3
v -1.5 1 -3
v 1.5 0 -3
v 1.5 1 -3
v 2.5 0 -3
v 2.5 1 -3
v -1.5 0 -4
v -1.5 1 -4
v -0.5 0 -4
v -0.5 1 -4
v 0.5 0 -4
v 0.5 1 -4
v 1.5 0 -4
v 1.5 1 -4
v -0.5 0 -6
v -0.5 1 -6
v 0.5 0 -6
v 0.5 1 -6
v -2.5 0 6
v 2.5 0 6
v -1.5 0 5
v 1.5 0 5
v -0.5 0 4
v 0.5 0 4
v -2.5 0 2
v -1.5 0 2
v 1.5 0 2
v 2.5 0 2
v -2.5 0 -2
v -1.5 0 -2
v -0.5 0 -2
v 0.5 0 -2
v 1.5 0 -2
v 2.5 0 -2
v -2.5 0 -3
v -1.5 0 -3
v 1.5 0 -3
v 2.5 0 -3
v -1.5 0 -4
v -0.5 0 -4
v 0.5 0 -4
v 1.5 0 -4
v -0.5 0 -6
v 0.5 0 -6
v -2.5 1 6
v 2.5 1 6
v -1.5 1 5
v 1.5 1 5
v -0.5 1 4
v 0.5 1 4
v -2.5 1 2
v -1.5 1 2
v 1.5 1 2
v 2.5 1 2
v -2.5 1 -2
v -1.5 1 -2
v -0.5 1 -2
v 0.5 1 -2
v 1.5 1 -2
v 2.5 1 -2
v -2.5 1 -3
v -1.5 1 -3
v 1.5 1 -3
v 2.5 1 -3
v -1.5 1 -4
v -0.5 1 -4
v 0.5 1 -4
v 1.5 1 -4
v -0.5 1 -6
v 0.5 1 -6

# faces
f 5/3/1 2/3/1 1/3/1
f 6/3/1 2/3/1 5/3/1
f 7/1/1 4/1/1 3/1/1
f 8/1/1 4/1/1 7/1/1
f 13/4/1 10/4/1 9/4/1
f 14/4/1 10/4/1 13/4/1
f 15/2/1 12/2/1 11/2/1
f 16/2/1 12/2/1 15/2/1
f 19/2/1 18/2/1 17/2/1
f 20/2/1 18/2/1 19/2/1
f 21/2/2 22/2/2 23/2/2
f 23/2/2 22/2/2 24/2/2
f 25/4/2 26/4/2 29/4/2
f 29/4/2 26/4/2 30/4/2
f 27/2/2 28/2/2 31/2/2
f 31/2/2 28/2/2 32/2/2
f 33/3/2 34/3/2 37/3/2
f 37/3/2 34/3/2 38/3/2
f 35/1/2 36/1/2 39/1/2
f 39/1/2 36/1/2 40/1/2
f 43/3/3 42/3/3 41/3/3
f 44/3/3 42/3/3 43/3/3
f 47/1/3 46/1/3 45/1/3
f 48/1/3 46/1/3 47/1/3
f 51/1/3 50/1/3 49/1/3
f 52/1/3 50/1/3 51/1/3
f 53/3/4 54/3/4 55/3/4
f 55/3/4 54/3/4 56/3/4
f 57/3/4 58/3/4 59/3/4
f 59/3/4 58/3/4 60/3/4
f 61/1/4 62/1/4 63/1/4
f 63/1/4 62/1/4 64/1/4
f 65/1/4 66/1/4 67/1/4
f 67/1/4 66/1/4 68/1/4
f 69/2/4 70/2/4 71/2/4
f 71/2/4 70/2/4 72/2/4
f 73/2/4 74/2/4 75/2/4
f 75/2/4 74/2/4 76/2/4
f 77/2/4 78/2/4 79/2/4
f 79/2/4 78/2/4 80/2/4
f 83/3/5 82/3/5 81/3/5
f 84/3/5 82/3/5 83/3/5
f 85/4/5 84/4/5 83/4/5
f 86/4/5 84/4/5 85/4/5
f 87/3/5 83/3/5 81/3/5
f 88/4/5 85/4/5 83/4/5
f 88/3/5 83/3/5 87/3/5
f 89/4/5 84/4/5 86/4/5
f 89/3/5 82/3/5 84/3/5
f 90/3/5 82/3/5 89/3/5
f 92/4/5 85/4/5 88/4/5
f 93/5/5 86/5/5 85/5/5
f 93/4/5 85/4/5 92/4/5
f 94/4/5 89/4/5 86/4/5
f 94/5/5 86/5/5 93/5/5
f 95/4/5 89/4/5 94/4/5
f 97/1/5 93/1/5 92/1/5
f 97/1/5 96/1/5 95/1/5
f 97/1/5 95/1/5 94/1/5
f 97/1/5 94/1/5 93/1/5
f 97/1/5 92/1/5 91/1/5
f 98/1/5 96/1/5 97/1/5
f 99/1/5 96/1/5 98/1/5
f 100/1/5 96/1/5 99/1/5
f 101/2/5 99/2/5 98/2/5
f 102/2/5 99/2/5 101/2/5
f 103/2/5 99/2/5 102/2/5
f 104/2/5 99/2/5 103/2/5
f 105/2/5 103/2/5 102/2/5
f 106/2/5 103/2/5 105/2/5
f 107/3/6 108/3/6 109/3/6
f 109/3/6 108/3/6 110/3/6
f 109/4/6 110/4/6 111/4/6
f 111/4/6 110/4/6 112/4/6
f 107/3/6 109/3/6 113/3/6
f 109/4/6 111/4/6 114/4/6
f 113/3/6 109/3/6 114/3/6
f 112/4/6 110/4/6 115/4/6
f 110/3/6 108/3/6 115/3/6
f 115/3/6 108/3/6 116/3/6
f 114/4/6 111/4/6 118/4/6
f 111/5/6 112/5/6 119/5/6
f 118/4/6 111/4/6 119/4/6
f 112/4/6 115/4/6 120/4/6
f 119/5/6 112/5/6 120/5/6
f 120/4/6 115/4/6 121/4/6
f 118/1/6 119/1/6 123/1/6
f 121/1/6 122/1/6 123/1/6
f 120/1/6 121/1/6 123/1/6
f 119/1/6 120/1/6 123/1/6
f 117/1/6 118/1/6 123/1/6
f 123/1/6 122/1/6 124/1/6
f 124/1/6 122/1/6 125/1/6
f 125/1/6 122/1/6 126/1/6
f 124/2/6 125/2/6 127/2/6
f 127/2/6 125/2/6 128/2/6
f 128/2/6 125/2/6 129/2/6
f 129/2/6 125/2/6 130/2/6
f 128/2/6 129/2/6 131/2/6
f 131/2/6 129/2/6 132/2/6
