# MagicaVoxel @ Ephtracy

# material
mtllib Leather Armor.mtl
usemtl palette

# normals
vn -1 0 0
vn 1 0 0
vn 0 0 1
vn 0 0 -1
vn 0 -1 0
vn 0 1 0

# texcoords
vt 0.373047 0.5
vt 0.396484 0.5
vt 0.537109 0.5
vt 0.701172 0.5

# verts
v -3 1 -0
v -3 1 -1
v -3 3 -0
v -3 3 -1
v -2 0 2
v -2 0 1
v -2 0 -1
v -2 0 -2
v -2 1 -0
v -2 1 -1
v -2 3 2
v -2 3 1
v -2 3 -0
v -2 3 -1
v -2 4 2
v -2 4 1
v -2 4 -2
v 1 0 1
v 1 0 -0
v 1 0 -1
v 1 1 -0
v 1 1 -1
v 1 2 -0
v 1 2 -1
v 1 3 1
v 1 3 -0
v 1 3 -1
v 1 4 1
v 1 4 -1
v 2 1 -0
v 2 1 -1
v 2 2 -0
v 2 2 -1
v -2 1 -0
v -2 1 -1
v -2 2 -0
v -2 2 -1
v -1 0 1
v -1 0 -1
v -1 1 1
v -1 1 -0
v -1 1 -1
v -1 2 -0
v -1 2 -1
v -1 3 1
v -1 3 -1
v -1 4 1
v -1 4 -1
v 2 0 2
v 2 0 1
v 2 0 -0
v 2 0 -1
v 2 0 -2
v 2 1 -0
v 2 1 -1
v 2 3 2
v 2 3 1
v 2 3 -0
v 2 3 -1
v 2 4 2
v 2 4 1
v 2 4 -2
v 3 1 -0
v 3 1 -1
v 3 3 -0
v 3 3 -1
v -2 0 2
v -2 3 2
v -2 4 2
v -1 1 2
v -1 3 2
v 0 0 2
v 0 1 2
v 0 3 2
v 2 0 2
v 2 3 2
v 2 4 2
v -3 1 -0
v -3 3 -0
v -2 1 -0
v -2 3 -0
v 2 1 -0
v 2 3 -0
v 3 1 -0
v 3 3 -0
v -2 1 -1
v -2 2 -1
v -1 0 -1
v -1 1 -1
v -1 2 -1
v -1 3 -1
v -1 4 -1
v 1 0 -1
v 1 1 -1
v 1 2 -1
v 1 3 -1
v 1 4 -1
v 2 1 -1
v 2 2 -1
v -1 0 1
v -1 1 1
v -1 3 1
v -1 4 1
v 0 0 1
v 0 1 1
v 0 3 1
v 1 0 1
v 1 3 1
v 1 4 1
v -2 1 -0
v -2 2 -0
v -1 1 -0
v -1 2 -0
v 1 1 -0
v 1 2 -0
v 2 1 -0
v 2 2 -0
v -3 1 -1
v -3 3 -1
v -2 1 -1
v -2 3 -1
v 2 1 -1
v 2 3 -1
v 3 1 -1
v 3 3 -1
v -2 0 -2
v -2 4 -2
v 2 0 -2
v 2 4 -2
v -2 0 2
v 0 0 2
v 2 0 2
v -2 0 1
v -1 0 1
v 0 0 1
v 1 0 1
v 2 0 1
v 1 0 -0
v 2 0 -0
v -2 0 -1
v -1 0 -1
v 1 0 -1
v 2 0 -1
v -2 0 -2
v 2 0 -2
v -3 1 -0
v -2 1 -0
v 2 1 -0
v 3 1 -0
v -3 1 -1
v -2 1 -1
v 2 1 -1
v 3 1 -1
v -2 2 -0
v -1 2 -0
v 1 2 -0
v 2 2 -0
v -2 2 -1
v -1 2 -1
v 1 2 -1
v 2 2 -1
v -2 1 -0
v -1 1 -0
v 1 1 -0
v 2 1 -0
v -2 1 -1
v -1 1 -1
v 1 1 -1
v 2 1 -1
v -3 3 -0
v -2 3 -0
v 2 3 -0
v 3 3 -0
v -3 3 -1
v -2 3 -1
v 2 3 -1
v 3 3 -1
v -2 4 2
v 2 4 2
v -2 4 1
v -1 4 1
v 1 4 1
v 2 4 1
v -1 4 -1
v 1 4 -1
v -2 4 -2
v 2 4 -2

# faces
f 3/3/1 2/3/1 1/3/1
f 4/3/1 2/3/1 3/3/1
f 9/4/1 7/4/1 6/4/1
f 10/3/1 8/3/1 7/3/1
f 10/4/1 7/4/1 9/4/1
f 11/3/1 6/3/1 5/3/1
f 12/4/1 9/4/1 6/4/1
f 12/3/1 6/3/1 11/3/1
f 13/4/1 9/4/1 12/4/1
f 14/3/1 8/3/1 10/3/1
f 15/2/1 12/2/1 11/2/1
f 16/3/1 13/3/1 12/3/1
f 16/2/1 12/2/1 15/2/1
f 16/3/1 14/3/1 13/3/1
f 17/3/1 8/3/1 14/3/1
f 17/3/1 14/3/1 16/3/1
f 21/3/1 19/3/1 18/3/1
f 21/4/1 20/4/1 19/4/1
f 22/4/1 20/4/1 21/4/1
f 23/3/1 21/3/1 18/3/1
f 25/3/1 23/3/1 18/3/1
f 26/4/1 24/4/1 23/4/1
f 26/3/1 23/3/1 25/3/1
f 27/4/1 24/4/1 26/4/1
f 28/3/1 26/3/1 25/3/1
f 28/3/1 27/3/1 26/3/1
f 29/3/1 27/3/1 28/3/1
f 32/3/1 31/3/1 30/3/1
f 33/3/1 31/3/1 32/3/1
f 34/3/2 35/3/2 36/3/2
f 36/3/2 35/3/2 37/3/2
f 38/4/2 39/4/2 40/4/2
f 40/4/2 39/4/2 41/4/2
f 41/4/2 39/4/2 42/4/2
f 40/4/2 41/4/2 43/4/2
f 40/4/2 43/4/2 45/4/2
f 43/4/2 44/4/2 45/4/2
f 45/4/2 44/4/2 46/4/2
f 45/3/2 46/3/2 47/3/2
f 47/3/2 46/3/2 48/3/2
f 50/3/2 51/3/2 54/3/2
f 51/4/2 52/4/2 54/4/2
f 52/3/2 53/3/2 55/3/2
f 54/4/2 52/4/2 55/4/2
f 49/1/2 50/1/2 56/1/2
f 50/3/2 54/3/2 57/3/2
f 56/1/2 50/1/2 57/1/2
f 57/3/2 54/3/2 58/3/2
f 55/3/2 53/3/2 59/3/2
f 56/2/2 57/2/2 60/2/2
f 57/3/2 58/3/2 61/3/2
f 60/2/2 57/2/2 61/2/2
f 58/3/2 59/3/2 61/3/2
f 59/3/2 53/3/2 62/3/2
f 61/3/2 59/3/2 62/3/2
f 63/3/2 64/3/2 65/3/2
f 65/3/2 64/3/2 66/3/2
f 70/3/3 68/3/3 67/3/3
f 71/2/3 69/2/3 68/2/3
f 71/3/3 68/3/3 70/3/3
f 72/3/3 70/3/3 67/3/3
f 73/2/3 71/2/3 70/2/3
f 73/3/3 70/3/3 72/3/3
f 74/2/3 69/2/3 71/2/3
f 74/2/3 71/2/3 73/2/3
f 75/1/3 73/1/3 72/1/3
f 75/1/3 74/1/3 73/1/3
f 76/2/3 69/2/3 74/2/3
f 76/1/3 74/1/3 75/1/3
f 77/2/3 69/2/3 76/2/3
f 80/3/3 79/3/3 78/3/3
f 81/3/3 79/3/3 80/3/3
f 84/3/3 83/3/3 82/3/3
f 85/3/3 83/3/3 84/3/3
f 89/3/3 87/3/3 86/3/3
f 90/3/3 87/3/3 89/3/3
f 93/3/3 89/3/3 88/3/3
f 93/3/3 92/3/3 91/3/3
f 93/3/3 91/3/3 90/3/3
f 93/3/3 90/3/3 89/3/3
f 94/3/3 92/3/3 93/3/3
f 95/3/3 92/3/3 94/3/3
f 96/3/3 92/3/3 95/3/3
f 97/3/3 92/3/3 96/3/3
f 98/3/3 95/3/3 94/3/3
f 99/3/3 95/3/3 98/3/3
f 100/3/4 101/3/4 104/3/4
f 102/2/4 103/2/4 105/2/4
f 104/3/4 101/3/4 105/3/4
f 101/2/4 102/2/4 105/2/4
f 105/2/4 103/2/4 106/2/4
f 104/1/4 105/1/4 107/1/4
f 105/1/4 106/1/4 107/1/4
f 106/2/4 103/2/4 108/2/4
f 107/1/4 106/1/4 108/1/4
f 108/2/4 103/2/4 109/2/4
f 110/4/4 111/4/4 112/4/4
f 112/4/4 111/4/4 113/4/4
f 114/3/4 115/3/4 116/3/4
f 116/3/4 115/3/4 117/3/4
f 118/3/4 119/3/4 120/3/4
f 120/3/4 119/3/4 121/3/4
f 122/3/4 123/3/4 124/3/4
f 124/3/4 123/3/4 125/3/4
f 126/3/4 127/3/4 128/3/4
f 128/3/4 127/3/4 129/3/4
f 133/3/5 131/3/5 130/3/5
f 134/3/5 131/3/5 133/3/5
f 135/1/5 132/1/5 131/1/5
f 135/3/5 131/3/5 134/3/5
f 136/1/5 132/1/5 135/1/5
f 137/1/5 132/1/5 136/1/5
f 138/3/5 137/3/5 136/3/5
f 139/3/5 137/3/5 138/3/5
f 140/4/5 134/4/5 133/4/5
f 141/4/5 134/4/5 140/4/5
f 142/4/5 139/4/5 138/4/5
f 143/4/5 139/4/5 142/4/5
f 144/3/5 141/3/5 140/3/5
f 144/3/5 142/3/5 141/3/5
f 144/3/5 143/3/5 142/3/5
f 145/3/5 143/3/5 144/3/5
f 150/3/5 147/3/5 146/3/5
f 151/3/5 147/3/5 150/3/5
f 152/3/5 149/3/5 148/3/5
f 153/3/5 149/3/5 152/3/5
f 158/4/5 155/4/5 154/4/5
f 159/4/5 155/4/5 158/4/5
f 160/4/5 157/4/5 156/4/5
f 161/4/5 157/4/5 160/4/5
f 162/4/6 163/4/6 166/4/6
f 166/4/6 163/4/6 167/4/6
f 164/4/6 165/4/6 168/4/6
f 168/4/6 165/4/6 169/4/6
f 170/3/6 171/3/6 174/3/6
f 174/3/6 171/3/6 175/3/6
f 172/3/6 173/3/6 176/3/6
f 176/3/6 173/3/6 177/3/6
f 178/2/6 179/2/6 180/2/6
f 180/2/6 179/2/6 181/2/6
f 181/2/6 179/2/6 182/2/6
f 182/2/6 179/2/6 183/2/6
f 180/3/6 181/3/6 184/3/6
f 182/3/6 183/3/6 185/3/6
f 180/3/6 184/3/6 186/3/6
f 184/3/6 185/3/6 186/3/6
f 185/3/6 183/3/6 187/3/6
f 186/3/6 185/3/6 187/3/6
