# MagicaVoxel @ Ephtracy

# material
mtllib Metal Armor 1.mtl
usemtl palette

# normals
vn -1 0 0
vn 1 0 0
vn 0 0 1
vn 0 0 -1
vn 0 -1 0
vn 0 1 0

# texcoords
vt 0.970703 0.5
vt 0.974609 0.5
vt 0.978516 0.5
vt 0.982422 0.5

# verts
v -3 1 -0
v -3 1 -1
v -3 3 -0
v -3 3 -1
v -2 0 2
v -2 0 1
v -2 0 -0
v -2 0 -2
v -2 1 -0
v -2 1 -1
v -2 3 2
v -2 3 1
v -2 3 -0
v -2 3 -1
v -2 4 2
v -2 4 1
v -2 4 -2
v 1 0 1
v 1 0 -1
v 1 1 -0
v 1 1 -1
v 1 2 -0
v 1 2 -1
v 1 3 1
v 1 3 -0
v 1 3 -1
v 1 4 1
v 1 4 -1
v 2 1 -0
v 2 1 -1
v 2 2 -0
v 2 2 -1
v -2 1 -0
v -2 1 -1
v -2 2 -0
v -2 2 -1
v -1 0 1
v -1 0 -0
v -1 0 -1
v -1 1 1
v -1 1 -0
v -1 1 -1
v -1 2 -0
v -1 2 -1
v -1 3 1
v -1 3 -1
v -1 4 1
v -1 4 -1
v 2 0 2
v 2 0 1
v 2 0 -2
v 2 1 -0
v 2 1 -1
v 2 3 2
v 2 3 1
v 2 3 -0
v 2 3 -1
v 2 4 2
v 2 4 1
v 2 4 -2
v 3 1 -0
v 3 1 -1
v 3 3 -0
v 3 3 -1
v -2 0 2
v -2 3 2
v -2 4 2
v -1 1 2
v -1 3 2
v 0 0 2
v 0 1 2
v 0 3 2
v 2 0 2
v 2 3 2
v 2 4 2
v -3 1 -0
v -3 3 -0
v -2 1 -0
v -2 3 -0
v 2 1 -0
v 2 3 -0
v 3 1 -0
v 3 3 -0
v -2 1 -1
v -2 2 -1
v -1 0 -1
v -1 1 -1
v -1 2 -1
v -1 3 -1
v -1 4 -1
v 1 0 -1
v 1 1 -1
v 1 2 -1
v 1 3 -1
v 1 4 -1
v 2 1 -1
v 2 2 -1
v -1 0 1
v -1 1 1
v -1 3 1
v -1 4 1
v 0 0 1
v 0 1 1
v 0 3 1
v 1 0 1
v 1 3 1
v 1 4 1
v -2 1 -0
v -2 2 -0
v -1 1 -0
v -1 2 -0
v 1 1 -0
v 1 2 -0
v 2 1 -0
v 2 2 -0
v -3 1 -1
v -3 3 -1
v -2 1 -1
v -2 3 -1
v 2 1 -1
v 2 3 -1
v 3 1 -1
v 3 3 -1
v -2 0 -2
v -2 4 -2
v 2 0 -2
v 2 4 -2
v -2 0 2
v 0 0 2
v 2 0 2
v -2 0 1
v -1 0 1
v 0 0 1
v 1 0 1
v 2 0 1
v -2 0 -0
v -1 0 -0
v -1 0 -1
v 1 0 -1
v -2 0 -2
v 2 0 -2
v -3 1 -0
v -2 1 -0
v 2 1 -0
v 3 1 -0
v -3 1 -1
v -2 1 -1
v 2 1 -1
v 3 1 -1
v -2 2 -0
v -1 2 -0
v 1 2 -0
v 2 2 -0
v -2 2 -1
v -1 2 -1
v 1 2 -1
v 2 2 -1
v -2 1 -0
v -1 1 -0
v 1 1 -0
v 2 1 -0
v -2 1 -1
v -1 1 -1
v 1 1 -1
v 2 1 -1
v -3 3 -0
v -2 3 -0
v 2 3 -0
v 3 3 -0
v -3 3 -1
v -2 3 -1
v 2 3 -1
v 3 3 -1
v -2 4 2
v 2 4 2
v -2 4 1
v -1 4 1
v 1 4 1
v 2 4 1
v -1 4 -1
v 1 4 -1
v -2 4 -2
v 2 4 -2

# faces
f 3/3/1 2/3/1 1/3/1
f 4/3/1 2/3/1 3/3/1
f 9/4/1 7/4/1 6/4/1
f 9/3/1 8/3/1 7/3/1
f 10/3/1 8/3/1 9/3/1
f 11/3/1 6/3/1 5/3/1
f 12/4/1 9/4/1 6/4/1
f 12/3/1 6/3/1 11/3/1
f 13/4/1 9/4/1 12/4/1
f 14/3/1 8/3/1 10/3/1
f 15/2/1 12/2/1 11/2/1
f 16/3/1 13/3/1 12/3/1
f 16/2/1 12/2/1 15/2/1
f 16/3/1 14/3/1 13/3/1
f 17/3/1 8/3/1 14/3/1
f 17/3/1 14/3/1 16/3/1
f 20/3/1 19/3/1 18/3/1
f 21/3/1 19/3/1 20/3/1
f 22/3/1 20/3/1 18/3/1
f 24/3/1 22/3/1 18/3/1
f 25/4/1 23/4/1 22/4/1
f 25/3/1 22/3/1 24/3/1
f 26/4/1 23/4/1 25/4/1
f 27/3/1 25/3/1 24/3/1
f 27/3/1 26/3/1 25/3/1
f 28/3/1 26/3/1 27/3/1
f 31/3/1 30/3/1 29/3/1
f 32/3/1 30/3/1 31/3/1
f 33/3/2 34/3/2 35/3/2
f 35/3/2 34/3/2 36/3/2
f 37/4/2 38/4/2 40/4/2
f 38/3/2 39/3/2 41/3/2
f 40/4/2 38/4/2 41/4/2
f 41/3/2 39/3/2 42/3/2
f 40/4/2 41/4/2 43/4/2
f 40/4/2 43/4/2 45/4/2
f 43/4/2 44/4/2 45/4/2
f 45/4/2 44/4/2 46/4/2
f 45/3/2 46/3/2 47/3/2
f 47/3/2 46/3/2 48/3/2
f 50/3/2 51/3/2 52/3/2
f 52/3/2 51/3/2 53/3/2
f 49/1/2 50/1/2 54/1/2
f 50/3/2 52/3/2 55/3/2
f 54/1/2 50/1/2 55/1/2
f 55/3/2 52/3/2 56/3/2
f 53/3/2 51/3/2 57/3/2
f 54/2/2 55/2/2 58/2/2
f 55/3/2 56/3/2 59/3/2
f 58/2/2 55/2/2 59/2/2
f 56/3/2 57/3/2 59/3/2
f 57/3/2 51/3/2 60/3/2
f 59/3/2 57/3/2 60/3/2
f 61/3/2 62/3/2 63/3/2
f 63/3/2 62/3/2 64/3/2
f 68/3/3 66/3/3 65/3/3
f 69/2/3 67/2/3 66/2/3
f 69/3/3 66/3/3 68/3/3
f 70/3/3 68/3/3 65/3/3
f 71/2/3 69/2/3 68/2/3
f 71/3/3 68/3/3 70/3/3
f 72/2/3 67/2/3 69/2/3
f 72/2/3 69/2/3 71/2/3
f 73/1/3 71/1/3 70/1/3
f 73/1/3 72/1/3 71/1/3
f 74/2/3 67/2/3 72/2/3
f 74/1/3 72/1/3 73/1/3
f 75/2/3 67/2/3 74/2/3
f 78/3/3 77/3/3 76/3/3
f 79/3/3 77/3/3 78/3/3
f 82/3/3 81/3/3 80/3/3
f 83/3/3 81/3/3 82/3/3
f 87/3/3 85/3/3 84/3/3
f 88/3/3 85/3/3 87/3/3
f 91/3/3 87/3/3 86/3/3
f 91/3/3 90/3/3 89/3/3
f 91/3/3 89/3/3 88/3/3
f 91/3/3 88/3/3 87/3/3
f 92/3/3 90/3/3 91/3/3
f 93/3/3 90/3/3 92/3/3
f 94/3/3 90/3/3 93/3/3
f 95/3/3 90/3/3 94/3/3
f 96/3/3 93/3/3 92/3/3
f 97/3/3 93/3/3 96/3/3
f 98/3/4 99/3/4 102/3/4
f 100/2/4 101/2/4 103/2/4
f 102/3/4 99/3/4 103/3/4
f 99/2/4 100/2/4 103/2/4
f 103/2/4 101/2/4 104/2/4
f 102/1/4 103/1/4 105/1/4
f 103/1/4 104/1/4 105/1/4
f 104/2/4 101/2/4 106/2/4
f 105/1/4 104/1/4 106/1/4
f 106/2/4 101/2/4 107/2/4
f 108/4/4 109/4/4 110/4/4
f 110/4/4 109/4/4 111/4/4
f 112/3/4 113/3/4 114/3/4
f 114/3/4 113/3/4 115/3/4
f 116/3/4 117/3/4 118/3/4
f 118/3/4 117/3/4 119/3/4
f 120/3/4 121/3/4 122/3/4
f 122/3/4 121/3/4 123/3/4
f 124/3/4 125/3/4 126/3/4
f 126/3/4 125/3/4 127/3/4
f 131/3/5 129/3/5 128/3/5
f 132/3/5 129/3/5 131/3/5
f 133/1/5 130/1/5 129/1/5
f 133/3/5 129/3/5 132/3/5
f 134/1/5 130/1/5 133/1/5
f 135/1/5 130/1/5 134/1/5
f 136/4/5 132/4/5 131/4/5
f 137/4/5 132/4/5 136/4/5
f 138/3/5 137/3/5 136/3/5
f 139/3/5 135/3/5 134/3/5
f 140/3/5 138/3/5 136/3/5
f 140/3/5 139/3/5 138/3/5
f 141/3/5 135/3/5 139/3/5
f 141/3/5 139/3/5 140/3/5
f 146/3/5 143/3/5 142/3/5
f 147/3/5 143/3/5 146/3/5
f 148/3/5 145/3/5 144/3/5
f 149/3/5 145/3/5 148/3/5
f 154/4/5 151/4/5 150/4/5
f 155/4/5 151/4/5 154/4/5
f 156/4/5 153/4/5 152/4/5
f 157/4/5 153/4/5 156/4/5
f 158/3/6 159/3/6 162/3/6
f 162/3/6 159/3/6 163/3/6
f 160/3/6 161/3/6 164/3/6
f 164/3/6 161/3/6 165/3/6
f 166/3/6 167/3/6 170/3/6
f 170/3/6 167/3/6 171/3/6
f 168/3/6 169/3/6 172/3/6
f 172/3/6 169/3/6 173/3/6
f 174/2/6 175/2/6 176/2/6
f 176/2/6 175/2/6 177/2/6
f 177/2/6 175/2/6 178/2/6
f 178/2/6 175/2/6 179/2/6
f 176/3/6 177/3/6 180/3/6
f 178/3/6 179/3/6 181/3/6
f 176/3/6 180/3/6 182/3/6
f 180/3/6 181/3/6 182/3/6
f 181/3/6 179/3/6 183/3/6
f 182/3/6 181/3/6 183/3/6
