# MagicaVoxel @ Ephtracy

# material
mtllib Metal Armor 1.mtl
usemtl palette

# normals
vn -1 0 0
vn 1 0 0
vn 0 0 1
vn 0 0 -1
vn 0 -1 0
vn 0 1 0

# texcoords
vt 0.978516 0.5
vt 0.982422 0.5
vt 0.986328 0.5

# verts
v -3 1 -0
v -3 1 -1
v -3 3 -0
v -3 3 -1
v -2 0 2
v -2 0 -0
v -2 0 -2
v -2 1 -0
v -2 1 -1
v -2 3 2
v -2 3 1
v -2 3 -0
v -2 3 -1
v -2 4 2
v -2 4 1
v -2 4 -1
v -2 4 -2
v 1 0 1
v 1 0 -0
v 1 0 -1
v 1 3 -0
v 1 3 -1
v 1 4 1
v 1 4 -1
v -1 0 1
v -1 0 -0
v -1 0 -1
v -1 3 1
v -1 3 -0
v -1 3 -1
v -1 4 1
v -1 4 -1
v 2 0 2
v 2 0 1
v 2 0 -0
v 2 0 -2
v 2 1 -0
v 2 1 -1
v 2 3 -0
v 2 3 -1
v 2 4 2
v 2 4 1
v 2 4 -1
v 2 4 -2
v 3 1 -0
v 3 1 -1
v 3 3 -0
v 3 3 -1
v -2 0 2
v -2 3 2
v -2 4 2
v 0 0 2
v 0 3 2
v 2 0 2
v 2 4 2
v -3 1 -0
v -3 3 -0
v -2 1 -0
v -2 3 -0
v 2 1 -0
v 2 3 -0
v 3 1 -0
v 3 3 -0
v -1 0 -1
v -1 3 -1
v -1 4 -1
v 1 0 -1
v 1 3 -1
v 1 4 -1
v -1 0 1
v -1 3 1
v -1 4 1
v 0 0 1
v 0 3 1
v 1 0 1
v 1 4 1
v -3 1 -1
v -3 3 -1
v -2 1 -1
v -2 3 -1
v 2 1 -1
v 2 3 -1
v 3 1 -1
v 3 3 -1
v -2 0 -2
v -2 4 -2
v 2 0 -2
v 2 4 -2
v -2 0 2
v 0 0 2
v 2 0 2
v -1 0 1
v 0 0 1
v 1 0 1
v 2 0 1
v -2 0 -0
v -1 0 -0
v 1 0 -0
v 2 0 -0
v -1 0 -1
v 1 0 -1
v -2 0 -2
v 2 0 -2
v -3 1 -0
v -2 1 -0
v 2 1 -0
v 3 1 -0
v -3 1 -1
v -2 1 -1
v 2 1 -1
v 3 1 -1
v -3 3 -0
v -2 3 -0
v 2 3 -0
v 3 3 -0
v -3 3 -1
v -2 3 -1
v 2 3 -1
v 3 3 -1
v -2 4 2
v 2 4 2
v -2 4 1
v -1 4 1
v 1 4 1
v 2 4 1
v -2 4 -1
v -1 4 -1
v 1 4 -1
v 2 4 -1
v -2 4 -2
v 2 4 -2

# faces
f 3/3/1 2/3/1 1/3/1
f 4/3/1 2/3/1 3/3/1
f 8/2/1 6/2/1 5/2/1
f 8/3/1 7/3/1 6/3/1
f 9/3/1 7/3/1 8/3/1
f 10/2/1 8/2/1 5/2/1
f 11/2/1 8/2/1 10/2/1
f 12/2/1 8/2/1 11/2/1
f 13/3/1 7/3/1 9/3/1
f 14/1/1 11/1/1 10/1/1
f 15/2/1 12/2/1 11/2/1
f 15/1/1 11/1/1 14/1/1
f 15/2/1 13/2/1 12/2/1
f 16/3/1 7/3/1 13/3/1
f 16/2/1 13/2/1 15/2/1
f 17/3/1 7/3/1 16/3/1
f 21/2/1 19/2/1 18/2/1
f 21/3/1 20/3/1 19/3/1
f 22/3/1 20/3/1 21/3/1
f 23/2/1 21/2/1 18/2/1
f 23/2/1 22/2/1 21/2/1
f 24/2/1 22/2/1 23/2/1
f 25/2/2 26/2/2 28/2/2
f 26/3/2 27/3/2 29/3/2
f 28/2/2 26/2/2 29/2/2
f 29/3/2 27/3/2 30/3/2
f 28/2/2 29/2/2 31/2/2
f 29/2/2 30/2/2 31/2/2
f 31/2/2 30/2/2 32/2/2
f 34/2/2 35/2/2 37/2/2
f 35/3/2 36/3/2 37/3/2
f 37/3/2 36/3/2 38/3/2
f 34/2/2 37/2/2 39/2/2
f 38/3/2 36/3/2 40/3/2
f 33/1/2 34/1/2 41/1/2
f 39/2/2 40/2/2 42/2/2
f 41/1/2 34/1/2 42/1/2
f 34/2/2 39/2/2 42/2/2
f 40/3/2 36/3/2 43/3/2
f 42/2/2 40/2/2 43/2/2
f 43/3/2 36/3/2 44/3/2
f 45/2/2 46/2/2 47/2/2
f 47/2/2 46/2/2 48/2/2
f 52/2/3 50/2/3 49/2/3
f 53/1/3 51/1/3 50/1/3
f 53/2/3 50/2/3 52/2/3
f 54/1/3 53/1/3 52/1/3
f 55/1/3 51/1/3 53/1/3
f 55/1/3 53/1/3 54/1/3
f 58/3/3 57/3/3 56/3/3
f 59/3/3 57/3/3 58/3/3
f 62/2/3 61/2/3 60/2/3
f 63/2/3 61/2/3 62/2/3
f 67/3/3 65/3/3 64/3/3
f 67/3/3 66/3/3 65/3/3
f 68/3/3 66/3/3 67/3/3
f 69/3/3 66/3/3 68/3/3
f 70/2/4 71/2/4 73/2/4
f 71/1/4 72/1/4 74/1/4
f 73/2/4 71/2/4 74/2/4
f 73/1/4 74/1/4 75/1/4
f 74/1/4 72/1/4 76/1/4
f 75/1/4 74/1/4 76/1/4
f 77/3/4 78/3/4 79/3/4
f 79/3/4 78/3/4 80/3/4
f 81/2/4 82/2/4 83/2/4
f 83/2/4 82/2/4 84/2/4
f 85/3/4 86/3/4 87/3/4
f 87/3/4 86/3/4 88/3/4
f 92/2/5 90/2/5 89/2/5
f 93/1/5 91/1/5 90/1/5
f 93/2/5 90/2/5 92/2/5
f 94/1/5 91/1/5 93/1/5
f 95/1/5 91/1/5 94/1/5
f 96/2/5 92/2/5 89/2/5
f 97/2/5 92/2/5 96/2/5
f 98/2/5 95/2/5 94/2/5
f 99/2/5 95/2/5 98/2/5
f 100/3/5 97/3/5 96/3/5
f 101/3/5 99/3/5 98/3/5
f 102/3/5 100/3/5 96/3/5
f 102/3/5 101/3/5 100/3/5
f 103/3/5 99/3/5 101/3/5
f 103/3/5 101/3/5 102/3/5
f 108/3/5 105/3/5 104/3/5
f 109/3/5 105/3/5 108/3/5
f 110/2/5 107/2/5 106/2/5
f 111/2/5 107/2/5 110/2/5
f 112/3/6 113/3/6 116/3/6
f 116/3/6 113/3/6 117/3/6
f 114/2/6 115/2/6 118/2/6
f 118/2/6 115/2/6 119/2/6
f 120/1/6 121/1/6 122/1/6
f 122/1/6 121/1/6 123/1/6
f 123/1/6 121/1/6 124/1/6
f 124/1/6 121/1/6 125/1/6
f 122/2/6 123/2/6 126/2/6
f 126/2/6 123/2/6 127/2/6
f 124/2/6 125/2/6 128/2/6
f 128/2/6 125/2/6 129/2/6
f 126/3/6 127/3/6 130/3/6
f 127/3/6 128/3/6 130/3/6
f 128/3/6 129/3/6 130/3/6
f 130/3/6 129/3/6 131/3/6
