# MagicaVoxel @ Ephtracy

# material
mtllib Traveler's Sword.mtl
usemtl palette

# normals
vn -1 0 0
vn 1 0 0
vn 0 0 1
vn 0 0 -1
vn 0 -1 0
vn 0 1 0

# texcoords
vt 0.513672 0.5
vt 0.701172 0.5
vt 0.974609 0.5
vt 0.978516 0.5

# verts
v -2.5 0 -2
v -2.5 0 -3
v -2.5 1 -2
v -2.5 1 -3
v -1.5 0 5
v -1.5 0 -2
v -1.5 0 -3
v -1.5 0 -4
v -1.5 1 5
v -1.5 1 -2
v -1.5 1 -3
v -1.5 1 -4
v -0.5 0 6
v -0.5 0 5
v -0.5 0 -4
v -0.5 0 -6
v -0.5 1 6
v -0.5 1 5
v -0.5 1 -4
v -0.5 1 -6
v 0.5 0 6
v 0.5 0 5
v 0.5 0 -4
v 0.5 0 -6
v 0.5 1 6
v 0.5 1 5
v 0.5 1 -4
v 0.5 1 -6
v 1.5 0 5
v 1.5 0 -2
v 1.5 0 -3
v 1.5 0 -4
v 1.5 1 5
v 1.5 1 -2
v 1.5 1 -3
v 1.5 1 -4
v 2.5 0 -2
v 2.5 0 -3
v 2.5 1 -2
v 2.5 1 -3
v -0.5 0 6
v -0.5 1 6
v 0.5 0 6
v 0.5 1 6
v -1.5 0 5
v -1.5 1 5
v -0.5 0 5
v -0.5 1 5
v 0.5 0 5
v 0.5 1 5
v 1.5 0 5
v 1.5 1 5
v -2.5 0 -2
v -2.5 1 -2
v -1.5 0 -2
v -1.5 1 -2
v 1.5 0 -2
v 1.5 1 -2
v 2.5 0 -2
v 2.5 1 -2
v -2.5 0 -3
v -2.5 1 -3
v -1.5 0 -3
v -1.5 1 -3
v 1.5 0 -3
v 1.5 1 -3
v 2.5 0 -3
v 2.5 1 -3
v -1.5 0 -4
v -1.5 1 -4
v -0.5 0 -4
v -0.5 1 -4
v 0.5 0 -4
v 0.5 1 -4
v 1.5 0 -4
v 1.5 1 -4
v -0.5 0 -6
v -0.5 1 -6
v 0.5 0 -6
v 0.5 1 -6
v -0.5 0 6
v 0.5 0 6
v -1.5 0 5
v -0.5 0 5
v 0.5 0 5
v 1.5 0 5
v -0.5 0 4
v 0.5 0 4
v -2.5 0 -2
v -1.5 0 -2
v -0.5 0 -2
v 0.5 0 -2
v 1.5 0 -2
v 2.5 0 -2
v -2.5 0 -3
v -1.5 0 -3
v 1.5 0 -3
v 2.5 0 -3
v -1.5 0 -4
v -0.5 0 -4
v 0.5 0 -4
v 1.5 0 -4
v -0.5 0 -6
v 0.5 0 -6
v -0.5 1 6
v 0.5 1 6
v -1.5 1 5
v -0.5 1 5
v 0.5 1 5
v 1.5 1 5
v -0.5 1 4
v 0.5 1 4
v -2.5 1 -2
v -1.5 1 -2
v -0.5 1 -2
v 0.5 1 -2
v 1.5 1 -2
v 2.5 1 -2
v -2.5 1 -3
v -1.5 1 -3
v 1.5 1 -3
v 2.5 1 -3
v -1.5 1 -4
v -0.5 1 -4
v 0.5 1 -4
v 1.5 1 -4
v -0.5 1 -6
v 0.5 1 -6

# faces
f 3/1/1 2/1/1 1/1/1
f 4/1/1 2/1/1 3/1/1
f 9/4/1 6/4/1 5/4/1
f 10/4/1 6/4/1 9/4/1
f 11/2/1 8/2/1 7/2/1
f 12/2/1 8/2/1 11/2/1
f 17/4/1 14/4/1 13/4/1
f 18/4/1 14/4/1 17/4/1
f 19/2/1 16/2/1 15/2/1
f 20/2/1 16/2/1 19/2/1
f 21/4/2 22/4/2 25/4/2
f 25/4/2 22/4/2 26/4/2
f 23/2/2 24/2/2 27/2/2
f 27/2/2 24/2/2 28/2/2
f 29/4/2 30/4/2 33/4/2
f 33/4/2 30/4/2 34/4/2
f 31/2/2 32/2/2 35/2/2
f 35/2/2 32/2/2 36/2/2
f 37/1/2 38/1/2 39/1/2
f 39/1/2 38/1/2 40/1/2
f 43/4/3 42/4/3 41/4/3
f 44/4/3 42/4/3 43/4/3
f 47/4/3 46/4/3 45/4/3
f 48/4/3 46/4/3 47/4/3
f 51/4/3 50/4/3 49/4/3
f 52/4/3 50/4/3 51/4/3
f 55/1/3 54/1/3 53/1/3
f 56/1/3 54/1/3 55/1/3
f 59/1/3 58/1/3 57/1/3
f 60/1/3 58/1/3 59/1/3
f 61/1/4 62/1/4 63/1/4
f 63/1/4 62/1/4 64/1/4
f 65/1/4 66/1/4 67/1/4
f 67/1/4 66/1/4 68/1/4
f 69/2/4 70/2/4 71/2/4
f 71/2/4 70/2/4 72/2/4
f 73/2/4 74/2/4 75/2/4
f 75/2/4 74/2/4 76/2/4
f 77/2/4 78/2/4 79/2/4
f 79/2/4 78/2/4 80/2/4
f 84/4/5 82/4/5 81/4/5
f 85/4/5 82/4/5 84/4/5
f 87/4/5 84/4/5 83/4/5
f 87/4/5 86/4/5 85/4/5
f 87/4/5 85/4/5 84/4/5
f 88/4/5 86/4/5 87/4/5
f 90/4/5 87/4/5 83/4/5
f 91/3/5 88/3/5 87/3/5
f 91/4/5 87/4/5 90/4/5
f 92/4/5 86/4/5 88/4/5
f 92/3/5 88/3/5 91/3/5
f 93/4/5 86/4/5 92/4/5
f 95/1/5 91/1/5 90/1/5
f 95/1/5 94/1/5 93/1/5
f 95/1/5 93/1/5 92/1/5
f 95/1/5 92/1/5 91/1/5
f 95/1/5 90/1/5 89/1/5
f 96/1/5 94/1/5 95/1/5
f 97/1/5 94/1/5 96/1/5
f 98/1/5 94/1/5 97/1/5
f 99/2/5 97/2/5 96/2/5
f 100/2/5 97/2/5 99/2/5
f 101/2/5 97/2/5 100/2/5
f 102/2/5 97/2/5 101/2/5
f 103/2/5 101/2/5 100/2/5
f 104/2/5 101/2/5 103/2/5
f 105/4/6 106/4/6 108/4/6
f 108/4/6 106/4/6 109/4/6
f 107/4/6 108/4/6 111/4/6
f 109/4/6 110/4/6 111/4/6
f 108/4/6 109/4/6 111/4/6
f 111/4/6 110/4/6 112/4/6
f 107/4/6 111/4/6 114/4/6
f 111/3/6 112/3/6 115/3/6
f 114/4/6 111/4/6 115/4/6
f 112/4/6 110/4/6 116/4/6
f 115/3/6 112/3/6 116/3/6
f 116/4/6 110/4/6 117/4/6
f 114/1/6 115/1/6 119/1/6
f 117/1/6 118/1/6 119/1/6
f 116/1/6 117/1/6 119/1/6
f 115/1/6 116/1/6 119/1/6
f 113/1/6 114/1/6 119/1/6
f 119/1/6 118/1/6 120/1/6
f 120/1/6 118/1/6 121/1/6
f 121/1/6 118/1/6 122/1/6
f 120/2/6 121/2/6 123/2/6
f 123/2/6 121/2/6 124/2/6
f 124/2/6 121/2/6 125/2/6
f 125/2/6 121/2/6 126/2/6
f 124/2/6 125/2/6 127/2/6
f 127/2/6 125/2/6 128/2/6
