# MagicaVoxel @ Ephtracy

# material
mtllib Flower 1.mtl
usemtl palette

# normals
vn -1 0 0
vn 1 0 0
vn 0 0 1
vn 0 0 -1
vn 0 -1 0
vn 0 1 0

# texcoords
vt 0.0175781 0.5
vt 0.0214844 0.5
vt 0.0722656 0.5
vt 0.103516 0.5
vt 0.107422 0.5

# verts
v -5.5 3 1.5
v -5.5 3 0.5
v -5.5 6 1.5
v -5.5 6 0.5
v -4.5 2 2.5
v -4.5 2 1.5
v -4.5 3 1.5
v -4.5 4 2.5
v -4.5 4 1.5
v -3.5 2 1.5
v -3.5 2 0.5
v -3.5 3 1.5
v -3.5 3 0.5
v -2.5 0 0.5
v -2.5 0 -0.5
v -2.5 1 1.5
v -2.5 1 0.5
v -2.5 2 1.5
v -2.5 2 0.5
v -2.5 2 -0.5
v -1.5 0 2.5
v -1.5 0 1.5
v -1.5 0 -1.5
v -1.5 0 -2.5
v -1.5 1 4.5
v -1.5 1 3.5
v -1.5 1 2.5
v -1.5 1 1.5
v -1.5 1 -1.5
v -1.5 1 -2.5
v -1.5 2 5.5
v -1.5 2 4.5
v -1.5 2 3.5
v -1.5 2 2.5
v -1.5 3 5.5
v -1.5 3 4.5
v -1.5 3 3.5
v -1.5 3 2.5
v -1.5 4 4.5
v -1.5 4 3.5
v -1.5 5 0.5
v -1.5 5 -0.5
v -1.5 6 1.5
v -1.5 6 0.5
v -1.5 6 -0.5
v -1.5 6 -1.5
v -1.5 7 1.5
v -1.5 7 0.5
v -1.5 7 -0.5
v -1.5 7 -1.5
v -1.5 8 1.5
v -1.5 8 0.5
v -1.5 8 -0.5
v -1.5 8 -1.5
v -1.5 9 0.5
v -1.5 9 -0.5
v -0.5 0 -2.5
v -0.5 0 -3.5
v -0.5 1 0.5
v -0.5 1 -0.5
v -0.5 1 -2.5
v -0.5 1 -3.5
v -0.5 1 -4.5
v -0.5 2 -3.5
v -0.5 2 -4.5
v -0.5 2 -5.5
v -0.5 3 -4.5
v -0.5 3 -5.5
v -0.5 5 1.5
v -0.5 5 0.5
v -0.5 5 -0.5
v -0.5 5 -1.5
v -0.5 6 1.5
v -0.5 6 0.5
v -0.5 6 -0.5
v -0.5 6 -1.5
v -0.5 8 1.5
v -0.5 8 0.5
v -0.5 8 -0.5
v -0.5 8 -1.5
v -0.5 9 1.5
v -0.5 9 0.5
v -0.5 9 -0.5
v -0.5 9 -1.5
v 0.5 0 1.5
v 0.5 0 0.5
v 0.5 2 1.5
v 0.5 2 0.5
v 1.5 0 -1.5
v 1.5 0 -2.5
v 1.5 1 -1.5
v 1.5 1 -2.5
v 2.5 1 -1.5
v 2.5 1 -2.5
v 2.5 2 -1.5
v 2.5 2 -2.5
v 2.5 3 -1.5
v 2.5 3 -2.5
v 3.5 3 -1.5
v 3.5 3 -2.5
v 3.5 4 -1.5
v 3.5 4 -2.5
v -3.5 2 2.5
v -3.5 2 1.5
v -3.5 4 2.5
v -3.5 4 1.5
v -3.5 5 1.5
v -3.5 5 0.5
v -3.5 6 1.5
v -3.5 6 0.5
v -2.5 3 1.5
v -2.5 3 0.5
v -2.5 4 1.5
v -2.5 4 0.5
v -2.5 5 1.5
v -2.5 5 0.5
v -1.5 1 1.5
v -1.5 1 0.5
v -1.5 1 -0.5
v -1.5 2 0.5
v -1.5 2 -0.5
v -1.5 3 1.5
v -1.5 3 0.5
v -0.5 0 2.5
v -0.5 0 1.5
v -0.5 0 -1.5
v -0.5 0 -2.5
v -0.5 1 4.5
v -0.5 1 3.5
v -0.5 1 2.5
v -0.5 1 1.5
v -0.5 1 -1.5
v -0.5 1 -2.5
v -0.5 2 5.5
v -0.5 2 4.5
v -0.5 2 3.5
v -0.5 2 2.5
v -0.5 3 5.5
v -0.5 3 4.5
v -0.5 3 3.5
v -0.5 3 2.5
v -0.5 4 4.5
v -0.5 4 3.5
v 0.5 0 -2.5
v 0.5 0 -3.5
v 0.5 1 0.5
v 0.5 1 -0.5
v 0.5 1 -2.5
v 0.5 1 -3.5
v 0.5 1 -4.5
v 0.5 2 0.5
v 0.5 2 -3.5
v 0.5 2 -4.5
v 0.5 2 -5.5
v 0.5 3 -4.5
v 0.5 3 -5.5
v 0.5 5 1.5
v 0.5 5 0.5
v 0.5 5 -0.5
v 0.5 5 -1.5
v 0.5 6 1.5
v 0.5 6 0.5
v 0.5 6 -0.5
v 0.5 6 -1.5
v 0.5 8 1.5
v 0.5 8 0.5
v 0.5 8 -0.5
v 0.5 8 -1.5
v 0.5 9 1.5
v 0.5 9 0.5
v 0.5 9 -0.5
v 0.5 9 -1.5
v 1.5 0 1.5
v 1.5 0 -0.5
v 1.5 1 0.5
v 1.5 1 -0.5
v 1.5 2 1.5
v 1.5 2 0.5
v 1.5 5 0.5
v 1.5 5 -0.5
v 1.5 6 1.5
v 1.5 6 0.5
v 1.5 6 -0.5
v 1.5 6 -1.5
v 1.5 7 1.5
v 1.5 7 0.5
v 1.5 7 -0.5
v 1.5 7 -1.5
v 1.5 8 1.5
v 1.5 8 0.5
v 1.5 8 -0.5
v 1.5 8 -1.5
v 1.5 9 0.5
v 1.5 9 -0.5
v 2.5 0 -1.5
v 2.5 0 -2.5
v 2.5 1 -1.5
v 2.5 1 -2.5
v 4.5 1 -1.5
v 4.5 1 -2.5
v 4.5 2 -1.5
v 4.5 2 -2.5
v 5.5 2 -1.5
v 5.5 2 -2.5
v 5.5 4 -1.5
v 5.5 4 -2.5
v -1.5 2 5.5
v -1.5 3 5.5
v -0.5 2 5.5
v -0.5 3 5.5
v -1.5 1 4.5
v -1.5 2 4.5
v -1.5 3 4.5
v -1.5 4 4.5
v -0.5 1 4.5
v -0.5 2 4.5
v -0.5 3 4.5
v -0.5 4 4.5
v -4.5 2 2.5
v -4.5 4 2.5
v -3.5 2 2.5
v -3.5 4 2.5
v -1.5 0 2.5
v -1.5 1 2.5
v -0.5 0 2.5
v -0.5 1 2.5
v -5.5 3 1.5
v -5.5 6 1.5
v -4.5 3 1.5
v -4.5 4 1.5
v -3.5 2 1.5
v -3.5 4 1.5
v -3.5 5 1.5
v -3.5 6 1.5
v -2.5 1 1.5
v -2.5 2 1.5
v -2.5 3 1.5
v -2.5 4 1.5
v -2.5 5 1.5
v -1.5 1 1.5
v -1.5 3 1.5
v -1.5 6 1.5
v -1.5 7 1.5
v -1.5 8 1.5
v -0.5 5 1.5
v -0.5 6 1.5
v -0.5 7 1.5
v -0.5 8 1.5
v -0.5 9 1.5
v 0.5 0 1.5
v 0.5 2 1.5
v 0.5 5 1.5
v 0.5 6 1.5
v 0.5 7 1.5
v 0.5 8 1.5
v 0.5 9 1.5
v 1.5 0 1.5
v 1.5 2 1.5
v 1.5 6 1.5
v 1.5 7 1.5
v 1.5 8 1.5
v -2.5 0 0.5
v -2.5 1 0.5
v -1.5 0 0.5
v -1.5 1 0.5
v -1.5 5 0.5
v -1.5 6 0.5
v -1.5 8 0.5
v -1.5 9 0.5
v -0.5 0 0.5
v -0.5 1 0.5
v -0.5 5 0.5
v -0.5 6 0.5
v -0.5 8 0.5
v -0.5 9 0.5
v 0.5 0 0.5
v 0.5 2 0.5
v 0.5 5 0.5
v 0.5 6 0.5
v 0.5 8 0.5
v 0.5 9 0.5
v 1.5 5 0.5
v 1.5 6 0.5
v 1.5 8 0.5
v 1.5 9 0.5
v -1.5 0 -1.5
v -1.5 1 -1.5
v -0.5 0 -1.5
v -0.5 1 -1.5
v 1.5 0 -1.5
v 1.5 1 -1.5
v 2.5 0 -1.5
v 2.5 1 -1.5
v 2.5 2 -1.5
v 2.5 3 -1.5
v 3.5 1 -1.5
v 3.5 2 -1.5
v 3.5 3 -1.5
v 3.5 4 -1.5
v 4.5 1 -1.5
v 4.5 2 -1.5
v 5.5 2 -1.5
v 5.5 4 -1.5
v -0.5 0 -2.5
v -0.5 1 -2.5
v 0.5 0 -2.5
v 0.5 1 -2.5
v -0.5 1 -3.5
v -0.5 2 -3.5
v 0.5 1 -3.5
v 0.5 2 -3.5
v -0.5 2 -4.5
v -0.5 3 -4.5
v 0.5 2 -4.5
v 0.5 3 -4.5
v -1.5 3 3.5
v -1.5 4 3.5
v -0.5 3 3.5
v -0.5 4 3.5
v -1.5 1 2.5
v -1.5 2 2.5
v -1.5 3 2.5
v -0.5 1 2.5
v -0.5 2 2.5
v -0.5 3 2.5
v -4.5 2 1.5
v -4.5 3 1.5
v -3.5 2 1.5
v -3.5 3 1.5
v -1.5 0 1.5
v -1.5 1 1.5
v -0.5 0 1.5
v -0.5 1 1.5
v -5.5 3 0.5
v -5.5 6 0.5
v -4.5 3 0.5
v -4.5 4 0.5
v -3.5 2 0.5
v -3.5 3 0.5
v -3.5 5 0.5
v -3.5 6 0.5
v -2.5 2 0.5
v -2.5 3 0.5
v -2.5 4 0.5
v -2.5 5 0.5
v -1.5 2 0.5
v -1.5 3 0.5
v 0.5 1 0.5
v 0.5 2 0.5
v 1.5 1 0.5
v 1.5 2 0.5
v -2.5 0 -0.5
v -2.5 2 -0.5
v -1.5 0 -0.5
v -1.5 1 -0.5
v -1.5 2 -0.5
v -1.5 5 -0.5
v -1.5 6 -0.5
v -1.5 8 -0.5
v -1.5 9 -0.5
v -0.5 0 -0.5
v -0.5 1 -0.5
v -0.5 5 -0.5
v -0.5 6 -0.5
v -0.5 8 -0.5
v -0.5 9 -0.5
v 0.5 0 -0.5
v 0.5 1 -0.5
v 0.5 5 -0.5
v 0.5 6 -0.5
v 0.5 8 -0.5
v 0.5 9 -0.5
v 1.5 0 -0.5
v 1.5 1 -0.5
v 1.5 5 -0.5
v 1.5 6 -0.5
v 1.5 8 -0.5
v 1.5 9 -0.5
v -1.5 6 -1.5
v -1.5 7 -1.5
v -1.5 8 -1.5
v -0.5 5 -1.5
v -0.5 6 -1.5
v -0.5 7 -1.5
v -0.5 8 -1.5
v -0.5 9 -1.5
v 0.5 5 -1.5
v 0.5 6 -1.5
v 0.5 7 -1.5
v 0.5 8 -1.5
v 0.5 9 -1.5
v 1.5 6 -1.5
v 1.5 7 -1.5
v 1.5 8 -1.5
v -1.5 0 -2.5
v -1.5 1 -2.5
v -0.5 0 -2.5
v -0.5 1 -2.5
v 1.5 0 -2.5
v 1.5 1 -2.5
v 2.5 0 -2.5
v 2.5 1 -2.5
v 2.5 2 -2.5
v 2.5 3 -2.5
v 3.5 1 -2.5
v 3.5 2 -2.5
v 3.5 3 -2.5
v 3.5 4 -2.5
v 4.5 1 -2.5
v 4.5 2 -2.5
v 5.5 2 -2.5
v 5.5 4 -2.5
v -0.5 0 -3.5
v -0.5 1 -3.5
v 0.5 0 -3.5
v 0.5 1 -3.5
v -0.5 1 -4.5
v -0.5 2 -4.5
v 0.5 1 -4.5
v 0.5 2 -4.5
v -0.5 2 -5.5
v -0.5 3 -5.5
v 0.5 2 -5.5
v 0.5 3 -5.5
v -1.5 0 2.5
v -0.5 0 2.5
v -1.5 0 1.5
v -0.5 0 1.5
v 0.5 0 1.5
v 1.5 0 1.5
v -2.5 0 0.5
v -1.5 0 0.5
v -0.5 0 0.5
v 0.5 0 0.5
v -2.5 0 -0.5
v -1.5 0 -0.5
v -0.5 0 -0.5
v 0.5 0 -0.5
v 1.5 0 -0.5
v -1.5 0 -1.5
v -0.5 0 -1.5
v 1.5 0 -1.5
v 2.5 0 -1.5
v -1.5 0 -2.5
v -0.5 0 -2.5
v 0.5 0 -2.5
v 1.5 0 -2.5
v 2.5 0 -2.5
v -0.5 0 -3.5
v 0.5 0 -3.5
v -1.5 1 4.5
v -0.5 1 4.5
v -1.5 1 3.5
v -0.5 1 3.5
v -1.5 1 2.5
v -0.5 1 2.5
v -2.5 1 1.5
v -1.5 1 1.5
v -2.5 1 0.5
v -1.5 1 0.5
v 2.5 1 -1.5
v 3.5 1 -1.5
v 4.5 1 -1.5
v 2.5 1 -2.5
v 3.5 1 -2.5
v 4.5 1 -2.5
v -0.5 1 -3.5
v 0.5 1 -3.5
v -0.5 1 -4.5
v 0.5 1 -4.5
v -1.5 2 5.5
v -0.5 2 5.5
v -1.5 2 4.5
v -0.5 2 4.5
v -4.5 2 2.5
v -3.5 2 2.5
v -4.5 2 1.5
v -3.5 2 1.5
v -2.5 2 1.5
v -3.5 2 0.5
v -2.5 2 0.5
v 4.5 2 -1.5
v 5.5 2 -1.5
v 4.5 2 -2.5
v 5.5 2 -2.5
v -0.5 2 -4.5
v 0.5 2 -4.5
v -0.5 2 -5.5
v 0.5 2 -5.5
v -5.5 3 1.5
v -4.5 3 1.5
v -3.5 3 1.5
v -5.5 3 0.5
v -4.5 3 0.5
v -3.5 3 0.5
v -0.5 5 1.5
v 0.5 5 1.5
v -1.5 5 0.5
v -0.5 5 0.5
v 0.5 5 0.5
v 1.5 5 0.5
v -1.5 5 -0.5
v -0.5 5 -0.5
v 0.5 5 -0.5
v 1.5 5 -0.5
v -0.5 5 -1.5
v 0.5 5 -1.5
v -1.5 6 1.5
v -0.5 6 1.5
v 0.5 6 1.5
v 1.5 6 1.5
v -1.5 6 0.5
v -0.5 6 0.5
v 0.5 6 0.5
v 1.5 6 0.5
v -1.5 6 -0.5
v -0.5 6 -0.5
v 0.5 6 -0.5
v 1.5 6 -0.5
v -1.5 6 -1.5
v -0.5 6 -1.5
v 0.5 6 -1.5
v 1.5 6 -1.5
v -1.5 1 2.5
v -0.5 1 2.5
v -1.5 1 1.5
v -0.5 1 1.5
v -1.5 1 0.5
v -0.5 1 0.5
v 0.5 1 0.5
v 1.5 1 0.5
v -1.5 1 -0.5
v -0.5 1 -0.5
v 0.5 1 -0.5
v 1.5 1 -0.5
v -1.5 1 -1.5
v -0.5 1 -1.5
v 1.5 1 -1.5
v 2.5 1 -1.5
v -1.5 1 -2.5
v -0.5 1 -2.5
v 0.5 1 -2.5
v 1.5 1 -2.5
v 2.5 1 -2.5
v -0.5 1 -3.5
v 0.5 1 -3.5
v 0.5 2 1.5
v 1.5 2 1.5
v -2.5 2 0.5
v -1.5 2 0.5
v 0.5 2 0.5
v 1.5 2 0.5
v -2.5 2 -0.5
v -1.5 2 -0.5
v -0.5 2 -3.5
v 0.5 2 -3.5
v -0.5 2 -4.5
v 0.5 2 -4.5
v -1.5 3 5.5
v -0.5 3 5.5
v -1.5 3 4.5
v -0.5 3 4.5
v -1.5 3 3.5
v -0.5 3 3.5
v -1.5 3 2.5
v -0.5 3 2.5
v -2.5 3 1.5
v -1.5 3 1.5
v -2.5 3 0.5
v -1.5 3 0.5
v 2.5 3 -1.5
v 3.5 3 -1.5
v 2.5 3 -2.5
v 3.5 3 -2.5
v -0.5 3 -4.5
v 0.5 3 -4.5
v -0.5 3 -5.5
v 0.5 3 -5.5
v -1.5 4 4.5
v -0.5 4 4.5
v -1.5 4 3.5
v -0.5 4 3.5
v -4.5 4 2.5
v -3.5 4 2.5
v -4.5 4 1.5
v -3.5 4 1.5
v 3.5 4 -1.5
v 5.5 4 -1.5
v 3.5 4 -2.5
v 5.5 4 -2.5
v -3.5 5 1.5
v -2.5 5 1.5
v -3.5 5 0.5
v -2.5 5 0.5
v -5.5 6 1.5
v -3.5 6 1.5
v -5.5 6 0.5
v -3.5 6 0.5
v -1.5 8 1.5
v -0.5 8 1.5
v 0.5 8 1.5
v 1.5 8 1.5
v -1.5 8 0.5
v -0.5 8 0.5
v 0.5 8 0.5
v 1.5 8 0.5
v -1.5 8 -0.5
v -0.5 8 -0.5
v 0.5 8 -0.5
v 1.5 8 -0.5
v -1.5 8 -1.5
v -0.5 8 -1.5
v 0.5 8 -1.5
v 1.5 8 -1.5
v -0.5 9 1.5
v 0.5 9 1.5
v -1.5 9 0.5
v -0.5 9 0.5
v 0.5 9 0.5
v 1.5 9 0.5
v -1.5 9 -0.5
v -0.5 9 -0.5
v 0.5 9 -0.5
v 1.5 9 -0.5
v -0.5 9 -1.5
v 0.5 9 -1.5

# faces
f 3/5/1 2/5/1 1/5/1
f 4/5/1 2/5/1 3/5/1
f 7/4/1 6/4/1 5/4/1
f 8/4/1 7/4/1 5/4/1
f 9/4/1 7/4/1 8/4/1
f 12/4/1 11/4/1 10/4/1
f 13/4/1 11/4/1 12/4/1
f 17/4/1 15/4/1 14/4/1
f 18/4/1 17/4/1 16/4/1
f 19/4/1 15/4/1 17/4/1
f 19/4/1 17/4/1 18/4/1
f 20/4/1 15/4/1 19/4/1
f 27/4/1 22/4/1 21/4/1
f 28/4/1 22/4/1 27/4/1
f 29/3/1 24/3/1 23/3/1
f 30/3/1 24/3/1 29/3/1
f 32/5/1 26/5/1 25/5/1
f 33/4/1 27/4/1 26/4/1
f 33/5/1 26/5/1 32/5/1
f 34/4/1 27/4/1 33/4/1
f 35/5/1 32/5/1 31/5/1
f 35/5/1 33/5/1 32/5/1
f 35/5/1 34/5/1 33/5/1
f 36/5/1 34/5/1 35/5/1
f 37/5/1 34/5/1 36/5/1
f 38/5/1 34/5/1 37/5/1
f 39/5/1 37/5/1 36/5/1
f 40/5/1 37/5/1 39/5/1
f 44/4/1 42/4/1 41/4/1
f 45/4/1 42/4/1 44/4/1
f 47/1/1 44/1/1 43/1/1
f 48/2/1 45/2/1 44/2/1
f 48/1/1 44/1/1 47/1/1
f 49/1/1 46/1/1 45/1/1
f 49/2/1 45/2/1 48/2/1
f 50/1/1 46/1/1 49/1/1
f 51/2/1 48/2/1 47/2/1
f 52/1/1 49/1/1 48/1/1
f 52/2/1 48/2/1 51/2/1
f 53/2/1 50/2/1 49/2/1
f 53/1/1 49/1/1 52/1/1
f 54/2/1 50/2/1 53/2/1
f 55/2/1 53/2/1 52/2/1
f 56/2/1 53/2/1 55/2/1
f 61/5/1 58/5/1 57/5/1
f 62/5/1 58/5/1 61/5/1
f 64/5/1 63/5/1 62/5/1
f 65/5/1 63/5/1 64/5/1
f 67/5/1 66/5/1 65/5/1
f 68/5/1 66/5/1 67/5/1
f 70/5/1 60/5/1 59/5/1
f 71/5/1 60/5/1 70/5/1
f 73/4/1 70/4/1 69/4/1
f 74/4/1 70/4/1 73/4/1
f 75/4/1 72/4/1 71/4/1
f 76/4/1 72/4/1 75/4/1
f 81/2/1 78/2/1 77/2/1
f 82/2/1 78/2/1 81/2/1
f 83/2/1 80/2/1 79/2/1
f 84/2/1 80/2/1 83/2/1
f 87/3/1 86/3/1 85/3/1
f 88/3/1 86/3/1 87/3/1
f 91/4/1 90/4/1 89/4/1
f 92/4/1 90/4/1 91/4/1
f 95/4/1 94/4/1 93/4/1
f 96/4/1 94/4/1 95/4/1
f 97/5/1 96/5/1 95/5/1
f 98/5/1 96/5/1 97/5/1
f 101/5/1 100/5/1 99/5/1
f 102/5/1 100/5/1 101/5/1
f 103/4/2 104/4/2 105/4/2
f 105/4/2 104/4/2 106/4/2
f 107/5/2 108/5/2 109/5/2
f 109/5/2 108/5/2 110/5/2
f 111/4/2 112/4/2 113/4/2
f 113/4/2 112/4/2 114/4/2
f 113/5/2 114/5/2 115/5/2
f 115/5/2 114/5/2 116/5/2
f 117/4/2 118/4/2 120/4/2
f 118/4/2 119/4/2 120/4/2
f 120/4/2 119/4/2 121/4/2
f 117/4/2 120/4/2 122/4/2
f 122/4/2 120/4/2 123/4/2
f 124/4/2 125/4/2 130/4/2
f 130/4/2 125/4/2 131/4/2
f 126/3/2 127/3/2 132/3/2
f 132/3/2 127/3/2 133/3/2
f 128/5/2 129/5/2 135/5/2
f 129/4/2 130/4/2 136/4/2
f 135/5/2 129/5/2 136/5/2
f 136/4/2 130/4/2 137/4/2
f 134/5/2 135/5/2 138/5/2
f 135/5/2 136/5/2 138/5/2
f 136/5/2 137/5/2 138/5/2
f 138/5/2 137/5/2 139/5/2
f 139/5/2 137/5/2 140/5/2
f 140/5/2 137/5/2 141/5/2
f 139/5/2 140/5/2 142/5/2
f 142/5/2 140/5/2 143/5/2
f 144/5/2 145/5/2 148/5/2
f 148/5/2 145/5/2 149/5/2
f 146/5/2 147/5/2 151/5/2
f 149/5/2 150/5/2 152/5/2
f 152/5/2 150/5/2 153/5/2
f 153/5/2 154/5/2 155/5/2
f 155/5/2 154/5/2 156/5/2
f 151/5/2 147/5/2 158/5/2
f 158/5/2 147/5/2 159/5/2
f 157/4/2 158/4/2 161/4/2
f 161/4/2 158/4/2 162/4/2
f 159/4/2 160/4/2 163/4/2
f 163/4/2 160/4/2 164/4/2
f 165/2/2 166/2/2 169/2/2
f 169/2/2 166/2/2 170/2/2
f 167/2/2 168/2/2 171/2/2
f 171/2/2 168/2/2 172/2/2
f 173/3/2 174/3/2 175/3/2
f 175/3/2 174/3/2 176/3/2
f 173/3/2 175/3/2 177/3/2
f 177/3/2 175/3/2 178/3/2
f 179/4/2 180/4/2 182/4/2
f 182/4/2 180/4/2 183/4/2
f 181/1/2 182/1/2 185/1/2
f 182/2/2 183/2/2 186/2/2
f 185/1/2 182/1/2 186/1/2
f 183/1/2 184/1/2 187/1/2
f 186/2/2 183/2/2 187/2/2
f 187/1/2 184/1/2 188/1/2
f 185/2/2 186/2/2 189/2/2
f 186/1/2 187/1/2 190/1/2
f 189/2/2 186/2/2 190/2/2
f 187/2/2 188/2/2 191/2/2
f 190/1/2 187/1/2 191/1/2
f 191/2/2 188/2/2 192/2/2
f 190/2/2 191/2/2 193/2/2
f 193/2/2 191/2/2 194/2/2
f 195/4/2 196/4/2 197/4/2
f 197/4/2 196/4/2 198/4/2
f 199/5/2 200/5/2 201/5/2
f 201/5/2 200/5/2 202/5/2
f 203/5/2 204/5/2 205/5/2
f 205/5/2 204/5/2 206/5/2
f 209/5/3 208/5/3 207/5/3
f 210/5/3 208/5/3 209/5/3
f 215/5/3 212/5/3 211/5/3
f 216/5/3 212/5/3 215/5/3
f 217/5/3 214/5/3 213/5/3
f 218/5/3 214/5/3 217/5/3
f 221/4/3 220/4/3 219/4/3
f 222/4/3 220/4/3 221/4/3
f 225/4/3 224/4/3 223/4/3
f 226/4/3 224/4/3 225/4/3
f 229/5/3 228/5/3 227/5/3
f 230/5/3 228/5/3 229/5/3
f 232/5/3 228/5/3 230/5/3
f 233/5/3 228/5/3 232/5/3
f 234/5/3 228/5/3 233/5/3
f 236/4/3 232/4/3 231/4/3
f 237/4/3 232/4/3 236/4/3
f 238/5/3 233/5/3 232/5/3
f 238/4/3 232/4/3 237/4/3
f 239/5/3 233/5/3 238/5/3
f 240/4/3 237/4/3 236/4/3
f 240/4/3 236/4/3 235/4/3
f 241/4/3 237/4/3 240/4/3
f 246/1/3 243/1/3 242/1/3
f 247/2/3 244/2/3 243/2/3
f 247/1/3 243/1/3 246/1/3
f 248/2/3 244/2/3 247/2/3
f 252/4/3 246/4/3 245/4/3
f 253/2/3 247/2/3 246/2/3
f 253/4/3 246/4/3 252/4/3
f 254/1/3 248/1/3 247/1/3
f 254/2/3 247/2/3 253/2/3
f 255/2/3 249/2/3 248/2/3
f 255/1/3 248/1/3 254/1/3
f 256/2/3 249/2/3 255/2/3
f 257/3/3 251/3/3 250/3/3
f 258/3/3 251/3/3 257/3/3
f 259/1/3 254/1/3 253/1/3
f 260/2/3 255/2/3 254/2/3
f 260/1/3 254/1/3 259/1/3
f 261/2/3 255/2/3 260/2/3
f 264/4/3 263/4/3 262/4/3
f 265/4/3 263/4/3 264/4/3
f 270/3/3 265/3/3 264/3/3
f 271/3/3 265/3/3 270/3/3
f 272/4/3 267/4/3 266/4/3
f 273/4/3 267/4/3 272/4/3
f 274/2/3 269/2/3 268/2/3
f 275/2/3 269/2/3 274/2/3
f 276/5/3 271/5/3 270/5/3
f 276/5/3 272/5/3 271/5/3
f 277/5/3 272/5/3 276/5/3
f 278/5/3 272/5/3 277/5/3
f 282/4/3 279/4/3 278/4/3
f 283/4/3 279/4/3 282/4/3
f 284/2/3 281/2/3 280/2/3
f 285/2/3 281/2/3 284/2/3
f 288/3/3 287/3/3 286/3/3
f 289/3/3 287/3/3 288/3/3
f 292/4/3 291/4/3 290/4/3
f 293/4/3 291/4/3 292/4/3
f 296/4/3 294/4/3 293/4/3
f 297/5/3 295/5/3 294/5/3
f 297/4/3 294/4/3 296/4/3
f 298/5/3 295/5/3 297/5/3
f 300/5/3 297/5/3 296/5/3
f 300/5/3 299/5/3 298/5/3
f 300/5/3 298/5/3 297/5/3
f 301/5/3 299/5/3 300/5/3
f 302/5/3 299/5/3 301/5/3
f 303/5/3 299/5/3 302/5/3
f 306/5/3 305/5/3 304/5/3
f 307/5/3 305/5/3 306/5/3
f 310/5/3 309/5/3 308/5/3
f 311/5/3 309/5/3 310/5/3
f 314/5/3 313/5/3 312/5/3
f 315/5/3 313/5/3 314/5/3
f 316/5/4 317/5/4 318/5/4
f 318/5/4 317/5/4 319/5/4
f 320/4/4 321/4/4 323/4/4
f 321/5/4 322/5/4 324/5/4
f 323/4/4 321/4/4 324/4/4
f 324/5/4 322/5/4 325/5/4
f 326/4/4 327/4/4 328/4/4
f 328/4/4 327/4/4 329/4/4
f 330/4/4 331/4/4 332/4/4
f 332/4/4 331/4/4 333/4/4
f 334/5/4 335/5/4 336/5/4
f 336/5/4 335/5/4 337/5/4
f 336/4/4 337/4/4 339/4/4
f 337/5/4 335/5/4 340/5/4
f 340/5/4 335/5/4 341/5/4
f 338/4/4 339/4/4 342/4/4
f 339/4/4 337/4/4 343/4/4
f 342/4/4 339/4/4 343/4/4
f 337/5/4 340/5/4 344/5/4
f 343/4/4 337/4/4 344/4/4
f 344/5/4 340/5/4 345/5/4
f 342/4/4 343/4/4 346/4/4
f 346/4/4 343/4/4 347/4/4
f 348/3/4 349/3/4 350/3/4
f 350/3/4 349/3/4 351/3/4
f 352/4/4 353/4/4 354/4/4
f 354/4/4 353/4/4 355/4/4
f 355/4/4 353/4/4 356/4/4
f 354/3/4 355/3/4 361/3/4
f 361/3/4 355/3/4 362/3/4
f 357/4/4 358/4/4 363/4/4
f 363/4/4 358/4/4 364/4/4
f 359/2/4 360/2/4 365/2/4
f 365/2/4 360/2/4 366/2/4
f 361/5/4 362/5/4 367/5/4
f 362/5/4 363/5/4 367/5/4
f 367/5/4 363/5/4 368/5/4
f 368/5/4 363/5/4 369/5/4
f 367/3/4 368/3/4 373/3/4
f 373/3/4 368/3/4 374/3/4
f 369/4/4 370/4/4 375/4/4
f 375/4/4 370/4/4 376/4/4
f 371/2/4 372/2/4 377/2/4
f 377/2/4 372/2/4 378/2/4
f 379/1/4 380/1/4 383/1/4
f 380/2/4 381/2/4 384/2/4
f 383/1/4 380/1/4 384/1/4
f 384/2/4 381/2/4 385/2/4
f 382/4/4 383/4/4 387/4/4
f 383/2/4 384/2/4 388/2/4
f 387/4/4 383/4/4 388/4/4
f 384/1/4 385/1/4 389/1/4
f 388/2/4 384/2/4 389/2/4
f 385/2/4 386/2/4 390/2/4
f 389/1/4 385/1/4 390/1/4
f 390/2/4 386/2/4 391/2/4
f 388/1/4 389/1/4 392/1/4
f 389/2/4 390/2/4 393/2/4
f 392/1/4 389/1/4 393/1/4
f 393/2/4 390/2/4 394/2/4
f 395/3/4 396/3/4 397/3/4
f 397/3/4 396/3/4 398/3/4
f 399/4/4 400/4/4 401/4/4
f 401/4/4 400/4/4 402/4/4
f 402/4/4 403/4/4 405/4/4
f 403/5/4 404/5/4 406/5/4
f 405/4/4 403/4/4 406/4/4
f 406/5/4 404/5/4 407/5/4
f 405/5/4 406/5/4 409/5/4
f 407/5/4 408/5/4 409/5/4
f 406/5/4 407/5/4 409/5/4
f 409/5/4 408/5/4 410/5/4
f 410/5/4 408/5/4 411/5/4
f 411/5/4 408/5/4 412/5/4
f 413/5/4 414/5/4 415/5/4
f 415/5/4 414/5/4 416/5/4
f 417/5/4 418/5/4 419/5/4
f 419/5/4 418/5/4 420/5/4
f 421/5/4 422/5/4 423/5/4
f 423/5/4 422/5/4 424/5/4
f 427/4/5 426/4/5 425/4/5
f 428/4/5 426/4/5 427/4/5
f 434/3/5 430/3/5 429/3/5
f 435/4/5 432/4/5 431/4/5
f 436/3/5 433/3/5 432/3/5
f 436/4/5 432/4/5 435/4/5
f 437/5/5 434/5/5 433/5/5
f 437/3/5 433/3/5 436/3/5
f 438/3/5 430/3/5 434/3/5
f 438/5/5 434/5/5 437/5/5
f 439/3/5 430/3/5 438/3/5
f 444/3/5 441/3/5 440/3/5
f 445/3/5 441/3/5 444/3/5
f 447/4/5 443/4/5 442/4/5
f 448/4/5 443/4/5 447/4/5
f 449/5/5 446/5/5 445/5/5
f 450/5/5 446/5/5 449/5/5
f 453/5/5 452/5/5 451/5/5
f 454/5/5 452/5/5 453/5/5
f 455/4/5 454/4/5 453/4/5
f 456/4/5 454/4/5 455/4/5
f 459/4/5 458/4/5 457/4/5
f 460/4/5 458/4/5 459/4/5
f 464/4/5 462/4/5 461/4/5
f 465/5/5 463/5/5 462/5/5
f 465/4/5 462/4/5 464/4/5
f 466/5/5 463/5/5 465/5/5
f 469/5/5 468/5/5 467/5/5
f 470/5/5 468/5/5 469/5/5
f 473/5/5 472/5/5 471/5/5
f 474/5/5 472/5/5 473/5/5
f 477/4/5 476/4/5 475/4/5
f 478/4/5 476/4/5 477/4/5
f 480/4/5 479/4/5 478/4/5
f 481/4/5 479/4/5 480/4/5
f 484/5/5 483/5/5 482/5/5
f 485/5/5 483/5/5 484/5/5
f 488/5/5 487/5/5 486/5/5
f 489/5/5 487/5/5 488/5/5
f 493/5/5 491/5/5 490/5/5
f 494/4/5 492/4/5 491/4/5
f 494/5/5 491/5/5 493/5/5
f 495/4/5 492/4/5 494/4/5
f 499/4/5 497/4/5 496/4/5
f 500/4/5 497/4/5 499/4/5
f 502/4/5 499/4/5 498/4/5
f 503/4/5 499/4/5 502/4/5
f 504/4/5 501/4/5 500/4/5
f 505/4/5 501/4/5 504/4/5
f 506/4/5 504/4/5 503/4/5
f 507/4/5 504/4/5 506/4/5
f 512/1/5 509/1/5 508/1/5
f 513/1/5 509/1/5 512/1/5
f 514/1/5 511/1/5 510/1/5
f 515/1/5 511/1/5 514/1/5
f 520/1/5 517/1/5 516/1/5
f 521/1/5 517/1/5 520/1/5
f 522/1/5 519/1/5 518/1/5
f 523/1/5 519/1/5 522/1/5
f 524/4/6 525/4/6 526/4/6
f 526/4/6 525/4/6 527/4/6
f 528/3/6 529/3/6 532/3/6
f 532/3/6 529/3/6 533/3/6
f 530/3/6 531/3/6 534/3/6
f 534/3/6 531/3/6 535/3/6
f 536/3/6 537/3/6 540/3/6
f 540/3/6 537/3/6 541/3/6
f 538/4/6 539/4/6 543/4/6
f 543/4/6 539/4/6 544/4/6
f 541/5/6 542/5/6 545/5/6
f 545/5/6 542/5/6 546/5/6
f 547/3/6 548/3/6 551/3/6
f 551/3/6 548/3/6 552/3/6
f 549/4/6 550/4/6 553/4/6
f 553/4/6 550/4/6 554/4/6
f 555/5/6 556/5/6 557/5/6
f 557/5/6 556/5/6 558/5/6
f 559/5/6 560/5/6 561/5/6
f 561/5/6 560/5/6 562/5/6
f 563/5/6 564/5/6 565/5/6
f 565/5/6 564/5/6 566/5/6
f 567/4/6 568/4/6 569/4/6
f 569/4/6 568/4/6 570/4/6
f 571/5/6 572/5/6 573/5/6
f 573/5/6 572/5/6 574/5/6
f 575/5/6 576/5/6 577/5/6
f 577/5/6 576/5/6 578/5/6
f 579/5/6 580/5/6 581/5/6
f 581/5/6 580/5/6 582/5/6
f 583/4/6 584/4/6 585/4/6
f 585/4/6 584/4/6 586/4/6
f 587/5/6 588/5/6 589/5/6
f 589/5/6 588/5/6 590/5/6
f 591/5/6 592/5/6 593/5/6
f 593/5/6 592/5/6 594/5/6
f 595/5/6 596/5/6 597/5/6
f 597/5/6 596/5/6 598/5/6
f 599/2/6 600/2/6 603/2/6
f 603/2/6 600/2/6 604/2/6
f 601/2/6 602/2/6 605/2/6
f 605/2/6 602/2/6 606/2/6
f 607/2/6 608/2/6 611/2/6
f 611/2/6 608/2/6 612/2/6
f 609/2/6 610/2/6 613/2/6
f 613/2/6 610/2/6 614/2/6
f 615/2/6 616/2/6 618/2/6
f 618/2/6 616/2/6 619/2/6
f 617/2/6 618/2/6 621/2/6
f 618/1/6 619/1/6 622/1/6
f 621/2/6 618/2/6 622/2/6
f 619/2/6 620/2/6 623/2/6
f 622/1/6 619/1/6 623/1/6
f 623/2/6 620/2/6 624/2/6
f 622/2/6 623/2/6 625/2/6
f 625/2/6 623/2/6 626/2/6
