# MagicaVoxel @ Ephtracy

# material
mtllib Body 12.mtl
usemtl palette

# normals
vn -1 0 0
vn 1 0 0
vn 0 0 1
vn 0 0 -1
vn 0 -1 0
vn 0 1 0

# texcoords
vt 0.0136719 0.5
vt 0.0371094 0.5
vt 0.638672 0.5
vt 0.958984 0.5
vt 0.962891 0.5

# verts
v -5 3 2.5
v -5 3 1.5
v -5 4 2.5
v -5 4 1.5
v -4 4 1.5
v -4 4 0.5
v -4 5 1.5
v -4 5 0.5
v -3 0 2.5
v -3 0 -2.5
v -3 3 2.5
v -3 3 1.5
v -3 3 -1.5
v -3 3 -2.5
v -3 4 1.5
v -3 4 0.5
v -3 4 -1.5
v -3 5 0.5
v -3 5 -0.5
v -3 6 0.5
v -3 6 -0.5
v -2 3 2.5
v -2 3 1.5
v -2 3 -1.5
v -2 3 -2.5
v -2 4 2.5
v -2 4 1.5
v -2 4 0.5
v -2 4 -1.5
v -2 4 -2.5
v -2 5 1.5
v -2 5 0.5
v -2 5 -0.5
v -2 5 -1.5
v -2 6 0.5
v -2 6 -0.5
v -2 7 1.5
v -2 7 -1.5
v 1 0 0.5
v 1 0 -0.5
v 1 1 0.5
v 1 1 -0.5
v 1 2 0.5
v 1 2 -0.5
v 3 4 1.5
v 3 4 0.5
v 3 5 1.5
v 3 5 0.5
v 4 3 2.5
v 4 3 1.5
v 4 4 2.5
v 4 4 1.5
v -4 3 2.5
v -4 3 1.5
v -4 4 2.5
v -4 4 1.5
v -3 4 1.5
v -3 4 0.5
v -3 5 1.5
v -3 5 0.5
v -1 0 0.5
v -1 0 -0.5
v -1 1 0.5
v -1 1 -0.5
v -1 2 0.5
v -1 2 -0.5
v 2 3 2.5
v 2 3 1.5
v 2 3 -1.5
v 2 3 -2.5
v 2 4 2.5
v 2 4 1.5
v 2 4 -1.5
v 2 4 -2.5
v 2 5 1.5
v 2 5 0.5
v 2 5 -0.5
v 2 5 -1.5
v 2 6 0.5
v 2 6 -0.5
v 2 7 1.5
v 2 7 -1.5
v 3 0 2.5
v 3 0 -2.5
v 3 3 2.5
v 3 3 1.5
v 3 3 -1.5
v 3 3 -2.5
v 3 4 1.5
v 3 4 0.5
v 3 4 -1.5
v 3 5 0.5
v 3 5 -0.5
v 3 6 0.5
v 3 6 -0.5
v 4 4 1.5
v 4 4 0.5
v 4 5 1.5
v 4 5 0.5
v 5 3 2.5
v 5 3 1.5
v 5 4 2.5
v 5 4 1.5
v -5 3 2.5
v -5 4 2.5
v -4 3 2.5
v -4 4 2.5
v -3 0 2.5
v -3 3 2.5
v -2 3 2.5
v -2 4 2.5
v 2 3 2.5
v 2 4 2.5
v 3 0 2.5
v 3 3 2.5
v 4 3 2.5
v 4 4 2.5
v 5 3 2.5
v 5 4 2.5
v -4 4 1.5
v -4 5 1.5
v -3 3 1.5
v -3 4 1.5
v -3 5 1.5
v -2 3 1.5
v -2 4 1.5
v -2 5 1.5
v -2 7 1.5
v -1 5 1.5
v -1 7 1.5
v 0 4 1.5
v 0 7 1.5
v 1 5 1.5
v 1 7 1.5
v 2 3 1.5
v 2 4 1.5
v 2 5 1.5
v 2 7 1.5
v 3 3 1.5
v 3 4 1.5
v 3 5 1.5
v 4 4 1.5
v 4 5 1.5
v -3 5 0.5
v -3 6 0.5
v -2 5 0.5
v -2 6 0.5
v 2 5 0.5
v 2 6 0.5
v 3 5 0.5
v 3 6 0.5
v -1 0 -0.5
v -1 1 -0.5
v -1 2 -0.5
v 1 0 -0.5
v 1 1 -0.5
v 1 2 -0.5
v -5 3 1.5
v -5 4 1.5
v -4 3 1.5
v -4 4 1.5
v 4 3 1.5
v 4 4 1.5
v 5 3 1.5
v 5 4 1.5
v -4 4 0.5
v -4 5 0.5
v -3 4 0.5
v -3 5 0.5
v -1 0 0.5
v -1 1 0.5
v -1 2 0.5
v 1 0 0.5
v 1 1 0.5
v 1 2 0.5
v 3 4 0.5
v 3 5 0.5
v 4 4 0.5
v 4 5 0.5
v -3 5 -0.5
v -3 6 -0.5
v -2 5 -0.5
v -2 6 -0.5
v 2 5 -0.5
v 2 6 -0.5
v 3 5 -0.5
v 3 6 -0.5
v -3 3 -1.5
v -3 4 -1.5
v -2 3 -1.5
v -2 4 -1.5
v -2 5 -1.5
v -2 7 -1.5
v 2 3 -1.5
v 2 4 -1.5
v 2 5 -1.5
v 2 7 -1.5
v 3 3 -1.5
v 3 4 -1.5
v -3 0 -2.5
v -3 3 -2.5
v -2 3 -2.5
v -2 4 -2.5
v 2 3 -2.5
v 2 4 -2.5
v 3 0 -2.5
v 3 3 -2.5
v -3 0 2.5
v 3 0 2.5
v -2 0 0.5
v -1 0 0.5
v 1 0 0.5
v 2 0 0.5
v -2 0 -0.5
v -1 0 -0.5
v 1 0 -0.5
v 2 0 -0.5
v -3 0 -2.5
v 3 0 -2.5
v -1 2 0.5
v 1 2 0.5
v -1 2 -0.5
v 1 2 -0.5
v -5 3 2.5
v -4 3 2.5
v 4 3 2.5
v 5 3 2.5
v -5 3 1.5
v -4 3 1.5
v 4 3 1.5
v 5 3 1.5
v -4 4 1.5
v -3 4 1.5
v 3 4 1.5
v 4 4 1.5
v -4 4 0.5
v -3 4 0.5
v 3 4 0.5
v 4 4 0.5
v -3 5 0.5
v -2 5 0.5
v 2 5 0.5
v 3 5 0.5
v -3 5 -0.5
v -2 5 -0.5
v 2 5 -0.5
v 3 5 -0.5
v -3 3 2.5
v -2 3 2.5
v 2 3 2.5
v 3 3 2.5
v -3 3 1.5
v -2 3 1.5
v 2 3 1.5
v 3 3 1.5
v -3 3 -1.5
v -2 3 -1.5
v 2 3 -1.5
v 3 3 -1.5
v -3 3 -2.5
v -2 3 -2.5
v 2 3 -2.5
v 3 3 -2.5
v -5 4 2.5
v -4 4 2.5
v -2 4 2.5
v 2 4 2.5
v 4 4 2.5
v 5 4 2.5
v -5 4 1.5
v -4 4 1.5
v -3 4 1.5
v -2 4 1.5
v 0 4 1.5
v 2 4 1.5
v 3 4 1.5
v 4 4 1.5
v 5 4 1.5
v -3 4 0.5
v -2 4 0.5
v 3 4 0.5
v -3 4 -1.5
v -2 4 -1.5
v 2 4 -1.5
v 3 4 -1.5
v -2 4 -2.5
v 2 4 -2.5
v -4 5 1.5
v -3 5 1.5
v 3 5 1.5
v 4 5 1.5
v -4 5 0.5
v -3 5 0.5
v 3 5 0.5
v 4 5 0.5
v -3 6 0.5
v -2 6 0.5
v 2 6 0.5
v 3 6 0.5
v -3 6 -0.5
v -2 6 -0.5
v 2 6 -0.5
v 3 6 -0.5
v -2 7 1.5
v -1 7 1.5
v 0 7 1.5
v 1 7 1.5
v 2 7 1.5
v -1 7 0.5
v 0 7 0.5
v 1 7 0.5
v -2 7 -1.5
v 2 7 -1.5

# faces
f 3/2/1 2/2/1 1/2/1
f 4/2/1 2/2/1 3/2/1
f 7/2/1 6/2/1 5/2/1
f 8/2/1 6/2/1 7/2/1
f 11/1/1 10/1/1 9/1/1
f 12/1/1 10/1/1 11/1/1
f 13/1/1 10/1/1 12/1/1
f 14/1/1 10/1/1 13/1/1
f 15/1/1 13/1/1 12/1/1
f 16/1/1 13/1/1 15/1/1
f 17/1/1 13/1/1 16/1/1
f 20/1/1 19/1/1 18/1/1
f 21/1/1 19/1/1 20/1/1
f 26/1/1 23/1/1 22/1/1
f 27/1/1 23/1/1 26/1/1
f 29/1/1 25/1/1 24/1/1
f 30/1/1 25/1/1 29/1/1
f 31/5/1 28/5/1 27/5/1
f 32/4/1 29/4/1 28/4/1
f 32/5/1 28/5/1 31/5/1
f 33/4/1 29/4/1 32/4/1
f 34/4/1 29/4/1 33/4/1
f 35/1/1 32/1/1 31/1/1
f 36/1/1 34/1/1 33/1/1
f 37/1/1 35/1/1 31/1/1
f 37/1/1 36/1/1 35/1/1
f 38/1/1 34/1/1 36/1/1
f 38/1/1 36/1/1 37/1/1
f 41/3/1 40/3/1 39/3/1
f 42/3/1 40/3/1 41/3/1
f 43/5/1 42/5/1 41/5/1
f 44/5/1 42/5/1 43/5/1
f 47/2/1 46/2/1 45/2/1
f 48/2/1 46/2/1 47/2/1
f 51/2/1 50/2/1 49/2/1
f 52/2/1 50/2/1 51/2/1
f 53/2/2 54/2/2 55/2/2
f 55/2/2 54/2/2 56/2/2
f 57/2/2 58/2/2 59/2/2
f 59/2/2 58/2/2 60/2/2
f 61/3/2 62/3/2 63/3/2
f 63/3/2 62/3/2 64/3/2
f 63/5/2 64/5/2 65/5/2
f 65/5/2 64/5/2 66/5/2
f 67/1/2 68/1/2 71/1/2
f 71/1/2 68/1/2 72/1/2
f 69/1/2 70/1/2 73/1/2
f 73/1/2 70/1/2 74/1/2
f 72/4/2 73/4/2 75/4/2
f 75/4/2 73/4/2 76/4/2
f 76/4/2 73/4/2 77/4/2
f 77/4/2 73/4/2 78/4/2
f 75/1/2 76/1/2 79/1/2
f 77/1/2 78/1/2 80/1/2
f 75/1/2 79/1/2 81/1/2
f 79/1/2 80/1/2 81/1/2
f 80/1/2 78/1/2 82/1/2
f 81/1/2 80/1/2 82/1/2
f 83/1/2 84/1/2 85/1/2
f 85/1/2 84/1/2 86/1/2
f 86/1/2 84/1/2 87/1/2
f 87/1/2 84/1/2 88/1/2
f 86/1/2 87/1/2 89/1/2
f 89/1/2 87/1/2 90/1/2
f 90/1/2 87/1/2 91/1/2
f 92/1/2 93/1/2 94/1/2
f 94/1/2 93/1/2 95/1/2
f 96/2/2 97/2/2 98/2/2
f 98/2/2 97/2/2 99/2/2
f 100/2/2 101/2/2 102/2/2
f 102/2/2 101/2/2 103/2/2
f 106/2/3 105/2/3 104/2/3
f 107/2/3 105/2/3 106/2/3
f 110/1/3 109/1/3 108/1/3
f 112/1/3 110/1/3 108/1/3
f 112/1/3 111/1/3 110/1/3
f 113/1/3 111/1/3 112/1/3
f 114/1/3 112/1/3 108/1/3
f 115/1/3 112/1/3 114/1/3
f 118/2/3 117/2/3 116/2/3
f 119/2/3 117/2/3 118/2/3
f 123/2/3 121/2/3 120/2/3
f 124/2/3 121/2/3 123/2/3
f 125/1/3 123/1/3 122/1/3
f 126/1/3 123/1/3 125/1/3
f 129/5/3 127/5/3 126/5/3
f 129/1/3 128/1/3 127/1/3
f 130/1/3 128/1/3 129/1/3
f 131/5/3 129/5/3 126/5/3
f 131/5/3 130/5/3 129/5/3
f 132/5/3 130/5/3 131/5/3
f 133/4/3 132/4/3 131/4/3
f 134/4/3 132/4/3 133/4/3
f 136/4/3 133/4/3 131/4/3
f 137/1/3 134/1/3 133/1/3
f 137/4/3 133/4/3 136/4/3
f 138/1/3 134/1/3 137/1/3
f 139/1/3 136/1/3 135/1/3
f 140/1/3 136/1/3 139/1/3
f 142/2/3 141/2/3 140/2/3
f 143/2/3 141/2/3 142/2/3
f 146/1/3 145/1/3 144/1/3
f 147/1/3 145/1/3 146/1/3
f 150/1/3 149/1/3 148/1/3
f 151/1/3 149/1/3 150/1/3
f 155/1/3 153/1/3 152/1/3
f 155/1/3 154/1/3 153/1/3
f 156/1/3 154/1/3 155/1/3
f 157/1/3 154/1/3 156/1/3
f 158/2/4 159/2/4 160/2/4
f 160/2/4 159/2/4 161/2/4
f 162/2/4 163/2/4 164/2/4
f 164/2/4 163/2/4 165/2/4
f 166/2/4 167/2/4 168/2/4
f 168/2/4 167/2/4 169/2/4
f 170/1/4 171/1/4 173/1/4
f 171/1/4 172/1/4 173/1/4
f 173/1/4 172/1/4 174/1/4
f 174/1/4 172/1/4 175/1/4
f 176/2/4 177/2/4 178/2/4
f 178/2/4 177/2/4 179/2/4
f 180/1/4 181/1/4 182/1/4
f 182/1/4 181/1/4 183/1/4
f 184/1/4 185/1/4 186/1/4
f 186/1/4 185/1/4 187/1/4
f 188/1/4 189/1/4 190/1/4
f 190/1/4 189/1/4 191/1/4
f 191/4/4 192/4/4 195/4/4
f 192/1/4 193/1/4 196/1/4
f 195/4/4 192/4/4 196/4/4
f 196/1/4 193/1/4 197/1/4
f 194/1/4 195/1/4 198/1/4
f 198/1/4 195/1/4 199/1/4
f 200/1/4 201/1/4 202/1/4
f 200/1/4 202/1/4 204/1/4
f 202/1/4 203/1/4 204/1/4
f 204/1/4 203/1/4 205/1/4
f 200/1/4 204/1/4 206/1/4
f 206/1/4 204/1/4 207/1/4
f 210/1/5 209/1/5 208/1/5
f 211/1/5 209/1/5 210/1/5
f 212/1/5 209/1/5 211/1/5
f 213/1/5 209/1/5 212/1/5
f 214/1/5 210/1/5 208/1/5
f 214/3/5 211/3/5 210/3/5
f 215/3/5 211/3/5 214/3/5
f 216/3/5 213/3/5 212/3/5
f 217/1/5 209/1/5 213/1/5
f 217/3/5 213/3/5 216/3/5
f 218/1/5 216/1/5 215/1/5
f 218/1/5 215/1/5 214/1/5
f 218/1/5 217/1/5 216/1/5
f 218/1/5 214/1/5 208/1/5
f 219/1/5 209/1/5 217/1/5
f 219/1/5 217/1/5 218/1/5
f 222/1/5 221/1/5 220/1/5
f 223/1/5 221/1/5 222/1/5
f 228/2/5 225/2/5 224/2/5
f 229/2/5 225/2/5 228/2/5
f 230/2/5 227/2/5 226/2/5
f 231/2/5 227/2/5 230/2/5
f 236/2/5 233/2/5 232/2/5
f 237/2/5 233/2/5 236/2/5
f 238/2/5 235/2/5 234/2/5
f 239/2/5 235/2/5 238/2/5
f 244/1/5 241/1/5 240/1/5
f 245/1/5 241/1/5 244/1/5
f 246/1/5 243/1/5 242/1/5
f 247/1/5 243/1/5 246/1/5
f 248/1/6 249/1/6 252/1/6
f 252/1/6 249/1/6 253/1/6
f 250/1/6 251/1/6 254/1/6
f 254/1/6 251/1/6 255/1/6
f 256/1/6 257/1/6 260/1/6
f 260/1/6 257/1/6 261/1/6
f 258/1/6 259/1/6 262/1/6
f 262/1/6 259/1/6 263/1/6
f 264/2/6 265/2/6 270/2/6
f 270/2/6 265/2/6 271/2/6
f 266/1/6 267/1/6 273/1/6
f 273/1/6 267/1/6 274/1/6
f 274/1/6 267/1/6 275/1/6
f 268/2/6 269/2/6 277/2/6
f 277/2/6 269/2/6 278/2/6
f 272/1/6 273/1/6 279/1/6
f 279/1/6 273/1/6 280/1/6
f 275/1/6 276/1/6 281/1/6
f 279/1/6 280/1/6 282/1/6
f 282/1/6 280/1/6 283/1/6
f 275/1/6 281/1/6 284/1/6
f 284/1/6 281/1/6 285/1/6
f 283/1/6 284/1/6 286/1/6
f 286/1/6 284/1/6 287/1/6
f 288/2/6 289/2/6 292/2/6
f 292/2/6 289/2/6 293/2/6
f 290/2/6 291/2/6 294/2/6
f 294/2/6 291/2/6 295/2/6
f 296/1/6 297/1/6 300/1/6
f 300/1/6 297/1/6 301/1/6
f 298/1/6 299/1/6 302/1/6
f 302/1/6 299/1/6 303/1/6
f 304/1/6 305/1/6 309/1/6
f 305/5/6 306/5/6 309/5/6
f 306/4/6 307/4/6 310/4/6
f 309/5/6 306/5/6 310/5/6
f 307/1/6 308/1/6 311/1/6
f 310/4/6 307/4/6 311/4/6
f 309/1/6 310/1/6 312/1/6
f 304/1/6 309/1/6 312/1/6
f 310/1/6 311/1/6 312/1/6
f 311/1/6 308/1/6 313/1/6
f 312/1/6 311/1/6 313/1/6
