# MagicaVoxel @ Ephtracy

# material
mtllib Body 13.mtl
usemtl palette

# normals
vn -1 0 0
vn 1 0 0
vn 0 0 1
vn 0 0 -1
vn 0 -1 0
vn 0 1 0

# texcoords
vt 0.0136719 0.5
vt 0.0371094 0.5
vt 0.638672 0.5
vt 0.962891 0.5
vt 0.974609 0.5
vt 0.978516 0.5

# verts
v -5 3 2.5
v -5 3 1.5
v -5 4 2.5
v -5 4 1.5
v -4 4 1.5
v -4 4 0.5
v -4 5 1.5
v -4 5 0.5
v -3 0 2.5
v -3 0 -2.5
v -3 3 2.5
v -3 3 1.5
v -3 3 -1.5
v -3 3 -2.5
v -3 4 1.5
v -3 4 0.5
v -3 4 -1.5
v -3 5 0.5
v -3 5 -0.5
v -3 6 0.5
v -3 6 -0.5
v -2 3 2.5
v -2 3 1.5
v -2 3 -1.5
v -2 3 -2.5
v -2 4 2.5
v -2 4 1.5
v -2 4 -1.5
v -2 4 -2.5
v -2 5 0.5
v -2 5 -0.5
v -2 6 0.5
v -2 6 -0.5
v -2 7 1.5
v -2 7 -1.5
v 1 0 0.5
v 1 0 -0.5
v 1 1 0.5
v 1 1 -0.5
v 1 2 0.5
v 1 2 -0.5
v 3 4 1.5
v 3 4 0.5
v 3 5 1.5
v 3 5 0.5
v 4 3 2.5
v 4 3 1.5
v 4 4 2.5
v 4 4 1.5
v -4 3 2.5
v -4 3 1.5
v -4 4 2.5
v -4 4 1.5
v -3 4 1.5
v -3 4 0.5
v -3 5 1.5
v -3 5 0.5
v -1 0 0.5
v -1 0 -0.5
v -1 1 0.5
v -1 1 -0.5
v -1 2 0.5
v -1 2 -0.5
v 2 3 2.5
v 2 3 1.5
v 2 3 -1.5
v 2 3 -2.5
v 2 4 2.5
v 2 4 1.5
v 2 4 0.5
v 2 4 -1.5
v 2 4 -2.5
v 2 5 0.5
v 2 5 -0.5
v 2 6 0.5
v 2 6 -0.5
v 2 7 1.5
v 2 7 0.5
v 2 7 -1.5
v 3 0 2.5
v 3 0 -2.5
v 3 3 2.5
v 3 3 1.5
v 3 3 -1.5
v 3 3 -2.5
v 3 4 1.5
v 3 4 0.5
v 3 4 -1.5
v 3 5 0.5
v 3 5 -0.5
v 3 6 0.5
v 3 6 -0.5
v 4 4 1.5
v 4 4 0.5
v 4 5 1.5
v 4 5 0.5
v 5 3 2.5
v 5 3 1.5
v 5 4 2.5
v 5 4 1.5
v -5 3 2.5
v -5 4 2.5
v -4 3 2.5
v -4 4 2.5
v -3 0 2.5
v -3 3 2.5
v -2 3 2.5
v -2 4 2.5
v 2 3 2.5
v 2 4 2.5
v 3 0 2.5
v 3 3 2.5
v 4 3 2.5
v 4 4 2.5
v 5 3 2.5
v 5 4 2.5
v -4 4 1.5
v -4 5 1.5
v -3 3 1.5
v -3 4 1.5
v -3 5 1.5
v -2 3 1.5
v -2 4 1.5
v -2 7 1.5
v 0 4 1.5
v 0 7 1.5
v 2 3 1.5
v 2 4 1.5
v 2 7 1.5
v 3 3 1.5
v 3 4 1.5
v 3 5 1.5
v 4 4 1.5
v 4 5 1.5
v -3 5 0.5
v -3 6 0.5
v -2 5 0.5
v -2 6 0.5
v 2 5 0.5
v 2 6 0.5
v 3 5 0.5
v 3 6 0.5
v -1 0 -0.5
v -1 1 -0.5
v -1 2 -0.5
v 1 0 -0.5
v 1 1 -0.5
v 1 2 -0.5
v -5 3 1.5
v -5 4 1.5
v -4 3 1.5
v -4 4 1.5
v 4 3 1.5
v 4 4 1.5
v 5 3 1.5
v 5 4 1.5
v -4 4 0.5
v -4 5 0.5
v -3 4 0.5
v -3 5 0.5
v -1 0 0.5
v -1 1 0.5
v -1 2 0.5
v 1 0 0.5
v 1 1 0.5
v 1 2 0.5
v 3 4 0.5
v 3 5 0.5
v 4 4 0.5
v 4 5 0.5
v -3 5 -0.5
v -3 6 -0.5
v -2 5 -0.5
v -2 6 -0.5
v 2 5 -0.5
v 2 6 -0.5
v 3 5 -0.5
v 3 6 -0.5
v -3 3 -1.5
v -3 4 -1.5
v -2 3 -1.5
v -2 4 -1.5
v -2 7 -1.5
v 2 3 -1.5
v 2 4 -1.5
v 2 7 -1.5
v 3 3 -1.5
v 3 4 -1.5
v -3 0 -2.5
v -3 3 -2.5
v -2 3 -2.5
v -2 4 -2.5
v 2 3 -2.5
v 2 4 -2.5
v 3 0 -2.5
v 3 3 -2.5
v -3 0 2.5
v 3 0 2.5
v -2 0 0.5
v -1 0 0.5
v 1 0 0.5
v 2 0 0.5
v -2 0 -0.5
v -1 0 -0.5
v 1 0 -0.5
v 2 0 -0.5
v -3 0 -2.5
v 3 0 -2.5
v -1 2 0.5
v 1 2 0.5
v -1 2 -0.5
v 1 2 -0.5
v -5 3 2.5
v -4 3 2.5
v 4 3 2.5
v 5 3 2.5
v -5 3 1.5
v -4 3 1.5
v 4 3 1.5
v 5 3 1.5
v -4 4 1.5
v -3 4 1.5
v 3 4 1.5
v 4 4 1.5
v -4 4 0.5
v -3 4 0.5
v 3 4 0.5
v 4 4 0.5
v -3 5 0.5
v -2 5 0.5
v 2 5 0.5
v 3 5 0.5
v -3 5 -0.5
v -2 5 -0.5
v 2 5 -0.5
v 3 5 -0.5
v -3 3 2.5
v -2 3 2.5
v 2 3 2.5
v 3 3 2.5
v -3 3 1.5
v -2 3 1.5
v 2 3 1.5
v 3 3 1.5
v -3 3 -1.5
v -2 3 -1.5
v 2 3 -1.5
v 3 3 -1.5
v -3 3 -2.5
v -2 3 -2.5
v 2 3 -2.5
v 3 3 -2.5
v -5 4 2.5
v -4 4 2.5
v -2 4 2.5
v 2 4 2.5
v 4 4 2.5
v 5 4 2.5
v -5 4 1.5
v -4 4 1.5
v -3 4 1.5
v -2 4 1.5
v 0 4 1.5
v 2 4 1.5
v 3 4 1.5
v 4 4 1.5
v 5 4 1.5
v -3 4 0.5
v 2 4 0.5
v 3 4 0.5
v -3 4 -1.5
v -2 4 -1.5
v 2 4 -1.5
v 3 4 -1.5
v -2 4 -2.5
v 2 4 -2.5
v -4 5 1.5
v -3 5 1.5
v 3 5 1.5
v 4 5 1.5
v -4 5 0.5
v -3 5 0.5
v 3 5 0.5
v 4 5 0.5
v -3 6 0.5
v -2 6 0.5
v 2 6 0.5
v 3 6 0.5
v -3 6 -0.5
v -2 6 -0.5
v 2 6 -0.5
v 3 6 -0.5
v -2 7 1.5
v 0 7 1.5
v 2 7 1.5
v 0 7 0.5
v 2 7 0.5
v -2 7 -1.5
v 2 7 -1.5

# faces
f 3/2/1 2/2/1 1/2/1
f 4/2/1 2/2/1 3/2/1
f 7/2/1 6/2/1 5/2/1
f 8/2/1 6/2/1 7/2/1
f 11/1/1 10/1/1 9/1/1
f 12/1/1 10/1/1 11/1/1
f 13/1/1 10/1/1 12/1/1
f 14/1/1 10/1/1 13/1/1
f 15/1/1 13/1/1 12/1/1
f 16/1/1 13/1/1 15/1/1
f 17/1/1 13/1/1 16/1/1
f 20/1/1 19/1/1 18/1/1
f 21/1/1 19/1/1 20/1/1
f 26/1/1 23/1/1 22/1/1
f 27/1/1 23/1/1 26/1/1
f 28/1/1 25/1/1 24/1/1
f 29/1/1 25/1/1 28/1/1
f 30/6/1 28/6/1 27/6/1
f 31/6/1 28/6/1 30/6/1
f 32/6/1 30/6/1 27/6/1
f 33/6/1 28/6/1 31/6/1
f 34/6/1 32/6/1 27/6/1
f 34/6/1 33/6/1 32/6/1
f 35/6/1 28/6/1 33/6/1
f 35/6/1 33/6/1 34/6/1
f 38/3/1 37/3/1 36/3/1
f 39/3/1 37/3/1 38/3/1
f 40/4/1 39/4/1 38/4/1
f 41/4/1 39/4/1 40/4/1
f 44/2/1 43/2/1 42/2/1
f 45/2/1 43/2/1 44/2/1
f 48/2/1 47/2/1 46/2/1
f 49/2/1 47/2/1 48/2/1
f 50/2/2 51/2/2 52/2/2
f 52/2/2 51/2/2 53/2/2
f 54/2/2 55/2/2 56/2/2
f 56/2/2 55/2/2 57/2/2
f 58/3/2 59/3/2 60/3/2
f 60/3/2 59/3/2 61/3/2
f 60/4/2 61/4/2 62/4/2
f 62/4/2 61/4/2 63/4/2
f 64/1/2 65/1/2 68/1/2
f 68/1/2 65/1/2 69/1/2
f 66/1/2 67/1/2 71/1/2
f 71/1/2 67/1/2 72/1/2
f 69/5/2 70/5/2 73/5/2
f 70/6/2 71/6/2 73/6/2
f 73/6/2 71/6/2 74/6/2
f 69/5/2 73/5/2 75/5/2
f 74/6/2 71/6/2 76/6/2
f 69/5/2 75/5/2 77/5/2
f 75/6/2 76/6/2 78/6/2
f 77/5/2 75/5/2 78/5/2
f 76/6/2 71/6/2 79/6/2
f 78/6/2 76/6/2 79/6/2
f 80/1/2 81/1/2 82/1/2
f 82/1/2 81/1/2 83/1/2
f 83/1/2 81/1/2 84/1/2
f 84/1/2 81/1/2 85/1/2
f 83/1/2 84/1/2 86/1/2
f 86/1/2 84/1/2 87/1/2
f 87/1/2 84/1/2 88/1/2
f 89/1/2 90/1/2 91/1/2
f 91/1/2 90/1/2 92/1/2
f 93/2/2 94/2/2 95/2/2
f 95/2/2 94/2/2 96/2/2
f 97/2/2 98/2/2 99/2/2
f 99/2/2 98/2/2 100/2/2
f 103/2/3 102/2/3 101/2/3
f 104/2/3 102/2/3 103/2/3
f 107/1/3 106/1/3 105/1/3
f 109/1/3 107/1/3 105/1/3
f 109/1/3 108/1/3 107/1/3
f 110/1/3 108/1/3 109/1/3
f 111/1/3 109/1/3 105/1/3
f 112/1/3 109/1/3 111/1/3
f 115/2/3 114/2/3 113/2/3
f 116/2/3 114/2/3 115/2/3
f 120/2/3 118/2/3 117/2/3
f 121/2/3 118/2/3 120/2/3
f 122/1/3 120/1/3 119/1/3
f 123/1/3 120/1/3 122/1/3
f 125/6/3 124/6/3 123/6/3
f 126/6/3 124/6/3 125/6/3
f 128/5/3 126/5/3 125/5/3
f 129/5/3 126/5/3 128/5/3
f 130/1/3 128/1/3 127/1/3
f 131/1/3 128/1/3 130/1/3
f 133/2/3 132/2/3 131/2/3
f 134/2/3 132/2/3 133/2/3
f 137/1/3 136/1/3 135/1/3
f 138/1/3 136/1/3 137/1/3
f 141/1/3 140/1/3 139/1/3
f 142/1/3 140/1/3 141/1/3
f 146/1/3 144/1/3 143/1/3
f 146/1/3 145/1/3 144/1/3
f 147/1/3 145/1/3 146/1/3
f 148/1/3 145/1/3 147/1/3
f 149/2/4 150/2/4 151/2/4
f 151/2/4 150/2/4 152/2/4
f 153/2/4 154/2/4 155/2/4
f 155/2/4 154/2/4 156/2/4
f 157/2/4 158/2/4 159/2/4
f 159/2/4 158/2/4 160/2/4
f 161/1/4 162/1/4 164/1/4
f 162/1/4 163/1/4 164/1/4
f 164/1/4 163/1/4 165/1/4
f 165/1/4 163/1/4 166/1/4
f 167/2/4 168/2/4 169/2/4
f 169/2/4 168/2/4 170/2/4
f 171/1/4 172/1/4 173/1/4
f 173/1/4 172/1/4 174/1/4
f 175/1/4 176/1/4 177/1/4
f 177/1/4 176/1/4 178/1/4
f 179/1/4 180/1/4 181/1/4
f 181/1/4 180/1/4 182/1/4
f 182/6/4 183/6/4 185/6/4
f 185/6/4 183/6/4 186/6/4
f 184/1/4 185/1/4 187/1/4
f 187/1/4 185/1/4 188/1/4
f 189/1/4 190/1/4 191/1/4
f 189/1/4 191/1/4 193/1/4
f 191/1/4 192/1/4 193/1/4
f 193/1/4 192/1/4 194/1/4
f 189/1/4 193/1/4 195/1/4
f 195/1/4 193/1/4 196/1/4
f 199/1/5 198/1/5 197/1/5
f 200/1/5 198/1/5 199/1/5
f 201/1/5 198/1/5 200/1/5
f 202/1/5 198/1/5 201/1/5
f 203/1/5 199/1/5 197/1/5
f 203/3/5 200/3/5 199/3/5
f 204/3/5 200/3/5 203/3/5
f 205/3/5 202/3/5 201/3/5
f 206/1/5 198/1/5 202/1/5
f 206/3/5 202/3/5 205/3/5
f 207/1/5 205/1/5 204/1/5
f 207/1/5 204/1/5 203/1/5
f 207/1/5 206/1/5 205/1/5
f 207/1/5 203/1/5 197/1/5
f 208/1/5 198/1/5 206/1/5
f 208/1/5 206/1/5 207/1/5
f 211/1/5 210/1/5 209/1/5
f 212/1/5 210/1/5 211/1/5
f 217/2/5 214/2/5 213/2/5
f 218/2/5 214/2/5 217/2/5
f 219/2/5 216/2/5 215/2/5
f 220/2/5 216/2/5 219/2/5
f 225/2/5 222/2/5 221/2/5
f 226/2/5 222/2/5 225/2/5
f 227/2/5 224/2/5 223/2/5
f 228/2/5 224/2/5 227/2/5
f 233/1/5 230/1/5 229/1/5
f 234/1/5 230/1/5 233/1/5
f 235/1/5 232/1/5 231/1/5
f 236/1/5 232/1/5 235/1/5
f 237/1/6 238/1/6 241/1/6
f 241/1/6 238/1/6 242/1/6
f 239/1/6 240/1/6 243/1/6
f 243/1/6 240/1/6 244/1/6
f 245/1/6 246/1/6 249/1/6
f 249/1/6 246/1/6 250/1/6
f 247/1/6 248/1/6 251/1/6
f 251/1/6 248/1/6 252/1/6
f 253/2/6 254/2/6 259/2/6
f 259/2/6 254/2/6 260/2/6
f 255/1/6 256/1/6 262/1/6
f 262/1/6 256/1/6 263/1/6
f 263/1/6 256/1/6 264/1/6
f 257/2/6 258/2/6 266/2/6
f 266/2/6 258/2/6 267/2/6
f 261/1/6 262/1/6 268/1/6
f 264/1/6 265/1/6 269/1/6
f 269/1/6 265/1/6 270/1/6
f 268/1/6 262/1/6 271/1/6
f 271/1/6 262/1/6 272/1/6
f 269/1/6 270/1/6 273/1/6
f 273/1/6 270/1/6 274/1/6
f 272/1/6 273/1/6 275/1/6
f 275/1/6 273/1/6 276/1/6
f 277/2/6 278/2/6 281/2/6
f 281/2/6 278/2/6 282/2/6
f 279/2/6 280/2/6 283/2/6
f 283/2/6 280/2/6 284/2/6
f 285/1/6 286/1/6 289/1/6
f 289/1/6 286/1/6 290/1/6
f 287/1/6 288/1/6 291/1/6
f 291/1/6 288/1/6 292/1/6
f 293/6/6 294/6/6 296/6/6
f 294/5/6 295/5/6 296/5/6
f 296/5/6 295/5/6 297/5/6
f 293/6/6 296/6/6 298/6/6
f 296/6/6 297/6/6 298/6/6
f 298/6/6 297/6/6 299/6/6
