# MagicaVoxel @ Ephtracy

# material
mtllib Body 11.mtl
usemtl palette

# normals
vn -1 0 0
vn 1 0 0
vn 0 0 1
vn 0 0 -1
vn 0 -1 0
vn 0 1 0

# texcoords
vt 0.0136719 0.5
vt 0.0371094 0.5
vt 0.634766 0.5
vt 0.638672 0.5
vt 0.974609 0.5
vt 0.978516 0.5
vt 0.982422 0.5

# verts
v -4 5 0.5
v -4 5 -0.5
v -4 7 0.5
v -4 7 -0.5
v -3 1 1.5
v -3 1 -1.5
v -3 2 1.5
v -3 2 0.5
v -3 2 -0.5
v -3 2 -1.5
v -3 3 0.5
v -3 3 -0.5
v -3 4 0.5
v -3 4 -0.5
v -3 5 1.5
v -3 5 0.5
v -3 5 -0.5
v -3 5 -1.5
v -3 7 1.5
v -3 7 0.5
v -3 7 -0.5
v -3 8 1.5
v -3 8 -0.5
v -3 8 -1.5
v -2 0 0.5
v -2 0 -0.5
v -2 1 2.5
v -2 1 1.5
v -2 1 0.5
v -2 1 -0.5
v -2 1 -1.5
v -2 1 -2.5
v -2 2 2.5
v -2 2 1.5
v -2 2 0.5
v -2 2 -0.5
v -2 2 -1.5
v -2 2 -2.5
v -2 3 1.5
v -2 3 0.5
v -2 3 -0.5
v -2 4 1.5
v -2 4 0.5
v -2 4 -0.5
v -2 4 -1.5
v -2 5 2.5
v -2 5 1.5
v -2 5 0.5
v -2 5 -0.5
v -2 5 -1.5
v -2 5 -2.5
v -2 7 2.5
v -2 7 1.5
v -2 7 -1.5
v -2 7 -2.5
v 1 0 0.5
v 1 0 -0.5
v 1 1 1.5
v 1 1 0.5
v 1 1 -0.5
v 1 1 -1.5
v 1 2 1.5
v 1 2 0.5
v 1 2 -1.5
v 1 5 -1.5
v 1 5 -2.5
v 1 7 -1.5
v 1 7 -2.5
v 2 7 1.5
v 2 7 -0.5
v 2 7 -1.5
v 2 8 1.5
v 2 8 -0.5
v 2 8 -1.5
v -2 7 1.5
v -2 7 -0.5
v -2 7 -1.5
v -2 8 1.5
v -2 8 -0.5
v -2 8 -1.5
v -1 0 0.5
v -1 0 -0.5
v -1 1 1.5
v -1 1 0.5
v -1 1 -0.5
v -1 1 -1.5
v -1 2 1.5
v -1 2 0.5
v -1 2 -1.5
v -1 5 -1.5
v -1 5 -2.5
v -1 7 -1.5
v -1 7 -2.5
v 2 0 0.5
v 2 0 -0.5
v 2 1 2.5
v 2 1 1.5
v 2 1 0.5
v 2 1 -0.5
v 2 1 -1.5
v 2 1 -2.5
v 2 2 2.5
v 2 2 1.5
v 2 2 0.5
v 2 2 -0.5
v 2 2 -1.5
v 2 2 -2.5
v 2 3 1.5
v 2 3 0.5
v 2 3 -0.5
v 2 4 1.5
v 2 4 0.5
v 2 4 -0.5
v 2 4 -1.5
v 2 5 2.5
v 2 5 1.5
v 2 5 0.5
v 2 5 -0.5
v 2 5 -1.5
v 2 5 -2.5
v 2 7 2.5
v 2 7 1.5
v 2 7 -1.5
v 2 7 -2.5
v 3 1 1.5
v 3 1 -1.5
v 3 2 1.5
v 3 2 0.5
v 3 2 -0.5
v 3 2 -1.5
v 3 3 0.5
v 3 3 -0.5
v 3 4 0.5
v 3 4 -0.5
v 3 5 1.5
v 3 5 0.5
v 3 5 -0.5
v 3 5 -1.5
v 3 7 0.5
v 3 7 -0.5
v 3 8 1.5
v 3 8 -0.5
v 3 8 -1.5
v 4 5 0.5
v 4 5 -0.5
v 4 7 0.5
v 4 7 -0.5
v -2 1 2.5
v -2 2 2.5
v -2 5 2.5
v -2 7 2.5
v 0 5 2.5
v 0 7 2.5
v 2 1 2.5
v 2 2 2.5
v 2 5 2.5
v 2 7 2.5
v -3 1 1.5
v -3 2 1.5
v -3 5 1.5
v -3 7 1.5
v -3 8 1.5
v -2 1 1.5
v -2 2 1.5
v -2 3 1.5
v -2 4 1.5
v -2 5 1.5
v -2 7 1.5
v -2 8 1.5
v -1 2 1.5
v -1 3 1.5
v 0 5 1.5
v 1 2 1.5
v 1 3 1.5
v 2 1 1.5
v 2 2 1.5
v 2 3 1.5
v 2 4 1.5
v 2 5 1.5
v 2 7 1.5
v 2 8 1.5
v 3 1 1.5
v 3 2 1.5
v 3 5 1.5
v 3 8 1.5
v -4 5 0.5
v -4 7 0.5
v -3 2 0.5
v -3 3 0.5
v -3 4 0.5
v -3 5 0.5
v -3 7 0.5
v -2 0 0.5
v -2 1 0.5
v -2 2 0.5
v -2 3 0.5
v -2 4 0.5
v -2 5 0.5
v -1 0 0.5
v -1 1 0.5
v 1 0 0.5
v 1 1 0.5
v 2 0 0.5
v 2 1 0.5
v 2 2 0.5
v 2 3 0.5
v 2 4 0.5
v 2 5 0.5
v 3 2 0.5
v 3 3 0.5
v 3 4 0.5
v 3 5 0.5
v 3 7 0.5
v 4 5 0.5
v 4 7 0.5
v -1 1 -1.5
v -1 2 -1.5
v 1 1 -1.5
v 1 2 -1.5
v -1 1 1.5
v -1 2 1.5
v 1 1 1.5
v 1 2 1.5
v -4 5 -0.5
v -4 7 -0.5
v -3 2 -0.5
v -3 3 -0.5
v -3 4 -0.5
v -3 5 -0.5
v -3 7 -0.5
v -2 0 -0.5
v -2 1 -0.5
v -2 2 -0.5
v -2 3 -0.5
v -2 4 -0.5
v -2 5 -0.5
v -1 0 -0.5
v -1 1 -0.5
v 1 0 -0.5
v 1 1 -0.5
v 2 0 -0.5
v 2 1 -0.5
v 2 2 -0.5
v 2 3 -0.5
v 2 4 -0.5
v 2 5 -0.5
v 3 2 -0.5
v 3 3 -0.5
v 3 4 -0.5
v 3 5 -0.5
v 3 7 -0.5
v 4 5 -0.5
v 4 7 -0.5
v -3 1 -1.5
v -3 2 -1.5
v -3 5 -1.5
v -3 8 -1.5
v -2 1 -1.5
v -2 2 -1.5
v -2 4 -1.5
v -2 5 -1.5
v -2 7 -1.5
v -2 8 -1.5
v -1 2 -1.5
v -1 3 -1.5
v -1 5 -1.5
v -1 7 -1.5
v 1 2 -1.5
v 1 3 -1.5
v 1 5 -1.5
v 1 7 -1.5
v 2 1 -1.5
v 2 2 -1.5
v 2 4 -1.5
v 2 5 -1.5
v 2 7 -1.5
v 2 8 -1.5
v 3 1 -1.5
v 3 2 -1.5
v 3 5 -1.5
v 3 8 -1.5
v -2 1 -2.5
v -2 2 -2.5
v -2 5 -2.5
v -2 7 -2.5
v -1 5 -2.5
v -1 7 -2.5
v 1 5 -2.5
v 1 7 -2.5
v 2 1 -2.5
v 2 2 -2.5
v 2 5 -2.5
v 2 7 -2.5
v -2 0 0.5
v -1 0 0.5
v 1 0 0.5
v 2 0 0.5
v -2 0 -0.5
v -1 0 -0.5
v 1 0 -0.5
v 2 0 -0.5
v -2 1 2.5
v 2 1 2.5
v -3 1 1.5
v -2 1 1.5
v -1 1 1.5
v 1 1 1.5
v 2 1 1.5
v 3 1 1.5
v -2 1 0.5
v -1 1 0.5
v 1 1 0.5
v 2 1 0.5
v -2 1 -0.5
v -1 1 -0.5
v 1 1 -0.5
v 2 1 -0.5
v -3 1 -1.5
v -2 1 -1.5
v -1 1 -1.5
v 1 1 -1.5
v 2 1 -1.5
v 3 1 -1.5
v -2 1 -2.5
v 2 1 -2.5
v -1 2 1.5
v 1 2 1.5
v -1 2 0.5
v 1 2 0.5
v -1 2 -1.5
v 1 2 -1.5
v -2 5 2.5
v 0 5 2.5
v 2 5 2.5
v -3 5 1.5
v -2 5 1.5
v 0 5 1.5
v 2 5 1.5
v 3 5 1.5
v -4 5 0.5
v -3 5 0.5
v -2 5 0.5
v 2 5 0.5
v 3 5 0.5
v 4 5 0.5
v -4 5 -0.5
v -3 5 -0.5
v -2 5 -0.5
v 2 5 -0.5
v 3 5 -0.5
v 4 5 -0.5
v -3 5 -1.5
v -2 5 -1.5
v -1 5 -1.5
v 1 5 -1.5
v 2 5 -1.5
v 3 5 -1.5
v -2 5 -2.5
v -1 5 -2.5
v 1 5 -2.5
v 2 5 -2.5
v -2 2 2.5
v 2 2 2.5
v -3 2 1.5
v -2 2 1.5
v -1 2 1.5
v 1 2 1.5
v 2 2 1.5
v 3 2 1.5
v -3 2 0.5
v -2 2 0.5
v 2 2 0.5
v 3 2 0.5
v -3 2 -0.5
v -2 2 -0.5
v 2 2 -0.5
v 3 2 -0.5
v -3 2 -1.5
v -2 2 -1.5
v -1 2 -1.5
v 1 2 -1.5
v 2 2 -1.5
v 3 2 -1.5
v -2 2 -2.5
v 2 2 -2.5
v -2 7 2.5
v 0 7 2.5
v 2 7 2.5
v -2 7 1.5
v -1 7 1.5
v 0 7 1.5
v 1 7 1.5
v 2 7 1.5
v -4 7 0.5
v -3 7 0.5
v 3 7 0.5
v 4 7 0.5
v -4 7 -0.5
v -3 7 -0.5
v -2 7 -0.5
v -1 7 -0.5
v 1 7 -0.5
v 2 7 -0.5
v 3 7 -0.5
v 4 7 -0.5
v -2 7 -1.5
v -1 7 -1.5
v 1 7 -1.5
v 2 7 -1.5
v -2 7 -2.5
v -1 7 -2.5
v 1 7 -2.5
v 2 7 -2.5
v -3 8 1.5
v -2 8 1.5
v 2 8 1.5
v 3 8 1.5
v -3 8 -0.5
v -2 8 -0.5
v 2 8 -0.5
v 3 8 -0.5
v -3 8 -1.5
v -2 8 -1.5
v 2 8 -1.5
v 3 8 -1.5

# faces
f 3/6/1 2/6/1 1/6/1
f 4/6/1 2/6/1 3/6/1
f 7/1/1 6/1/1 5/1/1
f 8/1/1 6/1/1 7/1/1
f 9/1/1 6/1/1 8/1/1
f 10/1/1 6/1/1 9/1/1
f 11/5/1 9/5/1 8/5/1
f 12/5/1 9/5/1 11/5/1
f 13/2/1 12/2/1 11/2/1
f 14/2/1 12/2/1 13/2/1
f 16/6/1 14/6/1 13/6/1
f 17/6/1 14/6/1 16/6/1
f 19/6/1 16/6/1 15/6/1
f 20/6/1 16/6/1 19/6/1
f 21/6/1 18/6/1 17/6/1
f 22/5/1 20/5/1 19/5/1
f 22/5/1 21/5/1 20/5/1
f 23/6/1 18/6/1 21/6/1
f 23/5/1 21/5/1 22/5/1
f 24/6/1 18/6/1 23/6/1
f 29/4/1 26/4/1 25/4/1
f 30/4/1 26/4/1 29/4/1
f 33/1/1 28/1/1 27/1/1
f 34/1/1 28/1/1 33/1/1
f 37/1/1 32/1/1 31/1/1
f 38/1/1 32/1/1 37/1/1
f 39/1/1 35/1/1 34/1/1
f 40/1/1 35/1/1 39/1/1
f 41/6/1 37/6/1 36/6/1
f 42/6/1 40/6/1 39/6/1
f 43/6/1 40/6/1 42/6/1
f 44/6/1 37/6/1 41/6/1
f 45/6/1 37/6/1 44/6/1
f 47/7/1 43/7/1 42/7/1
f 48/7/1 43/7/1 47/7/1
f 49/7/1 45/7/1 44/7/1
f 50/7/1 45/7/1 49/7/1
f 52/6/1 47/6/1 46/6/1
f 53/6/1 47/6/1 52/6/1
f 54/6/1 51/6/1 50/6/1
f 55/6/1 51/6/1 54/6/1
f 59/4/1 57/4/1 56/4/1
f 60/4/1 57/4/1 59/4/1
f 62/1/1 59/1/1 58/1/1
f 62/1/1 61/1/1 60/1/1
f 62/1/1 60/1/1 59/1/1
f 63/1/1 61/1/1 62/1/1
f 64/1/1 61/1/1 63/1/1
f 67/6/1 66/6/1 65/6/1
f 68/6/1 66/6/1 67/6/1
f 72/5/1 70/5/1 69/5/1
f 73/6/1 71/6/1 70/6/1
f 73/5/1 70/5/1 72/5/1
f 74/6/1 71/6/1 73/6/1
f 75/5/2 76/5/2 78/5/2
f 76/6/2 77/6/2 79/6/2
f 78/5/2 76/5/2 79/5/2
f 79/6/2 77/6/2 80/6/2
f 81/4/2 82/4/2 84/4/2
f 84/4/2 82/4/2 85/4/2
f 83/1/2 84/1/2 87/1/2
f 85/1/2 86/1/2 87/1/2
f 84/1/2 85/1/2 87/1/2
f 87/1/2 86/1/2 88/1/2
f 88/1/2 86/1/2 89/1/2
f 90/6/2 91/6/2 92/6/2
f 92/6/2 91/6/2 93/6/2
f 94/4/2 95/4/2 98/4/2
f 98/4/2 95/4/2 99/4/2
f 96/1/2 97/1/2 102/1/2
f 102/1/2 97/1/2 103/1/2
f 100/1/2 101/1/2 106/1/2
f 106/1/2 101/1/2 107/1/2
f 103/1/2 104/1/2 108/1/2
f 108/1/2 104/1/2 109/1/2
f 105/6/2 106/6/2 110/6/2
f 108/6/2 109/6/2 111/6/2
f 111/6/2 109/6/2 112/6/2
f 110/6/2 106/6/2 113/6/2
f 113/6/2 106/6/2 114/6/2
f 111/7/2 112/7/2 116/7/2
f 116/7/2 112/7/2 117/7/2
f 113/7/2 114/7/2 118/7/2
f 118/7/2 114/7/2 119/7/2
f 115/5/2 116/5/2 121/5/2
f 121/5/2 116/5/2 122/5/2
f 119/6/2 120/6/2 123/6/2
f 123/6/2 120/6/2 124/6/2
f 125/1/2 126/1/2 127/1/2
f 127/1/2 126/1/2 128/1/2
f 128/1/2 126/1/2 129/1/2
f 129/1/2 126/1/2 130/1/2
f 128/5/2 129/5/2 131/5/2
f 131/5/2 129/5/2 132/5/2
f 131/2/2 132/2/2 133/2/2
f 133/2/2 132/2/2 134/2/2
f 133/6/2 134/6/2 136/6/2
f 136/6/2 134/6/2 137/6/2
f 135/5/2 136/5/2 139/5/2
f 137/6/2 138/6/2 140/6/2
f 135/5/2 139/5/2 141/5/2
f 139/5/2 140/5/2 141/5/2
f 140/6/2 138/6/2 142/6/2
f 141/5/2 140/5/2 142/5/2
f 142/6/2 138/6/2 143/6/2
f 144/6/2 145/6/2 146/6/2
f 146/6/2 145/6/2 147/6/2
f 152/6/3 151/6/3 150/6/3
f 153/6/3 151/6/3 152/6/3
f 154/1/3 149/1/3 148/1/3
f 155/1/3 149/1/3 154/1/3
f 156/5/3 153/5/3 152/5/3
f 157/5/3 153/5/3 156/5/3
f 163/1/3 159/1/3 158/1/3
f 164/1/3 159/1/3 163/1/3
f 167/6/3 161/6/3 160/6/3
f 168/5/3 162/5/3 161/5/3
f 168/6/3 161/6/3 167/6/3
f 169/5/3 162/5/3 168/5/3
f 170/1/3 165/1/3 164/1/3
f 171/6/3 166/6/3 165/6/3
f 171/1/3 165/1/3 170/1/3
f 172/7/3 167/7/3 166/7/3
f 173/6/3 171/6/3 170/6/3
f 174/6/3 166/6/3 171/6/3
f 174/6/3 171/6/3 173/6/3
f 176/1/3 174/1/3 173/1/3
f 177/6/3 166/6/3 174/6/3
f 177/1/3 174/1/3 176/1/3
f 178/7/3 172/7/3 166/7/3
f 178/6/3 166/6/3 177/6/3
f 179/7/3 172/7/3 178/7/3
f 182/1/3 176/1/3 175/1/3
f 183/1/3 176/1/3 182/1/3
f 184/5/3 181/5/3 180/5/3
f 184/5/3 180/5/3 179/5/3
f 185/5/3 181/5/3 184/5/3
f 191/6/3 187/6/3 186/6/3
f 192/6/3 187/6/3 191/6/3
f 195/5/3 189/5/3 188/5/3
f 196/2/3 190/2/3 189/2/3
f 196/5/3 189/5/3 195/5/3
f 197/6/3 191/6/3 190/6/3
f 197/2/3 190/2/3 196/2/3
f 198/6/3 191/6/3 197/6/3
f 199/4/3 194/4/3 193/4/3
f 200/4/3 194/4/3 199/4/3
f 203/4/3 202/4/3 201/4/3
f 204/4/3 202/4/3 203/4/3
f 209/5/3 206/5/3 205/5/3
f 210/2/3 207/2/3 206/2/3
f 210/5/3 206/5/3 209/5/3
f 211/6/3 208/6/3 207/6/3
f 211/2/3 207/2/3 210/2/3
f 212/6/3 208/6/3 211/6/3
f 214/6/3 213/6/3 212/6/3
f 215/6/3 213/6/3 214/6/3
f 218/1/3 217/1/3 216/1/3
f 219/1/3 217/1/3 218/1/3
f 220/1/4 221/1/4 222/1/4
f 222/1/4 221/1/4 223/1/4
f 224/6/4 225/6/4 229/6/4
f 229/6/4 225/6/4 230/6/4
f 226/5/4 227/5/4 233/5/4
f 227/2/4 228/2/4 234/2/4
f 233/5/4 227/5/4 234/5/4
f 228/6/4 229/6/4 235/6/4
f 234/2/4 228/2/4 235/2/4
f 235/6/4 229/6/4 236/6/4
f 231/4/4 232/4/4 237/4/4
f 237/4/4 232/4/4 238/4/4
f 239/4/4 240/4/4 241/4/4
f 241/4/4 240/4/4 242/4/4
f 243/5/4 244/5/4 247/5/4
f 244/2/4 245/2/4 248/2/4
f 247/5/4 244/5/4 248/5/4
f 245/6/4 246/6/4 249/6/4
f 248/2/4 245/2/4 249/2/4
f 249/6/4 246/6/4 250/6/4
f 250/6/4 251/6/4 252/6/4
f 252/6/4 251/6/4 253/6/4
f 254/1/4 255/1/4 258/1/4
f 258/1/4 255/1/4 259/1/4
f 256/6/4 257/6/4 261/6/4
f 261/6/4 257/6/4 262/6/4
f 262/6/4 257/6/4 263/6/4
f 259/6/4 260/6/4 264/6/4
f 264/6/4 260/6/4 265/6/4
f 260/7/4 261/7/4 266/7/4
f 264/1/4 265/1/4 268/1/4
f 265/6/4 260/6/4 269/6/4
f 268/1/4 265/1/4 269/1/4
f 266/6/4 267/6/4 270/6/4
f 260/7/4 266/7/4 270/7/4
f 270/6/4 267/6/4 271/6/4
f 268/6/4 269/6/4 273/6/4
f 269/6/4 260/6/4 274/6/4
f 260/7/4 270/7/4 274/7/4
f 273/6/4 269/6/4 274/6/4
f 274/7/4 270/7/4 275/7/4
f 272/1/4 273/1/4 278/1/4
f 278/1/4 273/1/4 279/1/4
f 276/6/4 277/6/4 280/6/4
f 275/6/4 276/6/4 280/6/4
f 280/6/4 277/6/4 281/6/4
f 284/6/4 285/6/4 286/6/4
f 286/6/4 285/6/4 287/6/4
f 282/1/4 283/1/4 290/1/4
f 290/1/4 283/1/4 291/1/4
f 288/6/4 289/6/4 292/6/4
f 292/6/4 289/6/4 293/6/4
f 298/4/5 295/4/5 294/4/5
f 299/4/5 295/4/5 298/4/5
f 300/4/5 297/4/5 296/4/5
f 301/4/5 297/4/5 300/4/5
f 305/1/5 303/1/5 302/1/5
f 306/1/5 303/1/5 305/1/5
f 307/1/5 303/1/5 306/1/5
f 308/1/5 303/1/5 307/1/5
f 310/1/5 305/1/5 304/1/5
f 310/1/5 306/1/5 305/1/5
f 311/1/5 306/1/5 310/1/5
f 312/1/5 309/1/5 308/1/5
f 312/1/5 308/1/5 307/1/5
f 313/1/5 309/1/5 312/1/5
f 314/1/5 310/1/5 304/1/5
f 317/1/5 309/1/5 313/1/5
f 318/1/5 315/1/5 314/1/5
f 318/1/5 314/1/5 304/1/5
f 319/1/5 315/1/5 318/1/5
f 320/1/5 315/1/5 319/1/5
f 321/1/5 317/1/5 316/1/5
f 322/1/5 309/1/5 317/1/5
f 322/1/5 317/1/5 321/1/5
f 323/1/5 309/1/5 322/1/5
f 324/1/5 320/1/5 319/1/5
f 324/1/5 321/1/5 320/1/5
f 324/1/5 322/1/5 321/1/5
f 325/1/5 322/1/5 324/1/5
f 328/6/5 327/6/5 326/6/5
f 329/6/5 327/6/5 328/6/5
f 330/1/5 329/1/5 328/1/5
f 331/1/5 329/1/5 330/1/5
f 336/6/5 333/6/5 332/6/5
f 337/5/5 334/5/5 333/5/5
f 337/6/5 333/6/5 336/6/5
f 338/5/5 334/5/5 337/5/5
f 341/6/5 336/6/5 335/6/5
f 342/6/5 336/6/5 341/6/5
f 343/5/5 339/5/5 338/5/5
f 344/5/5 339/5/5 343/5/5
f 346/6/5 341/6/5 340/6/5
f 347/6/5 341/6/5 346/6/5
f 350/6/5 345/6/5 344/6/5
f 351/6/5 345/6/5 350/6/5
f 352/6/5 348/6/5 347/6/5
f 353/6/5 348/6/5 352/6/5
f 356/6/5 350/6/5 349/6/5
f 357/6/5 350/6/5 356/6/5
f 358/6/5 354/6/5 353/6/5
f 359/6/5 354/6/5 358/6/5
f 360/6/5 356/6/5 355/6/5
f 361/6/5 356/6/5 360/6/5
f 362/1/6 363/1/6 365/1/6
f 365/1/6 363/1/6 366/1/6
f 366/1/6 363/1/6 367/1/6
f 367/1/6 363/1/6 368/1/6
f 364/1/6 365/1/6 370/1/6
f 370/1/6 365/1/6 371/1/6
f 368/1/6 369/1/6 372/1/6
f 372/1/6 369/1/6 373/1/6
f 374/1/6 375/1/6 378/1/6
f 378/1/6 375/1/6 379/1/6
f 376/1/6 377/1/6 382/1/6
f 382/1/6 377/1/6 383/1/6
f 380/1/6 381/1/6 384/1/6
f 381/1/6 382/1/6 384/1/6
f 379/1/6 380/1/6 384/1/6
f 384/1/6 382/1/6 385/1/6
f 386/6/6 387/6/6 389/6/6
f 389/6/6 387/6/6 390/6/6
f 387/5/6 388/5/6 391/5/6
f 390/6/6 387/6/6 391/6/6
f 391/5/6 388/5/6 392/5/6
f 392/5/6 388/5/6 393/5/6
f 394/6/6 395/6/6 398/6/6
f 398/6/6 395/6/6 399/6/6
f 389/6/6 390/6/6 400/6/6
f 390/2/6 391/2/6 401/2/6
f 400/6/6 390/6/6 401/6/6
f 391/2/6 392/2/6 401/2/6
f 392/6/6 393/6/6 402/6/6
f 401/2/6 392/2/6 402/2/6
f 402/6/6 393/6/6 403/6/6
f 396/6/6 397/6/6 404/6/6
f 404/6/6 397/6/6 405/6/6
f 400/6/6 401/6/6 406/6/6
f 402/6/6 403/6/6 406/6/6
f 401/6/6 402/6/6 406/6/6
f 406/6/6 403/6/6 407/6/6
f 407/6/6 403/6/6 408/6/6
f 408/6/6 403/6/6 409/6/6
f 406/6/6 407/6/6 410/6/6
f 410/6/6 407/6/6 411/6/6
f 408/6/6 409/6/6 412/6/6
f 412/6/6 409/6/6 413/6/6
f 414/5/6 415/5/6 418/5/6
f 418/5/6 415/5/6 419/5/6
f 416/5/6 417/5/6 420/5/6
f 420/5/6 417/5/6 421/5/6
f 418/6/6 419/6/6 422/6/6
f 422/6/6 419/6/6 423/6/6
f 420/6/6 421/6/6 424/6/6
f 424/6/6 421/6/6 425/6/6
