# MagicaVoxel @ Ephtracy

# material
mtllib Body 10.mtl
usemtl palette

# normals
vn -1 0 0
vn 1 0 0
vn 0 0 1
vn 0 0 -1
vn 0 -1 0
vn 0 1 0

# texcoords
vt 0.0136719 0.5
vt 0.0371094 0.5
vt 0.193359 0.5
vt 0.634766 0.5
vt 0.638672 0.5
vt 0.974609 0.5
vt 0.978516 0.5

# verts
v -5 3 0.5
v -5 3 -0.5
v -5 5 0.5
v -5 5 -0.5
v -4 2 0.5
v -4 2 -0.5
v -4 3 1.5
v -4 3 0.5
v -4 3 -0.5
v -4 3 -1.5
v -4 5 0.5
v -4 5 -0.5
v -4 6 1.5
v -4 6 -1.5
v -3 1 1.5
v -3 1 -1.5
v -3 2 1.5
v -3 2 0.5
v -3 2 -0.5
v -3 2 -1.5
v -3 6 1.5
v -3 6 -1.5
v -3 7 1.5
v -3 7 -1.5
v -2 0 0.5
v -2 0 -0.5
v -2 1 2.5
v -2 1 1.5
v -2 1 0.5
v -2 1 -0.5
v -2 1 -1.5
v -2 1 -2.5
v -2 2 2.5
v -2 2 1.5
v -2 2 -1.5
v -2 2 -2.5
v -2 3 2.5
v -2 3 1.5
v -2 3 -1.5
v -2 3 -2.5
v -2 7 2.5
v -2 7 1.5
v -2 7 -1.5
v -2 7 -2.5
v -1 2 2.5
v -1 2 1.5
v -1 3 2.5
v -1 3 1.5
v 1 0 0.5
v 1 0 -0.5
v 1 1 1.5
v 1 1 0.5
v 1 1 -0.5
v 1 1 -1.5
v 1 2 1.5
v 1 2 -1.5
v 1 6 2.5
v 1 6 1.5
v 1 7 2.5
v 1 7 1.5
v 3 2 0.5
v 3 2 -0.5
v 3 3 0.5
v 3 3 -0.5
v -3 2 0.5
v -3 2 -0.5
v -3 3 0.5
v -3 3 -0.5
v -1 0 0.5
v -1 0 -0.5
v -1 1 1.5
v -1 1 0.5
v -1 1 -0.5
v -1 1 -1.5
v -1 2 1.5
v -1 2 -1.5
v -1 6 2.5
v -1 6 1.5
v -1 7 2.5
v -1 7 1.5
v 1 2 2.5
v 1 2 1.5
v 1 3 2.5
v 1 3 1.5
v 2 0 0.5
v 2 0 -0.5
v 2 1 2.5
v 2 1 1.5
v 2 1 0.5
v 2 1 -0.5
v 2 1 -1.5
v 2 1 -2.5
v 2 2 2.5
v 2 2 1.5
v 2 2 -1.5
v 2 2 -2.5
v 2 3 2.5
v 2 3 1.5
v 2 3 -1.5
v 2 3 -2.5
v 2 4 2.5
v 2 4 1.5
v 2 5 1.5
v 2 7 2.5
v 2 7 1.5
v 2 7 -1.5
v 2 7 -2.5
v 3 1 1.5
v 3 1 -1.5
v 3 2 1.5
v 3 2 0.5
v 3 2 -0.5
v 3 2 -1.5
v 3 6 1.5
v 3 6 0.5
v 3 6 -1.5
v 3 7 1.5
v 3 7 0.5
v 3 7 -1.5
v 4 2 0.5
v 4 2 -0.5
v 4 3 1.5
v 4 3 0.5
v 4 3 -0.5
v 4 3 -1.5
v 4 4 1.5
v 4 4 0.5
v 4 5 0.5
v 4 5 -0.5
v 4 6 1.5
v 4 6 0.5
v 4 6 -1.5
v 5 3 0.5
v 5 3 -0.5
v 5 5 0.5
v 5 5 -0.5
v -2 1 2.5
v -2 2 2.5
v -2 3 2.5
v -2 7 2.5
v -1 2 2.5
v -1 3 2.5
v -1 6 2.5
v -1 7 2.5
v 0 3 2.5
v 0 6 2.5
v 1 2 2.5
v 1 3 2.5
v 1 4 2.5
v 1 6 2.5
v 1 7 2.5
v 2 1 2.5
v 2 2 2.5
v 2 3 2.5
v 2 4 2.5
v 2 7 2.5
v -4 3 1.5
v -4 6 1.5
v -3 1 1.5
v -3 2 1.5
v -3 6 1.5
v -3 7 1.5
v -2 1 1.5
v -2 2 1.5
v -2 3 1.5
v -2 7 1.5
v -1 2 1.5
v -1 3 1.5
v -1 6 1.5
v -1 7 1.5
v 0 6 1.5
v 1 2 1.5
v 1 3 1.5
v 1 6 1.5
v 1 7 1.5
v 2 1 1.5
v 2 2 1.5
v 2 3 1.5
v 2 4 1.5
v 2 5 1.5
v 2 7 1.5
v 3 1 1.5
v 3 2 1.5
v 3 4 1.5
v 3 5 1.5
v 3 6 1.5
v 3 7 1.5
v 4 3 1.5
v 4 4 1.5
v 4 6 1.5
v -5 3 0.5
v -5 5 0.5
v -4 2 0.5
v -4 3 0.5
v -4 5 0.5
v -3 2 0.5
v -3 3 0.5
v -2 0 0.5
v -2 1 0.5
v -1 0 0.5
v -1 1 0.5
v 1 0 0.5
v 1 1 0.5
v 2 0 0.5
v 2 1 0.5
v 3 2 0.5
v 3 3 0.5
v 4 2 0.5
v 4 3 0.5
v 4 4 0.5
v 4 5 0.5
v 5 3 0.5
v 5 5 0.5
v -1 1 -1.5
v -1 2 -1.5
v 1 1 -1.5
v 1 2 -1.5
v -1 1 1.5
v -1 2 1.5
v 1 1 1.5
v 1 2 1.5
v -5 3 -0.5
v -5 5 -0.5
v -4 2 -0.5
v -4 3 -0.5
v -4 5 -0.5
v -3 2 -0.5
v -3 3 -0.5
v -2 0 -0.5
v -2 1 -0.5
v -1 0 -0.5
v -1 1 -0.5
v 1 0 -0.5
v 1 1 -0.5
v 2 0 -0.5
v 2 1 -0.5
v 3 2 -0.5
v 3 3 -0.5
v 4 2 -0.5
v 4 3 -0.5
v 4 5 -0.5
v 5 3 -0.5
v 5 5 -0.5
v -4 3 -1.5
v -4 6 -1.5
v -3 1 -1.5
v -3 2 -1.5
v -3 6 -1.5
v -3 7 -1.5
v -2 1 -1.5
v -2 2 -1.5
v -2 3 -1.5
v -2 7 -1.5
v 2 1 -1.5
v 2 2 -1.5
v 2 3 -1.5
v 2 7 -1.5
v 3 1 -1.5
v 3 2 -1.5
v 3 6 -1.5
v 3 7 -1.5
v 4 3 -1.5
v 4 6 -1.5
v -2 1 -2.5
v -2 2 -2.5
v -2 3 -2.5
v -2 7 -2.5
v 2 1 -2.5
v 2 2 -2.5
v 2 3 -2.5
v 2 7 -2.5
v -2 0 0.5
v -1 0 0.5
v 1 0 0.5
v 2 0 0.5
v -2 0 -0.5
v -1 0 -0.5
v 1 0 -0.5
v 2 0 -0.5
v -2 1 2.5
v 2 1 2.5
v -3 1 1.5
v -2 1 1.5
v -1 1 1.5
v 1 1 1.5
v 2 1 1.5
v 3 1 1.5
v -2 1 0.5
v -1 1 0.5
v 1 1 0.5
v 2 1 0.5
v -2 1 -0.5
v -1 1 -0.5
v 1 1 -0.5
v 2 1 -0.5
v -3 1 -1.5
v -2 1 -1.5
v -1 1 -1.5
v 1 1 -1.5
v 2 1 -1.5
v 3 1 -1.5
v -2 1 -2.5
v 2 1 -2.5
v -1 2 1.5
v 1 2 1.5
v -4 2 0.5
v -3 2 0.5
v 3 2 0.5
v 4 2 0.5
v -4 2 -0.5
v -3 2 -0.5
v 3 2 -0.5
v 4 2 -0.5
v -1 2 -1.5
v 1 2 -1.5
v -2 3 2.5
v -1 3 2.5
v 1 3 2.5
v 2 3 2.5
v -4 3 1.5
v -2 3 1.5
v -1 3 1.5
v 1 3 1.5
v 2 3 1.5
v 4 3 1.5
v -5 3 0.5
v -4 3 0.5
v -3 3 0.5
v 3 3 0.5
v 4 3 0.5
v 5 3 0.5
v -5 3 -0.5
v -4 3 -0.5
v -3 3 -0.5
v 3 3 -0.5
v 4 3 -0.5
v 5 3 -0.5
v -4 3 -1.5
v -2 3 -1.5
v 2 3 -1.5
v 4 3 -1.5
v -2 3 -2.5
v 2 3 -2.5
v -2 2 2.5
v -1 2 2.5
v 1 2 2.5
v 2 2 2.5
v -3 2 1.5
v -2 2 1.5
v -1 2 1.5
v 1 2 1.5
v 2 2 1.5
v 3 2 1.5
v -3 2 0.5
v 3 2 0.5
v -3 2 -0.5
v 3 2 -0.5
v -3 2 -1.5
v -2 2 -1.5
v 2 2 -1.5
v 3 2 -1.5
v -2 2 -2.5
v 2 2 -2.5
v -5 5 0.5
v -4 5 0.5
v 4 5 0.5
v 5 5 0.5
v -5 5 -0.5
v -4 5 -0.5
v 4 5 -0.5
v 5 5 -0.5
v -1 6 2.5
v 0 6 2.5
v 1 6 2.5
v -4 6 1.5
v -3 6 1.5
v -1 6 1.5
v 0 6 1.5
v 1 6 1.5
v 3 6 1.5
v 4 6 1.5
v 3 6 0.5
v 4 6 0.5
v -4 6 -1.5
v -3 6 -1.5
v 3 6 -1.5
v 4 6 -1.5
v -2 7 2.5
v -1 7 2.5
v 1 7 2.5
v 2 7 2.5
v -3 7 1.5
v -2 7 1.5
v -1 7 1.5
v 1 7 1.5
v 2 7 1.5
v 3 7 1.5
v 2 7 0.5
v 3 7 0.5
v -3 7 -1.5
v -2 7 -1.5
v 2 7 -1.5
v 3 7 -1.5
v -2 7 -2.5
v 2 7 -2.5

# faces
f 3/7/1 2/7/1 1/7/1
f 4/7/1 2/7/1 3/7/1
f 8/2/1 6/2/1 5/2/1
f 9/2/1 6/2/1 8/2/1
f 11/7/1 8/7/1 7/7/1
f 12/7/1 10/7/1 9/7/1
f 13/7/1 11/7/1 7/7/1
f 13/7/1 12/7/1 11/7/1
f 14/7/1 10/7/1 12/7/1
f 14/7/1 12/7/1 13/7/1
f 17/1/1 16/1/1 15/1/1
f 18/1/1 16/1/1 17/1/1
f 19/1/1 16/1/1 18/1/1
f 20/1/1 16/1/1 19/1/1
f 23/7/1 22/7/1 21/7/1
f 24/7/1 22/7/1 23/7/1
f 29/5/1 26/5/1 25/5/1
f 30/5/1 26/5/1 29/5/1
f 33/1/1 28/1/1 27/1/1
f 34/1/1 28/1/1 33/1/1
f 35/1/1 32/1/1 31/1/1
f 36/1/1 32/1/1 35/1/1
f 38/1/1 35/1/1 34/1/1
f 39/1/1 35/1/1 38/1/1
f 41/7/1 38/7/1 37/7/1
f 42/7/1 38/7/1 41/7/1
f 43/7/1 40/7/1 39/7/1
f 44/7/1 40/7/1 43/7/1
f 47/7/1 46/7/1 45/7/1
f 48/7/1 46/7/1 47/7/1
f 52/5/1 50/5/1 49/5/1
f 53/5/1 50/5/1 52/5/1
f 55/1/1 52/1/1 51/1/1
f 55/1/1 54/1/1 53/1/1
f 55/1/1 53/1/1 52/1/1
f 56/1/1 54/1/1 55/1/1
f 59/6/1 58/6/1 57/6/1
f 60/6/1 58/6/1 59/6/1
f 63/2/1 62/2/1 61/2/1
f 64/2/1 62/2/1 63/2/1
f 65/2/2 66/2/2 67/2/2
f 67/2/2 66/2/2 68/2/2
f 69/5/2 70/5/2 72/5/2
f 72/5/2 70/5/2 73/5/2
f 71/1/2 72/1/2 75/1/2
f 73/1/2 74/1/2 75/1/2
f 72/1/2 73/1/2 75/1/2
f 75/1/2 74/1/2 76/1/2
f 77/7/2 78/7/2 79/7/2
f 79/7/2 78/7/2 80/7/2
f 81/7/2 82/7/2 83/7/2
f 83/7/2 82/7/2 84/7/2
f 85/5/2 86/5/2 89/5/2
f 89/5/2 86/5/2 90/5/2
f 87/1/2 88/1/2 93/1/2
f 93/1/2 88/1/2 94/1/2
f 91/1/2 92/1/2 95/1/2
f 95/1/2 92/1/2 96/1/2
f 94/1/2 95/1/2 98/1/2
f 98/1/2 95/1/2 99/1/2
f 97/7/2 98/7/2 101/7/2
f 101/7/2 98/7/2 102/7/2
f 101/6/2 102/6/2 103/6/2
f 101/6/2 103/6/2 104/6/2
f 104/6/2 103/6/2 105/6/2
f 99/7/2 100/7/2 106/7/2
f 106/7/2 100/7/2 107/7/2
f 108/1/2 109/1/2 110/1/2
f 110/1/2 109/1/2 111/1/2
f 111/1/2 109/1/2 112/1/2
f 112/1/2 109/1/2 113/1/2
f 114/6/2 115/6/2 117/6/2
f 115/7/2 116/7/2 118/7/2
f 117/6/2 115/6/2 118/6/2
f 118/7/2 116/7/2 119/7/2
f 120/2/2 121/2/2 123/2/2
f 123/2/2 121/2/2 124/2/2
f 122/7/2 123/7/2 126/7/2
f 126/7/2 123/7/2 127/7/2
f 126/6/2 127/6/2 128/6/2
f 124/7/2 125/7/2 129/7/2
f 126/6/2 128/6/2 130/6/2
f 128/7/2 129/7/2 131/7/2
f 130/6/2 128/6/2 131/6/2
f 129/7/2 125/7/2 132/7/2
f 131/7/2 129/7/2 132/7/2
f 133/7/2 134/7/2 135/7/2
f 135/7/2 134/7/2 136/7/2
f 141/1/3 138/1/3 137/1/3
f 142/7/3 140/7/3 139/7/3
f 143/7/3 140/7/3 142/7/3
f 144/7/3 140/7/3 143/7/3
f 145/7/3 142/7/3 141/7/3
f 145/7/3 143/7/3 142/7/3
f 146/7/3 143/7/3 145/7/3
f 147/1/3 141/1/3 137/1/3
f 147/7/3 145/7/3 141/7/3
f 148/6/3 146/6/3 145/6/3
f 148/7/3 145/7/3 147/7/3
f 149/6/3 146/6/3 148/6/3
f 150/6/3 146/6/3 149/6/3
f 152/1/3 147/1/3 137/1/3
f 153/1/3 147/1/3 152/1/3
f 154/7/3 149/7/3 148/7/3
f 155/6/3 150/6/3 149/6/3
f 155/7/3 149/7/3 154/7/3
f 155/6/3 151/6/3 150/6/3
f 156/6/3 151/6/3 155/6/3
f 161/7/3 158/7/3 157/7/3
f 163/1/3 160/1/3 159/1/3
f 164/1/3 160/1/3 163/1/3
f 165/7/3 162/7/3 161/7/3
f 165/7/3 161/7/3 157/7/3
f 166/7/3 162/7/3 165/7/3
f 167/1/3 165/1/3 164/1/3
f 168/1/3 165/1/3 167/1/3
f 171/2/3 170/2/3 169/2/3
f 174/2/3 170/2/3 171/2/3
f 175/2/3 170/2/3 174/2/3
f 177/1/3 173/1/3 172/1/3
f 178/1/3 173/1/3 177/1/3
f 182/1/3 177/1/3 176/1/3
f 183/1/3 177/1/3 182/1/3
f 184/7/3 180/7/3 179/7/3
f 184/7/3 179/7/3 178/7/3
f 185/6/3 181/6/3 180/6/3
f 185/7/3 180/7/3 184/7/3
f 186/6/3 181/6/3 185/6/3
f 187/6/3 181/6/3 186/6/3
f 188/7/3 184/7/3 178/7/3
f 189/6/3 186/6/3 185/6/3
f 189/7/3 184/7/3 188/7/3
f 189/6/3 185/6/3 184/6/3
f 190/6/3 186/6/3 189/6/3
f 194/7/3 192/7/3 191/7/3
f 195/7/3 192/7/3 194/7/3
f 196/2/3 194/2/3 193/2/3
f 197/2/3 194/2/3 196/2/3
f 200/5/3 199/5/3 198/5/3
f 201/5/3 199/5/3 200/5/3
f 204/5/3 203/5/3 202/5/3
f 205/5/3 203/5/3 204/5/3
f 208/2/3 207/2/3 206/2/3
f 209/2/3 207/2/3 208/2/3
f 212/7/3 211/7/3 210/7/3
f 212/7/3 210/7/3 209/7/3
f 213/7/3 211/7/3 212/7/3
f 216/1/3 215/1/3 214/1/3
f 217/1/3 215/1/3 216/1/3
f 218/1/4 219/1/4 220/1/4
f 220/1/4 219/1/4 221/1/4
f 222/7/4 223/7/4 225/7/4
f 225/7/4 223/7/4 226/7/4
f 224/2/4 225/2/4 227/2/4
f 227/2/4 225/2/4 228/2/4
f 229/5/4 230/5/4 231/5/4
f 231/5/4 230/5/4 232/5/4
f 233/5/4 234/5/4 235/5/4
f 235/5/4 234/5/4 236/5/4
f 237/2/4 238/2/4 239/2/4
f 239/2/4 238/2/4 240/2/4
f 240/7/4 241/7/4 242/7/4
f 242/7/4 241/7/4 243/7/4
f 244/7/4 245/7/4 248/7/4
f 246/1/4 247/1/4 250/1/4
f 250/1/4 247/1/4 251/1/4
f 248/7/4 249/7/4 252/7/4
f 244/7/4 248/7/4 252/7/4
f 252/7/4 249/7/4 253/7/4
f 251/1/4 252/1/4 255/1/4
f 255/1/4 252/1/4 256/1/4
f 254/1/4 255/1/4 258/1/4
f 258/1/4 255/1/4 259/1/4
f 256/7/4 257/7/4 260/7/4
f 260/7/4 257/7/4 261/7/4
f 256/7/4 260/7/4 262/7/4
f 262/7/4 260/7/4 263/7/4
f 264/1/4 265/1/4 268/1/4
f 268/1/4 265/1/4 269/1/4
f 266/7/4 267/7/4 270/7/4
f 270/7/4 267/7/4 271/7/4
f 276/5/5 273/5/5 272/5/5
f 277/5/5 273/5/5 276/5/5
f 278/5/5 275/5/5 274/5/5
f 279/5/5 275/5/5 278/5/5
f 283/1/5 281/1/5 280/1/5
f 284/1/5 281/1/5 283/1/5
f 285/1/5 281/1/5 284/1/5
f 286/1/5 281/1/5 285/1/5
f 288/1/5 283/1/5 282/1/5
f 288/1/5 284/1/5 283/1/5
f 289/1/5 284/1/5 288/1/5
f 290/1/5 287/1/5 286/1/5
f 290/1/5 286/1/5 285/1/5
f 291/1/5 287/1/5 290/1/5
f 292/1/5 288/1/5 282/1/5
f 295/1/5 287/1/5 291/1/5
f 296/1/5 293/1/5 292/1/5
f 296/1/5 292/1/5 282/1/5
f 297/1/5 293/1/5 296/1/5
f 298/1/5 293/1/5 297/1/5
f 299/1/5 295/1/5 294/1/5
f 300/1/5 287/1/5 295/1/5
f 300/1/5 295/1/5 299/1/5
f 301/1/5 287/1/5 300/1/5
f 302/1/5 298/1/5 297/1/5
f 302/1/5 299/1/5 298/1/5
f 302/1/5 300/1/5 299/1/5
f 303/1/5 300/1/5 302/1/5
f 310/2/5 307/2/5 306/2/5
f 311/2/5 307/2/5 310/2/5
f 312/2/5 309/2/5 308/2/5
f 313/2/5 309/2/5 312/2/5
f 314/1/5 305/1/5 304/1/5
f 315/1/5 305/1/5 314/1/5
f 321/7/5 317/7/5 316/7/5
f 322/7/5 317/7/5 321/7/5
f 323/7/5 319/7/5 318/7/5
f 324/7/5 319/7/5 323/7/5
f 327/7/5 321/7/5 320/7/5
f 328/7/5 321/7/5 327/7/5
f 329/7/5 325/7/5 324/7/5
f 330/7/5 325/7/5 329/7/5
f 332/7/5 327/7/5 326/7/5
f 333/7/5 327/7/5 332/7/5
f 334/7/5 321/7/5 328/7/5
f 335/7/5 329/7/5 324/7/5
f 336/7/5 331/7/5 330/7/5
f 337/7/5 331/7/5 336/7/5
f 338/7/5 334/7/5 333/7/5
f 339/7/5 321/7/5 334/7/5
f 339/7/5 334/7/5 338/7/5
f 340/7/5 335/7/5 324/7/5
f 340/7/5 336/7/5 335/7/5
f 341/7/5 336/7/5 340/7/5
f 342/7/5 340/7/5 339/7/5
f 343/7/5 340/7/5 342/7/5
f 344/1/6 345/1/6 349/1/6
f 349/1/6 345/1/6 350/1/6
f 346/1/6 347/1/6 351/1/6
f 351/1/6 347/1/6 352/1/6
f 348/1/6 349/1/6 354/1/6
f 352/1/6 353/1/6 355/1/6
f 354/1/6 349/1/6 356/1/6
f 352/1/6 355/1/6 357/1/6
f 356/1/6 349/1/6 358/1/6
f 358/1/6 349/1/6 359/1/6
f 352/1/6 357/1/6 360/1/6
f 360/1/6 357/1/6 361/1/6
f 359/1/6 360/1/6 362/1/6
f 362/1/6 360/1/6 363/1/6
f 364/7/6 365/7/6 368/7/6
f 368/7/6 365/7/6 369/7/6
f 366/7/6 367/7/6 370/7/6
f 370/7/6 367/7/6 371/7/6
f 372/7/6 373/7/6 377/7/6
f 373/6/6 374/6/6 378/6/6
f 377/7/6 373/7/6 378/7/6
f 378/6/6 374/6/6 379/6/6
f 380/6/6 381/6/6 382/6/6
f 382/6/6 381/6/6 383/6/6
f 375/7/6 376/7/6 384/7/6
f 384/7/6 376/7/6 385/7/6
f 382/7/6 383/7/6 386/7/6
f 386/7/6 383/7/6 387/7/6
f 388/7/6 389/7/6 393/7/6
f 393/7/6 389/7/6 394/7/6
f 390/6/6 391/6/6 395/6/6
f 395/6/6 391/6/6 396/6/6
f 393/2/6 394/2/6 398/2/6
f 396/6/6 397/6/6 398/6/6
f 395/2/6 396/2/6 398/2/6
f 394/2/6 395/2/6 398/2/6
f 398/6/6 397/6/6 399/6/6
f 392/7/6 393/7/6 400/7/6
f 393/2/6 398/2/6 401/2/6
f 400/7/6 393/7/6 401/7/6
f 398/7/6 399/7/6 402/7/6
f 401/2/6 398/2/6 402/2/6
f 402/7/6 399/7/6 403/7/6
f 401/7/6 402/7/6 404/7/6
f 404/7/6 402/7/6 405/7/6
