# MagicaVoxel @ Ephtracy

# material
mtllib Head 9.mtl
usemtl palette

# normals
vn -1 0 0
vn 1 0 0
vn 0 0 1
vn 0 0 -1
vn 0 -1 0
vn 0 1 0

# texcoords
vt 0.00195312 0.5
vt 0.00585938 0.5
vt 0.00976562 0.5
vt 0.994141 0.5

# verts
v -4 4 0.5
v -4 4 -0.5
v -4 5 0.5
v -4 5 -0.5
v -3 3 -0.5
v -3 3 -2.5
v -3 4 1.5
v -3 4 0.5
v -3 4 -0.5
v -3 5 0.5
v -3 5 -0.5
v -3 6 -1.5
v -3 6 -2.5
v -3 7 1.5
v -3 7 -1.5
v -2 3 1.5
v -2 3 -0.5
v -2 3 -2.5
v -2 3 -3.5
v -2 4 1.5
v -2 4 0.5
v -2 4 -0.5
v -2 6 2.5
v -2 6 1.5
v -2 6 -1.5
v -2 6 -2.5
v -2 7 2.5
v -2 7 1.5
v -2 7 -1.5
v -2 7 -2.5
v -2 7 -3.5
v -2 8 0.5
v -2 8 -2.5
v -2 9 1.5
v -2 9 0.5
v -1 4 -3.5
v -1 4 -4.5
v -1 6 -3.5
v -1 6 -4.5
v -1 7 2.5
v -1 7 1.5
v -1 8 2.5
v -1 8 1.5
v -1 8 -0.5
v -1 8 -1.5
v -1 9 -0.5
v -1 9 -1.5
v 0 6 2.5
v 0 6 1.5
v 0 7 2.5
v 0 7 1.5
v 0 8 1.5
v 0 8 0.5
v 0 9 1.5
v 0 9 0.5
v 1 8 -0.5
v 1 8 -1.5
v 1 9 -0.5
v 1 9 -1.5
v -1 6 2.5
v -1 6 1.5
v -1 7 2.5
v -1 7 1.5
v -1 8 1.5
v -1 8 0.5
v -1 9 1.5
v -1 9 0.5
v 0 7 2.5
v 0 7 1.5
v 0 8 2.5
v 0 8 1.5
v 0 8 -0.5
v 0 8 -1.5
v 0 9 -0.5
v 0 9 -1.5
v 1 4 -3.5
v 1 4 -4.5
v 1 6 -3.5
v 1 6 -4.5
v 1 8 1.5
v 1 8 0.5
v 1 9 1.5
v 1 9 0.5
v 2 3 1.5
v 2 3 0.5
v 2 3 -0.5
v 2 3 -2.5
v 2 3 -3.5
v 2 4 1.5
v 2 4 0.5
v 2 4 -0.5
v 2 6 2.5
v 2 6 1.5
v 2 6 -1.5
v 2 6 -2.5
v 2 7 2.5
v 2 7 1.5
v 2 7 -1.5
v 2 7 -2.5
v 2 7 -3.5
v 2 8 1.5
v 2 8 -0.5
v 2 8 -1.5
v 2 8 -2.5
v 2 9 -0.5
v 2 9 -1.5
v 3 3 -0.5
v 3 3 -2.5
v 3 4 1.5
v 3 4 0.5
v 3 4 -0.5
v 3 5 0.5
v 3 5 -0.5
v 3 6 -1.5
v 3 6 -2.5
v 3 7 1.5
v 3 7 -1.5
v 4 4 0.5
v 4 4 -0.5
v 4 5 0.5
v 4 5 -0.5
v -2 6 2.5
v -2 7 2.5
v -1 6 2.5
v -1 7 2.5
v -1 8 2.5
v 0 6 2.5
v 0 7 2.5
v 0 8 2.5
v 2 6 2.5
v 2 7 2.5
v -3 4 1.5
v -3 7 1.5
v -2 3 1.5
v -2 4 1.5
v -2 5 1.5
v -2 6 1.5
v -2 7 1.5
v -2 9 1.5
v -1 4 1.5
v -1 5 1.5
v -1 6 1.5
v -1 7 1.5
v -1 8 1.5
v -1 9 1.5
v 0 3 1.5
v 0 4 1.5
v 0 6 1.5
v 0 7 1.5
v 0 8 1.5
v 0 9 1.5
v 1 4 1.5
v 1 5 1.5
v 1 8 1.5
v 1 9 1.5
v 2 3 1.5
v 2 4 1.5
v 2 5 1.5
v 2 6 1.5
v 2 7 1.5
v 2 8 1.5
v 3 4 1.5
v 3 7 1.5
v -4 4 0.5
v -4 5 0.5
v -3 4 0.5
v -3 5 0.5
v 3 4 0.5
v 3 5 0.5
v 4 4 0.5
v 4 5 0.5
v -3 3 -0.5
v -3 4 -0.5
v -2 3 -0.5
v -2 4 -0.5
v -1 8 -0.5
v -1 9 -0.5
v 0 8 -0.5
v 0 9 -0.5
v 1 8 -0.5
v 1 9 -0.5
v 2 3 -0.5
v 2 4 -0.5
v 2 8 -0.5
v 2 9 -0.5
v 3 3 -0.5
v 3 4 -0.5
v -2 8 0.5
v -2 9 0.5
v -1 8 0.5
v -1 9 0.5
v 0 8 0.5
v 0 9 0.5
v 1 8 0.5
v 1 9 0.5
v -4 4 -0.5
v -4 5 -0.5
v -3 4 -0.5
v -3 5 -0.5
v 3 4 -0.5
v 3 5 -0.5
v 4 4 -0.5
v 4 5 -0.5
v -3 6 -1.5
v -3 7 -1.5
v -2 6 -1.5
v -2 7 -1.5
v -1 8 -1.5
v -1 9 -1.5
v 0 8 -1.5
v 0 9 -1.5
v 1 8 -1.5
v 1 9 -1.5
v 2 6 -1.5
v 2 7 -1.5
v 2 8 -1.5
v 2 9 -1.5
v 3 6 -1.5
v 3 7 -1.5
v -3 3 -2.5
v -3 6 -2.5
v -2 3 -2.5
v -2 6 -2.5
v -2 7 -2.5
v -2 8 -2.5
v 2 3 -2.5
v 2 6 -2.5
v 2 7 -2.5
v 2 8 -2.5
v 3 3 -2.5
v 3 6 -2.5
v -2 3 -3.5
v -2 7 -3.5
v -1 4 -3.5
v -1 6 -3.5
v 1 4 -3.5
v 1 6 -3.5
v 2 3 -3.5
v 2 7 -3.5
v -1 4 -4.5
v -1 6 -4.5
v 1 4 -4.5
v 1 6 -4.5
v -2 3 1.5
v 0 3 1.5
v 2 3 1.5
v 0 3 0.5
v 2 3 0.5
v -3 3 -0.5
v -2 3 -0.5
v 2 3 -0.5
v 3 3 -0.5
v -3 3 -2.5
v -2 3 -2.5
v 2 3 -2.5
v 3 3 -2.5
v -2 3 -3.5
v 2 3 -3.5
v -3 4 1.5
v -2 4 1.5
v 2 4 1.5
v 3 4 1.5
v -4 4 0.5
v -3 4 0.5
v -2 4 0.5
v 2 4 0.5
v 3 4 0.5
v 4 4 0.5
v -4 4 -0.5
v -3 4 -0.5
v -2 4 -0.5
v 2 4 -0.5
v 3 4 -0.5
v 4 4 -0.5
v -1 4 -3.5
v 1 4 -3.5
v -1 4 -4.5
v 1 4 -4.5
v -2 6 2.5
v -1 6 2.5
v 0 6 2.5
v 2 6 2.5
v -2 6 1.5
v -1 6 1.5
v 0 6 1.5
v 2 6 1.5
v -1 7 2.5
v 0 7 2.5
v -1 7 1.5
v 0 7 1.5
v -4 5 0.5
v -3 5 0.5
v 3 5 0.5
v 4 5 0.5
v -4 5 -0.5
v -3 5 -0.5
v 3 5 -0.5
v 4 5 -0.5
v -3 6 -1.5
v -2 6 -1.5
v 2 6 -1.5
v 3 6 -1.5
v -3 6 -2.5
v -2 6 -2.5
v 2 6 -2.5
v 3 6 -2.5
v -1 6 -3.5
v 1 6 -3.5
v -1 6 -4.5
v 1 6 -4.5
v -2 7 2.5
v -1 7 2.5
v 0 7 2.5
v 2 7 2.5
v -3 7 1.5
v -2 7 1.5
v -1 7 1.5
v 0 7 1.5
v 2 7 1.5
v 3 7 1.5
v -3 7 -1.5
v -2 7 -1.5
v 2 7 -1.5
v 3 7 -1.5
v -2 7 -2.5
v 2 7 -2.5
v -2 7 -3.5
v 2 7 -3.5
v -1 8 2.5
v 0 8 2.5
v -1 8 1.5
v 0 8 1.5
v 1 8 1.5
v 2 8 1.5
v -2 8 0.5
v -1 8 0.5
v 0 8 0.5
v 1 8 0.5
v -1 8 -0.5
v 0 8 -0.5
v 1 8 -0.5
v 2 8 -0.5
v -1 8 -1.5
v 0 8 -1.5
v 1 8 -1.5
v 2 8 -1.5
v -2 8 -2.5
v 2 8 -2.5
v -2 9 1.5
v -1 9 1.5
v 0 9 1.5
v 1 9 1.5
v -2 9 0.5
v -1 9 0.5
v 0 9 0.5
v 1 9 0.5
v -1 9 -0.5
v 0 9 -0.5
v 1 9 -0.5
v 2 9 -0.5
v -1 9 -1.5
v 0 9 -1.5
v 1 9 -1.5
v 2 9 -1.5

# faces
f 3/1/1 2/1/1 1/1/1
f 4/1/1 2/1/1 3/1/1
f 9/3/1 6/3/1 5/3/1
f 10/3/1 8/3/1 7/3/1
f 11/3/1 6/3/1 9/3/1
f 12/3/1 6/3/1 11/3/1
f 12/3/1 11/3/1 10/3/1
f 13/3/1 6/3/1 12/3/1
f 14/3/1 10/3/1 7/3/1
f 14/3/1 12/3/1 10/3/1
f 15/3/1 12/3/1 14/3/1
f 20/1/1 17/1/1 16/1/1
f 21/1/1 17/1/1 20/1/1
f 22/1/1 17/1/1 21/1/1
f 26/3/1 19/3/1 18/3/1
f 27/3/1 24/3/1 23/3/1
f 28/3/1 24/3/1 27/3/1
f 29/3/1 26/3/1 25/3/1
f 30/3/1 19/3/1 26/3/1
f 30/3/1 26/3/1 29/3/1
f 31/3/1 19/3/1 30/3/1
f 32/3/1 29/3/1 28/3/1
f 32/3/1 30/3/1 29/3/1
f 33/3/1 30/3/1 32/3/1
f 34/3/1 32/3/1 28/3/1
f 35/3/1 32/3/1 34/3/1
f 38/3/1 37/3/1 36/3/1
f 39/3/1 37/3/1 38/3/1
f 42/3/1 41/3/1 40/3/1
f 43/3/1 41/3/1 42/3/1
f 46/3/1 45/3/1 44/3/1
f 47/3/1 45/3/1 46/3/1
f 50/3/1 49/3/1 48/3/1
f 51/3/1 49/3/1 50/3/1
f 54/3/1 53/3/1 52/3/1
f 55/3/1 53/3/1 54/3/1
f 58/3/1 57/3/1 56/3/1
f 59/3/1 57/3/1 58/3/1
f 60/3/2 61/3/2 62/3/2
f 62/3/2 61/3/2 63/3/2
f 64/3/2 65/3/2 66/3/2
f 66/3/2 65/3/2 67/3/2
f 68/3/2 69/3/2 70/3/2
f 70/3/2 69/3/2 71/3/2
f 72/3/2 73/3/2 74/3/2
f 74/3/2 73/3/2 75/3/2
f 76/3/2 77/3/2 78/3/2
f 78/3/2 77/3/2 79/3/2
f 80/3/2 81/3/2 82/3/2
f 82/3/2 81/3/2 83/3/2
f 84/2/2 85/2/2 89/2/2
f 85/1/2 86/1/2 90/1/2
f 89/2/2 85/2/2 90/2/2
f 90/1/2 86/1/2 91/1/2
f 87/3/2 88/3/2 95/3/2
f 92/3/2 93/3/2 96/3/2
f 96/3/2 93/3/2 97/3/2
f 94/3/2 95/3/2 98/3/2
f 95/3/2 88/3/2 99/3/2
f 98/3/2 95/3/2 99/3/2
f 99/3/2 88/3/2 100/3/2
f 97/3/2 98/3/2 101/3/2
f 98/3/2 99/3/2 101/3/2
f 101/3/2 99/3/2 102/3/2
f 102/3/2 99/3/2 103/3/2
f 103/3/2 99/3/2 104/3/2
f 102/3/2 103/3/2 105/3/2
f 105/3/2 103/3/2 106/3/2
f 107/3/2 108/3/2 111/3/2
f 109/3/2 110/3/2 112/3/2
f 111/3/2 108/3/2 113/3/2
f 113/3/2 108/3/2 114/3/2
f 112/3/2 113/3/2 114/3/2
f 114/3/2 108/3/2 115/3/2
f 109/3/2 112/3/2 116/3/2
f 112/3/2 114/3/2 116/3/2
f 116/3/2 114/3/2 117/3/2
f 118/1/2 119/1/2 120/1/2
f 120/1/2 119/1/2 121/1/2
f 124/3/3 123/3/3 122/3/3
f 125/3/3 123/3/3 124/3/3
f 128/3/3 126/3/3 125/3/3
f 129/3/3 126/3/3 128/3/3
f 130/3/3 128/3/3 127/3/3
f 131/3/3 128/3/3 130/3/3
f 135/3/3 133/3/3 132/3/3
f 136/3/3 133/3/3 135/3/3
f 137/3/3 133/3/3 136/3/3
f 138/3/3 133/3/3 137/3/3
f 140/1/3 135/1/3 134/1/3
f 140/4/3 136/4/3 135/4/3
f 141/2/3 137/2/3 136/2/3
f 141/4/3 136/4/3 140/4/3
f 142/2/3 137/2/3 141/2/3
f 143/3/3 139/3/3 138/3/3
f 144/3/3 139/3/3 143/3/3
f 145/3/3 139/3/3 144/3/3
f 146/1/3 140/1/3 134/1/3
f 147/2/3 142/2/3 141/2/3
f 147/1/3 140/1/3 146/1/3
f 147/2/3 141/2/3 140/2/3
f 148/3/3 143/3/3 142/3/3
f 148/2/3 142/2/3 147/2/3
f 149/3/3 143/3/3 148/3/3
f 152/2/3 147/2/3 146/2/3
f 152/2/3 148/2/3 147/2/3
f 153/2/3 148/2/3 152/2/3
f 154/3/3 151/3/3 150/3/3
f 154/3/3 150/3/3 149/3/3
f 155/3/3 151/3/3 154/3/3
f 156/2/3 152/2/3 146/2/3
f 157/4/3 153/4/3 152/4/3
f 157/2/3 152/2/3 156/2/3
f 158/2/3 148/2/3 153/2/3
f 158/4/3 153/4/3 157/4/3
f 159/2/3 148/2/3 158/2/3
f 160/3/3 154/3/3 149/3/3
f 161/3/3 154/3/3 160/3/3
f 162/3/3 159/3/3 158/3/3
f 162/3/3 160/3/3 159/3/3
f 162/3/3 158/3/3 157/3/3
f 163/3/3 160/3/3 162/3/3
f 166/1/3 165/1/3 164/1/3
f 167/1/3 165/1/3 166/1/3
f 170/1/3 169/1/3 168/1/3
f 171/1/3 169/1/3 170/1/3
f 174/3/3 173/3/3 172/3/3
f 175/3/3 173/3/3 174/3/3
f 178/3/3 177/3/3 176/3/3
f 179/3/3 177/3/3 178/3/3
f 184/3/3 181/3/3 180/3/3
f 185/3/3 181/3/3 184/3/3
f 186/3/3 183/3/3 182/3/3
f 187/3/3 183/3/3 186/3/3
f 188/3/4 189/3/4 190/3/4
f 190/3/4 189/3/4 191/3/4
f 192/3/4 193/3/4 194/3/4
f 194/3/4 193/3/4 195/3/4
f 196/1/4 197/1/4 198/1/4
f 198/1/4 197/1/4 199/1/4
f 200/1/4 201/1/4 202/1/4
f 202/1/4 201/1/4 203/1/4
f 204/3/4 205/3/4 206/3/4
f 206/3/4 205/3/4 207/3/4
f 208/3/4 209/3/4 210/3/4
f 210/3/4 209/3/4 211/3/4
f 212/3/4 213/3/4 216/3/4
f 216/3/4 213/3/4 217/3/4
f 214/3/4 215/3/4 218/3/4
f 218/3/4 215/3/4 219/3/4
f 220/3/4 221/3/4 222/3/4
f 222/3/4 221/3/4 223/3/4
f 224/3/4 225/3/4 228/3/4
f 228/3/4 225/3/4 229/3/4
f 226/3/4 227/3/4 230/3/4
f 230/3/4 227/3/4 231/3/4
f 232/3/4 233/3/4 234/3/4
f 234/3/4 233/3/4 235/3/4
f 232/3/4 234/3/4 236/3/4
f 235/3/4 233/3/4 237/3/4
f 232/3/4 236/3/4 238/3/4
f 236/3/4 237/3/4 238/3/4
f 237/3/4 233/3/4 239/3/4
f 238/3/4 237/3/4 239/3/4
f 240/3/4 241/3/4 242/3/4
f 242/3/4 241/3/4 243/3/4
f 247/1/5 245/1/5 244/1/5
f 247/2/5 246/2/5 245/2/5
f 248/2/5 246/2/5 247/2/5
f 250/1/5 247/1/5 244/1/5
f 250/1/5 248/1/5 247/1/5
f 251/1/5 248/1/5 250/1/5
f 253/3/5 251/3/5 250/3/5
f 253/3/5 252/3/5 251/3/5
f 253/3/5 250/3/5 249/3/5
f 254/3/5 252/3/5 253/3/5
f 255/3/5 252/3/5 254/3/5
f 256/3/5 252/3/5 255/3/5
f 257/3/5 255/3/5 254/3/5
f 258/3/5 255/3/5 257/3/5
f 264/3/5 260/3/5 259/3/5
f 265/3/5 260/3/5 264/3/5
f 266/3/5 262/3/5 261/3/5
f 267/3/5 262/3/5 266/3/5
f 269/1/5 264/1/5 263/1/5
f 270/2/5 265/2/5 264/2/5
f 270/1/5 264/1/5 269/1/5
f 271/2/5 265/2/5 270/2/5
f 272/2/5 267/2/5 266/2/5
f 273/1/5 268/1/5 267/1/5
f 273/2/5 267/2/5 272/2/5
f 274/1/5 268/1/5 273/1/5
f 277/3/5 276/3/5 275/3/5
f 278/3/5 276/3/5 277/3/5
f 283/3/5 280/3/5 279/3/5
f 284/3/5 280/3/5 283/3/5
f 285/3/5 282/3/5 281/3/5
f 286/3/5 282/3/5 285/3/5
f 289/3/5 288/3/5 287/3/5
f 290/3/5 288/3/5 289/3/5
f 291/1/6 292/1/6 295/1/6
f 295/1/6 292/1/6 296/1/6
f 293/1/6 294/1/6 297/1/6
f 297/1/6 294/1/6 298/1/6
f 299/3/6 300/3/6 303/3/6
f 303/3/6 300/3/6 304/3/6
f 301/3/6 302/3/6 305/3/6
f 305/3/6 302/3/6 306/3/6
f 307/3/6 308/3/6 309/3/6
f 309/3/6 308/3/6 310/3/6
f 311/3/6 312/3/6 316/3/6
f 316/3/6 312/3/6 317/3/6
f 313/3/6 314/3/6 318/3/6
f 318/3/6 314/3/6 319/3/6
f 315/3/6 316/3/6 321/3/6
f 321/3/6 316/3/6 322/3/6
f 319/3/6 320/3/6 323/3/6
f 323/3/6 320/3/6 324/3/6
f 325/3/6 326/3/6 327/3/6
f 327/3/6 326/3/6 328/3/6
f 329/3/6 330/3/6 331/3/6
f 331/3/6 330/3/6 332/3/6
f 331/3/6 332/3/6 336/3/6
f 336/3/6 332/3/6 337/3/6
f 333/3/6 334/3/6 338/3/6
f 336/3/6 337/3/6 339/3/6
f 337/3/6 338/3/6 339/3/6
f 335/3/6 336/3/6 339/3/6
f 339/3/6 338/3/6 340/3/6
f 338/3/6 334/3/6 341/3/6
f 340/3/6 338/3/6 341/3/6
f 341/3/6 334/3/6 342/3/6
f 335/3/6 339/3/6 343/3/6
f 340/3/6 341/3/6 344/3/6
f 344/3/6 341/3/6 345/3/6
f 335/3/6 343/3/6 347/3/6
f 345/3/6 346/3/6 347/3/6
f 344/3/6 345/3/6 347/3/6
f 343/3/6 344/3/6 347/3/6
f 347/3/6 346/3/6 348/3/6
f 349/3/6 350/3/6 353/3/6
f 353/3/6 350/3/6 354/3/6
f 351/3/6 352/3/6 355/3/6
f 355/3/6 352/3/6 356/3/6
f 357/3/6 358/3/6 361/3/6
f 361/3/6 358/3/6 362/3/6
f 359/3/6 360/3/6 363/3/6
f 363/3/6 360/3/6 364/3/6
