# MagicaVoxel @ Ephtracy

# material
mtllib Head 6.mtl
usemtl palette

# normals
vn -1 0 0
vn 1 0 0
vn 0 0 1
vn 0 0 -1
vn 0 -1 0
vn 0 1 0

# texcoords
vt 0.00195312 0.5
vt 0.00585938 0.5
vt 0.00976562 0.5
vt 0.638672 0.5
vt 0.994141 0.5

# verts
v -5 6 1.5
v -5 6 0.5
v -5 6 -0.5
v -5 6 -2.5
v -5 7 0.5
v -5 7 -0.5
v -5 7 -1.5
v -5 8 0.5
v -5 8 -0.5
v -5 9 0.5
v -5 9 -1.5
v -5 10 1.5
v -5 10 -2.5
v -4 5 1.5
v -4 5 -2.5
v -4 6 2.5
v -4 6 1.5
v -4 6 0.5
v -4 6 -0.5
v -4 6 -2.5
v -4 6 -3.5
v -4 10 2.5
v -4 10 1.5
v -4 10 -2.5
v -4 10 -3.5
v -4 11 1.5
v -4 11 -2.5
v -2 6 -2.5
v -2 6 -3.5
v -2 9 2.5
v -2 9 0.5
v -2 9 -1.5
v -2 9 -2.5
v -2 10 2.5
v -2 10 0.5
v -2 10 -1.5
v -2 10 -2.5
v -2 10 -3.5
v -2 11 0.5
v -2 11 -2.5
v -1 7 -3.5
v -1 7 -4.5
v -1 10 1.5
v -1 10 0.5
v -1 10 -2.5
v -1 10 -3.5
v -1 10 -4.5
v -1 11 1.5
v -1 11 0.5
v -1 11 -2.5
v -1 11 -3.5
v 1 8 2.5
v 1 8 1.5
v 1 9 2.5
v 1 9 1.5
v 2 7 2.5
v 2 7 1.5
v 2 8 2.5
v 2 8 1.5
v 3 5 1.5
v 3 5 -2.5
v 3 6 2.5
v 3 6 1.5
v 3 6 -2.5
v 3 6 -3.5
v 3 7 2.5
v 3 7 1.5
v 3 9 2.5
v 3 9 0.5
v 3 9 -1.5
v 3 9 -2.5
v 3 10 2.5
v 3 10 1.5
v 3 10 0.5
v 3 10 -1.5
v 3 10 -2.5
v 3 10 -3.5
v 3 11 1.5
v 3 11 -2.5
v -3 5 1.5
v -3 5 -2.5
v -3 6 2.5
v -3 6 1.5
v -3 6 -2.5
v -3 6 -3.5
v -3 7 2.5
v -3 7 1.5
v -3 9 2.5
v -3 9 0.5
v -3 9 -1.5
v -3 9 -2.5
v -3 10 2.5
v -3 10 1.5
v -3 10 0.5
v -3 10 -1.5
v -3 10 -2.5
v -3 10 -3.5
v -3 11 1.5
v -3 11 -2.5
v -2 7 2.5
v -2 7 1.5
v -2 8 2.5
v -2 8 1.5
v 0 8 2.5
v 0 8 1.5
v 0 9 2.5
v 0 9 1.5
v 1 7 -3.5
v 1 7 -4.5
v 1 10 1.5
v 1 10 0.5
v 1 10 -2.5
v 1 10 -3.5
v 1 10 -4.5
v 1 11 1.5
v 1 11 0.5
v 1 11 -2.5
v 1 11 -3.5
v 2 6 -2.5
v 2 6 -3.5
v 2 9 2.5
v 2 9 0.5
v 2 9 -1.5
v 2 9 -2.5
v 2 10 2.5
v 2 10 0.5
v 2 10 -1.5
v 2 10 -2.5
v 2 10 -3.5
v 2 11 0.5
v 2 11 -2.5
v 4 5 1.5
v 4 5 -2.5
v 4 6 2.5
v 4 6 1.5
v 4 6 0.5
v 4 6 -0.5
v 4 6 -2.5
v 4 6 -3.5
v 4 10 2.5
v 4 10 1.5
v 4 10 -2.5
v 4 10 -3.5
v 4 11 1.5
v 4 11 -2.5
v 5 6 1.5
v 5 6 0.5
v 5 6 -0.5
v 5 6 -2.5
v 5 7 0.5
v 5 7 -0.5
v 5 7 -1.5
v 5 8 0.5
v 5 8 -0.5
v 5 9 0.5
v 5 9 -1.5
v 5 10 1.5
v 5 10 -2.5
v -4 6 2.5
v -4 10 2.5
v -3 6 2.5
v -3 7 2.5
v -3 9 2.5
v -3 10 2.5
v -2 7 2.5
v -2 8 2.5
v -2 9 2.5
v -2 10 2.5
v 0 8 2.5
v 0 9 2.5
v 1 8 2.5
v 1 9 2.5
v 2 7 2.5
v 2 8 2.5
v 2 9 2.5
v 2 10 2.5
v 3 6 2.5
v 3 7 2.5
v 3 9 2.5
v 3 10 2.5
v 4 6 2.5
v 4 10 2.5
v -5 6 1.5
v -5 10 1.5
v -4 5 1.5
v -4 6 1.5
v -4 10 1.5
v -4 11 1.5
v -3 5 1.5
v -3 6 1.5
v -3 7 1.5
v -3 10 1.5
v -3 11 1.5
v -2 6 1.5
v -2 7 1.5
v -2 8 1.5
v -1 7 1.5
v -1 8 1.5
v -1 10 1.5
v -1 11 1.5
v 0 6 1.5
v 0 7 1.5
v 0 8 1.5
v 0 9 1.5
v 1 7 1.5
v 1 8 1.5
v 1 9 1.5
v 1 10 1.5
v 1 11 1.5
v 2 6 1.5
v 2 7 1.5
v 2 8 1.5
v 3 5 1.5
v 3 6 1.5
v 3 7 1.5
v 3 10 1.5
v 3 11 1.5
v 4 5 1.5
v 4 6 1.5
v 4 10 1.5
v 4 11 1.5
v 5 6 1.5
v 5 10 1.5
v -3 9 0.5
v -3 10 0.5
v -2 9 0.5
v -2 10 0.5
v -2 11 0.5
v -1 10 0.5
v -1 11 0.5
v 1 10 0.5
v 1 11 0.5
v 2 9 0.5
v 2 10 0.5
v 2 11 0.5
v 3 9 0.5
v 3 10 0.5
v -3 9 -1.5
v -3 10 -1.5
v -2 9 -1.5
v -2 10 -1.5
v 2 9 -1.5
v 2 10 -1.5
v 3 9 -1.5
v 3 10 -1.5
v -5 6 -2.5
v -5 10 -2.5
v -4 5 -2.5
v -4 6 -2.5
v -4 10 -2.5
v -4 11 -2.5
v -3 5 -2.5
v -3 6 -2.5
v -3 9 -2.5
v -3 10 -2.5
v -3 11 -2.5
v -2 6 -2.5
v -2 9 -2.5
v -2 10 -2.5
v -2 11 -2.5
v -1 10 -2.5
v -1 11 -2.5
v 1 10 -2.5
v 1 11 -2.5
v 2 6 -2.5
v 2 9 -2.5
v 2 10 -2.5
v 2 11 -2.5
v 3 5 -2.5
v 3 6 -2.5
v 3 9 -2.5
v 3 10 -2.5
v 3 11 -2.5
v 4 5 -2.5
v 4 6 -2.5
v 4 10 -2.5
v 4 11 -2.5
v 5 6 -2.5
v 5 10 -2.5
v -4 6 -3.5
v -4 10 -3.5
v -3 6 -3.5
v -3 10 -3.5
v -2 6 -3.5
v -2 10 -3.5
v -1 7 -3.5
v -1 10 -3.5
v -1 11 -3.5
v 1 7 -3.5
v 1 10 -3.5
v 1 11 -3.5
v 2 6 -3.5
v 2 10 -3.5
v 3 6 -3.5
v 3 10 -3.5
v 4 6 -3.5
v 4 10 -3.5
v -1 7 -4.5
v -1 10 -4.5
v 1 7 -4.5
v 1 10 -4.5
v -4 5 1.5
v -3 5 1.5
v 3 5 1.5
v 4 5 1.5
v -4 5 -2.5
v -3 5 -2.5
v 3 5 -2.5
v 4 5 -2.5
v -4 6 2.5
v -3 6 2.5
v 3 6 2.5
v 4 6 2.5
v -5 6 1.5
v -4 6 1.5
v -3 6 1.5
v -2 6 1.5
v 0 6 1.5
v 2 6 1.5
v 3 6 1.5
v 4 6 1.5
v 5 6 1.5
v -5 6 0.5
v -4 6 0.5
v -2 6 0.5
v 0 6 0.5
v 2 6 0.5
v 4 6 0.5
v 5 6 0.5
v -5 6 -0.5
v -4 6 -0.5
v 4 6 -0.5
v 5 6 -0.5
v -5 6 -2.5
v -4 6 -2.5
v -3 6 -2.5
v -2 6 -2.5
v 2 6 -2.5
v 3 6 -2.5
v 4 6 -2.5
v 5 6 -2.5
v -4 6 -3.5
v -3 6 -3.5
v -2 6 -3.5
v 2 6 -3.5
v 3 6 -3.5
v 4 6 -3.5
v -3 7 2.5
v -2 7 2.5
v 2 7 2.5
v 3 7 2.5
v -3 7 1.5
v -2 7 1.5
v 2 7 1.5
v 3 7 1.5
v -1 7 -3.5
v 1 7 -3.5
v -1 7 -4.5
v 1 7 -4.5
v -2 8 2.5
v 0 8 2.5
v 1 8 2.5
v 2 8 2.5
v -2 8 1.5
v -1 8 1.5
v 0 8 1.5
v 1 8 1.5
v 2 8 1.5
v 0 9 2.5
v 1 9 2.5
v 0 9 1.5
v 1 9 1.5
v -3 9 2.5
v -2 9 2.5
v 2 9 2.5
v 3 9 2.5
v -3 9 0.5
v -2 9 0.5
v 2 9 0.5
v 3 9 0.5
v -3 9 -1.5
v -2 9 -1.5
v 2 9 -1.5
v 3 9 -1.5
v -3 9 -2.5
v -2 9 -2.5
v 2 9 -2.5
v 3 9 -2.5
v -4 10 2.5
v -3 10 2.5
v -2 10 2.5
v 2 10 2.5
v 3 10 2.5
v 4 10 2.5
v -5 10 1.5
v -4 10 1.5
v -3 10 1.5
v -1 10 1.5
v 1 10 1.5
v 3 10 1.5
v 4 10 1.5
v 5 10 1.5
v -3 10 0.5
v -2 10 0.5
v -1 10 0.5
v 1 10 0.5
v 2 10 0.5
v 3 10 0.5
v -3 10 -1.5
v -2 10 -1.5
v 2 10 -1.5
v 3 10 -1.5
v -5 10 -2.5
v -4 10 -2.5
v -3 10 -2.5
v -2 10 -2.5
v -1 10 -2.5
v 1 10 -2.5
v 2 10 -2.5
v 3 10 -2.5
v 4 10 -2.5
v 5 10 -2.5
v -4 10 -3.5
v -3 10 -3.5
v -2 10 -3.5
v -1 10 -3.5
v 1 10 -3.5
v 2 10 -3.5
v 3 10 -3.5
v 4 10 -3.5
v -1 10 -4.5
v 1 10 -4.5
v -4 11 1.5
v -3 11 1.5
v -1 11 1.5
v 1 11 1.5
v 3 11 1.5
v 4 11 1.5
v -2 11 0.5
v -1 11 0.5
v 1 11 0.5
v 2 11 0.5
v -4 11 -2.5
v -3 11 -2.5
v -2 11 -2.5
v -1 11 -2.5
v 1 11 -2.5
v 2 11 -2.5
v 3 11 -2.5
v 4 11 -2.5
v -1 11 -3.5
v 1 11 -3.5

# faces
f 5/3/1 2/3/1 1/3/1
f 5/4/1 3/4/1 2/4/1
f 6/3/1 4/3/1 3/3/1
f 6/4/1 3/4/1 5/4/1
f 7/3/1 4/3/1 6/3/1
f 8/3/1 5/3/1 1/3/1
f 8/3/1 6/3/1 5/3/1
f 9/4/1 7/4/1 6/4/1
f 9/3/1 6/3/1 8/3/1
f 10/3/1 8/3/1 1/3/1
f 10/4/1 9/4/1 8/4/1
f 11/3/1 4/3/1 7/3/1
f 11/4/1 9/4/1 10/4/1
f 11/4/1 7/4/1 9/4/1
f 12/3/1 10/3/1 1/3/1
f 12/3/1 11/3/1 10/3/1
f 13/3/1 4/3/1 11/3/1
f 13/3/1 11/3/1 12/3/1
f 17/3/1 15/3/1 14/3/1
f 18/3/1 15/3/1 17/3/1
f 19/3/1 15/3/1 18/3/1
f 20/3/1 15/3/1 19/3/1
f 22/3/1 17/3/1 16/3/1
f 23/3/1 17/3/1 22/3/1
f 24/3/1 21/3/1 20/3/1
f 25/3/1 21/3/1 24/3/1
f 26/3/1 24/3/1 23/3/1
f 27/3/1 24/3/1 26/3/1
f 33/3/1 29/3/1 28/3/1
f 34/3/1 31/3/1 30/3/1
f 35/3/1 31/3/1 34/3/1
f 36/3/1 33/3/1 32/3/1
f 37/3/1 29/3/1 33/3/1
f 37/3/1 33/3/1 36/3/1
f 38/3/1 29/3/1 37/3/1
f 39/3/1 36/3/1 35/3/1
f 39/3/1 37/3/1 36/3/1
f 40/3/1 37/3/1 39/3/1
f 46/3/1 42/3/1 41/3/1
f 47/3/1 42/3/1 46/3/1
f 48/3/1 44/3/1 43/3/1
f 49/3/1 44/3/1 48/3/1
f 50/3/1 46/3/1 45/3/1
f 51/3/1 46/3/1 50/3/1
f 54/3/1 53/3/1 52/3/1
f 55/3/1 53/3/1 54/3/1
f 58/3/1 57/3/1 56/3/1
f 59/3/1 57/3/1 58/3/1
f 63/3/1 61/3/1 60/3/1
f 64/3/1 61/3/1 63/3/1
f 66/3/1 63/3/1 62/3/1
f 67/3/1 63/3/1 66/3/1
f 71/3/1 65/3/1 64/3/1
f 72/3/1 69/3/1 68/3/1
f 73/3/1 69/3/1 72/3/1
f 74/3/1 69/3/1 73/3/1
f 75/3/1 71/3/1 70/3/1
f 76/3/1 65/3/1 71/3/1
f 76/3/1 71/3/1 75/3/1
f 77/3/1 65/3/1 76/3/1
f 78/3/1 74/3/1 73/3/1
f 78/3/1 75/3/1 74/3/1
f 78/3/1 76/3/1 75/3/1
f 79/3/1 76/3/1 78/3/1
f 80/3/2 81/3/2 83/3/2
f 83/3/2 81/3/2 84/3/2
f 82/3/2 83/3/2 86/3/2
f 86/3/2 83/3/2 87/3/2
f 84/3/2 85/3/2 91/3/2
f 88/3/2 89/3/2 92/3/2
f 92/3/2 89/3/2 93/3/2
f 93/3/2 89/3/2 94/3/2
f 90/3/2 91/3/2 95/3/2
f 91/3/2 85/3/2 96/3/2
f 95/3/2 91/3/2 96/3/2
f 96/3/2 85/3/2 97/3/2
f 93/3/2 94/3/2 98/3/2
f 94/3/2 95/3/2 98/3/2
f 95/3/2 96/3/2 98/3/2
f 98/3/2 96/3/2 99/3/2
f 100/3/2 101/3/2 102/3/2
f 102/3/2 101/3/2 103/3/2
f 104/3/2 105/3/2 106/3/2
f 106/3/2 105/3/2 107/3/2
f 108/3/2 109/3/2 113/3/2
f 113/3/2 109/3/2 114/3/2
f 110/3/2 111/3/2 115/3/2
f 115/3/2 111/3/2 116/3/2
f 112/3/2 113/3/2 117/3/2
f 117/3/2 113/3/2 118/3/2
f 119/3/2 120/3/2 124/3/2
f 121/3/2 122/3/2 125/3/2
f 125/3/2 122/3/2 126/3/2
f 123/3/2 124/3/2 127/3/2
f 124/3/2 120/3/2 128/3/2
f 127/3/2 124/3/2 128/3/2
f 128/3/2 120/3/2 129/3/2
f 126/3/2 127/3/2 130/3/2
f 127/3/2 128/3/2 130/3/2
f 130/3/2 128/3/2 131/3/2
f 132/3/2 133/3/2 135/3/2
f 135/3/2 133/3/2 136/3/2
f 136/3/2 133/3/2 137/3/2
f 137/3/2 133/3/2 138/3/2
f 134/3/2 135/3/2 140/3/2
f 140/3/2 135/3/2 141/3/2
f 138/3/2 139/3/2 142/3/2
f 142/3/2 139/3/2 143/3/2
f 141/3/2 142/3/2 144/3/2
f 144/3/2 142/3/2 145/3/2
f 146/3/2 147/3/2 150/3/2
f 147/4/2 148/4/2 150/4/2
f 148/3/2 149/3/2 151/3/2
f 150/4/2 148/4/2 151/4/2
f 151/3/2 149/3/2 152/3/2
f 146/3/2 150/3/2 153/3/2
f 150/3/2 151/3/2 153/3/2
f 151/4/2 152/4/2 154/4/2
f 153/3/2 151/3/2 154/3/2
f 146/3/2 153/3/2 155/3/2
f 153/4/2 154/4/2 155/4/2
f 152/3/2 149/3/2 156/3/2
f 155/4/2 154/4/2 156/4/2
f 154/4/2 152/4/2 156/4/2
f 146/3/2 155/3/2 157/3/2
f 155/3/2 156/3/2 157/3/2
f 156/3/2 149/3/2 158/3/2
f 157/3/2 156/3/2 158/3/2
f 161/3/3 160/3/3 159/3/3
f 162/3/3 160/3/3 161/3/3
f 163/3/3 160/3/3 162/3/3
f 164/3/3 160/3/3 163/3/3
f 165/3/3 163/3/3 162/3/3
f 166/3/3 163/3/3 165/3/3
f 167/3/3 163/3/3 166/3/3
f 169/3/3 168/3/3 167/3/3
f 169/3/3 167/3/3 166/3/3
f 170/3/3 168/3/3 169/3/3
f 172/3/3 168/3/3 170/3/3
f 174/3/3 172/3/3 171/3/3
f 175/3/3 168/3/3 172/3/3
f 175/3/3 172/3/3 174/3/3
f 176/3/3 168/3/3 175/3/3
f 178/3/3 174/3/3 173/3/3
f 178/3/3 175/3/3 174/3/3
f 179/3/3 175/3/3 178/3/3
f 181/3/3 178/3/3 177/3/3
f 181/3/3 180/3/3 179/3/3
f 181/3/3 179/3/3 178/3/3
f 182/3/3 180/3/3 181/3/3
f 186/3/3 184/3/3 183/3/3
f 187/3/3 184/3/3 186/3/3
f 189/3/3 186/3/3 185/3/3
f 190/3/3 186/3/3 189/3/3
f 192/3/3 188/3/3 187/3/3
f 193/3/3 188/3/3 192/3/3
f 194/3/3 191/3/3 190/3/3
f 195/3/3 191/3/3 194/3/3
f 197/1/3 195/1/3 194/1/3
f 197/5/3 196/5/3 195/5/3
f 198/5/3 196/5/3 197/5/3
f 201/1/3 197/1/3 194/1/3
f 202/2/3 198/2/3 197/2/3
f 202/1/3 197/1/3 201/1/3
f 203/2/3 198/2/3 202/2/3
f 205/2/3 202/2/3 201/2/3
f 205/2/3 204/2/3 203/2/3
f 205/2/3 203/2/3 202/2/3
f 206/2/3 204/2/3 205/2/3
f 207/2/3 204/2/3 206/2/3
f 208/3/3 200/3/3 199/3/3
f 209/3/3 200/3/3 208/3/3
f 210/2/3 205/2/3 201/2/3
f 211/5/3 206/5/3 205/5/3
f 211/2/3 205/2/3 210/2/3
f 212/5/3 206/5/3 211/5/3
f 214/3/3 211/3/3 210/3/3
f 215/3/3 211/3/3 214/3/3
f 218/3/3 214/3/3 213/3/3
f 219/3/3 214/3/3 218/3/3
f 220/3/3 217/3/3 216/3/3
f 221/3/3 217/3/3 220/3/3
f 222/3/3 220/3/3 219/3/3
f 223/3/3 220/3/3 222/3/3
f 226/3/3 225/3/3 224/3/3
f 227/3/3 225/3/3 226/3/3
f 229/3/3 228/3/3 227/3/3
f 230/3/3 228/3/3 229/3/3
f 234/3/3 232/3/3 231/3/3
f 235/3/3 232/3/3 234/3/3
f 236/3/3 234/3/3 233/3/3
f 237/3/3 234/3/3 236/3/3
f 238/3/4 239/3/4 240/3/4
f 240/3/4 239/3/4 241/3/4
f 242/3/4 243/3/4 244/3/4
f 244/3/4 243/3/4 245/3/4
f 246/3/4 247/3/4 249/3/4
f 249/3/4 247/3/4 250/3/4
f 248/3/4 249/3/4 252/3/4
f 252/3/4 249/3/4 253/3/4
f 250/3/4 251/3/4 255/3/4
f 255/3/4 251/3/4 256/3/4
f 253/3/4 254/3/4 257/3/4
f 257/3/4 254/3/4 258/3/4
f 259/3/4 260/3/4 261/3/4
f 261/3/4 260/3/4 262/3/4
f 263/3/4 264/3/4 267/3/4
f 267/3/4 264/3/4 268/3/4
f 265/3/4 266/3/4 270/3/4
f 270/3/4 266/3/4 271/3/4
f 269/3/4 270/3/4 274/3/4
f 274/3/4 270/3/4 275/3/4
f 272/3/4 273/3/4 276/3/4
f 276/3/4 273/3/4 277/3/4
f 275/3/4 276/3/4 278/3/4
f 278/3/4 276/3/4 279/3/4
f 280/3/4 281/3/4 282/3/4
f 282/3/4 281/3/4 283/3/4
f 284/3/4 285/3/4 286/3/4
f 286/3/4 285/3/4 287/3/4
f 284/3/4 286/3/4 289/3/4
f 287/3/4 288/3/4 290/3/4
f 290/3/4 288/3/4 291/3/4
f 284/3/4 289/3/4 292/3/4
f 289/3/4 290/3/4 292/3/4
f 292/3/4 290/3/4 293/3/4
f 294/3/4 295/3/4 296/3/4
f 296/3/4 295/3/4 297/3/4
f 298/3/4 299/3/4 300/3/4
f 300/3/4 299/3/4 301/3/4
f 306/3/5 303/3/5 302/3/5
f 307/3/5 303/3/5 306/3/5
f 308/3/5 305/3/5 304/3/5
f 309/3/5 305/3/5 308/3/5
f 315/3/5 311/3/5 310/3/5
f 316/3/5 311/3/5 315/3/5
f 320/3/5 313/3/5 312/3/5
f 321/3/5 313/3/5 320/3/5
f 323/3/5 315/3/5 314/3/5
f 324/3/5 315/3/5 323/3/5
f 325/3/5 317/3/5 316/3/5
f 325/1/5 318/1/5 317/1/5
f 326/2/5 319/2/5 318/2/5
f 326/1/5 318/1/5 325/1/5
f 327/3/5 320/3/5 319/3/5
f 327/2/5 319/2/5 326/2/5
f 328/3/5 322/3/5 321/3/5
f 329/3/5 322/3/5 328/3/5
f 330/4/5 324/4/5 323/4/5
f 331/4/5 324/4/5 330/4/5
f 332/4/5 329/4/5 328/4/5
f 333/4/5 329/4/5 332/4/5
f 334/3/5 331/3/5 330/3/5
f 335/3/5 331/3/5 334/3/5
f 336/3/5 325/3/5 316/3/5
f 336/3/5 326/3/5 325/3/5
f 336/3/5 327/3/5 326/3/5
f 337/3/5 327/3/5 336/3/5
f 338/3/5 320/3/5 327/3/5
f 338/3/5 327/3/5 337/3/5
f 339/3/5 320/3/5 338/3/5
f 340/3/5 333/3/5 332/3/5
f 341/3/5 333/3/5 340/3/5
f 342/3/5 336/3/5 335/3/5
f 343/3/5 336/3/5 342/3/5
f 344/3/5 338/3/5 337/3/5
f 345/3/5 338/3/5 344/3/5
f 346/3/5 340/3/5 339/3/5
f 347/3/5 340/3/5 346/3/5
f 352/3/5 349/3/5 348/3/5
f 353/3/5 349/3/5 352/3/5
f 354/3/5 351/3/5 350/3/5
f 355/3/5 351/3/5 354/3/5
f 358/3/5 357/3/5 356/3/5
f 359/3/5 357/3/5 358/3/5
f 364/3/5 361/3/5 360/3/5
f 365/3/5 361/3/5 364/3/5
f 366/3/5 361/3/5 365/3/5
f 367/3/5 363/3/5 362/3/5
f 368/3/5 363/3/5 367/3/5
f 371/3/5 370/3/5 369/3/5
f 372/3/5 370/3/5 371/3/5
f 373/3/6 374/3/6 377/3/6
f 377/3/6 374/3/6 378/3/6
f 375/3/6 376/3/6 379/3/6
f 379/3/6 376/3/6 380/3/6
f 381/3/6 382/3/6 385/3/6
f 385/3/6 382/3/6 386/3/6
f 383/3/6 384/3/6 387/3/6
f 387/3/6 384/3/6 388/3/6
f 389/3/6 390/3/6 396/3/6
f 396/3/6 390/3/6 397/3/6
f 391/3/6 392/3/6 398/3/6
f 398/3/6 392/3/6 399/3/6
f 393/3/6 394/3/6 400/3/6
f 400/3/6 394/3/6 401/3/6
f 391/3/6 398/3/6 404/3/6
f 404/3/6 398/3/6 405/3/6
f 399/3/6 392/3/6 406/3/6
f 406/3/6 392/3/6 407/3/6
f 403/3/6 404/3/6 409/3/6
f 409/3/6 404/3/6 410/3/6
f 407/3/6 408/3/6 411/3/6
f 411/3/6 408/3/6 412/3/6
f 395/3/6 396/3/6 413/3/6
f 413/3/6 396/3/6 414/3/6
f 401/3/6 402/3/6 421/3/6
f 421/3/6 402/3/6 422/3/6
f 414/3/6 415/3/6 423/3/6
f 423/3/6 415/3/6 424/3/6
f 416/3/6 417/3/6 425/3/6
f 425/3/6 417/3/6 426/3/6
f 418/3/6 419/3/6 427/3/6
f 427/3/6 419/3/6 428/3/6
f 420/3/6 421/3/6 429/3/6
f 429/3/6 421/3/6 430/3/6
f 426/3/6 427/3/6 431/3/6
f 431/3/6 427/3/6 432/3/6
f 435/3/6 436/3/6 440/3/6
f 440/3/6 436/3/6 441/3/6
f 433/3/6 434/3/6 443/3/6
f 443/3/6 434/3/6 444/3/6
f 441/3/6 442/3/6 445/3/6
f 439/3/6 440/3/6 445/3/6
f 440/3/6 441/3/6 445/3/6
f 445/3/6 442/3/6 446/3/6
f 446/3/6 442/3/6 447/3/6
f 447/3/6 442/3/6 448/3/6
f 437/3/6 438/3/6 449/3/6
f 449/3/6 438/3/6 450/3/6
f 446/3/6 447/3/6 451/3/6
f 451/3/6 447/3/6 452/3/6
