# MagicaVoxel @ Ephtracy

# material
mtllib Head 12.mtl
usemtl palette

# normals
vn -1 0 0
vn 1 0 0
vn 0 0 1
vn 0 0 -1
vn 0 -1 0
vn 0 1 0

# texcoords
vt 0.00195312 0.5
vt 0.00585938 0.5
vt 0.00976562 0.5
vt 0.994141 0.5

# verts
v -4 4 0.5
v -4 4 -0.5
v -4 5 0.5
v -4 5 -0.5
v -3 3 0.5
v -3 3 -2.5
v -3 4 0.5
v -3 4 -0.5
v -3 5 1.5
v -3 5 0.5
v -3 5 -0.5
v -3 6 -1.5
v -3 6 -2.5
v -3 7 1.5
v -3 7 -1.5
v -2 3 1.5
v -2 3 0.5
v -2 3 -2.5
v -2 3 -3.5
v -2 4 1.5
v -2 4 0.5
v -2 5 1.5
v -2 5 0.5
v -2 6 2.5
v -2 6 1.5
v -2 6 -1.5
v -2 6 -2.5
v -2 7 1.5
v -2 7 -1.5
v -2 7 -2.5
v -2 7 -3.5
v -2 8 2.5
v -2 8 -2.5
v -1 4 -3.5
v -1 4 -4.5
v -1 6 -3.5
v -1 6 -4.5
v -1 7 3.5
v -1 7 2.5
v -1 8 2.5
v -1 8 -0.5
v -1 9 3.5
v -1 9 2.5
v -1 9 1.5
v -1 9 -0.5
v -1 10 2.5
v -1 10 1.5
v 1 4 -3.5
v 1 4 -4.5
v 1 6 -3.5
v 1 6 -4.5
v 1 7 3.5
v 1 7 2.5
v 1 8 2.5
v 1 8 -0.5
v 1 9 3.5
v 1 9 2.5
v 1 9 1.5
v 1 9 -0.5
v 1 10 2.5
v 1 10 1.5
v 2 3 1.5
v 2 3 0.5
v 2 3 -2.5
v 2 3 -3.5
v 2 4 1.5
v 2 4 0.5
v 2 5 1.5
v 2 5 0.5
v 2 6 2.5
v 2 6 1.5
v 2 6 -1.5
v 2 6 -2.5
v 2 7 1.5
v 2 7 -1.5
v 2 7 -2.5
v 2 7 -3.5
v 2 8 2.5
v 2 8 -2.5
v 3 3 0.5
v 3 3 -2.5
v 3 4 0.5
v 3 4 -0.5
v 3 5 1.5
v 3 5 0.5
v 3 5 -0.5
v 3 6 -1.5
v 3 6 -2.5
v 3 7 1.5
v 3 7 -1.5
v 4 4 0.5
v 4 4 -0.5
v 4 5 0.5
v 4 5 -0.5
v -1 7 3.5
v -1 9 3.5
v 1 7 3.5
v 1 9 3.5
v -2 6 2.5
v -2 8 2.5
v -1 7 2.5
v -1 8 2.5
v -1 9 2.5
v -1 10 2.5
v 1 7 2.5
v 1 8 2.5
v 1 9 2.5
v 1 10 2.5
v 2 6 2.5
v 2 8 2.5
v -3 5 1.5
v -3 7 1.5
v -2 3 1.5
v -2 4 1.5
v -2 5 1.5
v -2 6 1.5
v -2 7 1.5
v -1 4 1.5
v -1 5 1.5
v 0 3 1.5
v 0 4 1.5
v 1 4 1.5
v 1 5 1.5
v 2 3 1.5
v 2 4 1.5
v 2 5 1.5
v 2 6 1.5
v 2 7 1.5
v 3 5 1.5
v 3 7 1.5
v -4 4 0.5
v -4 5 0.5
v -3 3 0.5
v -3 4 0.5
v -3 5 0.5
v -2 3 0.5
v -2 4 0.5
v -2 5 0.5
v 2 3 0.5
v 2 4 0.5
v 2 5 0.5
v 3 3 0.5
v 3 4 0.5
v 3 5 0.5
v 4 4 0.5
v 4 5 0.5
v -1 9 1.5
v -1 10 1.5
v 1 9 1.5
v 1 10 1.5
v -4 4 -0.5
v -4 5 -0.5
v -3 4 -0.5
v -3 5 -0.5
v -1 8 -0.5
v -1 9 -0.5
v 1 8 -0.5
v 1 9 -0.5
v 3 4 -0.5
v 3 5 -0.5
v 4 4 -0.5
v 4 5 -0.5
v -3 6 -1.5
v -3 7 -1.5
v -2 6 -1.5
v -2 7 -1.5
v 2 6 -1.5
v 2 7 -1.5
v 3 6 -1.5
v 3 7 -1.5
v -3 3 -2.5
v -3 6 -2.5
v -2 3 -2.5
v -2 6 -2.5
v -2 7 -2.5
v -2 8 -2.5
v 2 3 -2.5
v 2 6 -2.5
v 2 7 -2.5
v 2 8 -2.5
v 3 3 -2.5
v 3 6 -2.5
v -2 3 -3.5
v -2 7 -3.5
v -1 4 -3.5
v -1 6 -3.5
v 1 4 -3.5
v 1 6 -3.5
v 2 3 -3.5
v 2 7 -3.5
v -1 4 -4.5
v -1 6 -4.5
v 1 4 -4.5
v 1 6 -4.5
v -2 3 1.5
v 0 3 1.5
v 2 3 1.5
v -3 3 0.5
v -2 3 0.5
v 0 3 0.5
v 2 3 0.5
v 3 3 0.5
v -2 3 -0.5
v 2 3 -0.5
v -3 3 -2.5
v -2 3 -2.5
v 2 3 -2.5
v 3 3 -2.5
v -2 3 -3.5
v 2 3 -3.5
v -4 4 0.5
v -3 4 0.5
v 3 4 0.5
v 4 4 0.5
v -4 4 -0.5
v -3 4 -0.5
v 3 4 -0.5
v 4 4 -0.5
v -1 4 -3.5
v 1 4 -3.5
v -1 4 -4.5
v 1 4 -4.5
v -3 5 1.5
v -2 5 1.5
v 2 5 1.5
v 3 5 1.5
v -3 5 0.5
v -2 5 0.5
v 2 5 0.5
v 3 5 0.5
v -2 6 2.5
v 2 6 2.5
v -2 6 1.5
v 2 6 1.5
v -1 7 3.5
v 1 7 3.5
v -1 7 2.5
v 1 7 2.5
v -4 5 0.5
v -3 5 0.5
v 3 5 0.5
v 4 5 0.5
v -4 5 -0.5
v -3 5 -0.5
v 3 5 -0.5
v 4 5 -0.5
v -3 6 -1.5
v -2 6 -1.5
v 2 6 -1.5
v 3 6 -1.5
v -3 6 -2.5
v -2 6 -2.5
v 2 6 -2.5
v 3 6 -2.5
v -1 6 -3.5
v 1 6 -3.5
v -1 6 -4.5
v 1 6 -4.5
v -3 7 1.5
v -2 7 1.5
v 2 7 1.5
v 3 7 1.5
v -3 7 -1.5
v -2 7 -1.5
v 2 7 -1.5
v 3 7 -1.5
v -2 7 -2.5
v 2 7 -2.5
v -2 7 -3.5
v 2 7 -3.5
v -2 8 2.5
v -1 8 2.5
v 1 8 2.5
v 2 8 2.5
v -1 8 -0.5
v 1 8 -0.5
v -2 8 -2.5
v 2 8 -2.5
v -1 9 3.5
v 1 9 3.5
v -1 9 2.5
v 1 9 2.5
v -1 9 1.5
v 1 9 1.5
v -1 9 -0.5
v 1 9 -0.5
v -1 10 2.5
v 1 10 2.5
v -1 10 1.5
v 1 10 1.5

# faces
f 3/1/1 2/1/1 1/1/1
f 4/1/1 2/1/1 3/1/1
f 7/3/1 6/3/1 5/3/1
f 8/3/1 6/3/1 7/3/1
f 11/3/1 6/3/1 8/3/1
f 12/3/1 10/3/1 9/3/1
f 12/3/1 11/3/1 10/3/1
f 12/3/1 6/3/1 11/3/1
f 13/3/1 6/3/1 12/3/1
f 14/3/1 12/3/1 9/3/1
f 15/3/1 12/3/1 14/3/1
f 20/1/1 17/1/1 16/1/1
f 21/1/1 17/1/1 20/1/1
f 22/4/1 21/4/1 20/4/1
f 23/4/1 21/4/1 22/4/1
f 27/3/1 19/3/1 18/3/1
f 28/3/1 25/3/1 24/3/1
f 29/3/1 27/3/1 26/3/1
f 30/3/1 19/3/1 27/3/1
f 30/3/1 27/3/1 29/3/1
f 31/3/1 19/3/1 30/3/1
f 32/3/1 28/3/1 24/3/1
f 32/3/1 29/3/1 28/3/1
f 32/3/1 30/3/1 29/3/1
f 33/3/1 30/3/1 32/3/1
f 36/3/1 35/3/1 34/3/1
f 37/3/1 35/3/1 36/3/1
f 40/3/1 39/3/1 38/3/1
f 42/3/1 40/3/1 38/3/1
f 42/3/1 41/3/1 40/3/1
f 43/3/1 41/3/1 42/3/1
f 44/3/1 41/3/1 43/3/1
f 45/3/1 41/3/1 44/3/1
f 46/3/1 44/3/1 43/3/1
f 47/3/1 44/3/1 46/3/1
f 48/3/2 49/3/2 50/3/2
f 50/3/2 49/3/2 51/3/2
f 52/3/2 53/3/2 54/3/2
f 52/3/2 54/3/2 56/3/2
f 54/3/2 55/3/2 56/3/2
f 56/3/2 55/3/2 57/3/2
f 57/3/2 55/3/2 58/3/2
f 58/3/2 55/3/2 59/3/2
f 57/3/2 58/3/2 60/3/2
f 60/3/2 58/3/2 61/3/2
f 62/2/2 63/2/2 66/2/2
f 66/2/2 63/2/2 67/2/2
f 66/4/2 67/4/2 68/4/2
f 68/4/2 67/4/2 69/4/2
f 64/3/2 65/3/2 73/3/2
f 70/3/2 71/3/2 74/3/2
f 72/3/2 73/3/2 75/3/2
f 73/3/2 65/3/2 76/3/2
f 75/3/2 73/3/2 76/3/2
f 76/3/2 65/3/2 77/3/2
f 70/3/2 74/3/2 78/3/2
f 74/3/2 75/3/2 78/3/2
f 75/3/2 76/3/2 78/3/2
f 78/3/2 76/3/2 79/3/2
f 80/3/2 81/3/2 82/3/2
f 82/3/2 81/3/2 83/3/2
f 83/3/2 81/3/2 86/3/2
f 84/3/2 85/3/2 87/3/2
f 85/3/2 86/3/2 87/3/2
f 86/3/2 81/3/2 87/3/2
f 87/3/2 81/3/2 88/3/2
f 84/3/2 87/3/2 89/3/2
f 89/3/2 87/3/2 90/3/2
f 91/1/2 92/1/2 93/1/2
f 93/1/2 92/1/2 94/1/2
f 97/3/3 96/3/3 95/3/3
f 98/3/3 96/3/3 97/3/3
f 101/3/3 100/3/3 99/3/3
f 102/3/3 100/3/3 101/3/3
f 105/3/3 101/3/3 99/3/3
f 107/3/3 104/3/3 103/3/3
f 108/3/3 104/3/3 107/3/3
f 109/3/3 106/3/3 105/3/3
f 109/3/3 105/3/3 99/3/3
f 110/3/3 106/3/3 109/3/3
f 115/3/3 112/3/3 111/3/3
f 116/3/3 112/3/3 115/3/3
f 117/3/3 112/3/3 116/3/3
f 118/1/3 114/1/3 113/1/3
f 118/4/3 115/4/3 114/4/3
f 119/2/3 116/2/3 115/2/3
f 119/4/3 115/4/3 118/4/3
f 120/1/3 118/1/3 113/1/3
f 121/2/3 119/2/3 118/2/3
f 121/1/3 118/1/3 120/1/3
f 122/2/3 121/2/3 120/2/3
f 122/2/3 119/2/3 121/2/3
f 123/2/3 116/2/3 119/2/3
f 123/2/3 119/2/3 122/2/3
f 124/2/3 122/2/3 120/2/3
f 125/4/3 123/4/3 122/4/3
f 125/2/3 122/2/3 124/2/3
f 126/2/3 116/2/3 123/2/3
f 126/4/3 123/4/3 125/4/3
f 127/2/3 116/2/3 126/2/3
f 129/3/3 128/3/3 127/3/3
f 129/3/3 127/3/3 126/3/3
f 130/3/3 128/3/3 129/3/3
f 134/1/3 132/1/3 131/1/3
f 135/1/3 132/1/3 134/1/3
f 136/3/3 134/3/3 133/3/3
f 137/2/3 135/2/3 134/2/3
f 137/3/3 134/3/3 136/3/3
f 138/2/3 135/2/3 137/2/3
f 142/3/3 140/3/3 139/3/3
f 143/2/3 141/2/3 140/2/3
f 143/3/3 140/3/3 142/3/3
f 144/2/3 141/2/3 143/2/3
f 145/1/3 144/1/3 143/1/3
f 146/1/3 144/1/3 145/1/3
f 147/3/4 148/3/4 149/3/4
f 149/3/4 148/3/4 150/3/4
f 151/1/4 152/1/4 153/1/4
f 153/1/4 152/1/4 154/1/4
f 155/3/4 156/3/4 157/3/4
f 157/3/4 156/3/4 158/3/4
f 159/1/4 160/1/4 161/1/4
f 161/1/4 160/1/4 162/1/4
f 163/3/4 164/3/4 165/3/4
f 165/3/4 164/3/4 166/3/4
f 167/3/4 168/3/4 169/3/4
f 169/3/4 168/3/4 170/3/4
f 171/3/4 172/3/4 173/3/4
f 173/3/4 172/3/4 174/3/4
f 175/3/4 176/3/4 179/3/4
f 179/3/4 176/3/4 180/3/4
f 177/3/4 178/3/4 181/3/4
f 181/3/4 178/3/4 182/3/4
f 183/3/4 184/3/4 185/3/4
f 185/3/4 184/3/4 186/3/4
f 183/3/4 185/3/4 187/3/4
f 186/3/4 184/3/4 188/3/4
f 183/3/4 187/3/4 189/3/4
f 187/3/4 188/3/4 189/3/4
f 188/3/4 184/3/4 190/3/4
f 189/3/4 188/3/4 190/3/4
f 191/3/4 192/3/4 193/3/4
f 193/3/4 192/3/4 194/3/4
f 199/1/5 196/1/5 195/1/5
f 200/2/5 197/2/5 196/2/5
f 200/1/5 196/1/5 199/1/5
f 201/2/5 197/2/5 200/2/5
f 203/3/5 199/3/5 198/3/5
f 203/1/5 200/1/5 199/1/5
f 203/1/5 201/1/5 200/1/5
f 204/3/5 202/3/5 201/3/5
f 204/1/5 201/1/5 203/1/5
f 205/3/5 203/3/5 198/3/5
f 205/3/5 204/3/5 203/3/5
f 206/3/5 204/3/5 205/3/5
f 207/3/5 202/3/5 204/3/5
f 207/3/5 204/3/5 206/3/5
f 208/3/5 202/3/5 207/3/5
f 209/3/5 207/3/5 206/3/5
f 210/3/5 207/3/5 209/3/5
f 215/1/5 212/1/5 211/1/5
f 216/1/5 212/1/5 215/1/5
f 217/1/5 214/1/5 213/1/5
f 218/1/5 214/1/5 217/1/5
f 221/3/5 220/3/5 219/3/5
f 222/3/5 220/3/5 221/3/5
f 227/3/5 224/3/5 223/3/5
f 228/3/5 224/3/5 227/3/5
f 229/3/5 226/3/5 225/3/5
f 230/3/5 226/3/5 229/3/5
f 233/3/5 232/3/5 231/3/5
f 234/3/5 232/3/5 233/3/5
f 237/3/5 236/3/5 235/3/5
f 238/3/5 236/3/5 237/3/5
f 239/1/6 240/1/6 243/1/6
f 243/1/6 240/1/6 244/1/6
f 241/1/6 242/1/6 245/1/6
f 245/1/6 242/1/6 246/1/6
f 247/3/6 248/3/6 251/3/6
f 251/3/6 248/3/6 252/3/6
f 249/3/6 250/3/6 253/3/6
f 253/3/6 250/3/6 254/3/6
f 255/3/6 256/3/6 257/3/6
f 257/3/6 256/3/6 258/3/6
f 259/3/6 260/3/6 263/3/6
f 263/3/6 260/3/6 264/3/6
f 261/3/6 262/3/6 265/3/6
f 265/3/6 262/3/6 266/3/6
f 267/3/6 268/3/6 269/3/6
f 269/3/6 268/3/6 270/3/6
f 271/3/6 272/3/6 275/3/6
f 273/3/6 274/3/6 276/3/6
f 271/3/6 275/3/6 277/3/6
f 275/3/6 276/3/6 277/3/6
f 276/3/6 274/3/6 278/3/6
f 277/3/6 276/3/6 278/3/6
f 279/3/6 280/3/6 281/3/6
f 281/3/6 280/3/6 282/3/6
f 283/3/6 284/3/6 285/3/6
f 285/3/6 284/3/6 286/3/6
f 287/3/6 288/3/6 289/3/6
f 289/3/6 288/3/6 290/3/6
