# MagicaVoxel @ Ephtracy

# material
mtllib Head 11.mtl
usemtl palette

# normals
vn -1 0 0
vn 1 0 0
vn 0 0 1
vn 0 0 -1
vn 0 -1 0
vn 0 1 0

# texcoords
vt 0.00195312 0.5
vt 0.00585938 0.5
vt 0.00976562 0.5
vt 0.994141 0.5

# verts
v -4 4 0.5
v -4 4 -0.5
v -4 5 0.5
v -4 5 -0.5
v -3 3 0.5
v -3 3 -2.5
v -3 4 0.5
v -3 4 -0.5
v -3 5 0.5
v -3 5 -0.5
v -3 6 -1.5
v -3 6 -2.5
v -3 7 0.5
v -3 7 -1.5
v -2 3 1.5
v -2 3 0.5
v -2 3 -2.5
v -2 3 -3.5
v -2 4 1.5
v -2 4 0.5
v -2 5 2.5
v -2 5 1.5
v -2 5 0.5
v -2 6 3.5
v -2 6 2.5
v -2 6 1.5
v -2 6 0.5
v -2 6 -1.5
v -2 6 -2.5
v -2 7 0.5
v -2 7 -1.5
v -2 7 -2.5
v -2 7 -3.5
v -2 8 3.5
v -2 8 -2.5
v -1 4 -3.5
v -1 4 -4.5
v -1 5 3.5
v -1 5 2.5
v -1 6 3.5
v -1 6 2.5
v -1 6 -3.5
v -1 6 -4.5
v -1 7 -2.5
v -1 7 -3.5
v -1 8 3.5
v -1 8 -2.5
v -1 8 -3.5
v -1 9 3.5
v -1 9 -2.5
v 1 4 -3.5
v 1 4 -4.5
v 1 5 3.5
v 1 5 2.5
v 1 6 3.5
v 1 6 2.5
v 1 6 -3.5
v 1 6 -4.5
v 1 7 -2.5
v 1 7 -3.5
v 1 8 3.5
v 1 8 -2.5
v 1 8 -3.5
v 1 9 3.5
v 1 9 -2.5
v 2 3 1.5
v 2 3 0.5
v 2 3 -2.5
v 2 3 -3.5
v 2 4 1.5
v 2 4 0.5
v 2 5 2.5
v 2 5 1.5
v 2 5 0.5
v 2 6 3.5
v 2 6 2.5
v 2 6 1.5
v 2 6 0.5
v 2 6 -1.5
v 2 6 -2.5
v 2 7 0.5
v 2 7 -1.5
v 2 7 -2.5
v 2 7 -3.5
v 2 8 3.5
v 2 8 -2.5
v 3 3 0.5
v 3 3 -2.5
v 3 4 0.5
v 3 4 -0.5
v 3 5 0.5
v 3 5 -0.5
v 3 6 -1.5
v 3 6 -2.5
v 3 7 0.5
v 3 7 -1.5
v 4 4 0.5
v 4 4 -0.5
v 4 5 0.5
v 4 5 -0.5
v -2 6 3.5
v -2 8 3.5
v -1 5 3.5
v -1 6 3.5
v -1 8 3.5
v -1 9 3.5
v 1 5 3.5
v 1 6 3.5
v 1 8 3.5
v 1 9 3.5
v 2 6 3.5
v 2 8 3.5
v -2 5 2.5
v -2 6 2.5
v -1 5 2.5
v -1 6 2.5
v 1 5 2.5
v 1 6 2.5
v 2 5 2.5
v 2 6 2.5
v -2 3 1.5
v -2 4 1.5
v -2 5 1.5
v -1 4 1.5
v -1 5 1.5
v 0 3 1.5
v 0 4 1.5
v 1 4 1.5
v 1 5 1.5
v 2 3 1.5
v 2 4 1.5
v 2 5 1.5
v -4 4 0.5
v -4 5 0.5
v -3 3 0.5
v -3 4 0.5
v -3 5 0.5
v -3 7 0.5
v -2 3 0.5
v -2 4 0.5
v -2 5 0.5
v -2 6 0.5
v -2 7 0.5
v 2 3 0.5
v 2 4 0.5
v 2 5 0.5
v 2 6 0.5
v 2 7 0.5
v 3 3 0.5
v 3 4 0.5
v 3 5 0.5
v 3 7 0.5
v 4 4 0.5
v 4 5 0.5
v -4 4 -0.5
v -4 5 -0.5
v -3 4 -0.5
v -3 5 -0.5
v 3 4 -0.5
v 3 5 -0.5
v 4 4 -0.5
v 4 5 -0.5
v -3 6 -1.5
v -3 7 -1.5
v -2 6 -1.5
v -2 7 -1.5
v 2 6 -1.5
v 2 7 -1.5
v 3 6 -1.5
v 3 7 -1.5
v -3 3 -2.5
v -3 6 -2.5
v -2 3 -2.5
v -2 6 -2.5
v -2 7 -2.5
v -2 8 -2.5
v -1 7 -2.5
v -1 8 -2.5
v -1 9 -2.5
v 1 7 -2.5
v 1 8 -2.5
v 1 9 -2.5
v 2 3 -2.5
v 2 6 -2.5
v 2 7 -2.5
v 2 8 -2.5
v 3 3 -2.5
v 3 6 -2.5
v -2 3 -3.5
v -2 7 -3.5
v -1 4 -3.5
v -1 6 -3.5
v -1 7 -3.5
v -1 8 -3.5
v 1 4 -3.5
v 1 6 -3.5
v 1 7 -3.5
v 1 8 -3.5
v 2 3 -3.5
v 2 7 -3.5
v -1 4 -4.5
v -1 6 -4.5
v 1 4 -4.5
v 1 6 -4.5
v -2 3 1.5
v 0 3 1.5
v 2 3 1.5
v -3 3 0.5
v -2 3 0.5
v 0 3 0.5
v 2 3 0.5
v 3 3 0.5
v -2 3 -0.5
v 2 3 -0.5
v -3 3 -2.5
v -2 3 -2.5
v 2 3 -2.5
v 3 3 -2.5
v -2 3 -3.5
v 2 3 -3.5
v -4 4 0.5
v -3 4 0.5
v 3 4 0.5
v 4 4 0.5
v -4 4 -0.5
v -3 4 -0.5
v 3 4 -0.5
v 4 4 -0.5
v -1 4 -3.5
v 1 4 -3.5
v -1 4 -4.5
v 1 4 -4.5
v -1 5 3.5
v 1 5 3.5
v -2 5 2.5
v -1 5 2.5
v 1 5 2.5
v 2 5 2.5
v -2 5 1.5
v -1 5 1.5
v 1 5 1.5
v 2 5 1.5
v -2 6 3.5
v -1 6 3.5
v 1 6 3.5
v 2 6 3.5
v -2 6 2.5
v -1 6 2.5
v 1 6 2.5
v 2 6 2.5
v -4 5 0.5
v -3 5 0.5
v 3 5 0.5
v 4 5 0.5
v -4 5 -0.5
v -3 5 -0.5
v 3 5 -0.5
v 4 5 -0.5
v -3 6 -1.5
v -2 6 -1.5
v 2 6 -1.5
v 3 6 -1.5
v -3 6 -2.5
v -2 6 -2.5
v 2 6 -2.5
v 3 6 -2.5
v -1 6 -3.5
v 1 6 -3.5
v -1 6 -4.5
v 1 6 -4.5
v -3 7 0.5
v -2 7 0.5
v 2 7 0.5
v 3 7 0.5
v -3 7 -1.5
v -2 7 -1.5
v 2 7 -1.5
v 3 7 -1.5
v -2 7 -2.5
v -1 7 -2.5
v 1 7 -2.5
v 2 7 -2.5
v -2 7 -3.5
v -1 7 -3.5
v 1 7 -3.5
v 2 7 -3.5
v -2 8 3.5
v -1 8 3.5
v 1 8 3.5
v 2 8 3.5
v -2 8 -2.5
v -1 8 -2.5
v 1 8 -2.5
v 2 8 -2.5
v -1 8 -3.5
v 1 8 -3.5
v -1 9 3.5
v 1 9 3.5
v -1 9 -2.5
v 1 9 -2.5

# faces
f 3/1/1 2/1/1 1/1/1
f 4/1/1 2/1/1 3/1/1
f 7/3/1 6/3/1 5/3/1
f 8/3/1 6/3/1 7/3/1
f 10/3/1 6/3/1 8/3/1
f 11/3/1 6/3/1 10/3/1
f 11/3/1 10/3/1 9/3/1
f 12/3/1 6/3/1 11/3/1
f 13/3/1 11/3/1 9/3/1
f 14/3/1 11/3/1 13/3/1
f 19/1/1 16/1/1 15/1/1
f 20/1/1 16/1/1 19/1/1
f 22/4/1 20/4/1 19/4/1
f 23/4/1 20/4/1 22/4/1
f 25/3/1 22/3/1 21/3/1
f 26/2/1 23/2/1 22/2/1
f 26/3/1 22/3/1 25/3/1
f 27/2/1 23/2/1 26/2/1
f 29/3/1 18/3/1 17/3/1
f 30/3/1 27/3/1 26/3/1
f 30/3/1 26/3/1 25/3/1
f 30/3/1 25/3/1 24/3/1
f 31/3/1 29/3/1 28/3/1
f 32/3/1 18/3/1 29/3/1
f 32/3/1 29/3/1 31/3/1
f 33/3/1 18/3/1 32/3/1
f 34/3/1 30/3/1 24/3/1
f 34/3/1 31/3/1 30/3/1
f 34/3/1 32/3/1 31/3/1
f 35/3/1 32/3/1 34/3/1
f 40/3/1 39/3/1 38/3/1
f 41/3/1 39/3/1 40/3/1
f 42/3/1 37/3/1 36/3/1
f 43/3/1 37/3/1 42/3/1
f 47/3/1 45/3/1 44/3/1
f 48/3/1 45/3/1 47/3/1
f 49/3/1 47/3/1 46/3/1
f 50/3/1 47/3/1 49/3/1
f 53/3/2 54/3/2 55/3/2
f 55/3/2 54/3/2 56/3/2
f 51/3/2 52/3/2 57/3/2
f 57/3/2 52/3/2 58/3/2
f 59/3/2 60/3/2 62/3/2
f 62/3/2 60/3/2 63/3/2
f 61/3/2 62/3/2 64/3/2
f 64/3/2 62/3/2 65/3/2
f 66/2/2 67/2/2 70/2/2
f 70/2/2 67/2/2 71/2/2
f 70/4/2 71/4/2 73/4/2
f 73/4/2 71/4/2 74/4/2
f 72/3/2 73/3/2 76/3/2
f 73/2/2 74/2/2 77/2/2
f 76/3/2 73/3/2 77/3/2
f 77/2/2 74/2/2 78/2/2
f 68/3/2 69/3/2 80/3/2
f 77/3/2 78/3/2 81/3/2
f 76/3/2 77/3/2 81/3/2
f 75/3/2 76/3/2 81/3/2
f 79/3/2 80/3/2 82/3/2
f 80/3/2 69/3/2 83/3/2
f 82/3/2 80/3/2 83/3/2
f 83/3/2 69/3/2 84/3/2
f 75/3/2 81/3/2 85/3/2
f 81/3/2 82/3/2 85/3/2
f 82/3/2 83/3/2 85/3/2
f 85/3/2 83/3/2 86/3/2
f 87/3/2 88/3/2 89/3/2
f 89/3/2 88/3/2 90/3/2
f 90/3/2 88/3/2 92/3/2
f 92/3/2 88/3/2 93/3/2
f 91/3/2 92/3/2 93/3/2
f 93/3/2 88/3/2 94/3/2
f 91/3/2 93/3/2 95/3/2
f 95/3/2 93/3/2 96/3/2
f 97/1/2 98/1/2 99/1/2
f 99/1/2 98/1/2 100/1/2
f 104/3/3 102/3/3 101/3/3
f 105/3/3 102/3/3 104/3/3
f 107/3/3 104/3/3 103/3/3
f 107/3/3 106/3/3 105/3/3
f 107/3/3 105/3/3 104/3/3
f 108/3/3 106/3/3 107/3/3
f 109/3/3 106/3/3 108/3/3
f 110/3/3 106/3/3 109/3/3
f 111/3/3 109/3/3 108/3/3
f 112/3/3 109/3/3 111/3/3
f 115/3/3 114/3/3 113/3/3
f 116/3/3 114/3/3 115/3/3
f 119/3/3 118/3/3 117/3/3
f 120/3/3 118/3/3 119/3/3
f 124/1/3 122/1/3 121/1/3
f 124/4/3 123/4/3 122/4/3
f 125/4/3 123/4/3 124/4/3
f 126/1/3 124/1/3 121/1/3
f 127/2/3 125/2/3 124/2/3
f 127/1/3 124/1/3 126/1/3
f 128/2/3 127/2/3 126/2/3
f 128/2/3 125/2/3 127/2/3
f 129/2/3 125/2/3 128/2/3
f 130/2/3 128/2/3 126/2/3
f 131/4/3 129/4/3 128/4/3
f 131/2/3 128/2/3 130/2/3
f 132/4/3 129/4/3 131/4/3
f 136/1/3 134/1/3 133/1/3
f 137/1/3 134/1/3 136/1/3
f 139/3/3 136/3/3 135/3/3
f 140/2/3 137/2/3 136/2/3
f 140/3/3 136/3/3 139/3/3
f 141/3/3 138/3/3 137/3/3
f 141/2/3 137/2/3 140/2/3
f 142/3/3 138/3/3 141/3/3
f 143/3/3 138/3/3 142/3/3
f 149/3/3 145/3/3 144/3/3
f 150/2/3 146/2/3 145/2/3
f 150/3/3 145/3/3 149/3/3
f 151/3/3 148/3/3 147/3/3
f 151/2/3 146/2/3 150/2/3
f 151/3/3 147/3/3 146/3/3
f 152/3/3 148/3/3 151/3/3
f 153/1/3 151/1/3 150/1/3
f 154/1/3 151/1/3 153/1/3
f 155/1/4 156/1/4 157/1/4
f 157/1/4 156/1/4 158/1/4
f 159/1/4 160/1/4 161/1/4
f 161/1/4 160/1/4 162/1/4
f 163/3/4 164/3/4 165/3/4
f 165/3/4 164/3/4 166/3/4
f 167/3/4 168/3/4 169/3/4
f 169/3/4 168/3/4 170/3/4
f 171/3/4 172/3/4 173/3/4
f 173/3/4 172/3/4 174/3/4
f 175/3/4 176/3/4 177/3/4
f 177/3/4 176/3/4 178/3/4
f 178/3/4 179/3/4 181/3/4
f 181/3/4 179/3/4 182/3/4
f 180/3/4 181/3/4 185/3/4
f 185/3/4 181/3/4 186/3/4
f 183/3/4 184/3/4 187/3/4
f 187/3/4 184/3/4 188/3/4
f 189/3/4 190/3/4 191/3/4
f 191/3/4 190/3/4 192/3/4
f 192/3/4 190/3/4 193/3/4
f 189/3/4 191/3/4 195/3/4
f 193/3/4 194/3/4 196/3/4
f 192/3/4 193/3/4 196/3/4
f 196/3/4 194/3/4 197/3/4
f 197/3/4 194/3/4 198/3/4
f 189/3/4 195/3/4 199/3/4
f 195/3/4 196/3/4 199/3/4
f 196/3/4 197/3/4 199/3/4
f 199/3/4 197/3/4 200/3/4
f 201/3/4 202/3/4 203/3/4
f 203/3/4 202/3/4 204/3/4
f 209/1/5 206/1/5 205/1/5
f 210/2/5 207/2/5 206/2/5
f 210/1/5 206/1/5 209/1/5
f 211/2/5 207/2/5 210/2/5
f 213/3/5 209/3/5 208/3/5
f 213/1/5 210/1/5 209/1/5
f 213/1/5 211/1/5 210/1/5
f 214/3/5 212/3/5 211/3/5
f 214/1/5 211/1/5 213/1/5
f 215/3/5 213/3/5 208/3/5
f 215/3/5 214/3/5 213/3/5
f 216/3/5 214/3/5 215/3/5
f 217/3/5 212/3/5 214/3/5
f 217/3/5 214/3/5 216/3/5
f 218/3/5 212/3/5 217/3/5
f 219/3/5 217/3/5 216/3/5
f 220/3/5 217/3/5 219/3/5
f 225/1/5 222/1/5 221/1/5
f 226/1/5 222/1/5 225/1/5
f 227/1/5 224/1/5 223/1/5
f 228/1/5 224/1/5 227/1/5
f 231/3/5 230/3/5 229/3/5
f 232/3/5 230/3/5 231/3/5
f 236/3/5 234/3/5 233/3/5
f 237/3/5 234/3/5 236/3/5
f 239/3/5 236/3/5 235/3/5
f 239/3/5 238/3/5 237/3/5
f 239/3/5 237/3/5 236/3/5
f 240/3/5 238/3/5 239/3/5
f 241/3/5 238/3/5 240/3/5
f 242/3/5 238/3/5 241/3/5
f 247/3/5 244/3/5 243/3/5
f 248/3/5 244/3/5 247/3/5
f 249/3/5 246/3/5 245/3/5
f 250/3/5 246/3/5 249/3/5
f 251/1/6 252/1/6 255/1/6
f 255/1/6 252/1/6 256/1/6
f 253/1/6 254/1/6 257/1/6
f 257/1/6 254/1/6 258/1/6
f 259/3/6 260/3/6 263/3/6
f 263/3/6 260/3/6 264/3/6
f 261/3/6 262/3/6 265/3/6
f 265/3/6 262/3/6 266/3/6
f 267/3/6 268/3/6 269/3/6
f 269/3/6 268/3/6 270/3/6
f 271/3/6 272/3/6 275/3/6
f 275/3/6 272/3/6 276/3/6
f 273/3/6 274/3/6 277/3/6
f 277/3/6 274/3/6 278/3/6
f 279/3/6 280/3/6 283/3/6
f 283/3/6 280/3/6 284/3/6
f 281/3/6 282/3/6 285/3/6
f 285/3/6 282/3/6 286/3/6
f 287/3/6 288/3/6 291/3/6
f 291/3/6 288/3/6 292/3/6
f 289/3/6 290/3/6 293/3/6
f 293/3/6 290/3/6 294/3/6
f 292/3/6 293/3/6 295/3/6
f 295/3/6 293/3/6 296/3/6
f 297/3/6 298/3/6 299/3/6
f 299/3/6 298/3/6 300/3/6
