# MagicaVoxel @ Ephtracy

# material
mtllib Octo guy arm 1.mtl
usemtl palette

# normals
vn -1 0 0
vn 1 0 0
vn 0 0 1
vn 0 0 -1
vn 0 -1 0
vn 0 1 0

# texcoords
vt 0.134766 0.5
vt 0.138672 0.5

# verts
v -3 0 5
v -3 0 3
v -3 3 5
v -3 3 4
v -3 3 3
v -3 3 2
v -3 4 5
v -3 4 4
v -3 4 3
v -3 4 2
v -3 4 1
v -3 4 -0
v -3 4 -2
v -3 4 -3
v -3 4 -4
v -3 5 4
v -3 5 1
v -3 5 -0
v -3 5 -2
v -3 5 -3
v -3 6 -2
v -3 6 -3
v -3 7 -3
v -3 7 -4
v -2 4 2
v -2 4 1
v -2 4 -0
v -2 4 -2
v -2 4 -3
v -2 4 -4
v -2 5 2
v -2 5 1
v -2 5 -0
v -2 5 -2
v -2 5 -3
v -2 6 -2
v -2 6 -3
v -2 7 -3
v -2 7 -4
v -1 0 5
v -1 0 4
v -1 0 3
v -1 1 4
v -1 1 3
v -1 3 3
v -1 3 2
v -1 4 5
v -1 4 4
v -1 4 3
v -1 4 2
v -1 5 4
v -1 5 2
v -3 0 5
v -3 3 5
v -3 4 5
v -2 3 5
v -2 4 5
v -1 0 5
v -1 4 5
v -3 4 4
v -3 5 4
v -2 4 4
v -1 4 4
v -1 5 4
v -3 5 -2
v -3 6 -2
v -2 5 -2
v -2 6 -2
v -3 6 -3
v -3 7 -3
v -2 6 -3
v -2 7 -3
v -3 0 3
v -3 3 3
v -2 0 3
v -2 1 3
v -1 0 3
v -1 1 3
v -1 3 3
v -3 3 2
v -3 4 2
v -2 4 2
v -2 5 2
v -1 3 2
v -1 4 2
v -1 5 2
v -3 4 -4
v -3 7 -4
v -2 4 -4
v -2 7 -4
v -3 0 5
v -1 0 5
v -2 0 4
v -1 0 4
v -3 0 3
v -2 0 3
v -1 0 3
v -3 3 3
v -1 3 3
v -3 3 2
v -1 3 2
v -3 4 2
v -2 4 2
v -3 4 1
v -2 4 1
v -3 4 -0
v -2 4 -0
v -3 4 -2
v -2 4 -2
v -3 4 -3
v -2 4 -3
v -3 4 -4
v -2 4 -4
v -3 4 5
v -2 4 5
v -1 4 5
v -3 4 4
v -2 4 4
v -1 4 4
v -3 5 4
v -1 5 4
v -2 5 2
v -1 5 2
v -3 5 1
v -2 5 1
v -3 5 -0
v -2 5 -0
v -3 5 -2
v -2 5 -2
v -3 6 -2
v -2 6 -2
v -3 6 -3
v -2 6 -3
v -3 7 -3
v -2 7 -3
v -3 7 -4
v -2 7 -4

# faces
f 3/2/1 2/2/1 1/2/1
f 4/2/1 2/2/1 3/2/1
f 5/2/1 2/2/1 4/2/1
f 7/1/1 4/1/1 3/1/1
f 8/2/1 5/2/1 4/2/1
f 8/1/1 4/1/1 7/1/1
f 9/1/1 6/1/1 5/1/1
f 9/2/1 5/2/1 8/2/1
f 10/1/1 6/1/1 9/1/1
f 16/2/1 9/2/1 8/2/1
f 16/2/1 10/2/1 9/2/1
f 16/2/1 11/2/1 10/2/1
f 17/1/1 12/1/1 11/1/1
f 17/2/1 11/2/1 16/2/1
f 18/2/1 13/2/1 12/2/1
f 18/1/1 12/1/1 17/1/1
f 19/1/1 14/1/1 13/1/1
f 19/2/1 13/2/1 18/2/1
f 20/2/1 15/2/1 14/2/1
f 20/1/1 14/1/1 19/1/1
f 21/2/1 20/2/1 19/2/1
f 22/2/1 15/2/1 20/2/1
f 22/2/1 20/2/1 21/2/1
f 23/2/1 15/2/1 22/2/1
f 24/2/1 15/2/1 23/2/1
f 25/2/2 26/2/2 31/2/2
f 26/1/2 27/1/2 32/1/2
f 31/2/2 26/2/2 32/2/2
f 27/2/2 28/2/2 33/2/2
f 32/1/2 27/1/2 33/1/2
f 28/1/2 29/1/2 34/1/2
f 33/2/2 28/2/2 34/2/2
f 29/2/2 30/2/2 35/2/2
f 34/1/2 29/1/2 35/1/2
f 34/2/2 35/2/2 36/2/2
f 35/2/2 30/2/2 37/2/2
f 36/2/2 35/2/2 37/2/2
f 37/2/2 30/2/2 38/2/2
f 38/2/2 30/2/2 39/2/2
f 40/2/2 41/2/2 43/2/2
f 41/1/2 42/1/2 43/1/2
f 43/1/2 42/1/2 44/1/2
f 43/2/2 44/2/2 45/2/2
f 40/2/2 43/2/2 47/2/2
f 43/2/2 45/2/2 47/2/2
f 47/2/2 45/2/2 48/2/2
f 45/1/2 46/1/2 49/1/2
f 48/2/2 45/2/2 49/2/2
f 49/1/2 46/1/2 50/1/2
f 48/2/2 49/2/2 51/2/2
f 49/2/2 50/2/2 51/2/2
f 51/2/2 50/2/2 52/2/2
f 56/2/3 54/2/3 53/2/3
f 56/1/3 55/1/3 54/1/3
f 57/1/3 55/1/3 56/1/3
f 58/2/3 56/2/3 53/2/3
f 58/2/3 57/2/3 56/2/3
f 59/2/3 57/2/3 58/2/3
f 62/2/3 61/2/3 60/2/3
f 63/2/3 61/2/3 62/2/3
f 64/2/3 61/2/3 63/2/3
f 67/2/3 66/2/3 65/2/3
f 68/2/3 66/2/3 67/2/3
f 71/2/3 70/2/3 69/2/3
f 72/2/3 70/2/3 71/2/3
f 73/2/4 74/2/4 75/2/4
f 75/2/4 74/2/4 76/2/4
f 75/1/4 76/1/4 77/1/4
f 76/2/4 74/2/4 78/2/4
f 77/1/4 76/1/4 78/1/4
f 78/2/4 74/2/4 79/2/4
f 80/1/4 81/1/4 82/1/4
f 80/1/4 82/1/4 84/1/4
f 82/2/4 83/2/4 85/2/4
f 84/1/4 82/1/4 85/1/4
f 85/2/4 83/2/4 86/2/4
f 87/2/4 88/2/4 89/2/4
f 89/2/4 88/2/4 90/2/4
f 93/2/5 92/2/5 91/2/5
f 94/2/5 92/2/5 93/2/5
f 95/2/5 93/2/5 91/2/5
f 96/1/5 94/1/5 93/1/5
f 96/2/5 93/2/5 95/2/5
f 97/1/5 94/1/5 96/1/5
f 100/1/5 99/1/5 98/1/5
f 101/1/5 99/1/5 100/1/5
f 104/2/5 103/2/5 102/2/5
f 105/2/5 103/2/5 104/2/5
f 106/1/5 105/1/5 104/1/5
f 107/1/5 105/1/5 106/1/5
f 108/2/5 107/2/5 106/2/5
f 109/2/5 107/2/5 108/2/5
f 110/1/5 109/1/5 108/1/5
f 111/1/5 109/1/5 110/1/5
f 112/2/5 111/2/5 110/2/5
f 113/2/5 111/2/5 112/2/5
f 114/1/6 115/1/6 117/1/6
f 115/2/6 116/2/6 118/2/6
f 117/1/6 115/1/6 118/1/6
f 118/2/6 116/2/6 119/2/6
f 120/2/6 121/2/6 122/2/6
f 122/2/6 121/2/6 123/2/6
f 120/2/6 122/2/6 124/2/6
f 124/2/6 122/2/6 125/2/6
f 124/1/6 125/1/6 126/1/6
f 126/1/6 125/1/6 127/1/6
f 126/2/6 127/2/6 128/2/6
f 128/2/6 127/2/6 129/2/6
f 130/2/6 131/2/6 132/2/6
f 132/2/6 131/2/6 133/2/6
f 134/2/6 135/2/6 136/2/6
f 136/2/6 135/2/6 137/2/6
