# MagicaVoxel @ Ephtracy

# material
mtllib lever 1.mtl
usemtl palette

# normals
vn -1 0 0
vn 1 0 0
vn 0 0 1
vn 0 0 -1
vn 0 -1 0
vn 0 1 0

# texcoords
vt 0.306641 0.5
vt 0.810547 0.5
vt 0.896484 0.5
vt 0.900391 0.5
vt 0.904297 0.5
vt 0.970703 0.5
vt 0.978516 0.5
vt 0.982422 0.5
vt 0.986328 0.5

# verts
v -5 0 5
v -5 0 -3
v -5 0 -4
v -5 0 -5
v -5 1 5
v -5 1 4
v -5 1 3
v -5 1 2
v -5 1 1
v -5 1 -0
v -5 1 -1
v -5 1 -2
v -5 1 -3
v -5 1 -4
v -5 1 -5
v -5 2 5
v -5 2 4
v -5 2 3
v -5 2 2
v -5 2 1
v -5 2 -2
v -5 2 -5
v -5 3 2
v -5 3 1
v -5 3 -0
v -5 3 -1
v -5 3 -2
v -4 2 5
v -4 2 4
v -4 2 3
v -4 2 2
v -4 2 -2
v -4 2 -3
v -4 2 -4
v -4 2 -5
v -4 3 4
v -4 3 3
v -4 3 2
v -4 3 -2
v -4 3 -4
v -4 3 -5
v -4 4 5
v -4 4 4
v -4 4 3
v -4 4 2
v -4 4 -2
v -4 4 -3
v -4 4 -4
v -4 4 -5
v -3 4 5
v -3 4 4
v -3 4 3
v -3 4 2
v -3 4 -2
v -3 4 -3
v -3 4 -4
v -3 4 -5
v -3 5 5
v -3 5 4
v -3 5 3
v -3 5 2
v -3 5 -2
v -3 5 -5
v -2 1 2
v -2 1 1
v -2 1 -1
v -2 1 -2
v -2 2 2
v -2 2 -2
v -1 5 5
v -1 5 4
v -1 5 3
v -1 5 2
v -1 5 -2
v -1 5 -3
v -1 5 -4
v -1 5 -5
v -1 6 5
v -1 6 4
v -1 6 3
v -1 6 2
v -1 6 -2
v -1 6 -3
v -1 6 -4
v -1 6 -5
v 4 1 2
v 4 1 1
v 4 1 -0
v 4 1 -1
v 4 1 -2
v 4 2 1
v 4 2 -0
v 4 2 -1
v 4 3 2
v 4 3 1
v 4 3 -0
v 4 3 -1
v 4 3 -2
v -4 1 2
v -4 1 1
v -4 1 -0
v -4 1 -1
v -4 1 -2
v -4 2 2
v -4 2 1
v -4 3 2
v -4 3 1
v -4 3 -0
v -4 3 -1
v -4 3 -2
v 1 5 5
v 1 5 4
v 1 5 3
v 1 5 2
v 1 5 -2
v 1 5 -3
v 1 5 -4
v 1 5 -5
v 1 6 5
v 1 6 4
v 1 6 3
v 1 6 2
v 1 6 -2
v 1 6 -3
v 1 6 -4
v 1 6 -5
v 2 1 2
v 2 1 1
v 2 1 -1
v 2 1 -2
v 2 2 2
v 2 2 -2
v 3 4 5
v 3 4 4
v 3 4 3
v 3 4 2
v 3 4 -2
v 3 4 -3
v 3 4 -4
v 3 4 -5
v 3 5 5
v 3 5 4
v 3 5 3
v 3 5 2
v 3 5 -2
v 3 5 -3
v 3 5 -4
v 3 5 -5
v 4 2 5
v 4 2 4
v 4 2 3
v 4 2 2
v 4 2 -2
v 4 2 -3
v 4 2 -4
v 4 2 -5
v 4 3 4
v 4 3 3
v 4 3 2
v 4 3 -2
v 4 4 5
v 4 4 4
v 4 4 3
v 4 4 2
v 4 4 -2
v 4 4 -3
v 4 4 -4
v 4 4 -5
v 5 0 5
v 5 0 2
v 5 0 1
v 5 0 -1
v 5 0 -2
v 5 0 -4
v 5 0 -5
v 5 1 5
v 5 1 4
v 5 1 3
v 5 1 2
v 5 1 1
v 5 1 -0
v 5 1 -1
v 5 1 -2
v 5 1 -4
v 5 2 5
v 5 2 4
v 5 2 3
v 5 2 2
v 5 2 1
v 5 2 -0
v 5 2 -1
v 5 2 -2
v 5 2 -4
v 5 2 -5
v 5 3 2
v 5 3 1
v 5 3 -0
v 5 3 -1
v 5 3 -2
v -5 0 5
v -5 1 5
v -5 2 5
v -4 0 5
v -4 1 5
v -4 2 5
v -4 4 5
v -3 0 5
v -3 1 5
v -3 2 5
v -3 4 5
v -3 5 5
v -2 0 5
v -2 1 5
v -2 2 5
v -2 4 5
v -2 5 5
v -1 2 5
v -1 3 5
v -1 4 5
v -1 5 5
v -1 6 5
v 0 0 5
v 0 1 5
v 0 4 5
v 0 5 5
v 0 6 5
v 1 0 5
v 1 1 5
v 1 2 5
v 1 3 5
v 1 5 5
v 1 6 5
v 2 1 5
v 2 2 5
v 2 3 5
v 2 4 5
v 2 5 5
v 3 2 5
v 3 3 5
v 3 4 5
v 3 5 5
v 4 1 5
v 4 2 5
v 4 4 5
v 5 0 5
v 5 1 5
v 5 2 5
v -5 2 2
v -5 3 2
v -4 2 2
v -4 3 2
v 4 2 2
v 4 3 2
v 5 2 2
v 5 3 2
v -4 1 -2
v -4 3 -2
v -4 4 -2
v -3 4 -2
v -3 5 -2
v -2 1 -2
v -2 2 -2
v -2 3 -2
v -2 4 -2
v -1 3 -2
v -1 5 -2
v -1 6 -2
v 1 5 -2
v 1 6 -2
v 2 1 -2
v 2 2 -2
v 3 4 -2
v 3 5 -2
v 4 1 -2
v 4 3 -2
v 4 4 -2
v -4 1 2
v -4 2 2
v -4 3 2
v -4 4 2
v -3 4 2
v -3 5 2
v -2 1 2
v -2 2 2
v -2 4 2
v -2 5 2
v -1 4 2
v -1 5 2
v -1 6 2
v 1 5 2
v 1 6 2
v 2 1 2
v 2 2 2
v 3 4 2
v 3 5 2
v 4 1 2
v 4 3 2
v 4 4 2
v -5 2 -2
v -5 3 -2
v -4 2 -2
v -4 3 -2
v 4 2 -2
v 4 3 -2
v 5 2 -2
v 5 3 -2
v -5 0 -5
v -5 1 -5
v -5 2 -5
v -4 1 -5
v -4 2 -5
v -4 3 -5
v -4 4 -5
v -3 2 -5
v -3 3 -5
v -3 4 -5
v -3 5 -5
v -2 1 -5
v -2 2 -5
v -2 3 -5
v -2 4 -5
v -2 5 -5
v -1 1 -5
v -1 2 -5
v -1 4 -5
v -1 5 -5
v -1 6 -5
v 0 2 -5
v 0 3 -5
v 0 4 -5
v 1 1 -5
v 1 2 -5
v 1 3 -5
v 1 5 -5
v 1 6 -5
v 2 0 -5
v 2 1 -5
v 2 2 -5
v 2 3 -5
v 2 4 -5
v 2 5 -5
v 3 2 -5
v 3 3 -5
v 3 4 -5
v 3 5 -5
v 4 1 -5
v 4 2 -5
v 4 4 -5
v 5 0 -5
v 5 2 -5
v -5 0 5
v -4 0 5
v -3 0 5
v -2 0 5
v 0 0 5
v 1 0 5
v 5 0 5
v -4 0 4
v -3 0 4
v -2 0 4
v 0 0 4
v 1 0 4
v 4 0 4
v 4 0 2
v 5 0 2
v -4 0 1
v -1 0 1
v 2 0 1
v 4 0 1
v 5 0 1
v -4 0 -1
v -1 0 -1
v 2 0 -1
v 4 0 -1
v 5 0 -1
v 4 0 -2
v 5 0 -2
v -5 0 -3
v -4 0 -3
v -5 0 -4
v -4 0 -4
v 2 0 -4
v 4 0 -4
v 5 0 -4
v -5 0 -5
v 2 0 -5
v 5 0 -5
v -4 1 2
v -2 1 2
v 2 1 2
v 4 1 2
v -4 1 1
v -2 1 1
v 2 1 1
v 4 1 1
v -4 1 -0
v 4 1 -0
v -4 1 -1
v -2 1 -1
v 2 1 -1
v 4 1 -1
v -4 1 -2
v -2 1 -2
v 2 1 -2
v 4 1 -2
v -5 2 5
v -4 2 5
v 4 2 5
v 5 2 5
v -5 2 4
v -4 2 4
v 4 2 4
v 5 2 4
v -5 2 3
v -4 2 3
v 4 2 3
v 5 2 3
v -5 2 2
v -4 2 2
v -2 2 2
v 2 2 2
v 4 2 2
v 5 2 2
v -5 2 -2
v -4 2 -2
v -2 2 -2
v 2 2 -2
v 4 2 -2
v 5 2 -2
v -4 2 -3
v 4 2 -3
v -4 2 -4
v 4 2 -4
v 5 2 -4
v -5 2 -5
v -4 2 -5
v 4 2 -5
v 5 2 -5
v -5 3 2
v -4 3 2
v 4 3 2
v 5 3 2
v -5 3 1
v -4 3 1
v 4 3 1
v 5 3 1
v -5 3 -0
v -4 3 -0
v 4 3 -0
v 5 3 -0
v -5 3 -1
v -4 3 -1
v 4 3 -1
v 5 3 -1
v -5 3 -2
v -4 3 -2
v 4 3 -2
v 5 3 -2
v -4 4 5
v -3 4 5
v 3 4 5
v 4 4 5
v -4 4 4
v -3 4 4
v 3 4 4
v 4 4 4
v -4 4 3
v -3 4 3
v 3 4 3
v 4 4 3
v -4 4 2
v -3 4 2
v 3 4 2
v 4 4 2
v -4 4 -2
v -3 4 -2
v 3 4 -2
v 4 4 -2
v -4 4 -3
v -3 4 -3
v 3 4 -3
v 4 4 -3
v -4 4 -4
v -3 4 -4
v 3 4 -4
v 4 4 -4
v -4 4 -5
v -3 4 -5
v 3 4 -5
v 4 4 -5
v -3 5 5
v -2 5 5
v -1 5 5
v 1 5 5
v 2 5 5
v 3 5 5
v -3 5 4
v -2 5 4
v -1 5 4
v 1 5 4
v 2 5 4
v 3 5 4
v -3 5 3
v -2 5 3
v -1 5 3
v 1 5 3
v 3 5 3
v -3 5 2
v -2 5 2
v -1 5 2
v 1 5 2
v 3 5 2
v -3 5 -2
v -1 5 -2
v 1 5 -2
v 3 5 -2
v -2 5 -3
v -1 5 -3
v 1 5 -3
v 3 5 -3
v -2 5 -4
v -1 5 -4
v 1 5 -4
v 2 5 -4
v 3 5 -4
v -3 5 -5
v -2 5 -5
v -1 5 -5
v 1 5 -5
v 2 5 -5
v 3 5 -5
v -1 6 5
v 0 6 5
v 1 6 5
v -1 6 4
v 0 6 4
v 1 6 4
v -1 6 3
v 1 6 3
v -1 6 2
v 1 6 2
v -1 6 -2
v 1 6 -2
v -1 6 -3
v 0 6 -3
v 1 6 -3
v -1 6 -4
v 0 6 -4
v 1 6 -4
v -1 6 -5
v 1 6 -5

# faces
f 5/9/1 2/9/1 1/9/1
f 6/9/1 2/9/1 5/9/1
f 7/9/1 2/9/1 6/9/1
f 8/9/1 2/9/1 7/9/1
f 9/9/1 2/9/1 8/9/1
f 10/9/1 2/9/1 9/9/1
f 11/9/1 2/9/1 10/9/1
f 12/9/1 2/9/1 11/9/1
f 13/5/1 3/5/1 2/5/1
f 13/9/1 2/9/1 12/9/1
f 14/9/1 4/9/1 3/9/1
f 14/5/1 3/5/1 13/5/1
f 15/9/1 4/9/1 14/9/1
f 16/2/1 6/2/1 5/2/1
f 17/5/1 7/5/1 6/5/1
f 17/2/1 6/2/1 16/2/1
f 18/2/1 8/2/1 7/2/1
f 18/5/1 7/5/1 17/5/1
f 19/5/1 9/5/1 8/5/1
f 19/2/1 8/2/1 18/2/1
f 20/9/1 10/9/1 9/9/1
f 20/5/1 9/5/1 19/5/1
f 21/2/1 13/2/1 12/2/1
f 21/8/1 12/8/1 11/8/1
f 21/2/1 14/2/1 13/2/1
f 21/2/1 15/2/1 14/2/1
f 22/2/1 15/2/1 21/2/1
f 23/8/1 20/8/1 19/8/1
f 24/9/1 10/9/1 20/9/1
f 24/8/1 20/8/1 23/8/1
f 25/5/1 11/5/1 10/5/1
f 25/9/1 10/9/1 24/9/1
f 26/8/1 21/8/1 11/8/1
f 26/5/1 11/5/1 25/5/1
f 27/8/1 21/8/1 26/8/1
f 36/8/1 29/8/1 28/8/1
f 36/5/1 30/5/1 29/5/1
f 37/8/1 31/8/1 30/8/1
f 37/5/1 30/5/1 36/5/1
f 38/8/1 31/8/1 37/8/1
f 39/8/1 33/8/1 32/8/1
f 40/8/1 35/8/1 34/8/1
f 40/2/1 34/2/1 33/2/1
f 41/8/1 35/8/1 40/8/1
f 42/8/1 36/8/1 28/8/1
f 43/2/1 37/2/1 36/2/1
f 43/8/1 36/8/1 42/8/1
f 44/8/1 38/8/1 37/8/1
f 44/2/1 37/2/1 43/2/1
f 45/8/1 38/8/1 44/8/1
f 46/8/1 33/8/1 39/8/1
f 47/2/1 40/2/1 33/2/1
f 47/8/1 33/8/1 46/8/1
f 48/5/1 41/5/1 40/5/1
f 48/2/1 40/2/1 47/2/1
f 49/5/1 41/5/1 48/5/1
f 58/5/1 51/5/1 50/5/1
f 59/2/1 52/2/1 51/2/1
f 59/5/1 51/5/1 58/5/1
f 60/8/1 53/8/1 52/8/1
f 60/2/1 52/2/1 59/2/1
f 61/8/1 53/8/1 60/8/1
f 62/5/1 57/5/1 56/5/1
f 62/5/1 55/5/1 54/5/1
f 62/5/1 56/5/1 55/5/1
f 63/5/1 57/5/1 62/5/1
f 68/6/1 65/6/1 64/6/1
f 68/6/1 67/6/1 66/6/1
f 68/6/1 66/6/1 65/6/1
f 69/6/1 67/6/1 68/6/1
f 78/5/1 71/5/1 70/5/1
f 79/2/1 72/2/1 71/2/1
f 79/5/1 71/5/1 78/5/1
f 80/8/1 73/8/1 72/8/1
f 80/2/1 72/2/1 79/2/1
f 81/8/1 73/8/1 80/8/1
f 82/8/1 75/8/1 74/8/1
f 83/2/1 76/2/1 75/2/1
f 83/8/1 75/8/1 82/8/1
f 84/8/1 77/8/1 76/8/1
f 84/2/1 76/2/1 83/2/1
f 85/8/1 77/8/1 84/8/1
f 91/8/1 87/8/1 86/8/1
f 91/9/1 88/9/1 87/9/1
f 92/5/1 89/5/1 88/5/1
f 92/9/1 88/9/1 91/9/1
f 93/8/1 90/8/1 89/8/1
f 93/5/1 89/5/1 92/5/1
f 94/8/1 91/8/1 86/8/1
f 95/5/1 92/5/1 91/5/1
f 95/8/1 91/8/1 94/8/1
f 96/3/1 93/3/1 92/3/1
f 96/5/1 92/5/1 95/5/1
f 97/8/1 90/8/1 93/8/1
f 97/3/1 93/3/1 96/3/1
f 98/8/1 90/8/1 97/8/1
f 99/5/2 100/5/2 104/5/2
f 100/9/2 101/9/2 105/9/2
f 104/5/2 100/5/2 105/5/2
f 104/8/2 105/8/2 106/8/2
f 105/9/2 101/9/2 107/9/2
f 106/8/2 105/8/2 107/8/2
f 101/5/2 102/5/2 108/5/2
f 107/9/2 101/9/2 108/9/2
f 102/8/2 103/8/2 109/8/2
f 108/5/2 102/5/2 109/5/2
f 109/8/2 103/8/2 110/8/2
f 111/3/2 112/3/2 119/3/2
f 112/2/2 113/2/2 120/2/2
f 119/3/2 112/3/2 120/3/2
f 113/8/2 114/8/2 121/8/2
f 120/2/2 113/2/2 121/2/2
f 121/8/2 114/8/2 122/8/2
f 115/8/2 116/8/2 123/8/2
f 116/5/2 117/5/2 124/5/2
f 123/8/2 116/8/2 124/8/2
f 117/8/2 118/8/2 125/8/2
f 124/5/2 117/5/2 125/5/2
f 125/8/2 118/8/2 126/8/2
f 127/6/2 128/6/2 131/6/2
f 129/6/2 130/6/2 131/6/2
f 128/6/2 129/6/2 131/6/2
f 131/6/2 130/6/2 132/6/2
f 133/5/2 134/5/2 141/5/2
f 134/2/2 135/2/2 142/2/2
f 141/5/2 134/5/2 142/5/2
f 135/8/2 136/8/2 143/8/2
f 142/2/2 135/2/2 143/2/2
f 143/8/2 136/8/2 144/8/2
f 137/8/2 138/8/2 145/8/2
f 138/2/2 139/2/2 146/2/2
f 145/8/2 138/8/2 146/8/2
f 139/5/2 140/5/2 147/5/2
f 146/2/2 139/2/2 147/2/2
f 147/5/2 140/5/2 148/5/2
f 149/8/2 150/8/2 157/8/2
f 150/5/2 151/5/2 157/5/2
f 151/8/2 152/8/2 158/8/2
f 157/5/2 151/5/2 158/5/2
f 158/8/2 152/8/2 159/8/2
f 153/8/2 154/8/2 160/8/2
f 149/8/2 157/8/2 161/8/2
f 157/2/2 158/2/2 162/2/2
f 161/8/2 157/8/2 162/8/2
f 158/8/2 159/8/2 163/8/2
f 162/2/2 158/2/2 163/2/2
f 163/8/2 159/8/2 164/8/2
f 160/8/2 154/8/2 165/8/2
f 154/2/2 155/2/2 166/2/2
f 165/8/2 154/8/2 166/8/2
f 155/8/2 156/8/2 167/8/2
f 166/2/2 155/2/2 167/2/2
f 167/8/2 156/8/2 168/8/2
f 169/9/2 170/9/2 176/9/2
f 176/9/2 170/9/2 177/9/2
f 177/9/2 170/9/2 178/9/2
f 170/5/2 171/5/2 179/5/2
f 178/9/2 170/9/2 179/9/2
f 171/9/2 172/9/2 180/9/2
f 179/5/2 171/5/2 180/5/2
f 180/9/2 172/9/2 181/9/2
f 172/5/2 173/5/2 182/5/2
f 181/9/2 172/9/2 182/9/2
f 173/9/2 174/9/2 183/9/2
f 182/5/2 173/5/2 183/5/2
f 174/5/2 175/5/2 184/5/2
f 183/9/2 174/9/2 184/9/2
f 176/2/2 177/2/2 185/2/2
f 177/5/2 178/5/2 186/5/2
f 185/2/2 177/2/2 186/2/2
f 178/2/2 179/2/2 187/2/2
f 186/5/2 178/5/2 187/5/2
f 179/8/2 180/8/2 188/8/2
f 187/2/2 179/2/2 188/2/2
f 180/9/2 181/9/2 189/9/2
f 188/8/2 180/8/2 189/8/2
f 181/5/2 182/5/2 190/5/2
f 189/9/2 181/9/2 190/9/2
f 182/8/2 183/8/2 191/8/2
f 190/5/2 182/5/2 191/5/2
f 183/2/2 184/2/2 192/2/2
f 191/8/2 183/8/2 192/8/2
f 184/5/2 175/5/2 193/5/2
f 192/2/2 184/2/2 193/2/2
f 193/5/2 175/5/2 194/5/2
f 188/8/2 189/8/2 195/8/2
f 189/5/2 190/5/2 196/5/2
f 195/8/2 189/8/2 196/8/2
f 190/3/2 191/3/2 197/3/2
f 196/5/2 190/5/2 197/5/2
f 191/8/2 192/8/2 198/8/2
f 197/3/2 191/3/2 198/3/2
f 198/8/2 192/8/2 199/8/2
f 203/9/3 201/9/3 200/9/3
f 204/2/3 202/2/3 201/2/3
f 204/9/3 201/9/3 203/9/3
f 205/2/3 202/2/3 204/2/3
f 207/5/3 204/5/3 203/5/3
f 208/9/3 205/9/3 204/9/3
f 208/5/3 204/5/3 207/5/3
f 209/8/3 206/8/3 205/8/3
f 209/9/3 205/9/3 208/9/3
f 210/8/3 206/8/3 209/8/3
f 212/4/3 208/4/3 207/4/3
f 212/4/3 209/4/3 208/4/3
f 213/4/3 209/4/3 212/4/3
f 214/5/3 211/5/3 210/5/3
f 214/4/3 209/4/3 213/4/3
f 214/5/3 210/5/3 209/5/3
f 215/5/3 211/5/3 214/5/3
f 216/5/3 211/5/3 215/5/3
f 217/7/3 214/7/3 213/7/3
f 217/9/3 215/9/3 214/9/3
f 218/9/3 215/9/3 217/9/3
f 219/8/3 216/8/3 215/8/3
f 219/9/3 215/9/3 218/9/3
f 220/8/3 216/8/3 219/8/3
f 222/9/3 213/9/3 212/9/3
f 223/7/3 218/7/3 217/7/3
f 223/9/3 213/9/3 222/9/3
f 223/7/3 217/7/3 213/7/3
f 224/5/3 221/5/3 220/5/3
f 224/5/3 220/5/3 219/5/3
f 224/9/3 219/9/3 218/9/3
f 225/5/3 221/5/3 224/5/3
f 226/5/3 221/5/3 225/5/3
f 227/5/3 223/5/3 222/5/3
f 228/7/3 218/7/3 223/7/3
f 228/5/3 223/5/3 227/5/3
f 229/7/3 218/7/3 228/7/3
f 230/9/3 224/9/3 218/9/3
f 230/7/3 218/7/3 229/7/3
f 231/8/3 225/8/3 224/8/3
f 231/3/3 226/3/3 225/3/3
f 232/3/3 226/3/3 231/3/3
f 233/7/3 229/7/3 228/7/3
f 233/9/3 228/9/3 227/9/3
f 234/9/3 230/9/3 229/9/3
f 234/7/3 229/7/3 233/7/3
f 235/9/3 224/9/3 230/9/3
f 235/9/3 230/9/3 234/9/3
f 236/8/3 231/8/3 224/8/3
f 236/9/3 224/9/3 235/9/3
f 237/8/3 231/8/3 236/8/3
f 238/9/3 234/9/3 233/9/3
f 238/9/3 235/9/3 234/9/3
f 239/5/3 237/5/3 236/5/3
f 239/9/3 235/9/3 238/9/3
f 239/5/3 236/5/3 235/5/3
f 240/5/3 237/5/3 239/5/3
f 241/5/3 237/5/3 240/5/3
f 242/9/3 233/9/3 227/9/3
f 242/9/3 238/9/3 233/9/3
f 243/8/3 240/8/3 239/8/3
f 243/9/3 238/9/3 242/9/3
f 243/8/3 239/8/3 238/8/3
f 244/8/3 240/8/3 243/8/3
f 245/9/3 242/9/3 227/9/3
f 246/2/3 243/2/3 242/2/3
f 246/9/3 242/9/3 245/9/3
f 247/2/3 243/2/3 246/2/3
f 250/8/3 249/8/3 248/8/3
f 251/8/3 249/8/3 250/8/3
f 254/8/3 253/8/3 252/8/3
f 255/8/3 253/8/3 254/8/3
f 259/8/3 257/8/3 256/8/3
f 259/8/3 258/8/3 257/8/3
f 261/8/3 259/8/3 256/8/3
f 262/8/3 259/8/3 261/8/3
f 263/8/3 259/8/3 262/8/3
f 264/5/3 260/5/3 259/5/3
f 264/8/3 259/8/3 263/8/3
f 265/8/3 263/8/3 262/8/3
f 265/5/3 264/5/3 263/5/3
f 266/5/3 260/5/3 264/5/3
f 266/5/3 264/5/3 265/5/3
f 268/8/3 266/8/3 265/8/3
f 268/8/3 267/8/3 266/8/3
f 269/8/3 267/8/3 268/8/3
f 271/8/3 265/8/3 262/8/3
f 271/8/3 268/8/3 265/8/3
f 272/8/3 268/8/3 271/8/3
f 272/8/3 271/8/3 270/8/3
f 273/8/3 268/8/3 272/8/3
f 274/8/3 272/8/3 270/8/3
f 275/8/3 272/8/3 274/8/3
f 276/8/3 272/8/3 275/8/3
f 277/8/4 278/8/4 281/8/4
f 279/8/4 280/8/4 281/8/4
f 278/8/4 279/8/4 281/8/4
f 277/8/4 281/8/4 283/8/4
f 281/8/4 282/8/4 283/8/4
f 283/8/4 282/8/4 284/8/4
f 284/8/4 282/8/4 285/8/4
f 285/8/4 282/8/4 286/8/4
f 284/8/4 285/8/4 287/8/4
f 285/5/4 286/5/4 287/5/4
f 287/5/4 286/5/4 288/5/4
f 287/8/4 288/8/4 290/8/4
f 288/8/4 289/8/4 290/8/4
f 290/8/4 289/8/4 291/8/4
f 284/8/4 287/8/4 293/8/4
f 287/8/4 290/8/4 293/8/4
f 293/8/4 290/8/4 294/8/4
f 292/8/4 293/8/4 294/8/4
f 294/8/4 290/8/4 295/8/4
f 292/8/4 294/8/4 296/8/4
f 296/8/4 294/8/4 297/8/4
f 297/8/4 294/8/4 298/8/4
f 299/8/4 300/8/4 301/8/4
f 301/8/4 300/8/4 302/8/4
f 303/8/4 304/8/4 305/8/4
f 305/8/4 304/8/4 306/8/4
f 307/9/4 308/9/4 310/9/4
f 308/2/4 309/2/4 310/2/4
f 310/2/4 309/2/4 311/2/4
f 310/9/4 311/9/4 314/9/4
f 311/8/4 312/8/4 314/8/4
f 312/5/4 313/5/4 315/5/4
f 314/8/4 312/8/4 315/8/4
f 315/5/4 313/5/4 316/5/4
f 307/9/4 310/9/4 318/9/4
f 310/9/4 314/9/4 318/9/4
f 314/4/4 315/4/4 319/4/4
f 318/9/4 314/9/4 319/9/4
f 316/5/4 317/5/4 320/5/4
f 319/4/4 315/4/4 320/4/4
f 315/5/4 316/5/4 320/5/4
f 320/5/4 317/5/4 321/5/4
f 321/5/4 317/5/4 322/5/4
f 318/7/4 319/7/4 323/7/4
f 307/9/4 318/9/4 323/9/4
f 319/9/4 320/9/4 324/9/4
f 323/7/4 319/7/4 324/7/4
f 320/9/4 321/9/4 324/9/4
f 321/8/4 322/8/4 325/8/4
f 324/9/4 321/9/4 325/9/4
f 325/8/4 322/8/4 326/8/4
f 323/5/4 324/5/4 328/5/4
f 324/5/4 325/5/4 328/5/4
f 328/5/4 325/5/4 329/5/4
f 325/8/4 326/8/4 330/8/4
f 329/5/4 325/5/4 330/5/4
f 326/8/4 327/8/4 330/8/4
f 323/5/4 328/5/4 331/5/4
f 307/9/4 323/9/4 331/9/4
f 328/7/4 329/7/4 332/7/4
f 331/5/4 328/5/4 332/5/4
f 329/9/4 330/9/4 333/9/4
f 332/7/4 329/7/4 333/7/4
f 330/8/4 327/8/4 334/8/4
f 334/8/4 327/8/4 335/8/4
f 307/9/4 331/9/4 336/9/4
f 331/7/4 332/7/4 337/7/4
f 336/9/4 331/9/4 337/9/4
f 332/9/4 333/9/4 338/9/4
f 337/7/4 332/7/4 338/7/4
f 333/9/4 330/9/4 339/9/4
f 338/9/4 333/9/4 339/9/4
f 330/8/4 334/8/4 340/8/4
f 339/9/4 330/9/4 340/9/4
f 340/8/4 334/8/4 341/8/4
f 337/9/4 338/9/4 342/9/4
f 338/5/4 339/5/4 342/5/4
f 339/3/4 340/3/4 343/3/4
f 342/5/4 339/5/4 343/5/4
f 340/5/4 341/5/4 344/5/4
f 343/3/4 340/3/4 344/3/4
f 344/5/4 341/5/4 345/5/4
f 336/5/4 337/5/4 346/5/4
f 337/9/4 342/9/4 346/9/4
f 342/8/4 343/8/4 347/8/4
f 346/9/4 342/9/4 347/9/4
f 343/8/4 344/8/4 347/8/4
f 347/8/4 344/8/4 348/8/4
f 336/5/4 346/5/4 349/5/4
f 346/5/4 347/5/4 349/5/4
f 349/5/4 347/5/4 350/5/4
f 358/9/5 352/9/5 351/9/5
f 358/5/5 353/5/5 352/5/5
f 359/4/5 354/4/5 353/4/5
f 359/5/5 353/5/5 358/5/5
f 360/9/5 355/9/5 354/9/5
f 360/4/5 354/4/5 359/4/5
f 361/5/5 356/5/5 355/5/5
f 361/9/5 355/9/5 360/9/5
f 362/9/5 357/9/5 356/9/5
f 362/5/5 356/5/5 361/5/5
f 363/9/5 357/9/5 362/9/5
f 364/8/5 361/8/5 360/8/5
f 364/9/5 357/9/5 363/9/5
f 364/8/5 363/8/5 362/8/5
f 364/8/5 362/8/5 361/8/5
f 364/8/5 359/8/5 358/8/5
f 364/8/5 360/8/5 359/8/5
f 365/9/5 357/9/5 364/9/5
f 366/9/5 358/9/5 351/9/5
f 366/8/5 364/8/5 358/8/5
f 367/8/5 364/8/5 366/8/5
f 368/8/5 364/8/5 367/8/5
f 369/5/5 365/5/5 364/5/5
f 369/8/5 364/8/5 368/8/5
f 370/5/5 365/5/5 369/5/5
f 371/9/5 366/9/5 351/9/5
f 371/9/5 367/9/5 366/9/5
f 372/8/5 368/8/5 367/8/5
f 372/9/5 367/9/5 371/9/5
f 373/9/5 370/9/5 369/9/5
f 373/8/5 368/8/5 372/8/5
f 373/9/5 369/9/5 368/9/5
f 374/9/5 370/9/5 373/9/5
f 375/9/5 370/9/5 374/9/5
f 376/8/5 372/8/5 371/8/5
f 376/8/5 373/8/5 372/8/5
f 376/5/5 375/5/5 374/5/5
f 376/8/5 374/8/5 373/8/5
f 377/5/5 375/5/5 376/5/5
f 378/9/5 371/9/5 351/9/5
f 379/8/5 376/8/5 371/8/5
f 379/9/5 371/9/5 378/9/5
f 380/5/5 379/5/5 378/5/5
f 381/8/5 376/8/5 379/8/5
f 381/5/5 379/5/5 380/5/5
f 382/8/5 376/8/5 381/8/5
f 383/9/5 377/9/5 376/9/5
f 383/8/5 376/8/5 382/8/5
f 384/9/5 377/9/5 383/9/5
f 385/9/5 382/9/5 381/9/5
f 385/9/5 381/9/5 380/9/5
f 386/5/5 384/5/5 383/5/5
f 386/9/5 382/9/5 385/9/5
f 386/5/5 383/5/5 382/5/5
f 387/5/5 384/5/5 386/5/5
f 388/8/6 389/8/6 392/8/6
f 392/8/6 389/8/6 393/8/6
f 390/8/6 391/8/6 394/8/6
f 394/8/6 391/8/6 395/8/6
f 392/9/6 393/9/6 396/9/6
f 394/9/6 395/9/6 397/9/6
f 396/9/6 393/9/6 398/9/6
f 398/9/6 393/9/6 399/9/6
f 394/9/6 397/9/6 400/9/6
f 400/9/6 397/9/6 401/9/6
f 398/8/6 399/8/6 402/8/6
f 402/8/6 399/8/6 403/8/6
f 400/8/6 401/8/6 404/8/6
f 404/8/6 401/8/6 405/8/6
f 406/2/6 407/2/6 410/2/6
f 410/2/6 407/2/6 411/2/6
f 408/2/6 409/2/6 412/2/6
f 412/2/6 409/2/6 413/2/6
f 410/5/6 411/5/6 414/5/6
f 414/5/6 411/5/6 415/5/6
f 412/5/6 413/5/6 416/5/6
f 416/5/6 413/5/6 417/5/6
f 414/2/6 415/2/6 418/2/6
f 418/2/6 415/2/6 419/2/6
f 416/2/6 417/2/6 422/2/6
f 422/2/6 417/2/6 423/2/6
f 420/6/6 421/6/6 426/6/6
f 426/6/6 421/6/6 427/6/6
f 424/2/6 425/2/6 430/2/6
f 428/2/6 429/2/6 431/2/6
f 424/2/6 430/2/6 432/2/6
f 431/2/6 429/2/6 433/2/6
f 433/2/6 429/2/6 434/2/6
f 424/2/6 432/2/6 435/2/6
f 435/2/6 432/2/6 436/2/6
f 433/5/6 434/5/6 437/5/6
f 437/5/6 434/5/6 438/5/6
f 439/8/6 440/8/6 443/8/6
f 443/8/6 440/8/6 444/8/6
f 441/8/6 442/8/6 445/8/6
f 445/8/6 442/8/6 446/8/6
f 443/9/6 444/9/6 447/9/6
f 447/9/6 444/9/6 448/9/6
f 445/5/6 446/5/6 449/5/6
f 449/5/6 446/5/6 450/5/6
f 447/5/6 448/5/6 451/5/6
f 451/5/6 448/5/6 452/5/6
f 449/3/6 450/3/6 453/3/6
f 453/3/6 450/3/6 454/3/6
f 451/8/6 452/8/6 455/8/6
f 455/8/6 452/8/6 456/8/6
f 453/8/6 454/8/6 457/8/6
f 457/8/6 454/8/6 458/8/6
f 459/8/6 460/8/6 463/8/6
f 463/8/6 460/8/6 464/8/6
f 461/8/6 462/8/6 465/8/6
f 465/8/6 462/8/6 466/8/6
f 463/2/6 464/2/6 467/2/6
f 467/2/6 464/2/6 468/2/6
f 465/2/6 466/2/6 469/2/6
f 469/2/6 466/2/6 470/2/6
f 467/8/6 468/8/6 471/8/6
f 471/8/6 468/8/6 472/8/6
f 469/8/6 470/8/6 473/8/6
f 473/8/6 470/8/6 474/8/6
f 475/8/6 476/8/6 479/8/6
f 479/8/6 476/8/6 480/8/6
f 477/8/6 478/8/6 481/8/6
f 481/8/6 478/8/6 482/8/6
f 479/2/6 480/2/6 483/2/6
f 483/2/6 480/2/6 484/2/6
f 481/2/6 482/2/6 485/2/6
f 485/2/6 482/2/6 486/2/6
f 483/5/6 484/5/6 487/5/6
f 487/5/6 484/5/6 488/5/6
f 485/8/6 486/8/6 489/8/6
f 489/8/6 486/8/6 490/8/6
f 491/5/6 492/5/6 497/5/6
f 492/8/6 493/8/6 498/8/6
f 497/5/6 492/5/6 498/5/6
f 498/8/6 493/8/6 499/8/6
f 494/8/6 495/8/6 500/8/6
f 495/5/6 496/5/6 501/5/6
f 500/8/6 495/8/6 501/8/6
f 501/5/6 496/5/6 502/5/6
f 498/2/6 499/2/6 503/2/6
f 497/2/6 498/2/6 503/2/6
f 503/2/6 499/2/6 504/2/6
f 504/2/6 499/2/6 505/2/6
f 501/2/6 502/2/6 506/2/6
f 500/2/6 501/2/6 506/2/6
f 506/2/6 502/2/6 507/2/6
f 503/8/6 504/8/6 508/8/6
f 504/5/6 505/5/6 509/5/6
f 508/8/6 504/8/6 509/8/6
f 509/5/6 505/5/6 510/5/6
f 506/8/6 507/8/6 511/8/6
f 511/8/6 507/8/6 512/8/6
f 513/5/6 514/5/6 517/5/6
f 517/5/6 514/5/6 518/5/6
f 515/8/6 516/8/6 519/8/6
f 519/8/6 516/8/6 520/8/6
f 517/2/6 518/2/6 521/2/6
f 513/5/6 517/5/6 521/5/6
f 521/2/6 518/2/6 522/2/6
f 519/2/6 520/2/6 523/2/6
f 523/2/6 520/2/6 524/2/6
f 524/2/6 520/2/6 525/2/6
f 513/5/6 521/5/6 526/5/6
f 521/8/6 522/8/6 527/8/6
f 526/5/6 521/5/6 527/5/6
f 527/8/6 522/8/6 528/8/6
f 523/8/6 524/8/6 529/8/6
f 524/5/6 525/5/6 530/5/6
f 529/8/6 524/8/6 530/8/6
f 530/5/6 525/5/6 531/5/6
f 532/5/6 533/5/6 535/5/6
f 533/3/6 534/3/6 536/3/6
f 535/5/6 533/5/6 536/5/6
f 536/3/6 534/3/6 537/3/6
f 535/2/6 536/2/6 538/2/6
f 536/2/6 537/2/6 538/2/6
f 538/2/6 537/2/6 539/2/6
f 538/8/6 539/8/6 540/8/6
f 540/8/6 539/8/6 541/8/6
f 542/8/6 543/8/6 544/8/6
f 544/8/6 543/8/6 545/8/6
f 545/8/6 543/8/6 546/8/6
f 544/2/6 545/2/6 547/2/6
f 545/5/6 546/5/6 548/5/6
f 547/2/6 545/2/6 548/2/6
f 548/5/6 546/5/6 549/5/6
f 547/8/6 548/8/6 550/8/6
f 548/8/6 549/8/6 550/8/6
f 550/8/6 549/8/6 551/8/6
