# MagicaVoxel @ Ephtracy

# material
mtllib lever 2.mtl
usemtl palette

# normals
vn -1 0 0
vn 1 0 0
vn 0 0 1
vn 0 0 -1
vn 0 -1 0
vn 0 1 0

# texcoords
vt 0.896484 0.5
vt 0.900391 0.5
vt 0.904297 0.5
vt 0.970703 0.5

# verts
v -2 6 1
v -2 6 -1
v -2 7 1
v -2 7 -0
v -2 8 1
v -2 8 -0
v -2 8 -1
v -1 0 1
v -1 0 -1
v -1 6 1
v -1 6 -1
v 1 0 1
v 1 0 -1
v 1 1 1
v 1 1 -0
v 1 2 1
v 1 2 -0
v 1 3 -0
v 1 3 -1
v 1 5 -0
v 1 5 -1
v 1 6 1
v 1 6 -1
v 2 6 1
v 2 6 -1
v 2 8 1
v 2 8 -1
v -2 6 1
v -2 7 1
v -2 8 1
v -1 0 1
v -1 6 1
v -1 7 1
v -1 8 1
v 0 1 1
v 0 2 1
v 0 6 1
v 0 8 1
v 1 0 1
v 1 1 1
v 1 2 1
v 1 6 1
v 1 8 1
v 2 6 1
v 2 8 1
v -2 6 -1
v -2 8 -1
v -1 0 -1
v -1 6 -1
v -1 7 -1
v -1 8 -1
v 0 3 -1
v 0 5 -1
v 0 7 -1
v 0 8 -1
v 1 0 -1
v 1 3 -1
v 1 5 -1
v 1 6 -1
v 2 6 -1
v 2 8 -1
v -1 0 1
v 1 0 1
v -1 0 -1
v 1 0 -1
v -2 6 1
v -1 6 1
v 1 6 1
v 2 6 1
v -2 6 -1
v -1 6 -1
v 1 6 -1
v 2 6 -1
v -2 8 1
v -1 8 1
v 0 8 1
v 1 8 1
v 2 8 1
v -2 8 -0
v -1 8 -0
v 0 8 -0
v 1 8 -0
v -2 8 -1
v -1 8 -1
v 0 8 -1
v 2 8 -1

# faces
f 3/4/1 2/4/1 1/4/1
f 4/4/1 2/4/1 3/4/1
f 5/3/1 4/3/1 3/3/1
f 6/4/1 2/4/1 4/4/1
f 6/3/1 4/3/1 5/3/1
f 7/4/1 2/4/1 6/4/1
f 10/4/1 9/4/1 8/4/1
f 11/4/1 9/4/1 10/4/1
f 12/4/2 13/4/2 14/4/2
f 14/4/2 13/4/2 15/4/2
f 14/2/2 15/2/2 16/2/2
f 15/4/2 13/4/2 17/4/2
f 16/2/2 15/2/2 17/2/2
f 16/4/2 17/4/2 18/4/2
f 17/4/2 13/4/2 18/4/2
f 18/4/2 13/4/2 19/4/2
f 16/4/2 18/4/2 20/4/2
f 18/2/2 19/2/2 20/2/2
f 20/2/2 19/2/2 21/2/2
f 16/4/2 20/4/2 22/4/2
f 20/4/2 21/4/2 22/4/2
f 22/4/2 21/4/2 23/4/2
f 24/4/2 25/4/2 26/4/2
f 26/4/2 25/4/2 27/4/2
f 32/4/3 29/4/3 28/4/3
f 33/3/3 30/3/3 29/3/3
f 33/4/3 29/4/3 32/4/3
f 34/3/3 30/3/3 33/3/3
f 35/4/3 32/4/3 31/4/3
f 35/4/3 33/4/3 32/4/3
f 35/4/3 34/4/3 33/4/3
f 36/4/3 34/4/3 35/4/3
f 37/4/3 34/4/3 36/4/3
f 38/4/3 34/4/3 37/4/3
f 39/4/3 35/4/3 31/4/3
f 40/2/3 36/2/3 35/2/3
f 40/4/3 35/4/3 39/4/3
f 41/4/3 37/4/3 36/4/3
f 41/2/3 36/2/3 40/2/3
f 42/1/3 38/1/3 37/1/3
f 42/4/3 37/4/3 41/4/3
f 43/1/3 38/1/3 42/1/3
f 44/4/3 43/4/3 42/4/3
f 45/4/3 43/4/3 44/4/3
f 46/4/4 47/4/4 49/4/4
f 49/4/4 47/4/4 50/4/4
f 50/4/4 47/4/4 51/4/4
f 48/4/4 49/4/4 52/4/4
f 49/4/4 50/4/4 52/4/4
f 52/4/4 50/4/4 53/4/4
f 50/3/4 51/3/4 54/3/4
f 53/4/4 50/4/4 54/4/4
f 54/3/4 51/3/4 55/3/4
f 48/4/4 52/4/4 56/4/4
f 52/2/4 53/2/4 57/2/4
f 56/4/4 52/4/4 57/4/4
f 53/4/4 54/4/4 58/4/4
f 57/2/4 53/2/4 58/2/4
f 54/4/4 55/4/4 58/4/4
f 58/4/4 55/4/4 59/4/4
f 59/4/4 55/4/4 60/4/4
f 60/4/4 55/4/4 61/4/4
f 64/4/5 63/4/5 62/4/5
f 65/4/5 63/4/5 64/4/5
f 70/4/5 67/4/5 66/4/5
f 71/4/5 67/4/5 70/4/5
f 72/4/5 69/4/5 68/4/5
f 73/4/5 69/4/5 72/4/5
f 74/3/6 75/3/6 79/3/6
f 75/4/6 76/4/6 80/4/6
f 79/3/6 75/3/6 80/3/6
f 76/1/6 77/1/6 81/1/6
f 80/4/6 76/4/6 81/4/6
f 77/4/6 78/4/6 82/4/6
f 81/1/6 77/1/6 82/1/6
f 79/4/6 80/4/6 83/4/6
f 80/3/6 81/3/6 84/3/6
f 83/4/6 80/4/6 84/4/6
f 81/4/6 82/4/6 85/4/6
f 84/3/6 81/3/6 85/3/6
f 82/4/6 78/4/6 86/4/6
f 85/4/6 82/4/6 86/4/6
