# MagicaVoxel @ Ephtracy

# material
mtllib Trap Door 2.mtl
usemtl palette

# normals
vn -1 0 0
vn 1 0 0
vn 0 0 1
vn 0 0 -1
vn 0 -1 0
vn 0 1 0

# texcoords
vt 0.0644531 0.5
vt 0.158203 0.5
vt 0.162109 0.5

# verts
v -2.5 0 5
v -2.5 0 3
v -2.5 0 2
v -2.5 0 -1
v -2.5 0 -2
v -2.5 0 -5
v -2.5 1 5
v -2.5 1 3
v -2.5 1 2
v -2.5 1 -1
v -2.5 1 -2
v -2.5 1 -5
v -2.5 2 5
v -2.5 2 1
v -2.5 2 -1
v -2.5 2 -5
v -2.5 3 1
v -2.5 3 -1
v 0.5 1 5
v 0.5 1 3
v 0.5 1 2
v 0.5 1 -1
v 0.5 1 -2
v 0.5 1 -5
v 0.5 2 5
v 0.5 2 -5
v -1.5 2 1
v -1.5 2 -1
v -1.5 3 1
v -1.5 3 -1
v -0.5 1 5
v -0.5 1 3
v -0.5 1 2
v -0.5 1 -1
v -0.5 1 -2
v -0.5 1 -5
v -0.5 2 5
v -0.5 2 -5
v 2.5 0 5
v 2.5 0 3
v 2.5 0 2
v 2.5 0 -1
v 2.5 0 -2
v 2.5 0 -5
v 2.5 1 5
v 2.5 1 3
v 2.5 1 2
v 2.5 1 -1
v 2.5 1 -2
v 2.5 1 -5
v 2.5 2 5
v 2.5 2 -5
v -2.5 0 5
v -2.5 1 5
v -2.5 2 5
v -0.5 1 5
v -0.5 2 5
v 0.5 1 5
v 0.5 2 5
v 2.5 0 5
v 2.5 1 5
v 2.5 2 5
v -2.5 0 2
v -2.5 1 2
v -0.5 1 2
v 0.5 1 2
v 2.5 0 2
v 2.5 1 2
v -2.5 2 1
v -2.5 3 1
v -1.5 2 1
v -1.5 3 1
v -2.5 0 -2
v -2.5 1 -2
v -0.5 1 -2
v 0.5 1 -2
v 2.5 0 -2
v 2.5 1 -2
v -2.5 0 3
v -2.5 1 3
v -0.5 1 3
v 0.5 1 3
v 2.5 0 3
v 2.5 1 3
v -2.5 0 -1
v -2.5 1 -1
v -2.5 2 -1
v -2.5 3 -1
v -1.5 2 -1
v -1.5 3 -1
v -0.5 1 -1
v 0.5 1 -1
v 2.5 0 -1
v 2.5 1 -1
v -2.5 0 -5
v -2.5 1 -5
v -2.5 2 -5
v -0.5 1 -5
v -0.5 2 -5
v 0.5 1 -5
v 0.5 2 -5
v 2.5 0 -5
v 2.5 1 -5
v 2.5 2 -5
v -2.5 0 5
v 2.5 0 5
v -2.5 0 3
v 2.5 0 3
v -2.5 0 2
v 2.5 0 2
v -2.5 0 -1
v 2.5 0 -1
v -2.5 0 -2
v 2.5 0 -2
v -2.5 0 -5
v 2.5 0 -5
v -2.5 1 3
v -0.5 1 3
v 0.5 1 3
v 2.5 1 3
v -2.5 1 2
v -0.5 1 2
v 0.5 1 2
v 2.5 1 2
v -2.5 1 -1
v -0.5 1 -1
v 0.5 1 -1
v 2.5 1 -1
v -2.5 1 -2
v -0.5 1 -2
v 0.5 1 -2
v 2.5 1 -2
v -0.5 1 5
v 0.5 1 5
v -0.5 1 3
v 0.5 1 3
v -0.5 1 2
v 0.5 1 2
v -0.5 1 -1
v 0.5 1 -1
v -0.5 1 -2
v 0.5 1 -2
v -0.5 1 -5
v 0.5 1 -5
v -2.5 2 5
v -0.5 2 5
v 0.5 2 5
v 2.5 2 5
v -2.5 2 1
v -1.5 2 1
v -2.5 2 -1
v -1.5 2 -1
v -2.5 2 -5
v -0.5 2 -5
v 0.5 2 -5
v 2.5 2 -5
v -2.5 3 1
v -1.5 3 1
v -2.5 3 -1
v -1.5 3 -1

# faces
f 7/2/1 2/2/1 1/2/1
f 8/2/1 2/2/1 7/2/1
f 9/2/1 4/2/1 3/2/1
f 10/2/1 4/2/1 9/2/1
f 11/2/1 6/2/1 5/2/1
f 12/2/1 6/2/1 11/2/1
f 13/3/1 10/3/1 9/3/1
f 13/3/1 8/3/1 7/3/1
f 13/3/1 12/3/1 11/3/1
f 13/3/1 11/3/1 10/3/1
f 13/3/1 9/3/1 8/3/1
f 14/3/1 12/3/1 13/3/1
f 15/3/1 12/3/1 14/3/1
f 16/3/1 12/3/1 15/3/1
f 17/1/1 15/1/1 14/1/1
f 18/1/1 15/1/1 17/1/1
f 25/3/1 20/3/1 19/3/1
f 25/3/1 24/3/1 23/3/1
f 25/3/1 23/3/1 22/3/1
f 25/3/1 22/3/1 21/3/1
f 25/3/1 21/3/1 20/3/1
f 26/3/1 24/3/1 25/3/1
f 27/1/2 28/1/2 29/1/2
f 29/1/2 28/1/2 30/1/2
f 31/3/2 32/3/2 37/3/2
f 35/3/2 36/3/2 37/3/2
f 34/3/2 35/3/2 37/3/2
f 33/3/2 34/3/2 37/3/2
f 32/3/2 33/3/2 37/3/2
f 37/3/2 36/3/2 38/3/2
f 39/2/2 40/2/2 45/2/2
f 45/2/2 40/2/2 46/2/2
f 41/2/2 42/2/2 47/2/2
f 47/2/2 42/2/2 48/2/2
f 43/2/2 44/2/2 49/2/2
f 49/2/2 44/2/2 50/2/2
f 47/3/2 48/3/2 51/3/2
f 45/3/2 46/3/2 51/3/2
f 49/3/2 50/3/2 51/3/2
f 48/3/2 49/3/2 51/3/2
f 46/3/2 47/3/2 51/3/2
f 51/3/2 50/3/2 52/3/2
f 56/2/3 54/2/3 53/2/3
f 56/3/3 55/3/3 54/3/3
f 57/3/3 55/3/3 56/3/3
f 58/2/3 56/2/3 53/2/3
f 60/2/3 58/2/3 53/2/3
f 61/3/3 59/3/3 58/3/3
f 61/2/3 58/2/3 60/2/3
f 62/3/3 59/3/3 61/3/3
f 65/2/3 64/2/3 63/2/3
f 66/2/3 65/2/3 63/2/3
f 67/2/3 66/2/3 63/2/3
f 68/2/3 66/2/3 67/2/3
f 71/1/3 70/1/3 69/1/3
f 72/1/3 70/1/3 71/1/3
f 75/2/3 74/2/3 73/2/3
f 76/2/3 75/2/3 73/2/3
f 77/2/3 76/2/3 73/2/3
f 78/2/3 76/2/3 77/2/3
f 79/2/4 80/2/4 81/2/4
f 79/2/4 81/2/4 82/2/4
f 79/2/4 82/2/4 83/2/4
f 83/2/4 82/2/4 84/2/4
f 87/1/4 88/1/4 89/1/4
f 89/1/4 88/1/4 90/1/4
f 85/2/4 86/2/4 91/2/4
f 85/2/4 91/2/4 92/2/4
f 85/2/4 92/2/4 93/2/4
f 93/2/4 92/2/4 94/2/4
f 95/2/4 96/2/4 98/2/4
f 96/3/4 97/3/4 98/3/4
f 98/3/4 97/3/4 99/3/4
f 95/2/4 98/2/4 100/2/4
f 95/2/4 100/2/4 102/2/4
f 100/3/4 101/3/4 103/3/4
f 102/2/4 100/2/4 103/2/4
f 103/3/4 101/3/4 104/3/4
f 107/2/5 106/2/5 105/2/5
f 108/2/5 106/2/5 107/2/5
f 111/2/5 110/2/5 109/2/5
f 112/2/5 110/2/5 111/2/5
f 115/2/5 114/2/5 113/2/5
f 116/2/5 114/2/5 115/2/5
f 121/3/5 118/3/5 117/3/5
f 122/3/5 118/3/5 121/3/5
f 123/3/5 120/3/5 119/3/5
f 124/3/5 120/3/5 123/3/5
f 129/3/5 126/3/5 125/3/5
f 130/3/5 126/3/5 129/3/5
f 131/3/5 128/3/5 127/3/5
f 132/3/5 128/3/5 131/3/5
f 133/2/6 134/2/6 135/2/6
f 135/2/6 134/2/6 136/2/6
f 137/2/6 138/2/6 139/2/6
f 139/2/6 138/2/6 140/2/6
f 141/2/6 142/2/6 143/2/6
f 143/2/6 142/2/6 144/2/6
f 145/3/6 146/3/6 149/3/6
f 149/3/6 146/3/6 150/3/6
f 150/3/6 146/3/6 152/3/6
f 151/3/6 152/3/6 153/3/6
f 152/3/6 146/3/6 154/3/6
f 153/3/6 152/3/6 154/3/6
f 147/3/6 148/3/6 155/3/6
f 155/3/6 148/3/6 156/3/6
f 157/1/6 158/1/6 159/1/6
f 159/1/6 158/1/6 160/1/6
