# MagicaVoxel @ Ephtracy

# material
mtllib Floor 1.mtl
usemtl palette

# normals
vn -1 0 0
vn 1 0 0
vn 0 0 1
vn 0 0 -1
vn 0 -1 0
vn 0 1 0

# texcoords
vt 0.0644531 0.5
vt 0.0683594 0.5
vt 0.0722656 0.5

# verts
v -5 0 5
v -5 0 -5
v -5 9 5
v -5 9 -4
v -5 10 5
v -5 10 -4
v -5 10 -5
v 3 9 -4
v 3 9 -5
v 3 10 -4
v 3 10 -5
v 1 9 -4
v 1 9 -5
v 1 10 -4
v 1 10 -5
v 2 9 5
v 2 9 4
v 2 10 5
v 2 10 4
v 3 9 4
v 3 9 1
v 3 10 4
v 3 10 1
v 4 9 1
v 4 9 -4
v 4 10 1
v 4 10 -4
v 5 0 5
v 5 0 -5
v 5 9 5
v 5 9 -4
v 5 10 -4
v 5 10 -5
v -5 0 5
v -5 9 5
v -5 10 5
v -3 9 5
v -3 10 5
v 2 9 5
v 2 10 5
v 5 0 5
v 5 9 5
v 2 9 4
v 2 10 4
v 3 9 4
v 3 10 4
v 3 9 1
v 3 10 1
v 4 9 1
v 4 10 1
v 4 9 -4
v 4 10 -4
v 5 9 -4
v 5 10 -4
v 1 9 -4
v 1 10 -4
v 3 9 -4
v 3 10 -4
v -5 0 -5
v -5 10 -5
v 1 9 -5
v 1 10 -5
v 3 9 -5
v 3 10 -5
v 5 0 -5
v 5 10 -5
v -5 0 5
v 5 0 5
v -5 0 -5
v 5 0 -5
v 2 9 5
v 5 9 5
v 2 9 4
v 3 9 4
v 3 9 1
v 4 9 1
v 1 9 -4
v 3 9 -4
v 4 9 -4
v 5 9 -4
v 1 9 -5
v 3 9 -5
v -5 10 5
v -3 10 5
v 2 10 5
v 2 10 4
v 3 10 4
v -3 10 2
v 0 10 2
v 3 10 1
v 4 10 1
v -3 10 -2
v -1 10 -2
v -3 10 -3
v -1 10 -3
v 0 10 -3
v 3 10 -3
v -5 10 -4
v 1 10 -4
v 3 10 -4
v 4 10 -4
v 5 10 -4
v -5 10 -5
v 1 10 -5
v 3 10 -5
v 5 10 -5

# faces
f 3/3/1 2/3/1 1/3/1
f 4/3/1 2/3/1 3/3/1
f 5/1/1 4/1/1 3/1/1
f 6/3/1 2/3/1 4/3/1
f 6/1/1 4/1/1 5/1/1
f 7/3/1 2/3/1 6/3/1
f 10/3/1 9/3/1 8/3/1
f 11/3/1 9/3/1 10/3/1
f 12/3/2 13/3/2 14/3/2
f 14/3/2 13/3/2 15/3/2
f 16/2/2 17/2/2 18/2/2
f 18/2/2 17/2/2 19/2/2
f 20/2/2 21/2/2 22/2/2
f 22/2/2 21/2/2 23/2/2
f 24/1/2 25/1/2 26/1/2
f 26/1/2 25/1/2 27/1/2
f 28/3/2 29/3/2 30/3/2
f 30/3/2 29/3/2 31/3/2
f 31/3/2 29/3/2 32/3/2
f 32/3/2 29/3/2 33/3/2
f 37/3/3 35/3/3 34/3/3
f 37/1/3 36/1/3 35/1/3
f 38/1/3 36/1/3 37/1/3
f 39/3/3 37/3/3 34/3/3
f 39/2/3 38/2/3 37/2/3
f 40/2/3 38/2/3 39/2/3
f 41/3/3 39/3/3 34/3/3
f 42/3/3 39/3/3 41/3/3
f 45/2/3 44/2/3 43/2/3
f 46/2/3 44/2/3 45/2/3
f 49/1/3 48/1/3 47/1/3
f 50/1/3 48/1/3 49/1/3
f 53/3/3 52/3/3 51/3/3
f 54/3/3 52/3/3 53/3/3
f 55/1/4 56/1/4 57/1/4
f 57/1/4 56/1/4 58/1/4
f 59/3/4 60/3/4 61/3/4
f 61/3/4 60/3/4 62/3/4
f 59/3/4 61/3/4 63/3/4
f 59/3/4 63/3/4 65/3/4
f 63/3/4 64/3/4 65/3/4
f 65/3/4 64/3/4 66/3/4
f 69/3/5 68/3/5 67/3/5
f 70/3/5 68/3/5 69/3/5
f 71/3/6 72/3/6 73/3/6
f 73/3/6 72/3/6 74/3/6
f 74/3/6 72/3/6 75/3/6
f 75/3/6 72/3/6 76/3/6
f 76/3/6 72/3/6 79/3/6
f 79/3/6 72/3/6 80/3/6
f 77/3/6 78/3/6 81/3/6
f 81/3/6 78/3/6 82/3/6
f 84/2/6 85/2/6 86/2/6
f 83/1/6 84/1/6 88/1/6
f 86/2/6 87/2/6 88/2/6
f 84/2/6 86/2/6 88/2/6
f 88/2/6 87/2/6 89/2/6
f 89/2/6 87/2/6 90/2/6
f 83/1/6 88/1/6 92/1/6
f 88/1/6 89/1/6 92/1/6
f 92/1/6 89/1/6 93/1/6
f 83/1/6 92/1/6 94/1/6
f 92/2/6 93/2/6 94/2/6
f 93/1/6 89/1/6 95/1/6
f 94/2/6 93/2/6 95/2/6
f 89/2/6 90/2/6 96/2/6
f 95/1/6 89/1/6 96/1/6
f 90/1/6 91/1/6 97/1/6
f 96/2/6 90/2/6 97/2/6
f 95/1/6 96/1/6 98/1/6
f 94/1/6 95/1/6 98/1/6
f 96/1/6 97/1/6 98/1/6
f 83/1/6 94/1/6 98/1/6
f 98/1/6 97/1/6 99/1/6
f 97/1/6 91/1/6 100/1/6
f 99/1/6 97/1/6 100/1/6
f 100/1/6 91/1/6 101/1/6
f 98/3/6 99/3/6 103/3/6
f 103/3/6 99/3/6 104/3/6
f 101/3/6 102/3/6 105/3/6
f 100/3/6 101/3/6 105/3/6
f 105/3/6 102/3/6 106/3/6
