# MagicaVoxel @ Ephtracy

# material
mtllib Floor 3.mtl
usemtl palette

# normals
vn -1 0 0
vn 1 0 0
vn 0 0 1
vn 0 0 -1
vn 0 -1 0
vn 0 1 0

# texcoords
vt 0.0644531 0.5
vt 0.0683594 0.5
vt 0.0722656 0.5

# verts
v -5 0 5
v -5 0 -5
v -5 9 5
v -5 9 2
v -5 9 -1
v -5 9 -4
v -5 10 2
v -5 10 -1
v -5 10 -4
v -5 10 -5
v -4 9 -1
v -4 9 -2
v -4 10 -1
v -4 10 -2
v -1 9 4
v -1 9 2
v -1 9 -2
v -1 9 -4
v -1 10 4
v -1 10 2
v -1 10 -2
v -1 10 -4
v 0 9 5
v 0 9 4
v 0 9 -4
v 0 9 -5
v 0 10 5
v 0 10 4
v 0 10 -4
v 0 10 -5
v 2 9 -4
v 2 9 -5
v 2 10 -4
v 2 10 -5
v 3 9 3
v 3 9 2
v 3 9 1
v 3 9 -0
v 3 10 3
v 3 10 2
v 3 10 1
v 3 10 -0
v 4 9 5
v 4 9 3
v 4 9 2
v 4 9 1
v 4 9 -2
v 4 9 -4
v 4 10 5
v 4 10 3
v 4 10 2
v 4 10 1
v 4 10 -2
v 4 10 -4
v -3 9 2
v -3 9 1
v -3 9 -4
v -3 9 -5
v -3 10 2
v -3 10 1
v -3 10 -4
v -3 10 -5
v -1 9 1
v -1 9 -0
v -1 10 1
v -1 10 -0
v 0 9 3
v 0 9 2
v 0 10 3
v 0 10 2
v 1 9 -3
v 1 9 -4
v 1 9 -5
v 1 10 -3
v 1 10 -4
v 1 10 -5
v 2 9 5
v 2 9 3
v 2 10 5
v 2 10 3
v 3 9 -2
v 3 9 -3
v 3 10 -2
v 3 10 -3
v 5 0 5
v 5 0 -5
v 5 10 5
v 5 10 -5
v -5 0 5
v -5 9 5
v 0 9 5
v 0 10 5
v 2 9 5
v 2 10 5
v 4 9 5
v 4 10 5
v 5 0 5
v 5 10 5
v -1 9 4
v -1 10 4
v 0 9 4
v 0 10 4
v 3 9 3
v 3 10 3
v 4 9 3
v 4 10 3
v -5 9 2
v -5 10 2
v -3 9 2
v -3 10 2
v -3 9 1
v -3 10 1
v -1 9 1
v -1 10 1
v 3 9 1
v 3 10 1
v 4 9 1
v 4 10 1
v -1 9 -0
v -1 10 -0
v 1 9 -0
v 1 10 -0
v 3 9 -0
v 3 10 -0
v -5 9 -4
v -5 10 -4
v -3 9 -4
v -3 10 -4
v 2 9 -4
v 2 10 -4
v 4 9 -4
v 4 10 -4
v 0 9 3
v 0 10 3
v 2 9 3
v 2 10 3
v -1 9 2
v -1 10 2
v 0 9 2
v 0 10 2
v 3 9 2
v 3 10 2
v 4 9 2
v 4 10 2
v -5 9 -1
v -5 10 -1
v -4 9 -1
v -4 10 -1
v -4 9 -2
v -4 10 -2
v -1 9 -2
v -1 10 -2
v 3 9 -2
v 3 10 -2
v 4 9 -2
v 4 10 -2
v 1 9 -3
v 1 10 -3
v 3 9 -3
v 3 10 -3
v -1 9 -4
v -1 10 -4
v 0 9 -4
v 0 10 -4
v -5 0 -5
v -5 10 -5
v -3 9 -5
v -3 10 -5
v 0 9 -5
v 0 10 -5
v 1 9 -5
v 1 10 -5
v 2 9 -5
v 2 10 -5
v 5 0 -5
v 5 10 -5
v -5 0 5
v 5 0 5
v -5 0 -5
v 5 0 -5
v -5 9 5
v 0 9 5
v 2 9 5
v 4 9 5
v -1 9 4
v 0 9 4
v 0 9 3
v 2 9 3
v 3 9 3
v 4 9 3
v -5 9 2
v -3 9 2
v -1 9 2
v 0 9 2
v 3 9 2
v 4 9 2
v -3 9 1
v -1 9 1
v 3 9 1
v 4 9 1
v -1 9 -0
v 1 9 -0
v 3 9 -0
v -5 9 -1
v -4 9 -1
v -4 9 -2
v -1 9 -2
v 3 9 -2
v 4 9 -2
v 1 9 -3
v 3 9 -3
v -5 9 -4
v -3 9 -4
v -1 9 -4
v 0 9 -4
v 1 9 -4
v 2 9 -4
v 4 9 -4
v -3 9 -5
v 0 9 -5
v 1 9 -5
v 2 9 -5
v 0 10 5
v 2 10 5
v 4 10 5
v 5 10 5
v -1 10 4
v 0 10 4
v 0 10 3
v 2 10 3
v 3 10 3
v 4 10 3
v -5 10 2
v -3 10 2
v -1 10 2
v 0 10 2
v 3 10 2
v 4 10 2
v -3 10 1
v -1 10 1
v 3 10 1
v 4 10 1
v -1 10 -0
v 1 10 -0
v 3 10 -0
v -5 10 -1
v -4 10 -1
v -3 10 -1
v -1 10 -1
v -4 10 -2
v -1 10 -2
v 1 10 -2
v 3 10 -2
v 4 10 -2
v 1 10 -3
v 3 10 -3
v -5 10 -4
v -3 10 -4
v -1 10 -4
v 0 10 -4
v 1 10 -4
v 2 10 -4
v 4 10 -4
v -5 10 -5
v -3 10 -5
v 0 10 -5
v 1 10 -5
v 2 10 -5
v 5 10 -5

# faces
f 3/3/1 2/3/1 1/3/1
f 4/3/1 2/3/1 3/3/1
f 5/3/1 2/3/1 4/3/1
f 6/3/1 2/3/1 5/3/1
f 7/1/1 5/1/1 4/1/1
f 8/1/1 5/1/1 7/1/1
f 9/3/1 2/3/1 6/3/1
f 10/3/1 2/3/1 9/3/1
f 13/1/1 12/1/1 11/1/1
f 14/1/1 12/1/1 13/1/1
f 19/1/1 16/1/1 15/1/1
f 20/1/1 16/1/1 19/1/1
f 21/1/1 18/1/1 17/1/1
f 22/1/1 18/1/1 21/1/1
f 27/1/1 24/1/1 23/1/1
f 28/1/1 24/1/1 27/1/1
f 29/3/1 26/3/1 25/3/1
f 30/3/1 26/3/1 29/3/1
f 33/3/1 32/3/1 31/3/1
f 34/3/1 32/3/1 33/3/1
f 39/1/1 36/1/1 35/1/1
f 40/1/1 36/1/1 39/1/1
f 41/1/1 38/1/1 37/1/1
f 42/1/1 38/1/1 41/1/1
f 49/3/1 44/3/1 43/3/1
f 50/3/1 44/3/1 49/3/1
f 51/3/1 46/3/1 45/3/1
f 52/3/1 46/3/1 51/3/1
f 53/3/1 48/3/1 47/3/1
f 54/3/1 48/3/1 53/3/1
f 55/1/2 56/1/2 59/1/2
f 59/1/2 56/1/2 60/1/2
f 57/3/2 58/3/2 61/3/2
f 61/3/2 58/3/2 62/3/2
f 63/2/2 64/2/2 65/2/2
f 65/2/2 64/2/2 66/2/2
f 67/1/2 68/1/2 69/1/2
f 69/1/2 68/1/2 70/1/2
f 71/1/2 72/1/2 74/1/2
f 72/3/2 73/3/2 75/3/2
f 74/1/2 72/1/2 75/1/2
f 75/3/2 73/3/2 76/3/2
f 77/1/2 78/1/2 79/1/2
f 79/1/2 78/1/2 80/1/2
f 81/1/2 82/1/2 83/1/2
f 83/1/2 82/1/2 84/1/2
f 85/3/2 86/3/2 87/3/2
f 87/3/2 86/3/2 88/3/2
f 91/3/3 90/3/3 89/3/3
f 93/3/3 91/3/3 89/3/3
f 93/1/3 92/1/3 91/1/3
f 94/1/3 92/1/3 93/1/3
f 95/3/3 93/3/3 89/3/3
f 97/3/3 95/3/3 89/3/3
f 97/3/3 96/3/3 95/3/3
f 98/3/3 96/3/3 97/3/3
f 101/1/3 100/1/3 99/1/3
f 102/1/3 100/1/3 101/1/3
f 105/1/3 104/1/3 103/1/3
f 106/1/3 104/1/3 105/1/3
f 109/1/3 108/1/3 107/1/3
f 110/1/3 108/1/3 109/1/3
f 113/2/3 112/2/3 111/2/3
f 114/2/3 112/2/3 113/2/3
f 117/1/3 116/1/3 115/1/3
f 118/1/3 116/1/3 117/1/3
f 121/2/3 120/2/3 119/2/3
f 122/2/3 120/2/3 121/2/3
f 123/1/3 122/1/3 121/1/3
f 124/1/3 122/1/3 123/1/3
f 127/3/3 126/3/3 125/3/3
f 128/3/3 126/3/3 127/3/3
f 131/3/3 130/3/3 129/3/3
f 132/3/3 130/3/3 131/3/3
f 133/1/4 134/1/4 135/1/4
f 135/1/4 134/1/4 136/1/4
f 137/1/4 138/1/4 139/1/4
f 139/1/4 138/1/4 140/1/4
f 141/1/4 142/1/4 143/1/4
f 143/1/4 142/1/4 144/1/4
f 145/1/4 146/1/4 147/1/4
f 147/1/4 146/1/4 148/1/4
f 149/1/4 150/1/4 151/1/4
f 151/1/4 150/1/4 152/1/4
f 153/1/4 154/1/4 155/1/4
f 155/1/4 154/1/4 156/1/4
f 157/1/4 158/1/4 159/1/4
f 159/1/4 158/1/4 160/1/4
f 161/1/4 162/1/4 163/1/4
f 163/1/4 162/1/4 164/1/4
f 165/3/4 166/3/4 167/3/4
f 167/3/4 166/3/4 168/3/4
f 165/3/4 167/3/4 169/3/4
f 165/3/4 169/3/4 171/3/4
f 169/3/4 170/3/4 171/3/4
f 171/3/4 170/3/4 172/3/4
f 165/3/4 171/3/4 173/3/4
f 165/3/4 173/3/4 175/3/4
f 173/3/4 174/3/4 175/3/4
f 175/3/4 174/3/4 176/3/4
f 179/3/5 178/3/5 177/3/5
f 180/3/5 178/3/5 179/3/5
f 181/3/6 182/3/6 185/3/6
f 185/3/6 182/3/6 186/3/6
f 183/3/6 184/3/6 188/3/6
f 188/3/6 184/3/6 189/3/6
f 189/3/6 184/3/6 190/3/6
f 181/3/6 185/3/6 191/3/6
f 191/3/6 185/3/6 192/3/6
f 192/3/6 185/3/6 193/3/6
f 187/3/6 188/3/6 194/3/6
f 188/3/6 189/3/6 194/3/6
f 194/3/6 189/3/6 195/3/6
f 192/3/6 193/3/6 197/3/6
f 195/3/6 196/3/6 197/3/6
f 194/3/6 195/3/6 197/3/6
f 193/3/6 194/3/6 197/3/6
f 197/3/6 196/3/6 198/3/6
f 198/3/6 196/3/6 199/3/6
f 199/3/6 196/3/6 200/3/6
f 198/3/6 199/3/6 201/3/6
f 201/3/6 199/3/6 202/3/6
f 202/3/6 199/3/6 203/3/6
f 204/3/6 205/3/6 206/3/6
f 208/3/6 209/3/6 211/3/6
f 206/3/6 207/3/6 212/3/6
f 204/3/6 206/3/6 212/3/6
f 212/3/6 207/3/6 213/3/6
f 213/3/6 207/3/6 214/3/6
f 210/3/6 211/3/6 216/3/6
f 216/3/6 211/3/6 217/3/6
f 211/3/6 209/3/6 218/3/6
f 217/3/6 211/3/6 218/3/6
f 214/3/6 215/3/6 219/3/6
f 213/3/6 214/3/6 219/3/6
f 219/3/6 215/3/6 220/3/6
f 216/3/6 217/3/6 221/3/6
f 221/3/6 217/3/6 222/3/6
f 223/1/6 224/1/6 228/1/6
f 228/1/6 224/1/6 229/1/6
f 227/1/6 228/1/6 229/1/6
f 229/1/6 224/1/6 230/1/6
f 225/3/6 226/3/6 232/3/6
f 227/1/6 229/1/6 235/1/6
f 235/1/6 229/1/6 236/1/6
f 231/1/6 232/1/6 237/1/6
f 232/3/6 226/3/6 238/3/6
f 237/1/6 232/1/6 238/1/6
f 233/1/6 234/1/6 239/1/6
f 238/3/6 226/3/6 242/3/6
f 239/2/6 240/2/6 243/2/6
f 241/1/6 242/1/6 245/1/6
f 233/1/6 239/1/6 246/1/6
f 246/1/6 239/1/6 247/1/6
f 243/2/6 244/2/6 248/2/6
f 247/1/6 239/1/6 248/1/6
f 239/2/6 243/2/6 248/2/6
f 248/2/6 244/2/6 249/2/6
f 247/1/6 248/1/6 250/1/6
f 248/1/6 249/1/6 250/1/6
f 249/2/6 244/2/6 251/2/6
f 250/1/6 249/1/6 251/1/6
f 244/1/6 245/1/6 252/1/6
f 251/2/6 244/2/6 252/2/6
f 245/1/6 242/1/6 253/1/6
f 252/1/6 245/1/6 253/1/6
f 242/3/6 226/3/6 254/3/6
f 253/1/6 242/1/6 254/1/6
f 252/1/6 253/1/6 255/1/6
f 251/1/6 252/1/6 255/1/6
f 255/1/6 253/1/6 256/1/6
f 251/1/6 255/1/6 259/1/6
f 259/1/6 255/1/6 260/1/6
f 260/1/6 255/1/6 261/1/6
f 254/3/6 226/3/6 263/3/6
f 257/3/6 258/3/6 264/3/6
f 264/3/6 258/3/6 265/3/6
f 260/3/6 261/3/6 266/3/6
f 266/3/6 261/3/6 267/3/6
f 262/3/6 263/3/6 268/3/6
f 263/3/6 226/3/6 269/3/6
f 268/3/6 263/3/6 269/3/6
