# MagicaVoxel @ Ephtracy

# material
mtllib Pillar 3.mtl
usemtl palette

# normals
vn -1 0 0
vn 1 0 0
vn 0 0 1
vn 0 0 -1
vn 0 -1 0
vn 0 1 0

# texcoords
vt 0.0332031 0.5
vt 0.0371094 0.5
vt 0.0410156 0.5

# verts
v -5 0 5
v -5 0 -2
v -5 0 -3
v -5 0 -5
v -5 1 3
v -5 1 2
v -5 1 -4
v -5 1 -5
v -5 2 5
v -5 2 3
v -5 2 -0
v -5 2 -2
v -5 3 2
v -5 3 -0
v -5 3 -1
v -5 3 -2
v -5 3 -3
v -5 3 -4
v -5 4 5
v -5 4 4
v -5 4 2
v -5 4 -0
v -5 4 -1
v -5 4 -3
v -5 4 -4
v -5 4 -5
v -5 5 5
v -5 5 4
v -5 5 -3
v -5 5 -4
v -5 5 -5
v -5 6 5
v -5 6 4
v -5 7 4
v -5 7 3
v -5 7 1
v -5 7 -0
v -5 7 -1
v -5 7 -2
v -5 7 -4
v -5 7 -5
v -5 8 3
v -5 8 2
v -5 8 1
v -5 8 -1
v -5 8 -2
v -5 9 5
v -5 9 4
v -5 9 3
v -5 9 2
v -5 9 -0
v -5 9 -2
v -5 9 -3
v -5 9 -4
v -5 9 -5
v -5 10 5
v -5 10 4
v -5 10 3
v -5 10 2
v -5 10 1
v -5 10 -4
v -5 10 -5
v -5 11 -1
v -5 11 -3
v -5 12 5
v -5 12 3
v -5 12 1
v -5 12 -1
v -5 12 -2
v -5 12 -3
v -5 12 -5
v -5 13 -1
v -5 13 -2
v -5 14 5
v -5 14 2
v -5 14 1
v -5 14 -1
v -5 14 -3
v -5 14 -5
v -5 15 2
v -5 15 -1
v -4 4 5
v -4 4 4
v -4 4 -4
v -4 4 -5
v -4 5 5
v -4 5 4
v -4 5 -4
v -4 5 -5
v -4 9 5
v -4 9 4
v -4 9 -4
v -4 9 -5
v -4 10 5
v -4 10 4
v -4 10 -4
v -4 10 -5
v 1 8 2
v 1 8 -4
v 1 9 2
v 1 9 -4
v -4 13 2
v -4 13 1
v -4 14 2
v -4 14 1
v -4 14 -1
v -4 15 2
v -4 15 -1
v -3 12 2
v -3 12 1
v -3 13 2
v -3 13 1
v -2 10 2
v -2 10 1
v -2 11 5
v -2 11 4
v -2 11 1
v -2 12 2
v -2 12 1
v -2 13 5
v -2 13 4
v -2 14 5
v -2 14 4
v -1 9 1
v -1 9 -0
v -1 10 5
v -1 10 4
v -1 10 3
v -1 10 1
v -1 10 -0
v -1 10 -1
v -1 10 -4
v -1 11 5
v -1 11 4
v -1 11 3
v -1 11 2
v -1 11 1
v -1 11 -1
v -1 11 -2
v -1 12 -2
v -1 12 -4
v -1 13 4
v -1 13 2
v -1 13 -0
v -1 13 -2
v -1 14 4
v -1 14 2
v -1 14 1
v -1 14 -0
v -1 14 -4
v 0 8 2
v 0 8 -4
v 0 9 5
v 0 9 3
v 0 9 1
v 0 9 -0
v 0 10 5
v 0 10 3
v 0 10 2
v 0 10 1
v 0 10 -0
v 0 10 -4
v 0 11 3
v 0 11 2
v 0 11 -4
v 0 11 -5
v 0 14 -4
v 0 14 -5
v 1 9 3
v 1 9 2
v 1 10 3
v 1 10 2
v 1 10 -4
v 1 10 -5
v 1 11 -4
v 1 11 -5
v 2 5 5
v 2 5 4
v 2 5 3
v 2 5 2
v 2 6 5
v 2 6 4
v 2 7 2
v 2 8 3
v 2 8 2
v 2 9 5
v 2 9 3
v 3 4 5
v 3 4 3
v 3 5 5
v 3 5 3
v 3 8 3
v 3 8 2
v 3 9 3
v 3 9 2
v 3 9 -4
v 3 9 -5
v 3 10 -4
v 3 10 -5
v 4 4 -4
v 4 4 -5
v 4 5 -4
v 4 5 -5
v 4 7 2
v 4 7 1
v 4 9 2
v 4 9 1
v 5 0 5
v 5 0 -2
v 5 0 -3
v 5 0 -5
v 5 2 5
v 5 2 4
v 5 2 -0
v 5 2 -2
v 5 2 -3
v 5 2 -5
v 5 3 4
v 5 3 -0
v 5 4 5
v 5 4 3
v 5 4 -2
v 5 4 -3
v 5 4 -4
v 5 4 -5
v 5 5 3
v 5 5 2
v 5 5 1
v 5 5 -4
v 5 5 -5
v 5 6 -3
v 5 6 -4
v 5 7 2
v 5 7 1
v 5 7 -0
v 5 7 -4
v 5 7 -5
v 5 8 -0
v 5 8 -3
v 5 9 1
v 5 9 -5
v -5 0 5
v -5 2 5
v -5 4 5
v -5 5 5
v -5 6 5
v -5 9 5
v -5 10 5
v -5 12 5
v -5 14 5
v -4 1 5
v -4 2 5
v -4 3 5
v -4 4 5
v -4 5 5
v -4 8 5
v -4 9 5
v -4 10 5
v -4 12 5
v -4 13 5
v -3 0 5
v -3 1 5
v -3 2 5
v -3 3 5
v -3 4 5
v -3 6 5
v -3 7 5
v -3 8 5
v -3 9 5
v -2 0 5
v -2 1 5
v -2 4 5
v -2 7 5
v -2 8 5
v -2 10 5
v -2 11 5
v -2 13 5
v -2 14 5
v -1 1 5
v -1 2 5
v -1 3 5
v -1 4 5
v -1 10 5
v -1 11 5
v 0 9 5
v 0 10 5
v 1 1 5
v 1 2 5
v 1 3 5
v 1 4 5
v 1 5 5
v 1 6 5
v 1 8 5
v 2 2 5
v 2 4 5
v 2 5 5
v 2 6 5
v 2 9 5
v 3 2 5
v 3 4 5
v 3 5 5
v 4 1 5
v 4 2 5
v 5 0 5
v 5 2 5
v 5 4 5
v -5 4 4
v -5 5 4
v -5 9 4
v -5 10 4
v -4 4 4
v -4 5 4
v -4 9 4
v -4 10 4
v -2 11 4
v -2 13 4
v -2 14 4
v -1 11 4
v -1 13 4
v -1 14 4
v -1 10 3
v -1 11 3
v 0 9 3
v 0 10 3
v 0 11 3
v 1 9 3
v 1 10 3
v 2 8 3
v 2 9 3
v 3 4 3
v 3 5 3
v 3 8 3
v 3 9 3
v 5 4 3
v 5 5 3
v -5 14 2
v -5 15 2
v -4 14 2
v -4 15 2
v 2 5 2
v 2 7 2
v 2 8 2
v 3 8 2
v 3 9 2
v 4 7 2
v 4 9 2
v 5 5 2
v 5 7 2
v -4 13 1
v -4 14 1
v -3 12 1
v -3 13 1
v -2 10 1
v -2 11 1
v -2 12 1
v -2 13 1
v -1 10 1
v -1 11 1
v -1 14 1
v 4 7 1
v 4 9 1
v 5 7 1
v 5 9 1
v -1 9 -0
v -1 10 -0
v 0 9 -0
v 0 10 -0
v -1 10 -4
v -1 12 -4
v -1 14 -4
v 0 8 -4
v 0 10 -4
v 0 11 -4
v 0 14 -4
v 1 8 -4
v 1 9 -4
v 1 10 -4
v 1 11 -4
v 3 9 -4
v 3 10 -4
v -4 13 2
v -4 14 2
v -3 12 2
v -3 13 2
v -2 10 2
v -2 12 2
v -2 13 2
v -1 10 2
v -1 11 2
v -1 13 2
v -1 14 2
v 0 8 2
v 0 10 2
v 0 11 2
v 1 8 2
v 1 9 2
v 1 10 2
v -1 9 1
v -1 10 1
v 0 9 1
v 0 10 1
v -5 14 -1
v -5 15 -1
v -4 14 -1
v -4 15 -1
v -5 4 -4
v -5 5 -4
v -5 9 -4
v -5 10 -4
v -4 4 -4
v -4 5 -4
v -4 9 -4
v -4 10 -4
v 4 4 -4
v 4 5 -4
v 5 4 -4
v 5 5 -4
v -5 0 -5
v -5 1 -5
v -5 4 -5
v -5 5 -5
v -5 7 -5
v -5 9 -5
v -5 10 -5
v -5 12 -5
v -5 14 -5
v -4 1 -5
v -4 2 -5
v -4 4 -5
v -4 5 -5
v -4 6 -5
v -4 7 -5
v -4 9 -5
v -4 10 -5
v -4 12 -5
v -4 13 -5
v -3 0 -5
v -3 2 -5
v -3 4 -5
v -2 0 -5
v -2 3 -5
v -2 4 -5
v -2 6 -5
v -2 7 -5
v -2 12 -5
v -2 13 -5
v -1 10 -5
v -1 12 -5
v -1 14 -5
v 0 8 -5
v 0 9 -5
v 0 11 -5
v 0 14 -5
v 1 2 -5
v 1 3 -5
v 1 7 -5
v 1 8 -5
v 1 10 -5
v 1 11 -5
v 2 1 -5
v 2 2 -5
v 2 3 -5
v 2 5 -5
v 2 8 -5
v 3 1 -5
v 3 2 -5
v 3 5 -5
v 3 7 -5
v 3 9 -5
v 3 10 -5
v 4 2 -5
v 4 3 -5
v 4 4 -5
v 4 5 -5
v 5 0 -5
v 5 2 -5
v 5 4 -5
v 5 5 -5
v 5 7 -5
v 5 9 -5
v -5 0 5
v -3 0 5
v -2 0 5
v 5 0 5
v -4 0 4
v -3 0 4
v -2 0 4
v 4 0 4
v -5 0 -2
v -4 0 -2
v 4 0 -2
v 5 0 -2
v -5 0 -3
v -4 0 -3
v 4 0 -3
v 5 0 -3
v -4 0 -4
v -3 0 -4
v -2 0 -4
v 4 0 -4
v -5 0 -5
v -3 0 -5
v -2 0 -5
v 5 0 -5
v -5 5 5
v -4 5 5
v -5 5 4
v -4 5 4
v -5 5 -4
v -4 5 -4
v 4 5 -4
v 5 5 -4
v -5 5 -5
v -4 5 -5
v 4 5 -5
v 5 5 -5
v 2 8 3
v 3 8 3
v 2 8 2
v 3 8 2
v -5 10 5
v -4 10 5
v -5 10 4
v -4 10 4
v -5 10 -4
v -4 10 -4
v -5 10 -5
v -4 10 -5
v -5 4 5
v -4 4 5
v 3 4 5
v 5 4 5
v -5 4 4
v -4 4 4
v 3 4 3
v 5 4 3
v -5 4 -4
v -4 4 -4
v 4 4 -4
v 5 4 -4
v -5 4 -5
v -4 4 -5
v 4 4 -5
v 5 4 -5
v 2 5 5
v 3 5 5
v 2 5 4
v 2 5 3
v 3 5 3
v 5 5 3
v 2 5 2
v 5 5 2
v 4 7 2
v 5 7 2
v 4 7 1
v 5 7 1
v 0 8 2
v 1 8 2
v 0 8 -4
v 1 8 -4
v -5 9 5
v -4 9 5
v 0 9 5
v 2 9 5
v -5 9 4
v -4 9 4
v 0 9 3
v 1 9 3
v 2 9 3
v 3 9 3
v 1 9 2
v 3 9 2
v 4 9 2
v -1 9 1
v 0 9 1
v 3 9 1
v 4 9 1
v 5 9 1
v -1 9 -0
v 0 9 -0
v -5 9 -4
v -4 9 -4
v 1 9 -4
v 3 9 -4
v -5 9 -5
v -4 9 -5
v 3 9 -5
v 5 9 -5
v -1 10 5
v 0 10 5
v -1 10 4
v -1 10 3
v 0 10 3
v 1 10 3
v -2 10 2
v -1 10 2
v 0 10 2
v 1 10 2
v -2 10 1
v -1 10 1
v 0 10 1
v -1 10 -0
v 0 10 -0
v -1 10 -1
v -1 10 -4
v 0 10 -4
v 1 10 -4
v 3 10 -4
v 1 10 -5
v 3 10 -5
v -2 11 5
v -1 11 5
v -2 11 4
v -1 11 4
v -1 11 3
v 0 11 3
v -1 11 2
v 0 11 2
v 0 11 -4
v 1 11 -4
v 0 11 -5
v 1 11 -5
v -3 12 2
v -2 12 2
v -3 12 1
v -2 12 1
v -4 13 2
v -3 13 2
v -4 13 1
v -3 13 1
v -5 14 5
v -2 14 5
v -2 14 4
v -1 14 4
v -5 14 2
v -4 14 2
v -1 14 2
v -4 14 1
v -1 14 1
v -3 14 -0
v -1 14 -0
v -5 14 -1
v -4 14 -1
v -5 14 -3
v -4 14 -3
v -3 14 -4
v -1 14 -4
v 0 14 -4
v -5 14 -5
v -1 14 -5
v 0 14 -5
v -5 15 2
v -4 15 2
v -5 15 -1
v -4 15 -1

# faces
f 5/1/1 2/1/1 1/1/1
f 6/1/1 2/1/1 5/1/1
f 7/1/1 4/1/1 3/1/1
f 8/1/1 4/1/1 7/1/1
f 9/1/1 5/1/1 1/1/1
f 10/2/1 6/2/1 5/2/1
f 10/1/1 5/1/1 9/1/1
f 11/1/1 2/1/1 6/1/1
f 12/3/1 3/3/1 2/3/1
f 12/1/1 2/1/1 11/1/1
f 13/2/1 6/2/1 10/2/1
f 13/1/1 11/1/1 6/1/1
f 13/2/1 10/2/1 9/2/1
f 14/2/1 12/2/1 11/2/1
f 14/1/1 11/1/1 13/1/1
f 15/2/1 12/2/1 14/2/1
f 16/3/1 3/3/1 12/3/1
f 16/2/1 12/2/1 15/2/1
f 17/1/1 7/1/1 3/1/1
f 17/3/1 3/3/1 16/3/1
f 18/2/1 8/2/1 7/2/1
f 18/1/1 7/1/1 17/1/1
f 19/2/1 13/2/1 9/2/1
f 20/2/1 13/2/1 19/2/1
f 21/3/1 14/3/1 13/3/1
f 21/2/1 13/2/1 20/2/1
f 22/2/1 15/2/1 14/2/1
f 22/3/1 14/3/1 21/3/1
f 23/3/1 16/3/1 15/3/1
f 23/2/1 15/2/1 22/2/1
f 23/3/1 17/3/1 16/3/1
f 24/2/1 18/2/1 17/2/1
f 24/3/1 17/3/1 23/3/1
f 25/2/1 8/2/1 18/2/1
f 25/2/1 18/2/1 24/2/1
f 26/2/1 8/2/1 25/2/1
f 28/3/1 21/3/1 20/3/1
f 28/3/1 25/3/1 24/3/1
f 28/3/1 23/3/1 22/3/1
f 28/3/1 24/3/1 23/3/1
f 28/3/1 22/3/1 21/3/1
f 29/3/1 25/3/1 28/3/1
f 30/3/1 25/3/1 29/3/1
f 32/1/1 28/1/1 27/1/1
f 32/1/1 29/1/1 28/1/1
f 33/1/1 29/1/1 32/1/1
f 34/2/1 33/2/1 32/2/1
f 34/1/1 29/1/1 33/1/1
f 35/1/1 29/1/1 34/1/1
f 36/1/1 29/1/1 35/1/1
f 37/1/1 29/1/1 36/1/1
f 38/1/1 29/1/1 37/1/1
f 39/1/1 29/1/1 38/1/1
f 40/1/1 31/1/1 30/1/1
f 40/3/1 30/3/1 29/3/1
f 41/1/1 31/1/1 40/1/1
f 42/2/1 35/2/1 34/2/1
f 42/1/1 36/1/1 35/1/1
f 43/1/1 36/1/1 42/1/1
f 44/2/1 37/2/1 36/2/1
f 44/1/1 36/1/1 43/1/1
f 45/2/1 39/2/1 38/2/1
f 45/3/1 38/3/1 37/3/1
f 46/1/1 29/1/1 39/1/1
f 46/2/1 39/2/1 45/2/1
f 47/2/1 34/2/1 32/2/1
f 47/2/1 42/2/1 34/2/1
f 48/2/1 42/2/1 47/2/1
f 49/3/1 43/3/1 42/3/1
f 49/2/1 42/2/1 48/2/1
f 50/2/1 44/2/1 43/2/1
f 50/3/1 43/3/1 49/3/1
f 51/3/1 45/3/1 37/3/1
f 51/2/1 44/2/1 50/2/1
f 51/2/1 37/2/1 44/2/1
f 51/3/1 46/3/1 45/3/1
f 52/1/1 29/1/1 46/1/1
f 52/3/1 46/3/1 51/3/1
f 53/3/1 40/3/1 29/3/1
f 53/1/1 29/1/1 52/1/1
f 54/2/1 41/2/1 40/2/1
f 54/3/1 40/3/1 53/3/1
f 55/2/1 41/2/1 54/2/1
f 57/3/1 50/3/1 49/3/1
f 57/3/1 54/3/1 53/3/1
f 57/3/1 52/3/1 51/3/1
f 57/3/1 49/3/1 48/3/1
f 57/3/1 51/3/1 50/3/1
f 57/3/1 53/3/1 52/3/1
f 58/3/1 54/3/1 57/3/1
f 59/3/1 54/3/1 58/3/1
f 60/3/1 54/3/1 59/3/1
f 61/3/1 54/3/1 60/3/1
f 63/1/1 61/1/1 60/1/1
f 63/1/1 62/1/1 61/1/1
f 64/1/1 62/1/1 63/1/1
f 65/1/1 57/1/1 56/1/1
f 65/1/1 58/1/1 57/1/1
f 66/2/1 59/2/1 58/2/1
f 66/1/1 58/1/1 65/1/1
f 67/3/1 60/3/1 59/3/1
f 67/1/1 63/1/1 60/1/1
f 68/2/1 64/2/1 63/2/1
f 68/1/1 63/1/1 67/1/1
f 69/2/1 64/2/1 68/2/1
f 70/1/1 62/1/1 64/1/1
f 70/2/1 64/2/1 69/2/1
f 71/1/1 62/1/1 70/1/1
f 72/2/1 69/2/1 68/2/1
f 72/2/1 68/2/1 67/2/1
f 73/3/1 70/3/1 69/3/1
f 73/2/1 69/2/1 72/2/1
f 74/2/1 66/2/1 65/2/1
f 75/3/1 67/3/1 59/3/1
f 75/2/1 66/2/1 74/2/1
f 75/2/1 59/2/1 66/2/1
f 76/2/1 72/2/1 67/2/1
f 76/3/1 67/3/1 75/3/1
f 77/3/1 73/3/1 72/3/1
f 77/2/1 72/2/1 76/2/1
f 78/3/1 70/3/1 73/3/1
f 78/3/1 73/3/1 77/3/1
f 78/2/1 71/2/1 70/2/1
f 79/2/1 71/2/1 78/2/1
f 80/3/1 76/3/1 75/3/1
f 80/3/1 77/3/1 76/3/1
f 81/3/1 77/3/1 80/3/1
f 86/3/1 83/3/1 82/3/1
f 87/3/1 83/3/1 86/3/1
f 88/3/1 85/3/1 84/3/1
f 89/3/1 85/3/1 88/3/1
f 94/3/1 91/3/1 90/3/1
f 95/3/1 91/3/1 94/3/1
f 96/3/1 93/3/1 92/3/1
f 97/3/1 93/3/1 96/3/1
f 100/2/1 99/2/1 98/2/1
f 101/2/1 99/2/1 100/2/1
f 102/3/2 103/3/2 104/3/2
f 104/3/2 103/3/2 105/3/2
f 104/3/2 105/3/2 107/3/2
f 105/3/2 106/3/2 107/3/2
f 107/3/2 106/3/2 108/3/2
f 109/3/2 110/3/2 111/3/2
f 111/3/2 110/3/2 112/3/2
f 113/3/2 114/3/2 117/3/2
f 113/3/2 117/3/2 118/3/2
f 118/3/2 117/3/2 119/3/2
f 115/1/2 116/1/2 120/1/2
f 120/1/2 116/1/2 121/1/2
f 120/2/2 121/2/2 122/2/2
f 122/2/2 121/2/2 123/2/2
f 124/2/2 125/2/2 129/2/2
f 129/2/2 125/2/2 130/2/2
f 126/3/2 127/3/2 133/3/2
f 127/1/2 128/1/2 134/1/2
f 133/3/2 127/3/2 134/3/2
f 134/1/2 128/1/2 135/1/2
f 129/1/2 130/1/2 137/1/2
f 130/1/2 131/1/2 137/1/2
f 131/3/2 132/3/2 138/3/2
f 137/1/2 131/1/2 138/1/2
f 138/3/2 132/3/2 139/3/2
f 139/3/2 132/3/2 140/3/2
f 138/2/2 139/2/2 140/2/2
f 137/2/2 138/2/2 140/2/2
f 140/3/2 132/3/2 141/3/2
f 135/1/2 136/1/2 142/1/2
f 134/1/2 135/1/2 142/1/2
f 142/1/2 136/1/2 143/1/2
f 137/2/2 140/2/2 144/2/2
f 140/1/2 141/1/2 145/1/2
f 144/2/2 140/2/2 145/2/2
f 142/2/2 143/2/2 146/2/2
f 146/2/2 143/2/2 147/2/2
f 137/2/2 144/2/2 148/2/2
f 144/1/2 145/1/2 149/1/2
f 148/2/2 144/2/2 149/2/2
f 145/1/2 141/1/2 150/1/2
f 149/1/2 145/1/2 150/1/2
f 151/3/2 152/3/2 155/3/2
f 155/3/2 152/3/2 156/3/2
f 153/3/2 154/3/2 157/3/2
f 157/3/2 154/3/2 158/3/2
f 151/3/2 155/3/2 159/3/2
f 159/3/2 155/3/2 160/3/2
f 156/3/2 152/3/2 161/3/2
f 161/3/2 152/3/2 162/3/2
f 158/3/2 159/3/2 163/3/2
f 163/3/2 159/3/2 164/3/2
f 165/3/2 166/3/2 167/3/2
f 167/3/2 166/3/2 168/3/2
f 169/3/2 170/3/2 171/3/2
f 171/3/2 170/3/2 172/3/2
f 173/3/2 174/3/2 175/3/2
f 175/3/2 174/3/2 176/3/2
f 177/3/2 178/3/2 181/3/2
f 178/2/2 179/2/2 182/2/2
f 181/3/2 178/3/2 182/3/2
f 179/3/2 180/3/2 183/3/2
f 182/2/2 179/2/2 184/2/2
f 181/2/2 182/2/2 184/2/2
f 179/3/2 183/3/2 184/3/2
f 184/3/2 183/3/2 185/3/2
f 181/2/2 184/2/2 186/2/2
f 186/2/2 184/2/2 187/2/2
f 188/3/2 189/3/2 190/3/2
f 190/3/2 189/3/2 191/3/2
f 192/3/2 193/3/2 194/3/2
f 194/3/2 193/3/2 195/3/2
f 196/3/2 197/3/2 198/3/2
f 198/3/2 197/3/2 199/3/2
f 200/3/2 201/3/2 202/3/2
f 202/3/2 201/3/2 203/3/2
f 204/3/2 205/3/2 206/3/2
f 206/3/2 205/3/2 207/3/2
f 208/1/2 209/1/2 212/1/2
f 212/1/2 209/1/2 213/1/2
f 213/1/2 209/1/2 214/1/2
f 209/3/2 210/3/2 215/3/2
f 214/1/2 209/1/2 215/1/2
f 210/1/2 211/1/2 216/1/2
f 215/3/2 210/3/2 216/3/2
f 216/1/2 211/1/2 217/1/2
f 213/1/2 214/1/2 218/1/2
f 212/2/2 213/2/2 218/2/2
f 214/2/2 215/2/2 219/2/2
f 218/1/2 214/1/2 219/1/2
f 212/2/2 218/2/2 220/2/2
f 218/2/2 219/2/2 220/2/2
f 220/2/2 219/2/2 221/2/2
f 219/2/2 215/2/2 222/2/2
f 221/2/2 219/2/2 222/2/2
f 215/3/2 216/3/2 222/3/2
f 216/2/2 217/2/2 223/2/2
f 222/3/2 216/3/2 223/3/2
f 223/2/2 217/2/2 224/2/2
f 224/2/2 217/2/2 225/2/2
f 221/3/2 222/3/2 226/3/2
f 223/3/2 224/3/2 226/3/2
f 222/3/2 223/3/2 226/3/2
f 226/3/2 224/3/2 227/3/2
f 227/3/2 224/3/2 228/3/2
f 228/3/2 224/3/2 229/3/2
f 229/1/2 230/1/2 231/1/2
f 228/1/2 229/1/2 231/1/2
f 231/1/2 230/1/2 232/1/2
f 227/2/2 228/2/2 233/2/2
f 228/1/2 231/1/2 234/1/2
f 233/2/2 228/2/2 234/2/2
f 234/1/2 231/1/2 235/1/2
f 232/1/2 230/1/2 236/1/2
f 231/2/2 232/2/2 236/2/2
f 236/1/2 230/1/2 237/1/2
f 235/1/2 231/1/2 238/1/2
f 234/2/2 235/2/2 238/2/2
f 236/2/2 237/2/2 239/2/2
f 238/1/2 231/1/2 239/1/2
f 231/2/2 236/2/2 239/2/2
f 234/2/2 238/2/2 240/2/2
f 238/2/2 239/2/2 240/2/2
f 239/2/2 237/2/2 241/2/2
f 240/2/2 239/2/2 241/2/2
f 251/1/3 243/1/3 242/1/3
f 252/2/3 244/2/3 243/2/3
f 252/1/3 243/1/3 251/1/3
f 253/2/3 244/2/3 252/2/3
f 254/2/3 244/2/3 253/2/3
f 255/1/3 246/1/3 245/1/3
f 256/2/3 247/2/3 246/2/3
f 257/2/3 247/2/3 256/2/3
f 258/1/3 249/1/3 248/1/3
f 259/2/3 250/2/3 249/2/3
f 259/1/3 249/1/3 258/1/3
f 260/2/3 250/2/3 259/2/3
f 261/1/3 251/1/3 242/1/3
f 262/2/3 252/2/3 251/2/3
f 262/1/3 251/1/3 261/1/3
f 263/1/3 253/1/3 252/1/3
f 263/2/3 252/2/3 262/2/3
f 264/2/3 254/2/3 253/2/3
f 264/1/3 253/1/3 263/1/3
f 265/3/3 255/3/3 254/3/3
f 265/2/3 254/2/3 264/2/3
f 266/1/3 246/1/3 255/1/3
f 266/2/3 256/2/3 246/2/3
f 267/2/3 256/2/3 266/2/3
f 268/3/3 258/3/3 257/3/3
f 268/2/3 256/2/3 267/2/3
f 268/3/3 257/3/3 256/3/3
f 269/3/3 258/3/3 268/3/3
f 270/3/3 263/3/3 262/3/3
f 270/3/3 264/3/3 263/3/3
f 270/3/3 262/3/3 261/3/3
f 270/3/3 265/3/3 264/3/3
f 271/3/3 265/3/3 270/3/3
f 272/3/3 255/3/3 265/3/3
f 272/3/3 265/3/3 271/3/3
f 273/1/3 267/1/3 266/1/3
f 273/2/3 269/2/3 268/2/3
f 273/2/3 268/2/3 267/2/3
f 274/2/3 269/2/3 273/2/3
f 275/3/3 258/3/3 269/3/3
f 275/1/3 260/1/3 259/1/3
f 275/1/3 259/1/3 258/1/3
f 276/1/3 260/1/3 275/1/3
f 277/2/3 250/2/3 260/2/3
f 277/1/3 260/1/3 276/1/3
f 278/2/3 250/2/3 277/2/3
f 279/2/3 272/2/3 271/2/3
f 279/1/3 271/1/3 270/1/3
f 280/2/3 272/2/3 279/2/3
f 281/2/3 272/2/3 280/2/3
f 282/3/3 255/3/3 272/3/3
f 282/2/3 272/2/3 281/2/3
f 283/3/3 276/3/3 275/3/3
f 283/3/3 275/3/3 269/3/3
f 284/3/3 276/3/3 283/3/3
f 285/2/3 269/2/3 274/2/3
f 285/3/3 283/3/3 269/3/3
f 286/3/3 283/3/3 285/3/3
f 287/1/3 279/1/3 270/1/3
f 287/1/3 280/1/3 279/1/3
f 288/2/3 281/2/3 280/2/3
f 288/1/3 280/1/3 287/1/3
f 289/3/3 282/3/3 281/3/3
f 289/2/3 281/2/3 288/2/3
f 290/3/3 255/3/3 282/3/3
f 290/3/3 282/3/3 289/3/3
f 291/1/3 266/1/3 255/1/3
f 291/3/3 255/3/3 290/3/3
f 291/1/3 274/1/3 273/1/3
f 291/1/3 273/1/3 266/1/3
f 292/1/3 274/1/3 291/1/3
f 293/2/3 285/2/3 274/2/3
f 293/1/3 274/1/3 292/1/3
f 294/2/3 289/2/3 288/2/3
f 294/2/3 290/2/3 289/2/3
f 294/2/3 288/2/3 287/2/3
f 295/3/3 291/3/3 290/3/3
f 295/2/3 290/2/3 294/2/3
f 295/3/3 292/3/3 291/3/3
f 296/3/3 292/3/3 295/3/3
f 297/2/3 293/2/3 292/2/3
f 297/3/3 292/3/3 296/3/3
f 298/2/3 285/2/3 293/2/3
f 298/2/3 293/2/3 297/2/3
f 299/3/3 296/3/3 295/3/3
f 299/3/3 295/3/3 294/3/3
f 299/2/3 294/2/3 287/2/3
f 300/3/3 296/3/3 299/3/3
f 301/3/3 296/3/3 300/3/3
f 302/1/3 287/1/3 270/1/3
f 302/2/3 299/2/3 287/2/3
f 302/2/3 300/2/3 299/2/3
f 303/2/3 300/2/3 302/2/3
f 304/1/3 302/1/3 270/1/3
f 304/1/3 303/1/3 302/1/3
f 305/2/3 300/2/3 303/2/3
f 305/1/3 303/1/3 304/1/3
f 306/2/3 300/2/3 305/2/3
f 311/3/3 308/3/3 307/3/3
f 312/3/3 308/3/3 311/3/3
f 313/3/3 310/3/3 309/3/3
f 314/3/3 310/3/3 313/3/3
f 318/1/3 316/1/3 315/1/3
f 319/2/3 317/2/3 316/2/3
f 319/1/3 316/1/3 318/1/3
f 320/2/3 317/2/3 319/2/3
f 324/3/3 322/3/3 321/3/3
f 325/3/3 322/3/3 324/3/3
f 326/3/3 324/3/3 323/3/3
f 327/3/3 324/3/3 326/3/3
f 332/3/3 329/3/3 328/3/3
f 333/3/3 329/3/3 332/3/3
f 334/3/3 331/3/3 330/3/3
f 335/3/3 331/3/3 334/3/3
f 338/3/3 337/3/3 336/3/3
f 339/3/3 337/3/3 338/3/3
f 343/3/3 342/3/3 341/3/3
f 345/2/3 341/2/3 340/2/3
f 345/3/3 344/3/3 343/3/3
f 345/3/3 343/3/3 341/3/3
f 346/3/3 344/3/3 345/3/3
f 347/2/3 345/2/3 340/2/3
f 348/2/3 345/2/3 347/2/3
f 352/2/3 350/2/3 349/2/3
f 355/1/3 352/1/3 351/1/3
f 356/2/3 350/2/3 352/2/3
f 356/1/3 352/1/3 355/1/3
f 357/1/3 354/1/3 353/1/3
f 358/2/3 355/2/3 354/2/3
f 358/1/3 354/1/3 357/1/3
f 358/2/3 356/2/3 355/2/3
f 359/2/3 350/2/3 356/2/3
f 359/2/3 356/2/3 358/2/3
f 362/2/3 361/2/3 360/2/3
f 363/2/3 361/2/3 362/2/3
f 366/3/3 365/3/3 364/3/3
f 367/3/3 365/3/3 366/3/3
f 372/3/3 369/3/3 368/3/3
f 372/3/3 370/3/3 369/3/3
f 373/3/3 370/3/3 372/3/3
f 374/3/3 370/3/3 373/3/3
f 375/3/3 372/3/3 371/3/3
f 375/3/3 373/3/3 372/3/3
f 376/3/3 373/3/3 375/3/3
f 377/3/3 373/3/3 376/3/3
f 378/3/3 373/3/3 377/3/3
f 379/3/3 377/3/3 376/3/3
f 380/3/3 377/3/3 379/3/3
f 381/2/4 382/2/4 384/2/4
f 383/2/4 384/2/4 386/2/4
f 384/2/4 382/2/4 387/2/4
f 386/2/4 384/2/4 387/2/4
f 385/1/4 386/1/4 388/1/4
f 386/1/4 387/1/4 388/1/4
f 388/1/4 387/1/4 389/1/4
f 387/2/4 382/2/4 390/2/4
f 389/1/4 387/1/4 390/1/4
f 390/2/4 382/2/4 391/2/4
f 388/3/4 389/3/4 393/3/4
f 393/3/4 389/3/4 394/3/4
f 392/3/4 393/3/4 395/3/4
f 395/3/4 393/3/4 396/3/4
f 396/3/4 393/3/4 397/3/4
f 398/3/4 399/3/4 400/3/4
f 400/3/4 399/3/4 401/3/4
f 402/3/4 403/3/4 404/3/4
f 404/3/4 403/3/4 405/3/4
f 406/3/4 407/3/4 410/3/4
f 410/3/4 407/3/4 411/3/4
f 408/3/4 409/3/4 412/3/4
f 412/3/4 409/3/4 413/3/4
f 414/3/4 415/3/4 416/3/4
f 416/3/4 415/3/4 417/3/4
f 418/1/4 419/1/4 427/1/4
f 419/2/4 420/2/4 427/2/4
f 427/2/4 420/2/4 428/2/4
f 428/2/4 420/2/4 429/2/4
f 421/1/4 422/1/4 430/1/4
f 430/1/4 422/1/4 431/1/4
f 422/2/4 423/2/4 432/2/4
f 431/1/4 422/1/4 432/1/4
f 432/2/4 423/2/4 433/2/4
f 424/1/4 425/1/4 434/1/4
f 425/2/4 426/2/4 435/2/4
f 434/1/4 425/1/4 435/1/4
f 435/2/4 426/2/4 436/2/4
f 418/1/4 427/1/4 437/1/4
f 427/1/4 428/1/4 437/1/4
f 428/2/4 429/2/4 438/2/4
f 437/1/4 428/1/4 438/1/4
f 429/3/4 430/3/4 439/3/4
f 438/2/4 429/2/4 439/2/4
f 437/3/4 438/3/4 440/3/4
f 438/3/4 439/3/4 440/3/4
f 440/3/4 439/3/4 441/3/4
f 439/3/4 430/3/4 442/3/4
f 441/3/4 439/3/4 442/3/4
f 432/2/4 433/2/4 443/2/4
f 430/1/4 431/1/4 443/1/4
f 431/2/4 432/2/4 443/2/4
f 443/2/4 433/2/4 444/2/4
f 435/1/4 436/1/4 445/1/4
f 434/1/4 435/1/4 445/1/4
f 436/2/4 426/2/4 446/2/4
f 445/1/4 436/1/4 446/1/4
f 433/3/4 434/3/4 447/3/4
f 434/1/4 445/1/4 447/1/4
f 445/2/4 446/2/4 448/2/4
f 447/1/4 445/1/4 448/1/4
f 446/2/4 426/2/4 449/2/4
f 448/2/4 446/2/4 449/2/4
f 444/2/4 433/2/4 450/2/4
f 447/3/4 448/3/4 451/3/4
f 450/2/4 433/2/4 451/2/4
f 433/3/4 447/3/4 451/3/4
f 448/3/4 449/3/4 451/3/4
f 451/3/4 449/3/4 452/3/4
f 452/3/4 449/3/4 453/3/4
f 440/1/4 441/1/4 454/1/4
f 441/2/4 442/2/4 455/2/4
f 454/1/4 441/1/4 455/1/4
f 444/2/4 450/2/4 456/2/4
f 443/1/4 444/1/4 456/1/4
f 450/3/4 451/3/4 457/3/4
f 456/2/4 450/2/4 457/2/4
f 451/3/4 452/3/4 457/3/4
f 457/3/4 452/3/4 458/3/4
f 458/3/4 452/3/4 459/3/4
f 440/1/4 454/1/4 460/1/4
f 454/2/4 455/2/4 461/2/4
f 460/1/4 454/1/4 461/1/4
f 455/2/4 442/2/4 462/2/4
f 461/2/4 455/2/4 462/2/4
f 442/3/4 430/3/4 463/3/4
f 430/1/4 443/1/4 463/1/4
f 443/1/4 456/1/4 463/1/4
f 456/1/4 457/1/4 463/1/4
f 457/3/4 458/3/4 464/3/4
f 463/1/4 457/1/4 464/1/4
f 460/2/4 461/2/4 465/2/4
f 440/1/4 460/1/4 465/1/4
f 461/1/4 462/1/4 466/1/4
f 465/2/4 461/2/4 466/2/4
f 463/3/4 464/3/4 467/3/4
f 442/3/4 463/3/4 467/3/4
f 467/3/4 464/3/4 468/3/4
f 464/3/4 458/3/4 469/3/4
f 468/3/4 464/3/4 469/3/4
f 469/3/4 458/3/4 470/3/4
f 466/1/4 462/1/4 471/1/4
f 465/1/4 466/1/4 471/1/4
f 462/2/4 442/2/4 472/2/4
f 471/1/4 462/1/4 472/1/4
f 442/3/4 467/3/4 473/3/4
f 472/2/4 442/2/4 473/2/4
f 467/1/4 468/1/4 474/1/4
f 473/3/4 467/3/4 474/3/4
f 465/1/4 471/1/4 475/1/4
f 440/1/4 465/1/4 475/1/4
f 472/2/4 473/2/4 476/2/4
f 475/1/4 471/1/4 476/1/4
f 471/2/4 472/2/4 476/2/4
f 476/2/4 473/2/4 477/2/4
f 474/1/4 468/1/4 478/1/4
f 468/2/4 469/2/4 479/2/4
f 478/1/4 468/1/4 479/1/4
f 479/2/4 469/2/4 480/2/4
f 485/1/5 482/1/5 481/1/5
f 486/3/5 483/3/5 482/3/5
f 486/1/5 482/1/5 485/1/5
f 487/1/5 484/1/5 483/1/5
f 487/3/5 483/3/5 486/3/5
f 488/1/5 484/1/5 487/1/5
f 489/1/5 485/1/5 481/1/5
f 490/2/5 486/2/5 485/2/5
f 490/1/5 485/1/5 489/1/5
f 490/2/5 487/2/5 486/2/5
f 490/2/5 488/2/5 487/2/5
f 491/1/5 484/1/5 488/1/5
f 491/2/5 488/2/5 490/2/5
f 492/1/5 484/1/5 491/1/5
f 493/3/5 490/3/5 489/3/5
f 494/2/5 491/2/5 490/2/5
f 494/3/5 490/3/5 493/3/5
f 495/3/5 492/3/5 491/3/5
f 495/2/5 491/2/5 494/2/5
f 496/3/5 492/3/5 495/3/5
f 497/1/5 494/1/5 493/1/5
f 497/2/5 495/2/5 494/2/5
f 498/2/5 495/2/5 497/2/5
f 499/2/5 495/2/5 498/2/5
f 500/1/5 496/1/5 495/1/5
f 500/2/5 495/2/5 499/2/5
f 501/1/5 497/1/5 493/1/5
f 501/1/5 498/1/5 497/1/5
f 502/3/5 499/3/5 498/3/5
f 502/1/5 498/1/5 501/1/5
f 503/1/5 500/1/5 499/1/5
f 503/3/5 499/3/5 502/3/5
f 504/1/5 496/1/5 500/1/5
f 504/1/5 500/1/5 503/1/5
f 507/1/5 506/1/5 505/1/5
f 508/1/5 506/1/5 507/1/5
f 513/1/5 510/1/5 509/1/5
f 514/1/5 510/1/5 513/1/5
f 515/1/5 512/1/5 511/1/5
f 516/1/5 512/1/5 515/1/5
f 519/3/5 518/3/5 517/3/5
f 520/3/5 518/3/5 519/3/5
f 523/1/5 522/1/5 521/1/5
f 524/1/5 522/1/5 523/1/5
f 527/1/5 526/1/5 525/1/5
f 528/1/5 526/1/5 527/1/5
f 529/2/6 530/2/6 533/2/6
f 533/2/6 530/2/6 534/2/6
f 531/2/6 532/2/6 535/2/6
f 535/2/6 532/2/6 536/2/6
f 537/2/6 538/2/6 541/2/6
f 541/2/6 538/2/6 542/2/6
f 539/2/6 540/2/6 543/2/6
f 543/2/6 540/2/6 544/2/6
f 545/3/6 546/3/6 547/3/6
f 547/3/6 546/3/6 548/3/6
f 548/3/6 546/3/6 549/3/6
f 548/3/6 549/3/6 551/3/6
f 549/3/6 550/3/6 551/3/6
f 551/3/6 550/3/6 552/3/6
f 553/2/6 554/2/6 555/2/6
f 555/2/6 554/2/6 556/2/6
f 557/3/6 558/3/6 559/3/6
f 559/3/6 558/3/6 560/3/6
f 561/2/6 562/2/6 565/2/6
f 565/2/6 562/2/6 566/2/6
f 563/2/6 564/2/6 567/2/6
f 567/2/6 564/2/6 568/2/6
f 568/2/6 564/2/6 569/2/6
f 569/3/6 570/3/6 571/3/6
f 568/3/6 569/3/6 571/3/6
f 571/3/6 570/3/6 572/3/6
f 571/2/6 572/2/6 576/2/6
f 572/3/6 573/3/6 576/3/6
f 576/3/6 573/3/6 577/3/6
f 574/3/6 575/3/6 579/3/6
f 579/3/6 575/3/6 580/3/6
f 577/2/6 578/2/6 583/2/6
f 571/2/6 576/2/6 583/2/6
f 576/2/6 577/2/6 583/2/6
f 583/2/6 578/2/6 584/2/6
f 581/2/6 582/2/6 585/2/6
f 585/2/6 582/2/6 586/2/6
f 584/2/6 578/2/6 587/2/6
f 587/2/6 578/2/6 588/2/6
f 589/3/6 590/3/6 591/3/6
f 591/3/6 590/3/6 592/3/6
f 592/3/6 590/3/6 593/3/6
f 593/3/6 594/3/6 597/3/6
f 597/3/6 594/3/6 598/3/6
f 595/3/6 596/3/6 599/3/6
f 596/3/6 597/3/6 599/3/6
f 599/3/6 597/3/6 600/3/6
f 600/3/6 597/3/6 601/3/6
f 602/3/6 603/3/6 604/3/6
f 604/3/6 603/3/6 605/3/6
f 605/3/6 603/3/6 606/3/6
f 607/3/6 608/3/6 609/3/6
f 609/3/6 608/3/6 610/3/6
f 611/3/6 612/3/6 613/3/6
f 613/3/6 612/3/6 614/3/6
f 615/3/6 616/3/6 617/3/6
f 617/3/6 616/3/6 618/3/6
f 619/3/6 620/3/6 621/3/6
f 621/3/6 620/3/6 622/3/6
f 623/3/6 624/3/6 625/3/6
f 625/3/6 624/3/6 626/3/6
f 627/3/6 628/3/6 629/3/6
f 629/3/6 628/3/6 630/3/6
f 631/2/6 632/2/6 633/2/6
f 631/2/6 633/2/6 635/2/6
f 633/2/6 634/2/6 635/2/6
f 635/2/6 634/2/6 636/2/6
f 636/2/6 634/2/6 637/2/6
f 638/2/6 639/2/6 640/2/6
f 640/2/6 639/2/6 641/2/6
f 638/2/6 640/2/6 643/2/6
f 642/3/6 643/3/6 644/3/6
f 643/2/6 640/2/6 645/2/6
f 644/3/6 643/3/6 645/3/6
f 640/1/6 641/1/6 646/1/6
f 645/2/6 640/2/6 646/2/6
f 644/2/6 645/2/6 646/2/6
f 646/1/6 641/1/6 647/1/6
f 646/2/6 647/2/6 649/2/6
f 644/2/6 646/2/6 649/2/6
f 647/3/6 648/3/6 650/3/6
f 649/2/6 647/2/6 650/2/6
f 650/3/6 648/3/6 651/3/6
f 652/3/6 653/3/6 654/3/6
f 654/3/6 653/3/6 655/3/6
